<svg width="1920" height="1080" viewBox="0 0 1920 1080" fill="none" xmlns="http://www.w3.org/2000/svg">
<rect width="1920" height="1080" fill="#282C35"/>
<rect x="260" y="240" width="1086" height="399" rx="20" fill="#1A1C22"/>
<rect x="260" y="660" width="530" height="400" rx="20" fill="#1A1C22"/>
<rect x="810" y="660" width="540" height="400" rx="20" fill="#1A1C22"/>
<rect x="831" y="737" width="71" height="71" rx="8.32639" fill="#282C35"/>
<g clip-path="url(#clip0_110_12)">
<path d="M875.394 757.71H857.631C856.003 757.71 854.671 759.043 854.671 760.671V784.354C854.671 785.983 856.003 787.315 857.631 787.315H875.394C877.022 787.315 878.354 785.983 878.354 784.354V760.671C878.354 759.043 877.022 757.71 875.394 757.71ZM857.631 760.671H865.032V772.513L861.332 770.292L857.631 772.513V760.671Z" fill="#0A66C2"/>
</g>
<rect x="831" y="844" width="71.0002" height="71.0002" rx="11.6667" fill="#282C35"/>
<g clip-path="url(#clip1_110_12)">
<path d="M876.518 877.675C875.233 877.675 874.183 878.726 874.183 880.01V883.512H857.838V880.01C857.838 878.726 856.798 877.675 855.503 877.675C854.207 877.675 853.168 878.726 853.168 880.01V885.847C853.168 887.132 854.218 888.182 855.503 888.182H876.518C877.802 888.182 878.853 887.132 878.853 885.847V880.01C878.853 878.726 877.802 877.675 876.518 877.675ZM873.015 871.837H859.005C857.721 871.837 856.67 872.888 856.67 874.172V876.683C858.024 877.161 859.005 878.457 859.005 879.963V882.345H873.015V879.975C873.015 878.457 873.996 877.173 875.35 876.694V874.172C875.35 872.888 874.299 871.837 873.015 871.837Z" fill="#0A66C2"/>
</g>
<rect x="831" y="950" width="71.0002" height="71.0002" rx="11.6667" fill="#282C35"/>
<g clip-path="url(#clip2_110_12)">
<path d="M879.835 972.191H853.191C851.548 972.191 850.23 973.508 850.23 975.151V992.914C850.23 994.542 851.548 995.874 853.191 995.874H860.592V998.835H872.434V995.874H879.835C881.463 995.874 882.78 994.542 882.78 992.914L882.795 975.151C882.795 973.508 881.463 972.191 879.835 972.191ZM879.835 992.914H853.191V975.151H879.835V992.914ZM872.434 984.032L862.072 989.953V978.111L872.434 984.032Z" fill="#0A66C2"/>
</g>
<rect x="1370" y="660" width="530" height="400" rx="20" fill="#1A1C22"/>
<rect x="1370" y="240" width="530" height="400" rx="20" fill="#1A1C22"/>
<rect x="260" y="110" width="290" height="110" rx="20" fill="#1A1C22"/>
<rect x="281" y="138" width="54" height="54" rx="11.4488" fill="#282C35"/>
<g clip-path="url(#clip3_110_12)">
<g clip-path="url(#clip4_110_12)">
<path d="M306.384 161.132H308.636V157.755H312.013V155.503H308.636V152.126H306.384V155.503H303.007V157.755H306.384V161.132ZM301.881 171.265C300.642 171.265 299.64 172.278 299.64 173.517C299.64 174.755 300.642 175.768 301.881 175.768C303.119 175.768 304.133 174.755 304.133 173.517C304.133 172.278 303.119 171.265 301.881 171.265ZM313.139 171.265C311.901 171.265 310.899 172.278 310.899 173.517C310.899 174.755 311.901 175.768 313.139 175.768C314.378 175.768 315.391 174.755 315.391 173.517C315.391 172.278 314.378 171.265 313.139 171.265ZM302.072 167.606L302.106 167.471L303.119 165.636H311.507C312.351 165.636 313.094 165.174 313.477 164.476L317.823 156.584L315.864 155.503H315.852L314.614 157.755L311.507 163.384H303.603L303.457 163.08L300.935 157.755L299.866 155.503L298.807 153.252H295.126V155.503H297.378L301.431 164.048L299.911 166.807C299.731 167.122 299.629 167.493 299.629 167.887C299.629 169.126 300.642 170.139 301.881 170.139H315.391V167.887H302.354C302.207 167.887 302.072 167.764 302.072 167.606Z" fill="#0A66C2"/>
</g>
</g>
<rect x="880" y="110" width="290" height="110" rx="20" fill="#1A1C22"/>
<rect x="902" y="138" width="54" height="54" rx="11.4488" fill="#282C35"/>
<g clip-path="url(#clip5_110_12)">
<path d="M936.391 154.378H920.629C919.391 154.378 918.377 155.391 918.377 156.629V172.391C918.377 173.629 919.391 174.643 920.629 174.643H936.391C937.629 174.643 938.642 173.629 938.642 172.391V156.629C938.642 155.391 937.629 154.378 936.391 154.378ZM925.132 170.139H922.881V162.258H925.132V170.139ZM929.636 170.139H927.384V158.881H929.636V170.139ZM934.139 170.139H931.887V165.636H934.139V170.139Z" fill="#0A66C2"/>
</g>
<rect x="570" y="110" width="290" height="110" rx="20" fill="#1A1C22"/>
<rect x="591" y="138" width="54" height="54" rx="11.4488" fill="#282C35"/>
<g clip-path="url(#clip6_110_12)">
<path d="M623.139 156.629H607.377C606.139 156.629 605.126 157.631 605.126 158.881V169.013H607.377C607.377 170.871 608.886 172.391 610.755 172.391C612.624 172.391 614.132 170.871 614.132 169.013H620.325C620.325 170.871 621.833 172.391 623.702 172.391C625.571 172.391 627.08 170.871 627.08 169.013H629.894V163.384L623.139 156.629ZM607.377 163.384V158.881H611.881V163.384H607.377ZM610.755 170.702C609.821 170.702 609.066 169.948 609.066 169.013C609.066 168.079 609.821 167.325 610.755 167.325C611.689 167.325 612.444 168.079 612.444 169.013C612.444 169.948 611.689 170.702 610.755 170.702ZM618.636 163.384H614.132V158.881H618.636V163.384ZM623.702 170.702C622.768 170.702 622.013 169.948 622.013 169.013C622.013 168.079 622.768 167.325 623.702 167.325C624.637 167.325 625.391 168.079 625.391 169.013C625.391 169.948 624.637 170.702 623.702 170.702ZM620.887 163.384V158.881H622.013L626.517 163.384H620.887Z" fill="#0A66C2"/>
</g>
<rect x="1190" y="110" width="290" height="110" rx="20" fill="#1A1C22"/>
<rect x="1211" y="138" width="54" height="54" rx="11.4488" fill="#282C35"/>
<g clip-path="url(#clip7_110_12)">
<path d="M1242.01 164.384C1243.88 164.384 1245.38 162.876 1245.38 161.007C1245.38 159.138 1243.88 157.629 1242.01 157.629C1240.14 157.629 1238.64 159.138 1238.64 161.007C1238.64 162.876 1240.14 164.384 1242.01 164.384ZM1233.01 164.384C1234.88 164.384 1236.37 162.876 1236.37 161.007C1236.37 159.138 1234.88 157.629 1233.01 157.629C1231.14 157.629 1229.63 159.138 1229.63 161.007C1229.63 162.876 1231.14 164.384 1233.01 164.384ZM1233.01 166.636C1230.38 166.636 1225.13 167.953 1225.13 170.576V173.391H1240.89V170.576C1240.89 167.953 1235.63 166.636 1233.01 166.636ZM1242.01 166.636C1241.69 166.636 1241.32 166.658 1240.92 166.692C1242.23 167.638 1243.14 168.91 1243.14 170.576V173.391H1249.89V170.576C1249.89 167.953 1244.64 166.636 1242.01 166.636Z" fill="#0A66C2"/>
</g>
<rect x="1500" y="110" width="400" height="110" rx="20" fill="#1A1C22"/>
<rect y="90" width="240" height="990" fill="#1A1C22"/>
<path d="M34.844 252.283C35.0245 252.178 35.1745 252.028 35.2787 251.848C35.3829 251.667 35.4378 251.462 35.4377 251.254V240.566C35.4367 240.377 35.3903 240.191 35.3026 240.023C35.2149 239.855 35.0884 239.711 34.9335 239.602C34.7787 239.493 34.6001 239.423 34.4125 239.397C34.2249 239.371 34.0339 239.39 33.8554 239.453C30.3893 240.68 27.4745 243.103 25.6349 246.286C23.7953 249.47 23.1516 253.205 23.8195 256.82C23.8541 257.007 23.9331 257.183 24.0499 257.333C24.1667 257.483 24.3177 257.603 24.4905 257.683C24.6461 257.756 24.8159 257.793 24.9877 257.793C25.1961 257.793 25.4009 257.738 25.5815 257.634L34.844 252.283ZM33.0627 242.365V250.568L25.9555 254.669C25.9377 254.445 25.9377 254.22 25.9377 254C25.9398 251.593 26.6061 249.233 27.8632 247.18C29.1204 245.127 30.9196 243.461 33.0627 242.365ZM54.4377 254C54.4389 257.389 53.3248 260.684 51.2674 263.377C49.2099 266.07 46.3235 268.011 43.0534 268.901C39.7833 269.791 36.3112 269.58 33.1729 268.301C30.0346 267.021 27.4045 264.745 25.6883 261.823C25.6083 261.688 25.5559 261.538 25.534 261.383C25.5121 261.227 25.5213 261.069 25.5609 260.917C25.6005 260.766 25.6698 260.623 25.7648 260.498C25.8598 260.373 25.9786 260.269 26.1144 260.19L37.8127 253.381V239.75C37.8127 239.435 37.9378 239.133 38.1605 238.91C38.3832 238.688 38.6853 238.562 39.0002 238.562C41.6942 238.564 44.3409 239.27 46.6777 240.61C49.0144 241.951 50.9599 243.879 52.321 246.204C52.3373 246.228 52.3522 246.252 52.367 246.277C52.3819 246.302 52.3967 246.332 52.4101 246.358C53.742 248.685 54.4411 251.319 54.4377 254Z" fill="#0A66C2"/>
<path d="M80.15 246.556C81.778 246.556 83.2007 246.879 84.418 247.524C85.6353 248.169 86.574 249.079 87.234 250.252C87.9087 251.411 88.246 252.753 88.246 254.278C88.246 255.789 87.9087 257.131 87.234 258.304C86.574 259.477 85.628 260.387 84.396 261.032C83.1787 261.677 81.7633 262 80.15 262H74.364V246.556H80.15ZM79.908 258.744C81.3307 258.744 82.438 258.355 83.23 257.578C84.022 256.801 84.418 255.701 84.418 254.278C84.418 252.855 84.022 251.748 83.23 250.956C82.438 250.164 81.3307 249.768 79.908 249.768H78.126V258.744H79.908ZM89.6004 255.84C89.6004 254.579 89.835 253.471 90.3044 252.518C90.7884 251.565 91.441 250.831 92.2624 250.318C93.0837 249.805 94.0004 249.548 95.0124 249.548C95.8777 249.548 96.633 249.724 97.2784 250.076C97.9384 250.428 98.4444 250.89 98.7964 251.462V249.724H102.558V262H98.7964V260.262C98.4297 260.834 97.9164 261.296 97.2564 261.648C96.611 262 95.8557 262.176 94.9904 262.176C93.993 262.176 93.0837 261.919 92.2624 261.406C91.441 260.878 90.7884 260.137 90.3044 259.184C89.835 258.216 89.6004 257.101 89.6004 255.84ZM98.7964 255.862C98.7964 254.923 98.5324 254.183 98.0044 253.64C97.491 253.097 96.8604 252.826 96.1124 252.826C95.3644 252.826 94.7264 253.097 94.1984 253.64C93.685 254.168 93.4284 254.901 93.4284 255.84C93.4284 256.779 93.685 257.527 94.1984 258.084C94.7264 258.627 95.3644 258.898 96.1124 258.898C96.8604 258.898 97.491 258.627 98.0044 258.084C98.5324 257.541 98.7964 256.801 98.7964 255.862ZM110.274 262.176C109.203 262.176 108.25 261.993 107.414 261.626C106.578 261.259 105.918 260.761 105.434 260.13C104.95 259.485 104.679 258.766 104.62 257.974H108.338C108.382 258.399 108.58 258.744 108.932 259.008C109.284 259.272 109.717 259.404 110.23 259.404C110.699 259.404 111.059 259.316 111.308 259.14C111.572 258.949 111.704 258.707 111.704 258.414C111.704 258.062 111.521 257.805 111.154 257.644C110.787 257.468 110.193 257.277 109.372 257.072C108.492 256.867 107.759 256.654 107.172 256.434C106.585 256.199 106.079 255.84 105.654 255.356C105.229 254.857 105.016 254.19 105.016 253.354C105.016 252.65 105.207 252.012 105.588 251.44C105.984 250.853 106.556 250.391 107.304 250.054C108.067 249.717 108.969 249.548 110.01 249.548C111.55 249.548 112.76 249.929 113.64 250.692C114.535 251.455 115.048 252.467 115.18 253.728H111.704C111.645 253.303 111.455 252.965 111.132 252.716C110.824 252.467 110.413 252.342 109.9 252.342C109.46 252.342 109.123 252.43 108.888 252.606C108.653 252.767 108.536 252.995 108.536 253.288C108.536 253.64 108.719 253.904 109.086 254.08C109.467 254.256 110.054 254.432 110.846 254.608C111.755 254.843 112.496 255.077 113.068 255.312C113.64 255.532 114.139 255.899 114.564 256.412C115.004 256.911 115.231 257.585 115.246 258.436C115.246 259.155 115.041 259.8 114.63 260.372C114.234 260.929 113.655 261.369 112.892 261.692C112.144 262.015 111.271 262.176 110.274 262.176ZM125.094 249.592C126.502 249.592 127.631 250.061 128.482 251C129.332 251.924 129.758 253.2 129.758 254.828V262H126.018V255.334C126.018 254.513 125.805 253.875 125.38 253.42C124.954 252.965 124.382 252.738 123.664 252.738C122.945 252.738 122.373 252.965 121.948 253.42C121.522 253.875 121.31 254.513 121.31 255.334V262H117.548V245.72H121.31V251.374C121.691 250.831 122.212 250.399 122.872 250.076C123.532 249.753 124.272 249.592 125.094 249.592ZM136.134 251.462C136.486 250.89 136.992 250.428 137.652 250.076C138.312 249.724 139.067 249.548 139.918 249.548C140.93 249.548 141.846 249.805 142.668 250.318C143.489 250.831 144.134 251.565 144.604 252.518C145.088 253.471 145.33 254.579 145.33 255.84C145.33 257.101 145.088 258.216 144.604 259.184C144.134 260.137 143.489 260.878 142.668 261.406C141.846 261.919 140.93 262.176 139.918 262.176C139.052 262.176 138.297 262.007 137.652 261.67C137.006 261.318 136.5 260.856 136.134 260.284V262H132.372V245.72H136.134V251.462ZM141.502 255.84C141.502 254.901 141.238 254.168 140.71 253.64C140.196 253.097 139.558 252.826 138.796 252.826C138.048 252.826 137.41 253.097 136.882 253.64C136.368 254.183 136.112 254.923 136.112 255.862C136.112 256.801 136.368 257.541 136.882 258.084C137.41 258.627 138.048 258.898 138.796 258.898C139.544 258.898 140.182 258.627 140.71 258.084C141.238 257.527 141.502 256.779 141.502 255.84ZM152.891 262.176C151.689 262.176 150.603 261.919 149.635 261.406C148.682 260.893 147.927 260.159 147.369 259.206C146.827 258.253 146.555 257.138 146.555 255.862C146.555 254.601 146.834 253.493 147.391 252.54C147.949 251.572 148.711 250.831 149.679 250.318C150.647 249.805 151.733 249.548 152.935 249.548C154.138 249.548 155.223 249.805 156.191 250.318C157.159 250.831 157.922 251.572 158.479 252.54C159.037 253.493 159.315 254.601 159.315 255.862C159.315 257.123 159.029 258.238 158.457 259.206C157.9 260.159 157.13 260.893 156.147 261.406C155.179 261.919 154.094 262.176 152.891 262.176ZM152.891 258.92C153.61 258.92 154.219 258.656 154.717 258.128C155.231 257.6 155.487 256.845 155.487 255.862C155.487 254.879 155.238 254.124 154.739 253.596C154.255 253.068 153.654 252.804 152.935 252.804C152.202 252.804 151.593 253.068 151.109 253.596C150.625 254.109 150.383 254.865 150.383 255.862C150.383 256.845 150.618 257.6 151.087 258.128C151.571 258.656 152.173 258.92 152.891 258.92ZM160.563 255.84C160.563 254.579 160.798 253.471 161.267 252.518C161.751 251.565 162.404 250.831 163.225 250.318C164.047 249.805 164.963 249.548 165.975 249.548C166.841 249.548 167.596 249.724 168.241 250.076C168.901 250.428 169.407 250.89 169.759 251.462V249.724H173.521V262H169.759V260.262C169.393 260.834 168.879 261.296 168.219 261.648C167.574 262 166.819 262.176 165.953 262.176C164.956 262.176 164.047 261.919 163.225 261.406C162.404 260.878 161.751 260.137 161.267 259.184C160.798 258.216 160.563 257.101 160.563 255.84ZM169.759 255.862C169.759 254.923 169.495 254.183 168.967 253.64C168.454 253.097 167.823 252.826 167.075 252.826C166.327 252.826 165.689 253.097 165.161 253.64C164.648 254.168 164.391 254.901 164.391 255.84C164.391 256.779 164.648 257.527 165.161 258.084C165.689 258.627 166.327 258.898 167.075 258.898C167.823 258.898 168.454 258.627 168.967 258.084C169.495 257.541 169.759 256.801 169.759 255.862ZM180.005 251.77C180.445 251.095 180.995 250.567 181.655 250.186C182.315 249.79 183.048 249.592 183.855 249.592V253.574H182.821C181.882 253.574 181.178 253.779 180.709 254.19C180.24 254.586 180.005 255.29 180.005 256.302V262H176.243V249.724H180.005V251.77ZM184.905 255.84C184.905 254.579 185.14 253.471 185.609 252.518C186.093 251.565 186.746 250.831 187.567 250.318C188.388 249.805 189.305 249.548 190.317 249.548C191.124 249.548 191.857 249.717 192.517 250.054C193.192 250.391 193.72 250.846 194.101 251.418V245.72H197.863V262H194.101V260.24C193.749 260.827 193.243 261.296 192.583 261.648C191.938 262 191.182 262.176 190.317 262.176C189.305 262.176 188.388 261.919 187.567 261.406C186.746 260.878 186.093 260.137 185.609 259.184C185.14 258.216 184.905 257.101 184.905 255.84ZM194.101 255.862C194.101 254.923 193.837 254.183 193.309 253.64C192.796 253.097 192.165 252.826 191.417 252.826C190.669 252.826 190.031 253.097 189.503 253.64C188.99 254.168 188.733 254.901 188.733 255.84C188.733 256.779 188.99 257.527 189.503 258.084C190.031 258.627 190.669 258.898 191.417 258.898C192.165 258.898 192.796 258.627 193.309 258.084C193.837 257.541 194.101 256.801 194.101 255.862Z" fill="#0A66C2"/>
<path d="M92.854 327.556V343H89.092V333.738L85.638 343H82.602L79.126 333.716V343H75.364V327.556H79.808L84.142 338.248L88.432 327.556H92.854ZM94.8113 336.84C94.8113 335.579 95.046 334.471 95.5153 333.518C95.9993 332.565 96.652 331.831 97.4733 331.318C98.2946 330.805 99.2113 330.548 100.223 330.548C101.089 330.548 101.844 330.724 102.489 331.076C103.149 331.428 103.655 331.89 104.007 332.462V330.724H107.769V343H104.007V341.262C103.641 341.834 103.127 342.296 102.467 342.648C101.822 343 101.067 343.176 100.201 343.176C99.204 343.176 98.2946 342.919 97.4733 342.406C96.652 341.878 95.9993 341.137 95.5153 340.184C95.046 339.216 94.8113 338.101 94.8113 336.84ZM104.007 336.862C104.007 335.923 103.743 335.183 103.215 334.64C102.702 334.097 102.071 333.826 101.323 333.826C100.575 333.826 99.9373 334.097 99.4093 334.64C98.896 335.168 98.6393 335.901 98.6393 336.84C98.6393 337.779 98.896 338.527 99.4093 339.084C99.9373 339.627 100.575 339.898 101.323 339.898C102.071 339.898 102.702 339.627 103.215 339.084C103.743 338.541 104.007 337.801 104.007 336.862ZM114.253 332.462C114.62 331.89 115.126 331.428 115.771 331.076C116.416 330.724 117.172 330.548 118.037 330.548C119.049 330.548 119.966 330.805 120.787 331.318C121.608 331.831 122.254 332.565 122.723 333.518C123.207 334.471 123.449 335.579 123.449 336.84C123.449 338.101 123.207 339.216 122.723 340.184C122.254 341.137 121.608 341.878 120.787 342.406C119.966 342.919 119.049 343.176 118.037 343.176C117.186 343.176 116.431 343 115.771 342.648C115.126 342.296 114.62 341.841 114.253 341.284V348.852H110.491V330.724H114.253V332.462ZM119.621 336.84C119.621 335.901 119.357 335.168 118.829 334.64C118.316 334.097 117.678 333.826 116.915 333.826C116.167 333.826 115.529 334.097 115.001 334.64C114.488 335.183 114.231 335.923 114.231 336.862C114.231 337.801 114.488 338.541 115.001 339.084C115.529 339.627 116.167 339.898 116.915 339.898C117.663 339.898 118.301 339.627 118.829 339.084C119.357 338.527 119.621 337.779 119.621 336.84ZM124.675 336.84C124.675 335.579 124.909 334.471 125.379 333.518C125.863 332.565 126.515 331.831 127.337 331.318C128.158 330.805 129.075 330.548 130.087 330.548C130.952 330.548 131.707 330.724 132.353 331.076C133.013 331.428 133.519 331.89 133.871 332.462V330.724H137.633V343H133.871V341.262C133.504 341.834 132.991 342.296 132.331 342.648C131.685 343 130.93 343.176 130.065 343.176C129.067 343.176 128.158 342.919 127.337 342.406C126.515 341.878 125.863 341.137 125.379 340.184C124.909 339.216 124.675 338.101 124.675 336.84ZM133.871 336.862C133.871 335.923 133.607 335.183 133.079 334.64C132.565 334.097 131.935 333.826 131.187 333.826C130.439 333.826 129.801 334.097 129.273 334.64C128.759 335.168 128.503 335.901 128.503 336.84C128.503 337.779 128.759 338.527 129.273 339.084C129.801 339.627 130.439 339.898 131.187 339.898C131.935 339.898 132.565 339.627 133.079 339.084C133.607 338.541 133.871 337.801 133.871 336.862Z" fill="#A9A9A9"/>
<g clip-path="url(#clip8_110_12)">
<path d="M52.4583 323.75L52.205 323.797L43.75 327.075L34.25 323.75L25.32 326.758C24.9875 326.869 24.75 327.154 24.75 327.518V351.458C24.75 351.902 25.0983 352.25 25.5417 352.25L25.795 352.202L34.25 348.925L43.75 352.25L52.68 349.242C53.0125 349.131 53.25 348.846 53.25 348.482V324.542C53.25 324.098 52.9017 323.75 52.4583 323.75ZM35.8333 327.661L42.1667 329.877V348.339L35.8333 346.122V327.661ZM27.9167 329.228L32.6667 327.629V346.154L27.9167 347.991V329.228ZM50.0833 346.772L45.3333 348.371V329.862L50.0833 328.025V346.772Z" fill="#A9A9A9"/>
</g>
<rect y="1" width="1920" height="89" fill="#1A1C22"/>
<path d="M93.992 50L87.536 42.536V50H84.8V33.32H87.536V40.928L94.016 33.32H97.448L90.2 41.672L97.568 50H93.992ZM99.0755 43.328C99.0755 42 99.3475 40.824 99.8915 39.8C100.452 38.776 101.204 37.984 102.148 37.424C103.108 36.848 104.164 36.56 105.316 36.56C106.356 36.56 107.26 36.768 108.028 37.184C108.812 37.584 109.436 38.088 109.9 38.696V36.776H112.66V50H109.9V48.032C109.436 48.656 108.804 49.176 108.004 49.592C107.204 50.008 106.292 50.216 105.268 50.216C104.132 50.216 103.092 49.928 102.148 49.352C101.204 48.76 100.452 47.944 99.8915 46.904C99.3475 45.848 99.0755 44.656 99.0755 43.328ZM109.9 43.376C109.9 42.464 109.708 41.672 109.324 41C108.956 40.328 108.468 39.816 107.86 39.464C107.252 39.112 106.596 38.936 105.892 38.936C105.188 38.936 104.532 39.112 103.924 39.464C103.316 39.8 102.82 40.304 102.436 40.976C102.068 41.632 101.884 42.416 101.884 43.328C101.884 44.24 102.068 45.04 102.436 45.728C102.82 46.416 103.316 46.944 103.924 47.312C104.548 47.664 105.204 47.84 105.892 47.84C106.596 47.84 107.252 47.664 107.86 47.312C108.468 46.96 108.956 46.448 109.324 45.776C109.708 45.088 109.9 44.288 109.9 43.376ZM117.645 35.024C117.149 35.024 116.733 34.856 116.397 34.52C116.061 34.184 115.893 33.768 115.893 33.272C115.893 32.776 116.061 32.36 116.397 32.024C116.733 31.688 117.149 31.52 117.645 31.52C118.125 31.52 118.533 31.688 118.869 32.024C119.205 32.36 119.373 32.776 119.373 33.272C119.373 33.768 119.205 34.184 118.869 34.52C118.533 34.856 118.125 35.024 117.645 35.024ZM118.989 36.776V50H116.253V36.776H118.989ZM128.317 50.216C127.069 50.216 125.941 49.936 124.933 49.376C123.925 48.8 123.133 48 122.557 46.976C121.981 45.936 121.693 44.736 121.693 43.376C121.693 42.032 121.989 40.84 122.581 39.8C123.173 38.76 123.981 37.96 125.005 37.4C126.029 36.84 127.173 36.56 128.437 36.56C129.701 36.56 130.845 36.84 131.869 37.4C132.893 37.96 133.701 38.76 134.293 39.8C134.885 40.84 135.181 42.032 135.181 43.376C135.181 44.72 134.877 45.912 134.269 46.952C133.661 47.992 132.829 48.8 131.773 49.376C130.733 49.936 129.581 50.216 128.317 50.216ZM128.317 47.84C129.021 47.84 129.677 47.672 130.285 47.336C130.909 47 131.413 46.496 131.797 45.824C132.181 45.152 132.373 44.336 132.373 43.376C132.373 42.416 132.189 41.608 131.821 40.952C131.453 40.28 130.965 39.776 130.357 39.44C129.749 39.104 129.093 38.936 128.389 38.936C127.685 38.936 127.029 39.104 126.421 39.44C125.829 39.776 125.357 40.28 125.005 40.952C124.653 41.608 124.477 42.416 124.477 43.376C124.477 44.8 124.837 45.904 125.557 46.688C126.293 47.456 127.213 47.84 128.317 47.84ZM152.784 50L148.944 43.328H146.856V50H144.12V33.32H149.88C151.16 33.32 152.24 33.544 153.12 33.992C154.016 34.44 154.68 35.04 155.112 35.792C155.56 36.544 155.784 37.384 155.784 38.312C155.784 39.4 155.464 40.392 154.824 41.288C154.2 42.168 153.232 42.768 151.92 43.088L156.048 50H152.784ZM146.856 41.144H149.88C150.904 41.144 151.672 40.888 152.184 40.376C152.712 39.864 152.976 39.176 152.976 38.312C152.976 37.448 152.72 36.776 152.208 36.296C151.696 35.8 150.92 35.552 149.88 35.552H146.856V41.144ZM160.676 35.024C160.18 35.024 159.764 34.856 159.428 34.52C159.092 34.184 158.924 33.768 158.924 33.272C158.924 32.776 159.092 32.36 159.428 32.024C159.764 31.688 160.18 31.52 160.676 31.52C161.156 31.52 161.564 31.688 161.9 32.024C162.236 32.36 162.404 32.776 162.404 33.272C162.404 33.768 162.236 34.184 161.9 34.52C161.564 34.856 161.156 35.024 160.676 35.024ZM162.02 36.776V50H159.284V36.776H162.02ZM168.349 38.744C168.813 38.104 169.445 37.584 170.245 37.184C171.061 36.768 171.965 36.56 172.957 36.56C174.125 36.56 175.181 36.84 176.125 37.4C177.069 37.96 177.813 38.76 178.357 39.8C178.901 40.824 179.173 42 179.173 43.328C179.173 44.656 178.901 45.848 178.357 46.904C177.813 47.944 177.061 48.76 176.101 49.352C175.157 49.928 174.109 50.216 172.957 50.216C171.933 50.216 171.021 50.016 170.221 49.616C169.437 49.216 168.813 48.704 168.349 48.08V50H165.613V32.24H168.349V38.744ZM176.389 43.328C176.389 42.416 176.197 41.632 175.812 40.976C175.445 40.304 174.949 39.8 174.325 39.464C173.717 39.112 173.061 38.936 172.357 38.936C171.669 38.936 171.013 39.112 170.389 39.464C169.781 39.816 169.285 40.328 168.901 41C168.533 41.672 168.349 42.464 168.349 43.376C168.349 44.288 168.533 45.088 168.901 45.776C169.285 46.448 169.781 46.96 170.389 47.312C171.013 47.664 171.669 47.84 172.357 47.84C173.061 47.84 173.717 47.664 174.325 47.312C174.949 46.944 175.445 46.416 175.812 45.728C176.197 45.04 176.389 44.24 176.389 43.328ZM193.998 43.064C193.998 43.56 193.966 44.008 193.902 44.408H183.798C183.878 45.464 184.27 46.312 184.974 46.952C185.678 47.592 186.542 47.912 187.566 47.912C189.038 47.912 190.078 47.296 190.686 46.064H193.638C193.238 47.28 192.51 48.28 191.454 49.064C190.414 49.832 189.118 50.216 187.566 50.216C186.302 50.216 185.166 49.936 184.158 49.376C183.166 48.8 182.382 48 181.806 46.976C181.246 45.936 180.966 44.736 180.966 43.376C180.966 42.016 181.238 40.824 181.782 39.8C182.342 38.76 183.118 37.96 184.11 37.4C185.118 36.84 186.27 36.56 187.566 36.56C188.814 36.56 189.926 36.832 190.902 37.376C191.878 37.92 192.638 38.688 193.182 39.68C193.726 40.656 193.998 41.784 193.998 43.064ZM191.142 42.2C191.126 41.192 190.766 40.384 190.062 39.776C189.358 39.168 188.486 38.864 187.446 38.864C186.502 38.864 185.694 39.168 185.022 39.776C184.35 40.368 183.95 41.176 183.822 42.2H191.142ZM198.083 35.024C197.587 35.024 197.171 34.856 196.835 34.52C196.499 34.184 196.331 33.768 196.331 33.272C196.331 32.776 196.499 32.36 196.835 32.024C197.171 31.688 197.587 31.52 198.083 31.52C198.563 31.52 198.971 31.688 199.307 32.024C199.643 32.36 199.811 32.776 199.811 33.272C199.811 33.768 199.643 34.184 199.307 34.52C198.971 34.856 198.563 35.024 198.083 35.024ZM199.427 36.776V50H196.691V36.776H199.427ZM205.755 38.696C206.155 38.024 206.683 37.504 207.339 37.136C208.011 36.752 208.803 36.56 209.715 36.56V39.392H209.019C207.947 39.392 207.131 39.664 206.571 40.208C206.027 40.752 205.755 41.696 205.755 43.04V50H203.019V36.776H205.755V38.696ZM217.966 50.216C216.718 50.216 215.59 49.936 214.582 49.376C213.574 48.8 212.782 48 212.206 46.976C211.63 45.936 211.342 44.736 211.342 43.376C211.342 42.032 211.638 40.84 212.23 39.8C212.822 38.76 213.63 37.96 214.654 37.4C215.678 36.84 216.822 36.56 218.086 36.56C219.35 36.56 220.494 36.84 221.518 37.4C222.542 37.96 223.35 38.76 223.942 39.8C224.534 40.84 224.83 42.032 224.83 43.376C224.83 44.72 224.526 45.912 223.918 46.952C223.31 47.992 222.478 48.8 221.422 49.376C220.382 49.936 219.23 50.216 217.966 50.216ZM217.966 47.84C218.67 47.84 219.326 47.672 219.934 47.336C220.558 47 221.062 46.496 221.446 45.824C221.83 45.152 222.022 44.336 222.022 43.376C222.022 42.416 221.838 41.608 221.47 40.952C221.102 40.28 220.614 39.776 220.006 39.44C219.398 39.104 218.742 38.936 218.038 38.936C217.334 38.936 216.678 39.104 216.07 39.44C215.478 39.776 215.006 40.28 214.654 40.952C214.302 41.608 214.126 42.416 214.126 43.376C214.126 44.8 214.486 45.904 215.206 46.688C215.942 47.456 216.862 47.84 217.966 47.84Z" fill="white"/>
<g clip-path="url(#clip9_110_12)">
<path d="M64.4567 18H23.5433C22.6036 18 21.7023 18.3733 21.0378 19.0378C20.3733 19.7023 20 20.6036 20 21.5433V62.4567C20 63.3964 20.3733 64.2977 21.0378 64.9622C21.7023 65.6267 22.6036 66 23.5433 66H64.4567C65.3964 66 66.2977 65.6267 66.9622 64.9622C67.6267 64.2977 68 63.3964 68 62.4567V21.5433C68 20.6036 67.6267 19.7023 66.9622 19.0378C66.2977 18.3733 65.3964 18 64.4567 18ZM34.3067 58.89H27.09V35.9667H34.3067V58.89ZM30.6933 32.79C29.8747 32.7854 29.0758 32.5384 28.3975 32.0802C27.7191 31.622 27.1917 30.9731 26.8818 30.2154C26.5718 29.4577 26.4933 28.6252 26.6561 27.8229C26.8188 27.0206 27.2156 26.2846 27.7963 25.7076C28.377 25.1306 29.1156 24.7385 29.9189 24.5809C30.7222 24.4233 31.5542 24.5072 32.3099 24.822C33.0656 25.1368 33.7111 25.6683 34.1649 26.3496C34.6188 27.0309 34.8606 27.8314 34.86 28.65C34.8677 29.1981 34.765 29.7421 34.558 30.2496C34.351 30.7571 34.044 31.2178 33.6551 31.6041C33.2663 31.9905 32.8037 32.2946 32.2948 32.4983C31.786 32.702 31.2413 32.8012 30.6933 32.79ZM60.9067 58.91H53.6933V46.3867C53.6933 42.6933 52.1233 41.5533 50.0967 41.5533C47.9567 41.5533 45.8567 43.1667 45.8567 46.48V58.91H38.64V35.9833H45.58V39.16H45.6733C46.37 37.75 48.81 35.34 52.5333 35.34C56.56 35.34 60.91 37.73 60.91 44.73L60.9067 58.91Z" fill="#0A66C2"/>
</g>
<path d="M86.134 173.528C86.134 174.423 85.9287 175.244 85.518 175.992C85.1073 176.725 84.4767 177.319 83.626 177.774C82.7753 178.229 81.7193 178.456 80.458 178.456H78.126V184H74.364V168.556H80.458C81.69 168.556 82.7313 168.769 83.582 169.194C84.4327 169.619 85.0707 170.206 85.496 170.954C85.9213 171.702 86.134 172.56 86.134 173.528ZM80.172 175.464C80.8907 175.464 81.426 175.295 81.778 174.958C82.13 174.621 82.306 174.144 82.306 173.528C82.306 172.912 82.13 172.435 81.778 172.098C81.426 171.761 80.8907 171.592 80.172 171.592H78.126V175.464H80.172ZM87.3445 177.84C87.3445 176.579 87.5792 175.471 88.0485 174.518C88.5325 173.565 89.1852 172.831 90.0065 172.318C90.8278 171.805 91.7445 171.548 92.7565 171.548C93.6218 171.548 94.3772 171.724 95.0225 172.076C95.6825 172.428 96.1885 172.89 96.5405 173.462V171.724H100.303V184H96.5405V182.262C96.1738 182.834 95.6605 183.296 95.0005 183.648C94.3552 184 93.5998 184.176 92.7345 184.176C91.7372 184.176 90.8278 183.919 90.0065 183.406C89.1852 182.878 88.5325 182.137 88.0485 181.184C87.5792 180.216 87.3445 179.101 87.3445 177.84ZM96.5405 177.862C96.5405 176.923 96.2765 176.183 95.7485 175.64C95.2352 175.097 94.6045 174.826 93.8565 174.826C93.1085 174.826 92.4705 175.097 91.9425 175.64C91.4292 176.168 91.1725 176.901 91.1725 177.84C91.1725 178.779 91.4292 179.527 91.9425 180.084C92.4705 180.627 93.1085 180.898 93.8565 180.898C94.6045 180.898 95.2352 180.627 95.7485 180.084C96.2765 179.541 96.5405 178.801 96.5405 177.862ZM96.8265 168.666L91.5245 170.888V168.292L96.8265 165.74V168.666ZM107.688 171.548C108.553 171.548 109.309 171.724 109.954 172.076C110.614 172.428 111.12 172.89 111.472 173.462V171.724H115.234V183.978C115.234 185.107 115.007 186.127 114.552 187.036C114.112 187.96 113.43 188.693 112.506 189.236C111.597 189.779 110.46 190.05 109.096 190.05C107.277 190.05 105.803 189.617 104.674 188.752C103.545 187.901 102.899 186.743 102.738 185.276H106.456C106.573 185.745 106.852 186.112 107.292 186.376C107.732 186.655 108.275 186.794 108.92 186.794C109.697 186.794 110.313 186.567 110.768 186.112C111.237 185.672 111.472 184.961 111.472 183.978V182.24C111.105 182.812 110.599 183.281 109.954 183.648C109.309 184 108.553 184.176 107.688 184.176C106.676 184.176 105.759 183.919 104.938 183.406C104.117 182.878 103.464 182.137 102.98 181.184C102.511 180.216 102.276 179.101 102.276 177.84C102.276 176.579 102.511 175.471 102.98 174.518C103.464 173.565 104.117 172.831 104.938 172.318C105.759 171.805 106.676 171.548 107.688 171.548ZM111.472 177.862C111.472 176.923 111.208 176.183 110.68 175.64C110.167 175.097 109.536 174.826 108.788 174.826C108.04 174.826 107.402 175.097 106.874 175.64C106.361 176.168 106.104 176.901 106.104 177.84C106.104 178.779 106.361 179.527 106.874 180.084C107.402 180.627 108.04 180.898 108.788 180.898C109.536 180.898 110.167 180.627 110.68 180.084C111.208 179.541 111.472 178.801 111.472 177.862ZM119.848 170.448C119.188 170.448 118.645 170.257 118.22 169.876C117.809 169.48 117.604 168.996 117.604 168.424C117.604 167.837 117.809 167.353 118.22 166.972C118.645 166.576 119.188 166.378 119.848 166.378C120.493 166.378 121.021 166.576 121.432 166.972C121.857 167.353 122.07 167.837 122.07 168.424C122.07 168.996 121.857 169.48 121.432 169.876C121.021 170.257 120.493 170.448 119.848 170.448ZM121.718 171.724V184H117.956V171.724H121.718ZM131.924 171.592C133.361 171.592 134.505 172.061 135.356 173C136.221 173.924 136.654 175.2 136.654 176.828V184H132.914V177.334C132.914 176.513 132.701 175.875 132.276 175.42C131.851 174.965 131.279 174.738 130.56 174.738C129.841 174.738 129.269 174.965 128.844 175.42C128.419 175.875 128.206 176.513 128.206 177.334V184H124.444V171.724H128.206V173.352C128.587 172.809 129.101 172.384 129.746 172.076C130.391 171.753 131.117 171.592 131.924 171.592ZM138.52 177.84C138.52 176.579 138.755 175.471 139.224 174.518C139.708 173.565 140.361 172.831 141.182 172.318C142.004 171.805 142.92 171.548 143.932 171.548C144.798 171.548 145.553 171.724 146.198 172.076C146.858 172.428 147.364 172.89 147.716 173.462V171.724H151.478V184H147.716V182.262C147.35 182.834 146.836 183.296 146.176 183.648C145.531 184 144.776 184.176 143.91 184.176C142.913 184.176 142.004 183.919 141.182 183.406C140.361 182.878 139.708 182.137 139.224 181.184C138.755 180.216 138.52 179.101 138.52 177.84ZM147.716 177.862C147.716 176.923 147.452 176.183 146.924 175.64C146.411 175.097 145.78 174.826 145.032 174.826C144.284 174.826 143.646 175.097 143.118 175.64C142.605 176.168 142.348 176.901 142.348 177.84C142.348 178.779 142.605 179.527 143.118 180.084C143.646 180.627 144.284 180.898 145.032 180.898C145.78 180.898 146.411 180.627 146.924 180.084C147.452 179.541 147.716 178.801 147.716 177.862ZM160.754 170.448C160.094 170.448 159.551 170.257 159.126 169.876C158.715 169.48 158.51 168.996 158.51 168.424C158.51 167.837 158.715 167.353 159.126 166.972C159.551 166.576 160.094 166.378 160.754 166.378C161.399 166.378 161.927 166.576 162.338 166.972C162.763 167.353 162.976 167.837 162.976 168.424C162.976 168.996 162.763 169.48 162.338 169.876C161.927 170.257 161.399 170.448 160.754 170.448ZM162.624 171.724V184H158.862V171.724H162.624ZM172.83 171.592C174.268 171.592 175.412 172.061 176.262 173C177.128 173.924 177.56 175.2 177.56 176.828V184H173.82V177.334C173.82 176.513 173.608 175.875 173.182 175.42C172.757 174.965 172.185 174.738 171.466 174.738C170.748 174.738 170.176 174.965 169.75 175.42C169.325 175.875 169.112 176.513 169.112 177.334V184H165.35V171.724H169.112V173.352C169.494 172.809 170.007 172.384 170.652 172.076C171.298 171.753 172.024 171.592 172.83 171.592ZM182.067 170.448C181.407 170.448 180.864 170.257 180.439 169.876C180.028 169.48 179.823 168.996 179.823 168.424C179.823 167.837 180.028 167.353 180.439 166.972C180.864 166.576 181.407 166.378 182.067 166.378C182.712 166.378 183.24 166.576 183.651 166.972C184.076 167.353 184.289 167.837 184.289 168.424C184.289 168.996 184.076 169.48 183.651 169.876C183.24 170.257 182.712 170.448 182.067 170.448ZM183.937 171.724V184H180.175V171.724H183.937ZM185.915 177.862C185.915 176.586 186.171 175.471 186.685 174.518C187.213 173.565 187.939 172.831 188.863 172.318C189.801 171.805 190.872 171.548 192.075 171.548C193.615 171.548 194.898 171.951 195.925 172.758C196.966 173.565 197.648 174.701 197.971 176.168H193.967C193.629 175.229 192.977 174.76 192.009 174.76C191.319 174.76 190.769 175.031 190.359 175.574C189.948 176.102 189.743 176.865 189.743 177.862C189.743 178.859 189.948 179.629 190.359 180.172C190.769 180.7 191.319 180.964 192.009 180.964C192.977 180.964 193.629 180.495 193.967 179.556H197.971C197.648 180.993 196.966 182.123 195.925 182.944C194.883 183.765 193.6 184.176 192.075 184.176C190.872 184.176 189.801 183.919 188.863 183.406C187.939 182.893 187.213 182.159 186.685 181.206C186.171 180.253 185.915 179.138 185.915 177.862ZM201.875 170.448C201.215 170.448 200.672 170.257 200.247 169.876C199.836 169.48 199.631 168.996 199.631 168.424C199.631 167.837 199.836 167.353 200.247 166.972C200.672 166.576 201.215 166.378 201.875 166.378C202.52 166.378 203.048 166.576 203.459 166.972C203.884 167.353 204.097 167.837 204.097 168.424C204.097 168.996 203.884 169.48 203.459 169.876C203.048 170.257 202.52 170.448 201.875 170.448ZM203.745 171.724V184H199.983V171.724H203.745ZM205.723 177.84C205.723 176.579 205.958 175.471 206.427 174.518C206.911 173.565 207.564 172.831 208.385 172.318C209.207 171.805 210.123 171.548 211.135 171.548C212.001 171.548 212.756 171.724 213.401 172.076C214.061 172.428 214.567 172.89 214.919 173.462V171.724H218.681V184H214.919V182.262C214.553 182.834 214.039 183.296 213.379 183.648C212.734 184 211.979 184.176 211.113 184.176C210.116 184.176 209.207 183.919 208.385 183.406C207.564 182.878 206.911 182.137 206.427 181.184C205.958 180.216 205.723 179.101 205.723 177.84ZM214.919 177.862C214.919 176.923 214.655 176.183 214.127 175.64C213.614 175.097 212.983 174.826 212.235 174.826C211.487 174.826 210.849 175.097 210.321 175.64C209.808 176.168 209.551 176.901 209.551 177.84C209.551 178.779 209.808 179.527 210.321 180.084C210.849 180.627 211.487 180.898 212.235 180.898C212.983 180.898 213.614 180.627 214.127 180.084C214.655 179.541 214.919 178.801 214.919 177.862ZM225.165 167.72V184H221.403V167.72H225.165Z" fill="#A9A9A9"/>
<g clip-path="url(#clip10_110_12)">
<path d="M33.255 166.55L22.5 173.72V189.5H30V177.5H36V189.5H43.5V173.375L33.255 166.55Z" fill="#A9A9A9"/>
<path d="M36 162.5V164.765L39 166.76L41.595 168.5H43.5V169.775L46.5 171.785V174.5H49.5V177.5H46.5V180.5H49.5V183.5H46.5V189.5H55.5V162.5H36ZM49.5 171.5H46.5V168.5H49.5V171.5Z" fill="#A9A9A9"/>
</g>
<g clip-path="url(#clip11_110_12)">
<path fill-rule="evenodd" clip-rule="evenodd" d="M305.02 18C291.737 18 281 28.8167 281 42.1983C281 52.895 287.88 61.9495 297.424 65.1542C298.617 65.3951 299.054 64.6335 299.054 63.9929C299.054 63.4319 299.015 61.509 299.015 59.5055C292.333 60.948 290.942 56.6209 290.942 56.6209C289.868 53.8164 288.277 53.0956 288.277 53.0956C286.09 51.6132 288.436 51.6132 288.436 51.6132C290.862 51.7735 292.135 54.0971 292.135 54.0971C294.282 57.7827 297.742 56.7413 299.134 56.1002C299.333 54.5377 299.969 53.456 300.646 52.8552C295.316 52.2942 289.709 50.211 289.709 40.9161C289.709 38.2719 290.663 36.1086 292.175 34.4261C291.936 33.8253 291.101 31.3409 292.414 28.0157C292.414 28.0157 294.442 27.3746 299.015 30.4996C300.973 29.9699 302.992 29.7005 305.02 29.6982C307.048 29.6982 309.115 29.979 311.025 30.4996C315.598 27.3746 317.626 28.0157 317.626 28.0157C318.939 31.3409 318.103 33.8253 317.865 34.4261C319.416 36.1086 320.33 38.2719 320.33 40.9161C320.33 50.211 314.723 52.2539 309.354 52.8552C310.23 53.6163 310.985 55.0583 310.985 57.3421C310.985 60.5871 310.945 63.1915 310.945 63.9924C310.945 64.6335 311.383 65.3951 312.576 65.1547C322.12 61.9491 329 52.895 329 42.1983C329.039 28.8167 318.262 18 305.02 18Z" fill="#0A66C2"/>
</g>
<path d="M351.032 43.4L357.128 50H353.432L348.536 44.312V50H345.8V32.24H348.536V42.56L353.336 36.776H357.128L351.032 43.4ZM358.177 43.328C358.177 42 358.449 40.824 358.993 39.8C359.553 38.776 360.305 37.984 361.249 37.424C362.209 36.848 363.265 36.56 364.417 36.56C365.457 36.56 366.361 36.768 367.129 37.184C367.913 37.584 368.537 38.088 369.001 38.696V36.776H371.761V50H369.001V48.032C368.537 48.656 367.905 49.176 367.105 49.592C366.305 50.008 365.393 50.216 364.369 50.216C363.233 50.216 362.193 49.928 361.249 49.352C360.305 48.76 359.553 47.944 358.993 46.904C358.449 45.848 358.177 44.656 358.177 43.328ZM369.001 43.376C369.001 42.464 368.809 41.672 368.425 41C368.057 40.328 367.569 39.816 366.961 39.464C366.353 39.112 365.697 38.936 364.993 38.936C364.289 38.936 363.633 39.112 363.025 39.464C362.417 39.8 361.921 40.304 361.537 40.976C361.169 41.632 360.985 42.416 360.985 43.328C360.985 44.24 361.169 45.04 361.537 45.728C361.921 46.416 362.417 46.944 363.025 47.312C363.649 47.664 364.305 47.84 364.993 47.84C365.697 47.84 366.353 47.664 366.961 47.312C367.569 46.96 368.057 46.448 368.425 45.776C368.809 45.088 369.001 44.288 369.001 43.376ZM376.747 35.024C376.251 35.024 375.835 34.856 375.499 34.52C375.163 34.184 374.995 33.768 374.995 33.272C374.995 32.776 375.163 32.36 375.499 32.024C375.835 31.688 376.251 31.52 376.747 31.52C377.227 31.52 377.635 31.688 377.971 32.024C378.307 32.36 378.475 32.776 378.475 33.272C378.475 33.768 378.307 34.184 377.971 34.52C377.635 34.856 377.227 35.024 376.747 35.024ZM378.091 36.776V50H375.355V36.776H378.091ZM387.419 50.216C386.171 50.216 385.043 49.936 384.035 49.376C383.027 48.8 382.235 48 381.659 46.976C381.083 45.936 380.795 44.736 380.795 43.376C380.795 42.032 381.091 40.84 381.683 39.8C382.275 38.76 383.083 37.96 384.107 37.4C385.131 36.84 386.275 36.56 387.539 36.56C388.803 36.56 389.947 36.84 390.971 37.4C391.995 37.96 392.803 38.76 393.395 39.8C393.987 40.84 394.283 42.032 394.283 43.376C394.283 44.72 393.979 45.912 393.371 46.952C392.763 47.992 391.931 48.8 390.875 49.376C389.835 49.936 388.683 50.216 387.419 50.216ZM387.419 47.84C388.123 47.84 388.779 47.672 389.387 47.336C390.011 47 390.515 46.496 390.899 45.824C391.283 45.152 391.475 44.336 391.475 43.376C391.475 42.416 391.291 41.608 390.923 40.952C390.555 40.28 390.067 39.776 389.459 39.44C388.851 39.104 388.195 38.936 387.491 38.936C386.787 38.936 386.131 39.104 385.523 39.44C384.931 39.776 384.459 40.28 384.107 40.952C383.755 41.608 383.579 42.416 383.579 43.376C383.579 44.8 383.939 45.904 384.659 46.688C385.395 47.456 386.315 47.84 387.419 47.84ZM399.724 38.696C400.124 38.024 400.652 37.504 401.308 37.136C401.98 36.752 402.772 36.56 403.684 36.56V39.392H402.988C401.916 39.392 401.1 39.664 400.54 40.208C399.996 40.752 399.724 41.696 399.724 43.04V50H396.988V36.776H399.724V38.696ZM407.59 35.024C407.094 35.024 406.678 34.856 406.342 34.52C406.006 34.184 405.838 33.768 405.838 33.272C405.838 32.776 406.006 32.36 406.342 32.024C406.678 31.688 407.094 31.52 407.59 31.52C408.07 31.52 408.478 31.688 408.814 32.024C409.15 32.36 409.318 32.776 409.318 33.272C409.318 33.768 409.15 34.184 408.814 34.52C408.478 34.856 408.07 35.024 407.59 35.024ZM408.934 36.776V50H406.198V36.776H408.934ZM415.263 38.744C415.727 38.104 416.359 37.584 417.159 37.184C417.975 36.768 418.879 36.56 419.871 36.56C421.039 36.56 422.095 36.84 423.039 37.4C423.983 37.96 424.727 38.76 425.271 39.8C425.815 40.824 426.087 42 426.087 43.328C426.087 44.656 425.815 45.848 425.271 46.904C424.727 47.944 423.975 48.76 423.015 49.352C422.071 49.928 421.023 50.216 419.871 50.216C418.847 50.216 417.935 50.016 417.135 49.616C416.351 49.216 415.727 48.704 415.263 48.08V50H412.527V32.24H415.263V38.744ZM423.303 43.328C423.303 42.416 423.111 41.632 422.727 40.976C422.359 40.304 421.863 39.8 421.239 39.464C420.631 39.112 419.975 38.936 419.271 38.936C418.583 38.936 417.927 39.112 417.303 39.464C416.695 39.816 416.199 40.328 415.815 41C415.447 41.672 415.263 42.464 415.263 43.376C415.263 44.288 415.447 45.088 415.815 45.776C416.199 46.448 416.695 46.96 417.303 47.312C417.927 47.664 418.583 47.84 419.271 47.84C419.975 47.84 420.631 47.664 421.239 47.312C421.863 46.944 422.359 46.416 422.727 45.728C423.111 45.04 423.303 44.24 423.303 43.328ZM440.912 43.064C440.912 43.56 440.88 44.008 440.816 44.408H430.712C430.792 45.464 431.184 46.312 431.888 46.952C432.592 47.592 433.456 47.912 434.48 47.912C435.952 47.912 436.992 47.296 437.6 46.064H440.552C440.152 47.28 439.424 48.28 438.368 49.064C437.328 49.832 436.032 50.216 434.48 50.216C433.216 50.216 432.08 49.936 431.072 49.376C430.08 48.8 429.296 48 428.72 46.976C428.16 45.936 427.88 44.736 427.88 43.376C427.88 42.016 428.152 40.824 428.696 39.8C429.256 38.76 430.032 37.96 431.024 37.4C432.032 36.84 433.184 36.56 434.48 36.56C435.728 36.56 436.84 36.832 437.816 37.376C438.792 37.92 439.552 38.688 440.096 39.68C440.64 40.656 440.912 41.784 440.912 43.064ZM438.056 42.2C438.04 41.192 437.68 40.384 436.976 39.776C436.272 39.168 435.4 38.864 434.36 38.864C433.416 38.864 432.608 39.168 431.936 39.776C431.264 40.368 430.864 41.176 430.736 42.2H438.056ZM444.997 35.024C444.501 35.024 444.085 34.856 443.749 34.52C443.413 34.184 443.245 33.768 443.245 33.272C443.245 32.776 443.413 32.36 443.749 32.024C444.085 31.688 444.501 31.52 444.997 31.52C445.477 31.52 445.885 31.688 446.221 32.024C446.557 32.36 446.725 32.776 446.725 33.272C446.725 33.768 446.557 34.184 446.221 34.52C445.885 34.856 445.477 35.024 444.997 35.024ZM446.341 36.776V50H443.605V36.776H446.341ZM452.669 38.696C453.069 38.024 453.597 37.504 454.253 37.136C454.925 36.752 455.717 36.56 456.629 36.56V39.392H455.933C454.861 39.392 454.045 39.664 453.485 40.208C452.941 40.752 452.669 41.696 452.669 43.04V50H449.933V36.776H452.669V38.696ZM464.88 50.216C463.632 50.216 462.504 49.936 461.496 49.376C460.488 48.8 459.696 48 459.12 46.976C458.544 45.936 458.256 44.736 458.256 43.376C458.256 42.032 458.552 40.84 459.144 39.8C459.736 38.76 460.544 37.96 461.568 37.4C462.592 36.84 463.736 36.56 465 36.56C466.264 36.56 467.408 36.84 468.432 37.4C469.456 37.96 470.264 38.76 470.856 39.8C471.448 40.84 471.744 42.032 471.744 43.376C471.744 44.72 471.44 45.912 470.832 46.952C470.224 47.992 469.392 48.8 468.336 49.376C467.296 49.936 466.144 50.216 464.88 50.216ZM464.88 47.84C465.584 47.84 466.24 47.672 466.848 47.336C467.472 47 467.976 46.496 468.36 45.824C468.744 45.152 468.936 44.336 468.936 43.376C468.936 42.416 468.752 41.608 468.384 40.952C468.016 40.28 467.528 39.776 466.92 39.44C466.312 39.104 465.656 38.936 464.952 38.936C464.248 38.936 463.592 39.104 462.984 39.44C462.392 39.776 461.92 40.28 461.568 40.952C461.216 41.608 461.04 42.416 461.04 43.376C461.04 44.8 461.4 45.904 462.12 46.688C462.856 47.456 463.776 47.84 464.88 47.84ZM477.496 45.248C477.656 46.048 478 46.656 478.528 47.072C479.056 47.488 479.768 47.696 480.664 47.696C481.8 47.696 482.632 47.248 483.16 46.352C483.688 45.456 483.952 43.928 483.952 41.768C483.568 42.312 483.024 42.736 482.32 43.04C481.632 43.328 480.88 43.472 480.064 43.472C479.024 43.472 478.08 43.264 477.232 42.848C476.384 42.416 475.712 41.784 475.216 40.952C474.736 40.104 474.496 39.08 474.496 37.88C474.496 36.12 475.008 34.72 476.032 33.68C477.072 32.624 478.496 32.096 480.304 32.096C482.48 32.096 484.024 32.824 484.936 34.28C485.864 35.72 486.328 37.936 486.328 40.928C486.328 42.992 486.152 44.68 485.8 45.992C485.464 47.304 484.872 48.296 484.024 48.968C483.176 49.64 482 49.976 480.496 49.976C478.784 49.976 477.464 49.528 476.536 48.632C475.608 47.736 475.088 46.608 474.976 45.248H477.496ZM480.544 41.168C481.504 41.168 482.256 40.872 482.8 40.28C483.36 39.672 483.64 38.872 483.64 37.88C483.64 36.776 483.344 35.92 482.752 35.312C482.176 34.688 481.384 34.376 480.376 34.376C479.368 34.376 478.568 34.696 477.976 35.336C477.4 35.96 477.112 36.784 477.112 37.808C477.112 38.784 477.392 39.592 477.952 40.232C478.528 40.856 479.392 41.168 480.544 41.168ZM500.411 34.616L493.739 50H490.979L497.723 34.904H488.843V32.576H500.411V34.616Z" fill="white"/>
<defs>
<clipPath id="clip0_110_12">
<rect width="35.5253" height="35.5253" fill="white" transform="translate(848.75 754.75)"/>
</clipPath>
<clipPath id="clip1_110_12">
<rect width="28.02" height="28.02" fill="white" transform="translate(852 866)"/>
</clipPath>
<clipPath id="clip2_110_12">
<rect width="35.5253" height="35.5253" fill="white" transform="translate(848.75 967.75)"/>
</clipPath>
<clipPath id="clip3_110_12">
<rect width="27.0225" height="27.0225" fill="white" transform="translate(293.191 150.511)"/>
</clipPath>
<clipPath id="clip4_110_12">
<rect width="27.02" height="27.02" fill="white" transform="translate(294 151)"/>
</clipPath>
<clipPath id="clip5_110_12">
<rect width="27.02" height="27.02" fill="white" transform="translate(915 151)"/>
</clipPath>
<clipPath id="clip6_110_12">
<rect width="27.02" height="27.02" fill="white" transform="translate(604 151)"/>
</clipPath>
<clipPath id="clip7_110_12">
<rect width="27.02" height="27.02" fill="white" transform="translate(1224 152)"/>
</clipPath>
<clipPath id="clip8_110_12">
<rect width="38" height="38" fill="white" transform="translate(20 319)"/>
</clipPath>
<clipPath id="clip9_110_12">
<rect width="48" height="48" fill="white" transform="translate(20 18)"/>
</clipPath>
<clipPath id="clip10_110_12">
<rect width="36" height="36" fill="white" transform="translate(21 158)"/>
</clipPath>
<clipPath id="clip11_110_12">
<rect width="48" height="48" fill="white" transform="translate(281 18)"/>
</clipPath>
</defs>
</svg>
