<svg width="86" height="88" viewBox="0 0 86 88" fill="none" xmlns="http://www.w3.org/2000/svg">
<g filter="url(#filter0_d_245_967)">
<rect x="15" y="15" width="56" height="58" rx="6" fill="#022F0E"/>
</g>
<path fill-rule="evenodd" clip-rule="evenodd" d="M32 32.8125C32 32.3318 32.191 31.8708 32.5309 31.5309C32.8708 31.191 33.3318 31 33.8125 31H51.9375C52.4182 31 52.8792 31.191 53.2191 31.5309C53.559 31.8708 53.75 32.3318 53.75 32.8125V35.3331C53.7499 35.974 53.4952 36.5886 53.0419 37.0417L46.5 43.5836V52.5542C46.5 52.7808 46.4421 53.0037 46.3318 53.2016C46.2215 53.3995 46.0624 53.5659 45.8697 53.6851C45.6769 53.8042 45.4569 53.8721 45.2306 53.8823C45.0042 53.8925 44.779 53.8446 44.5763 53.7433L40.085 51.4982C39.8341 51.3727 39.6231 51.1799 39.4756 50.9413C39.3281 50.7027 39.25 50.4277 39.25 50.1473V43.5836L32.7081 37.0417C32.2548 36.5886 32.0001 35.974 32 35.3331V32.8125ZM34.4167 33.4167V35.3331L41.135 42.0514C41.3035 42.2197 41.4372 42.4196 41.5284 42.6395C41.6196 42.8595 41.6666 43.0953 41.6667 43.3335V49.5866L44.0833 50.7949V43.3335C44.0833 42.8525 44.2742 42.391 44.615 42.0526L51.3333 35.3319V33.4167H34.4167Z" fill="white"/>
<defs>
<filter id="filter0_d_245_967" x="0" y="0" width="86" height="88" filterUnits="userSpaceOnUse" color-interpolation-filters="sRGB">
<feFlood flood-opacity="0" result="BackgroundImageFix"/>
<feColorMatrix in="SourceAlpha" type="matrix" values="0 0 0 0 0 0 0 0 0 0 0 0 0 0 0 0 0 0 127 0" result="hardAlpha"/>
<feOffset/>
<feGaussianBlur stdDeviation="7.5"/>
<feComposite in2="hardAlpha" operator="out"/>
<feColorMatrix type="matrix" values="0 0 0 0 0 0 0 0 0 0 0 0 0 0 0 0 0 0 0.05 0"/>
<feBlend mode="normal" in2="BackgroundImageFix" result="effect1_dropShadow_245_967"/>
<feBlend mode="normal" in="SourceGraphic" in2="effect1_dropShadow_245_967" result="shape"/>
</filter>
</defs>
</svg>
