<svg width="1920" height="1080" viewBox="0 0 1920 1080" fill="none" xmlns="http://www.w3.org/2000/svg">
<g clip-path="url(#clip0_239_384)">
<rect width="1920" height="1080" rx="16" fill="#226334"/>
<rect width="94" height="1080" rx="16" fill="#022F0E"/>
<g clip-path="url(#clip1_239_384)">
<path d="M57.25 102V87" stroke="#F2C94C" stroke-width="2" stroke-linecap="round" stroke-linejoin="round"/>
<path d="M48.5 102V78" stroke="#F2C94C" stroke-width="2" stroke-linecap="round" stroke-linejoin="round"/>
<path d="M39.75 102V93" stroke="#F2C94C" stroke-width="2" stroke-linecap="round" stroke-linejoin="round"/>
</g>
<path d="M2 164C2 157.373 7.37258 152 14 152H94V232H14C7.37259 232 2 226.627 2 220V164Z" fill="#226334"/>
<path d="M90.5 148C94.5 144 94 140 94 140V152H82C82 152 86.5 152 90.5 148Z" fill="#226334"/>
<path d="M90.01 235.51C86.01 231.51 82.01 232.01 82.01 232.01H94.01V244.01C94.01 244.01 94.01 239.51 90.01 235.51Z" fill="#226334"/>
<g filter="url(#filter0_d_239_384)">
<rect x="20" y="165" width="56" height="56" rx="8" fill="#387A49"/>
<g clip-path="url(#clip2_239_384)">
<path d="M48 181C41.3835 181 36 186.384 36 193C36 199.616 41.3835 205 48 205C54.6165 205 60 199.616 60 193C60 186.384 54.6165 181 48 181ZM48.762 184.898L51.8475 183.24C53.556 183.916 55.047 185.024 56.181 186.434L55.446 189.828L53.0925 190.981L48.762 187.827V184.898ZM44.178 183.23L47.2635 184.895V187.827L42.936 190.981L40.5705 189.826L39.8355 186.412C40.9725 185.005 42.4665 183.903 44.178 183.23ZM39.345 198.931C38.3655 197.506 37.728 195.831 37.5525 194.02L40.092 191.262L42.408 192.394L44.1525 197.349L42.678 199.115L39.345 198.931ZM50.6745 203.141C49.818 203.368 48.9255 203.5 48 203.5C46.881 203.5 45.804 203.32 44.7915 202.995L43.848 200.057L45.3525 198.25H50.6535L52.131 199.999L50.6745 203.141ZM53.301 199.065L51.8505 197.347L53.619 192.394L55.9245 191.264L58.449 194.021C58.2975 195.583 57.795 197.04 57.0315 198.328L53.301 199.065Z" fill="#F2C94C"/>
</g>
</g>
<path d="M45.8911 279H57.7083C58.2955 279.094 58.6538 279.425 58.7832 279.993C58.801 280.071 58.7939 280.16 58.7944 280.242C58.8028 285.927 58.8042 291.775 58.7986 297.785C58.7982 298.35 58.418 298.844 57.878 298.968C57.7577 298.995 57.5055 299.007 57.1214 299.004C56.5383 298.998 55.9878 298.998 55.47 299.004C55.455 299.004 55.4438 299.011 55.4363 299.024C55.2497 299.348 54.9942 299.487 54.6253 299.602C51.036 300.721 47.4719 301.834 43.9332 302.941C43.8436 302.969 43.7536 302.982 43.6627 303H43.4536C42.9511 302.922 42.601 302.626 42.4533 302.154C40.7071 296.574 38.9767 291.037 37.2624 285.544C37.1039 285.036 37.2736 284.49 37.7307 284.201C37.8197 284.144 37.9527 284.088 38.1296 284.033C40.3814 283.331 42.5992 282.637 44.783 281.952C44.7958 281.948 44.8021 281.939 44.8017 281.926C44.7986 281.305 44.7994 280.728 44.8041 280.195C44.8097 279.542 45.2649 279.099 45.8911 279ZM57.9989 280.203C57.9989 280.096 57.9564 279.993 57.8806 279.918C57.8048 279.842 57.702 279.799 57.5949 279.799H46.0036C45.8965 279.799 45.7937 279.842 45.7179 279.918C45.6421 279.993 45.5996 280.096 45.5996 280.203V297.795C45.5996 297.902 45.6421 298.004 45.7179 298.08C45.7937 298.156 45.8965 298.199 46.0036 298.199H57.5949C57.702 298.199 57.8048 298.156 57.8806 298.08C57.9564 298.004 57.9989 297.902 57.9989 297.795V280.203ZM46.0313 299.001C45.495 299.001 45.0553 298.696 44.8655 298.194C44.8208 298.077 44.7985 297.839 44.7985 297.481C44.8 292.635 44.8011 287.746 44.8017 282.814C44.8017 282.795 44.7927 282.788 44.7746 282.794C42.6246 283.467 40.4489 284.147 38.2477 284.835C38.0485 284.897 37.9608 285.099 38.0208 285.292C39.7952 290.971 41.5313 296.525 43.2291 301.955C43.2661 302.074 43.3753 302.168 43.4977 302.19C43.5674 302.203 43.6664 302.189 43.7949 302.148C47.1314 301.104 50.4628 300.062 53.7891 299.023C53.8369 299.008 53.8357 299.001 53.7853 299.001C51.1413 299.001 48.5566 299.001 46.0313 299.001Z" fill="#F2C94C"/>
<path d="M47.2003 281.432C47.2022 281.877 47.2019 282.26 47.1994 282.581C47.1947 283.138 46.3974 283.126 46.4002 282.585C46.4024 282.113 46.4013 281.613 46.3969 281.084C46.3941 280.782 46.5389 280.596 46.8722 280.598C47.3428 280.602 47.8302 280.602 48.3342 280.597C48.4433 280.597 48.5325 280.617 48.6019 280.657C48.811 280.781 48.8639 281.056 48.7102 281.249C48.615 281.369 48.4899 281.401 48.3431 281.401C47.9935 281.401 47.6228 281.401 47.2313 281.4C47.2103 281.4 47.2 281.411 47.2003 281.432Z" fill="#F2C94C"/>
<path d="M39.9281 285.989C39.925 285.99 39.9225 285.992 39.921 285.995C39.9195 285.998 39.9192 286.001 39.9201 286.005C40.0529 286.426 40.1864 286.854 40.3204 287.288C40.4817 287.808 39.7176 288.052 39.547 287.498C39.3801 286.957 39.2119 286.418 39.0422 285.882C38.9615 285.629 39.075 285.413 39.329 285.334C39.9631 285.137 40.5222 284.962 41.0062 284.81C41.5219 284.648 41.767 285.414 41.2209 285.582C40.7481 285.728 40.3172 285.864 39.9281 285.989Z" fill="#F2C94C"/>
<path d="M60 387.864V405.603C59.9394 406.239 59.6744 406.739 59.205 407.105C58.8258 407.401 58.3842 407.545 57.9052 407.545C55.0777 407.545 52.2191 407.545 49.3294 407.545C48.8466 407.545 48.8391 406.839 49.342 406.84C50.0833 406.843 50.8061 406.843 51.5105 406.841C51.5131 406.841 51.5156 406.84 51.518 406.839C51.5204 406.838 51.5226 406.837 51.5244 406.835C51.5262 406.833 51.5277 406.831 51.5287 406.828C51.5296 406.826 51.5302 406.823 51.5302 406.821V402.461C51.5302 402.458 51.5287 402.454 51.526 402.452C51.5234 402.449 51.5198 402.448 51.5161 402.448H44.4834C44.4797 402.448 44.4761 402.449 44.4735 402.452C44.4709 402.455 44.4694 402.458 44.4694 402.462V406.819C44.4694 406.825 44.4717 406.831 44.476 406.835C44.4802 406.839 44.4859 406.841 44.4919 406.841C45.5734 406.842 46.7045 406.842 47.8852 406.841C48.3806 406.841 48.3914 407.546 47.8561 407.545C44.7214 407.543 41.5673 407.544 38.3939 407.547C38.0377 407.548 37.7722 407.529 37.5975 407.49C36.7069 407.292 36.0694 406.517 36 405.599V387.856C36.0722 387.227 36.4688 386.718 37.0669 386.528C37.2459 386.471 37.5334 386.445 37.9294 386.45C38.5553 386.458 39.1834 386.459 39.8138 386.454C40.328 386.449 40.3284 387.159 39.8367 387.159C39.0958 387.158 38.3345 387.158 37.553 387.159C37.0786 387.159 36.7041 387.509 36.7036 387.984C36.7027 389.05 36.7027 390.231 36.7036 391.527C36.7036 391.544 36.7119 391.552 36.7284 391.552H59.2711C59.2892 391.552 59.2983 391.543 59.2983 391.525C59.2948 390.311 59.2955 389.17 59.3002 388.103C59.302 387.684 59.1516 387.358 58.7527 387.207C58.6623 387.173 58.4928 387.156 58.2441 387.156C52.7706 387.16 47.1031 387.16 41.2416 387.155C41.185 387.155 41.1298 387.138 41.0761 387.105C40.7813 386.918 40.9036 386.46 41.2612 386.459C46.8025 386.45 52.5423 386.452 58.4808 386.464C58.5355 386.464 58.5956 386.466 58.6613 386.469C58.7219 386.473 58.7781 386.482 58.83 386.497C59.5094 386.691 59.8994 387.147 60 387.864ZM43.7672 392.284C43.7672 392.276 43.7642 392.269 43.7588 392.264C43.7535 392.258 43.7462 392.255 43.7386 392.255H36.7317C36.7241 392.255 36.7169 392.258 36.7115 392.264C36.7061 392.269 36.7031 392.276 36.7031 392.284V396.62C36.7031 396.627 36.7061 396.635 36.7115 396.64C36.7169 396.645 36.7241 396.648 36.7317 396.648H43.7386C43.7462 396.648 43.7535 396.645 43.7588 396.64C43.7642 396.635 43.7672 396.627 43.7672 396.62V392.284ZM51.5302 392.277C51.5302 392.271 51.5279 392.266 51.5238 392.262C51.5198 392.258 51.5143 392.255 51.5086 392.255H44.4914C44.4857 392.255 44.4802 392.258 44.4762 392.262C44.4721 392.266 44.4698 392.271 44.4698 392.277V396.627C44.4698 396.633 44.4721 396.638 44.4762 396.642C44.4802 396.646 44.4857 396.648 44.4914 396.648H51.5086C51.5143 396.648 51.5198 396.646 51.5238 396.642C51.5279 396.638 51.5302 396.633 51.5302 396.627V392.277ZM59.2969 392.276C59.2969 392.27 59.2947 392.265 59.2908 392.261C59.287 392.257 59.2817 392.255 59.2762 392.255H52.2544C52.2489 392.255 52.2437 392.257 52.2398 392.261C52.2359 392.265 52.2338 392.27 52.2338 392.276V396.628C52.2338 396.633 52.2359 396.638 52.2398 396.642C52.2437 396.646 52.2489 396.648 52.2544 396.648H59.2762C59.2817 396.648 59.287 396.646 59.2908 396.642C59.2947 396.638 59.2969 396.633 59.2969 396.628V392.276ZM43.7672 397.373C43.7672 397.367 43.7651 397.362 43.7613 397.358C43.7575 397.355 43.7524 397.352 43.747 397.352H36.7233C36.7179 397.352 36.7128 397.355 36.709 397.358C36.7052 397.362 36.7031 397.367 36.7031 397.373V401.724C36.7031 401.73 36.7052 401.735 36.709 401.739C36.7128 401.743 36.7179 401.745 36.7233 401.745H43.747C43.7524 401.745 43.7575 401.743 43.7613 401.739C43.7651 401.735 43.7672 401.73 43.7672 401.724V397.373ZM51.5302 397.372C51.5302 397.37 51.5296 397.367 51.5287 397.365C51.5277 397.362 51.5262 397.36 51.5244 397.358C51.5226 397.356 51.5204 397.355 51.518 397.354C51.5156 397.353 51.5131 397.352 51.5105 397.352H44.4895C44.4869 397.352 44.4844 397.353 44.482 397.354C44.4796 397.355 44.4774 397.356 44.4756 397.358C44.4738 397.36 44.4723 397.362 44.4713 397.365C44.4704 397.367 44.4698 397.37 44.4698 397.372V401.725C44.4698 401.728 44.4704 401.73 44.4713 401.732C44.4723 401.735 44.4738 401.737 44.4756 401.739C44.4774 401.741 44.4796 401.742 44.482 401.743C44.4844 401.744 44.4869 401.745 44.4895 401.745H51.5105C51.5131 401.745 51.5156 401.744 51.518 401.743C51.5204 401.742 51.5226 401.741 51.5244 401.739C51.5262 401.737 51.5277 401.735 51.5287 401.732C51.5296 401.73 51.5302 401.728 51.5302 401.725V397.372ZM59.2969 397.371C59.2969 397.369 59.2964 397.366 59.2954 397.364C59.2945 397.362 59.2931 397.36 59.2914 397.358C59.2896 397.356 59.2876 397.355 59.2853 397.354C59.283 397.353 59.2806 397.352 59.2781 397.352H52.2525C52.25 397.352 52.2476 397.353 52.2453 397.354C52.243 397.355 52.241 397.356 52.2392 397.358C52.2375 397.36 52.2361 397.362 52.2352 397.364C52.2342 397.366 52.2338 397.369 52.2338 397.371V401.726C52.2338 401.728 52.2342 401.731 52.2352 401.733C52.2361 401.735 52.2375 401.737 52.2392 401.739C52.241 401.741 52.243 401.742 52.2453 401.743C52.2476 401.744 52.25 401.745 52.2525 401.745H59.2781C59.2831 401.745 59.2879 401.743 59.2914 401.739C59.2949 401.736 59.2969 401.731 59.2969 401.726V397.371ZM36.7598 405.87C36.9403 406.447 37.4527 406.84 38.0653 406.841C39.9288 406.842 41.8242 406.842 43.7517 406.841C43.7557 406.841 43.7595 406.84 43.7623 406.837C43.7651 406.834 43.7667 406.83 43.7667 406.826V402.471C43.7667 402.465 43.7643 402.459 43.76 402.454C43.7557 402.45 43.7498 402.448 43.7437 402.448H36.7167C36.7064 402.448 36.7014 402.453 36.7017 402.463C36.7073 403.391 36.7061 404.269 36.698 405.097C36.6945 405.469 36.7152 405.727 36.7598 405.87ZM58.3402 406.781C58.9219 406.587 59.3072 406.071 59.2964 405.451C59.2964 405.439 59.2967 404.442 59.2973 402.462C59.2973 402.458 59.2959 402.455 59.2932 402.452C59.2906 402.449 59.287 402.448 59.2833 402.448H52.2562C52.2409 402.448 52.2333 402.455 52.2333 402.47V406.811C52.2333 406.832 52.2434 406.842 52.2637 406.842C54.0212 406.842 55.7739 406.842 57.5217 406.842C57.9458 406.842 58.2186 406.822 58.3402 406.781Z" fill="#F2C94C"/>
<g clip-path="url(#clip3_239_384)">
<path d="M70.4567 1010H29.5433C28.6036 1010 27.7023 1010.37 27.0378 1011.04C26.3733 1011.7 26 1012.6 26 1013.54V1054.46C26 1055.4 26.3733 1056.3 27.0378 1056.96C27.7023 1057.63 28.6036 1058 29.5433 1058H70.4567C71.3964 1058 72.2977 1057.63 72.9622 1056.96C73.6267 1056.3 74 1055.4 74 1054.46V1013.54C74 1012.6 73.6267 1011.7 72.9622 1011.04C72.2977 1010.37 71.3964 1010 70.4567 1010ZM40.3067 1050.89H33.09V1027.97H40.3067V1050.89ZM36.6933 1024.79C35.8747 1024.79 35.0758 1024.54 34.3975 1024.08C33.7191 1023.62 33.1917 1022.97 32.8818 1022.22C32.5718 1021.46 32.4933 1020.63 32.6561 1019.82C32.8188 1019.02 33.2156 1018.28 33.7963 1017.71C34.377 1017.13 35.1156 1016.74 35.9189 1016.58C36.7222 1016.42 37.5542 1016.51 38.3099 1016.82C39.0656 1017.14 39.7111 1017.67 40.1649 1018.35C40.6188 1019.03 40.8606 1019.83 40.86 1020.65C40.8677 1021.2 40.765 1021.74 40.558 1022.25C40.351 1022.76 40.044 1023.22 39.6551 1023.6C39.2663 1023.99 38.8037 1024.29 38.2948 1024.5C37.786 1024.7 37.2413 1024.8 36.6933 1024.79ZM66.9067 1050.91H59.6933V1038.39C59.6933 1034.69 58.1233 1033.55 56.0967 1033.55C53.9567 1033.55 51.8567 1035.17 51.8567 1038.48V1050.91H44.64V1027.98H51.58V1031.16H51.6733C52.37 1029.75 54.81 1027.34 58.5333 1027.34C62.56 1027.34 66.91 1029.73 66.91 1036.73L66.9067 1050.91Z" fill="#F2C94C"/>
</g>
<g clip-path="url(#clip4_239_384)">
<path fill-rule="evenodd" clip-rule="evenodd" d="M50.0199 919C36.7375 919 26 929.817 26 943.198C26 953.895 32.8799 962.95 42.4241 966.154C43.6174 966.395 44.0545 965.634 44.0545 964.993C44.0545 964.432 44.0151 962.509 44.0151 960.505C37.3334 961.948 35.942 957.621 35.942 957.621C34.8682 954.816 33.2772 954.096 33.2772 954.096C31.0902 952.613 33.4365 952.613 33.4365 952.613C35.8623 952.774 37.1353 955.097 37.1353 955.097C39.2824 958.783 42.7422 957.741 44.1341 957.1C44.3328 955.538 44.9695 954.456 45.6455 953.855C40.3163 953.294 34.7094 951.211 34.7094 941.916C34.7094 939.272 35.6632 937.109 37.1746 935.426C36.9361 934.825 36.1008 932.341 37.4135 929.016C37.4135 929.016 39.4417 928.375 44.0146 931.5C45.9725 930.97 47.9916 930.7 50.0199 930.698C52.048 930.698 54.1154 930.979 56.0246 931.5C60.5981 928.375 62.6262 929.016 62.6262 929.016C63.9389 932.341 63.1031 934.825 62.8646 935.426C64.4158 937.109 65.3303 939.272 65.3303 941.916C65.3303 951.211 59.7234 953.254 54.3544 953.855C55.2296 954.616 55.9848 956.058 55.9848 958.342C55.9848 961.587 55.9454 964.191 55.9454 964.992C55.9454 965.634 56.383 966.395 57.5758 966.155C67.12 962.949 73.9999 953.895 73.9999 943.198C74.0392 929.817 63.2624 919 50.0199 919Z" fill="#F2C94C"/>
</g>
<path opacity="0.984" fill-rule="evenodd" clip-rule="evenodd" d="M32.35 828.15C33.2978 828.094 34.2312 828.177 35.15 828.4C46.4773 831.854 57.8107 835.287 69.15 838.7C71.2376 839.357 72.4209 840.774 72.7 842.95C72.7667 851.183 72.7667 859.417 72.7 867.65C72.3365 870.047 70.9532 871.397 68.55 871.7C68.1167 871.767 67.6833 871.767 67.25 871.7C65.6987 871.296 64.1654 870.829 62.65 870.3C61.7506 869.653 61.7173 868.953 62.55 868.2C62.7199 868.104 62.9033 868.054 63.1 868.05C64.7035 868.501 66.3035 868.968 67.9 869.45C68.9429 869.312 69.7095 868.779 70.2 867.85C70.3656 859.488 70.3989 851.121 70.3 842.75C70.0659 841.916 69.5493 841.333 68.75 841C56.952 837.44 45.152 833.89 33.35 830.35C32.0489 830.468 31.2655 831.168 31 832.45C30.9667 838.117 30.9333 843.783 30.9 849.45C30.5759 850.202 30.0259 850.452 29.25 850.2C28.8834 850.033 28.6668 849.75 28.6 849.35C28.5333 843.717 28.5333 838.083 28.6 832.45C28.9107 830.19 30.1607 828.756 32.35 828.15Z" fill="#F2C94C"/>
<path opacity="0.992" fill-rule="evenodd" clip-rule="evenodd" d="M55.35 844.25C57.1138 844.232 58.2304 845.065 58.7 846.75C58.7667 855.517 58.7667 864.283 58.7 873.05C58.2493 875.351 56.866 876.268 54.55 875.8C53.5998 875.383 53.0164 874.666 52.8 873.65C52.7333 864.65 52.7333 855.65 52.8 846.65C53.1566 845.31 54.0066 844.51 55.35 844.25Z" fill="#F2C94C"/>
<path opacity="0.998" fill-rule="evenodd" clip-rule="evenodd" d="M46.55 847.55C47.9582 847.346 49.0749 847.813 49.9 848.95C50.0197 849.209 50.1197 849.476 50.2 849.75C50.2667 856.483 50.2667 863.217 50.2 869.95C49.7346 872.257 48.3512 873.174 46.05 872.7C45.0607 872.276 44.4773 871.526 44.3 870.45C44.2333 863.65 44.2333 856.85 44.3 850.05C44.5824 848.785 45.3324 847.951 46.55 847.55Z" fill="#F2C94C"/>
<path opacity="0.988" fill-rule="evenodd" clip-rule="evenodd" d="M38.25 850.75C39.9647 850.664 41.0813 851.431 41.6 853.05C41.6667 857.75 41.6667 862.45 41.6 867.15C41.1739 868.623 40.1906 869.423 38.65 869.55C37.082 869.465 36.0987 868.665 35.7 867.15C35.6334 862.483 35.6334 857.817 35.7 853.15C36.0574 851.809 36.9074 851.009 38.25 850.75Z" fill="#F2C94C"/>
<path opacity="0.991" fill-rule="evenodd" clip-rule="evenodd" d="M29.35 853.75C31.2267 853.563 32.4434 854.363 33 856.15C33.0667 858.85 33.0667 861.55 33 864.25C32.4244 866.09 31.1744 866.873 29.25 866.6C28.2498 866.333 27.5664 865.716 27.2 864.75C27.1334 861.75 27.1334 858.75 27.2 855.75C27.6172 854.749 28.3338 854.083 29.35 853.75Z" fill="#F2C94C"/>
<path d="M131 135C131 126.163 138.163 119 147 119H979C987.837 119 995 126.163 995 135V640C995 648.837 987.837 656 979 656H147C138.163 656 131 648.837 131 640V135Z" fill="#022F0E"/>
<path d="M211.319 148.63L184.099 163L156.734 148.63C151.93 145.314 148 143.908 148 140.592V107.029C148 103.713 151.93 101 156.734 101H211.319C216.123 101 220.053 103.713 220.053 107.029V140.592C220.053 143.908 216.414 145.113 211.319 148.63Z" fill="white"/>
<path d="M183.69 108.361C181.032 108.642 178.357 109.474 176.171 110.7C170.654 113.799 167.074 119.228 166.401 125.498C165.729 131.744 168.187 137.934 172.96 142.05C179.422 147.616 188.823 148.256 195.95 143.62C197.191 142.803 198.024 142.13 199.113 141.033C202.044 138.102 203.886 134.419 204.535 130.223C204.727 128.933 204.727 126.059 204.527 124.793C203.646 119.14 200.659 114.479 195.974 111.404C193.684 109.899 191.13 108.93 188.247 108.481C187.318 108.337 184.611 108.265 183.69 108.361ZM188.383 109.803C189.552 109.995 190.625 110.267 190.753 110.395C190.841 110.483 191.138 111.484 191.089 111.532C191.073 111.54 189.84 111.829 188.351 112.157L185.636 112.766L183.186 112.213C181.84 111.909 180.615 111.637 180.479 111.605C180.335 111.572 180.215 111.532 180.215 111.516C180.215 111.396 180.543 110.323 180.599 110.267C180.695 110.171 182.321 109.827 183.138 109.731C183.538 109.683 183.971 109.627 184.099 109.611C184.739 109.522 187.43 109.643 188.383 109.803ZM178.974 111.172C178.91 111.404 178.83 111.621 178.798 111.653C178.765 111.685 177.244 112.742 175.418 113.999C172.688 115.889 172.055 116.289 171.839 116.289C171.687 116.289 171.566 116.249 171.566 116.209C171.566 116.033 173.953 113.727 174.698 113.182C175.522 112.573 176.603 111.893 177.332 111.524C177.837 111.268 178.95 110.772 179.03 110.764C179.054 110.764 179.03 110.948 178.974 111.172ZM193.524 111.468C195.47 112.453 196.959 113.566 198.505 115.176C199.978 116.714 199.802 116.689 197.384 115.024C192.074 111.364 192.483 111.661 192.387 111.34C192.291 110.98 192.291 110.924 192.379 110.924C192.419 110.924 192.931 111.164 193.524 111.468ZM182.457 113.358L184.98 113.927L185.02 115.873C185.06 117.682 185.068 117.835 185.212 117.939C185.396 118.067 185.764 118.083 185.981 117.971C186.245 117.827 186.301 117.442 186.301 115.656V113.927L189.039 113.318L191.778 112.71L194.901 114.864C196.623 116.057 198.08 117.074 198.144 117.138C198.24 117.226 198.24 117.602 198.112 119.829C198.032 121.254 197.944 122.439 197.92 122.471C197.896 122.503 196.671 122.815 195.198 123.176C192.819 123.752 192.507 123.808 192.355 123.712C192.259 123.648 190.761 122.567 189.023 121.302C186.117 119.18 185.836 119.004 185.58 119.028C185.364 119.052 184.571 119.588 182.033 121.438L178.773 123.816L176.107 123.176C174.649 122.815 173.424 122.503 173.4 122.471C173.368 122.439 173.288 121.254 173.208 119.829C173.096 117.827 173.088 117.218 173.16 117.146C173.208 117.098 174.665 116.073 176.395 114.88C178.99 113.078 179.566 112.71 179.734 112.75C179.847 112.774 181.072 113.046 182.457 113.358ZM171.807 117.763C171.807 117.867 171.879 119.14 171.967 120.581C172.087 122.535 172.167 123.256 172.247 123.392C172.383 123.6 172.167 123.536 175.65 124.377C177.124 124.737 178.357 125.05 178.389 125.082C178.413 125.114 178.966 126.755 179.606 128.725L180.767 132.313L178.966 134.731C177.973 136.06 177.116 137.157 177.06 137.173C176.908 137.206 172.672 135.988 172.559 135.876C172.503 135.828 171.879 134.139 171.166 132.121L169.861 128.445L171.038 126.715C171.807 125.57 172.207 124.906 172.207 124.769C172.207 124.449 171.919 124.137 171.639 124.137C171.502 124.137 171.334 124.169 171.262 124.209C171.19 124.249 170.638 125.002 170.045 125.89C169.452 126.779 168.94 127.5 168.9 127.5C168.868 127.5 168.548 127.372 168.203 127.212C167.771 127.012 167.563 126.875 167.563 126.779C167.563 126.707 167.603 126.251 167.651 125.77C167.899 123.2 168.772 120.509 170.069 118.355L170.485 117.658L170.886 117.626C171.839 117.562 171.807 117.554 171.807 117.763ZM200.523 117.674C200.523 117.682 200.691 117.963 200.899 118.291C202.164 120.357 203.101 123.208 203.349 125.77C203.486 127.14 203.51 127.044 202.965 127.292C202.709 127.404 202.469 127.5 202.429 127.5C202.34 127.492 202.405 127.588 200.659 124.978L199.209 122.815L199.362 120.413C199.442 119.092 199.506 117.907 199.514 117.779V117.546L200.01 117.602C200.29 117.634 200.515 117.666 200.523 117.674ZM188.567 122.551C190.153 123.712 191.49 124.681 191.53 124.705C191.57 124.737 191.146 126.155 190.585 127.868C190.032 129.582 189.52 131.152 189.456 131.36L189.328 131.744H185.628H181.929L180.791 128.245C179.951 125.65 179.686 124.729 179.758 124.681C179.806 124.649 181.136 123.688 182.697 122.543C184.259 121.398 185.572 120.461 185.612 120.461C185.644 120.453 186.981 121.398 188.567 122.551ZM199.866 126.091L201.452 128.453L200.154 132.121C199.442 134.139 198.817 135.828 198.761 135.876C198.713 135.932 197.696 136.245 196.511 136.581C195.318 136.917 194.156 137.246 193.932 137.31L193.516 137.43L191.498 140.152L189.472 142.875H185.62H181.776L179.999 140.473C179.014 139.159 178.205 138.046 178.197 138.014C178.181 137.974 178.998 136.837 179.999 135.484L181.832 133.025H185.628H189.424L190.865 134.963C191.658 136.036 192.387 136.949 192.491 137.005C192.771 137.157 192.939 137.125 193.204 136.869C193.396 136.669 193.436 136.573 193.404 136.389C193.372 136.261 192.707 135.292 191.922 134.235L190.489 132.305L191.666 128.677L192.843 125.058L193.436 124.922C193.764 124.841 194.965 124.545 196.11 124.265C197.256 123.985 198.208 123.744 198.232 123.744C198.256 123.736 198.993 124.793 199.866 126.091ZM168.291 128.661L168.652 128.845L169.997 132.649L171.342 136.453L171.126 137.045C171.006 137.366 170.878 137.662 170.838 137.702C170.742 137.806 170.029 136.653 169.404 135.388C168.523 133.61 167.835 131.264 167.683 129.542C167.659 129.23 167.619 128.845 167.587 128.669C167.547 128.381 167.555 128.365 167.731 128.421C167.835 128.453 168.091 128.565 168.291 128.661ZM203.406 128.717C203.381 128.821 203.341 129.174 203.317 129.502C203.189 131.072 202.533 133.442 201.772 135.043C201.315 136.012 200.499 137.43 200.403 137.43C200.363 137.43 200.258 137.214 200.162 136.941C199.994 136.485 199.986 136.445 200.106 136.084C200.178 135.876 200.787 134.163 201.452 132.281C202.661 128.877 202.669 128.845 202.949 128.701C203.341 128.493 203.446 128.501 203.406 128.717ZM174.762 137.902C175.963 138.255 176.98 138.567 177.012 138.607C177.18 138.799 180.391 143.155 180.423 143.235C180.463 143.323 178.902 144.076 178.677 144.076C178.461 144.076 176.411 142.995 175.61 142.459C174.537 141.738 173.456 140.833 172.511 139.84L171.727 139.031L171.895 138.607C171.991 138.383 172.143 137.982 172.231 137.726C172.327 137.478 172.439 137.27 172.487 137.27C172.543 137.27 173.56 137.558 174.762 137.902ZM199.177 137.966C199.322 138.359 199.434 138.711 199.434 138.759C199.434 138.815 199.017 139.296 198.505 139.824C196.959 141.434 195.47 142.547 193.524 143.532L192.459 144.068L191.842 143.788C191.506 143.628 191.138 143.46 191.025 143.412C190.913 143.364 190.809 143.315 190.793 143.299C190.777 143.291 191.538 142.25 192.475 140.985C193.42 139.72 194.213 138.655 194.237 138.615C194.285 138.543 198.569 137.286 198.793 137.278C198.881 137.27 199.001 137.502 199.177 137.966ZM190.113 144.413L190.665 144.661L190.185 144.813C189.92 144.901 189.184 145.061 188.543 145.173C187.542 145.349 187.134 145.381 185.62 145.389C184.491 145.398 183.602 145.357 183.138 145.285C182.329 145.165 180.727 144.829 180.607 144.749C180.559 144.725 180.775 144.581 181.072 144.437L181.616 144.164H185.588L189.56 144.156L190.113 144.413Z" fill="#07A157"/>
<path d="M131 696C131 687.163 138.163 680 147 680H979C987.837 680 995 687.163 995 696V1041C995 1049.84 987.837 1057 979 1057H147C138.163 1057 131 1049.84 131 1041V696Z" fill="#022F0E"/>
<path d="M211.319 709.63L184.099 724L156.734 709.63C151.93 706.314 148 704.908 148 701.592V668.029C148 664.713 151.93 662 156.734 662H211.319C216.123 662 220.053 664.713 220.053 668.029V701.592C220.053 704.908 216.414 706.113 211.319 709.63Z" fill="white"/>
<g clip-path="url(#clip5_239_384)">
<path opacity="0.959" fill-rule="evenodd" clip-rule="evenodd" d="M170.405 669.241C180.442 669.228 190.478 669.241 200.515 669.281C200.661 669.321 200.755 669.415 200.795 669.562C200.848 676.955 200.848 684.349 200.795 691.743C200.204 696.066 198.028 699.309 194.269 701.473C192.934 702.087 191.599 702.7 190.265 703.314C188.44 704.311 187.012 705.713 185.98 707.519C185.656 707.714 185.322 707.727 184.979 707.559C183.762 705.568 182.107 704.046 180.015 702.994C178.111 702.309 176.349 701.375 174.729 700.191C172.119 697.973 170.584 695.157 170.125 691.743C170.072 684.349 170.072 676.955 170.125 669.562C170.18 669.413 170.274 669.307 170.405 669.241ZM171.366 670.522C171.793 670.522 172.22 670.522 172.647 670.522C172.647 673.726 172.647 676.929 172.647 680.132C173.075 680.132 173.502 680.132 173.929 680.132C173.929 676.929 173.929 673.726 173.929 670.522C175.21 670.522 176.491 670.522 177.772 670.522C177.786 672.551 177.772 674.58 177.732 676.608C174.227 680.032 173.133 684.116 174.449 688.86C175.744 692.504 178.213 694.973 181.856 696.268C187.071 697.664 191.382 696.29 194.789 692.144C197.069 688.836 197.603 685.259 196.391 681.413C195.705 679.553 194.637 677.952 193.188 676.608C193.147 674.58 193.134 672.551 193.147 670.522C194.429 670.522 195.71 670.522 196.991 670.522C196.991 673.726 196.991 676.929 196.991 680.132C197.418 680.132 197.845 680.132 198.272 680.132C198.272 676.929 198.272 673.726 198.272 670.522C198.7 670.522 199.127 670.522 199.554 670.522C199.567 677.116 199.554 683.709 199.514 690.302C199.336 694.649 197.401 697.945 193.708 700.191C192.73 700.667 191.742 701.121 190.745 701.553C188.603 702.477 186.841 703.878 185.46 705.757C184.416 704.326 183.135 703.165 181.616 702.273C180.104 701.531 178.583 700.81 177.052 700.111C173.465 697.838 171.583 694.568 171.406 690.302C171.366 683.709 171.353 677.116 171.366 670.522ZM179.054 670.522C180.121 670.522 181.189 670.522 182.257 670.522C182.27 671.724 182.257 672.925 182.217 674.126C181.124 674.466 180.096 674.946 179.134 675.567C179.054 673.887 179.027 672.205 179.054 670.522ZM183.538 670.522C184.819 670.522 186.101 670.522 187.382 670.522C187.382 671.617 187.382 672.711 187.382 673.806C186.101 673.699 184.819 673.699 183.538 673.806C183.538 672.711 183.538 671.617 183.538 670.522ZM188.663 670.522C189.731 670.522 190.799 670.522 191.866 670.522C191.893 672.205 191.866 673.887 191.786 675.567C190.824 674.946 189.796 674.466 188.703 674.126C188.663 672.925 188.65 671.724 188.663 670.522ZM185.38 675.007C186.195 675.034 186.996 675.154 187.782 675.367C187.038 676.033 186.263 676.66 185.46 677.249C184.657 676.66 183.882 676.033 183.138 675.367C183.882 675.168 184.63 675.048 185.38 675.007ZM181.376 675.888C181.559 675.896 181.719 675.963 181.856 676.088C182.831 676.902 183.805 677.716 184.779 678.53C184.833 679.144 184.833 679.758 184.779 680.372C183.489 681.304 182.168 682.185 180.815 683.015C180.199 682.84 179.598 682.627 179.014 682.374C178.547 681.186 178.079 679.998 177.612 678.811C178.636 677.526 179.89 676.552 181.376 675.888ZM189.304 675.888C190.278 676.215 191.159 676.708 191.946 677.369C192.427 677.85 192.907 678.33 193.388 678.811C192.852 680.004 192.371 681.219 191.946 682.454C191.307 682.654 190.666 682.828 190.024 682.975C188.73 682.107 187.435 681.24 186.141 680.372C186.087 679.758 186.087 679.144 186.141 678.53C187.223 677.677 188.277 676.796 189.304 675.888ZM176.571 680.212C176.651 680.21 176.705 680.25 176.731 680.332C177.044 681.123 177.364 681.91 177.692 682.694C176.925 683.231 176.138 683.739 175.33 684.216C175.477 682.801 175.891 681.466 176.571 680.212ZM194.269 680.212C195.021 681.429 195.449 682.737 195.55 684.136C194.768 683.687 194.021 683.193 193.308 682.654C193.636 681.841 193.957 681.027 194.269 680.212ZM185.3 681.653C185.41 681.641 185.517 681.654 185.62 681.693C186.781 682.481 187.942 683.268 189.104 684.056C188.702 685.529 188.261 686.997 187.782 688.46C186.234 688.46 184.686 688.46 183.138 688.46C182.727 686.991 182.273 685.537 181.776 684.096C182.97 683.299 184.145 682.485 185.3 681.653ZM192.267 683.735C193.379 684.418 194.487 685.112 195.59 685.817C195.532 687.565 195.039 689.18 194.108 690.662C192.768 690.675 191.433 690.595 190.104 690.422C189.731 689.941 189.357 689.461 188.983 688.98C189.547 687.437 190.054 685.875 190.505 684.296C191.11 684.139 191.697 683.952 192.267 683.735ZM178.493 683.815C179.155 683.928 179.796 684.114 180.415 684.376C180.915 685.915 181.422 687.45 181.937 688.98C181.547 689.463 181.174 689.957 180.815 690.462C179.51 690.616 178.202 690.71 176.892 690.742C175.891 689.249 175.384 687.608 175.37 685.817C176.43 685.168 177.471 684.501 178.493 683.815ZM183.058 689.741C184.659 689.728 186.261 689.741 187.862 689.781C188.283 690.268 188.656 690.789 188.983 691.343C188.667 692.622 188.32 693.89 187.942 695.146C186.257 695.636 184.575 695.622 182.897 695.106C182.552 693.886 182.232 692.659 181.937 691.423C182.25 690.822 182.624 690.261 183.058 689.741ZM190.265 691.823C191.177 691.89 192.084 691.984 192.987 692.104C192.027 693.201 190.879 694.002 189.544 694.506C189.815 693.621 190.055 692.727 190.265 691.823ZM179.854 691.903C180.121 691.903 180.388 691.903 180.655 691.903C180.844 692.763 181.057 693.617 181.296 694.466C181.269 694.492 181.242 694.519 181.216 694.546C179.975 693.932 178.88 693.118 177.933 692.104C178.586 692.042 179.227 691.975 179.854 691.903Z" fill="#07A157"/>
</g>
<path d="M1010 696C1010 687.163 1017.16 680 1026 680H1867C1875.84 680 1883 687.163 1883 696V1041C1883 1049.84 1875.84 1057 1867 1057H1026C1017.16 1057 1010 1049.84 1010 1041V696Z" fill="#022F0E"/>
<path d="M1090.32 709.63L1063.1 724L1035.73 709.63C1030.93 706.314 1027 704.908 1027 701.592V668.029C1027 664.713 1030.93 662 1035.73 662H1090.32C1095.12 662 1099.05 664.713 1099.05 668.029V701.592C1099.05 704.908 1095.41 706.113 1090.32 709.63Z" fill="white"/>
<g clip-path="url(#clip6_239_384)">
<g clip-path="url(#clip7_239_384)">
<g clip-path="url(#clip8_239_384)">
<path d="M1047.2 668.2L1047 668.392V688.5V708.608L1047.2 708.8L1047.39 709H1062.13C1072.75 709 1076.92 708.976 1077.05 708.912C1077.17 708.864 1077.29 708.736 1077.34 708.624C1077.41 708.496 1077.43 707.102 1077.43 704.083V699.735L1078.17 699.687C1082.17 699.463 1085.88 696.7 1087.32 692.856C1088.86 688.772 1087.66 684.064 1084.35 681.197C1082.59 679.675 1080.5 678.811 1078.05 678.61L1077.43 678.554V673.565C1077.43 670.074 1077.41 668.513 1077.34 668.376C1077.29 668.264 1077.17 668.136 1077.05 668.088C1076.92 668.024 1072.75 668 1062.13 668H1047.39L1047.2 668.2ZM1051.64 669.722C1051.64 670.186 1051.5 670.851 1051.32 671.211C1051.14 671.571 1050.57 672.14 1050.21 672.324C1049.85 672.5 1049.19 672.645 1048.72 672.645H1048.36V671.003V669.361H1050H1051.64V669.722ZM1057.57 671.051C1057.57 672.757 1057.6 672.965 1057.88 673.181C1058.07 673.325 1066.36 673.325 1066.56 673.173C1066.81 672.981 1066.86 672.653 1066.86 670.995V669.361H1069.18H1071.5V669.994C1071.5 672.188 1073.26 673.926 1075.46 673.926H1076.07V676.28V678.642L1075.61 678.722C1074.64 678.907 1073.6 679.259 1072.7 679.707C1069.52 681.269 1067.36 684.312 1066.89 687.899L1066.84 688.3L1066.73 687.715C1066.39 685.761 1064.83 684.24 1062.84 683.936C1061.99 683.807 1060.97 683.984 1060.13 684.4C1058.99 684.961 1058.02 686.186 1057.73 687.435L1057.63 687.859H1053H1048.36V680.893V673.926H1048.93C1051.18 673.926 1052.93 672.18 1052.93 669.93V669.361H1055.25H1057.57V671.051ZM1065.5 670.683V672.004H1062.21H1058.93V670.683V669.361H1062.21H1065.5V670.683ZM1076.07 671.011V672.669L1075.42 672.621C1073.87 672.5 1072.91 671.539 1072.81 669.994L1072.76 669.361H1074.42H1076.07V671.011ZM1078.94 680.06C1079.11 680.14 1079.11 680.14 1078.77 680.676L1078.43 681.213H1077.45H1076.48L1076.11 680.684C1075.9 680.396 1075.75 680.148 1075.77 680.124C1075.95 679.948 1078.51 679.892 1078.94 680.06ZM1074.95 681.373C1075.64 682.406 1075.75 682.494 1076.36 682.494H1076.71L1076.69 683.952L1076.67 685.409L1075.36 686.194L1074.05 686.979L1072.83 686.258L1071.59 685.529L1071.83 685.033C1072.12 684.424 1072.1 684.344 1071.53 683.191C1071.3 682.718 1071.12 682.294 1071.14 682.262C1071.23 682.11 1072.63 681.237 1073.42 680.845C1073.88 680.604 1074.27 680.412 1074.28 680.412C1074.3 680.412 1074.59 680.845 1074.95 681.373ZM1082.14 681.301C1082.79 681.693 1083.6 682.326 1083.6 682.43C1083.6 682.462 1083.4 682.903 1083.15 683.399C1082.63 684.424 1082.59 684.664 1082.9 685.257L1083.1 685.665L1082.81 685.833C1082.64 685.921 1082.11 686.234 1081.63 686.522L1080.73 687.043L1079.4 686.25L1078.07 685.449V684.008V682.574H1078.43C1079.01 682.574 1079.17 682.454 1079.84 681.437L1080.47 680.5L1081.02 680.724C1081.31 680.845 1081.82 681.109 1082.14 681.301ZM1070.43 684L1070.68 684.536L1070.19 685.513L1069.7 686.498H1069.13C1068.81 686.498 1068.54 686.466 1068.54 686.418C1068.54 686.066 1069.95 683.455 1070.14 683.463C1070.17 683.463 1070.29 683.703 1070.43 684ZM1084.92 683.839C1085.4 684.544 1085.57 684.856 1085.85 685.497C1086.33 686.57 1086.34 686.498 1085.66 686.498H1085.08L1084.59 685.513L1084.1 684.536L1084.35 683.992C1084.48 683.695 1084.6 683.455 1084.63 683.455C1084.65 683.455 1084.79 683.631 1084.92 683.839ZM1063.59 685.513C1064.31 685.849 1064.79 686.314 1065.14 687.003C1065.61 687.947 1065.91 687.859 1062.21 687.859C1058.56 687.859 1058.84 687.931 1059.24 687.091C1059.64 686.25 1060.24 685.713 1061.17 685.361C1061.44 685.257 1061.73 685.225 1062.29 685.241C1062.95 685.257 1063.13 685.297 1063.59 685.513ZM1078.6 687.395C1079.28 687.803 1079.83 688.172 1079.83 688.22C1079.83 688.26 1079.62 689.077 1079.36 690.021L1078.9 691.743H1077.39H1075.88L1075.37 690.021C1075.1 689.077 1074.88 688.26 1074.88 688.22C1074.88 688.156 1077.22 686.666 1077.33 686.658C1077.35 686.658 1077.92 686.995 1078.6 687.395ZM1072.29 687.435C1072.94 687.819 1073.47 688.14 1073.49 688.148C1073.55 688.188 1074.62 692.152 1074.59 692.24C1074.52 692.416 1073.17 694.186 1073.1 694.186C1073.06 694.186 1072.83 694.089 1072.58 693.969L1072.14 693.753L1070.98 694.033L1069.83 694.322L1069.63 694.025C1069.04 693.129 1068.52 691.791 1068.34 690.63C1068.22 689.885 1068.18 688.476 1068.27 688.028L1068.32 687.779H1069.36C1070.35 687.779 1070.4 687.771 1070.57 687.579C1070.67 687.475 1070.82 687.243 1070.9 687.059C1070.98 686.882 1071.06 686.738 1071.08 686.738C1071.1 686.738 1071.65 687.051 1072.29 687.435ZM1083.96 687.211C1084.24 687.843 1084.36 687.899 1085.52 687.923L1086.54 687.955L1086.59 688.244C1086.68 688.78 1086.64 690.318 1086.53 690.918C1086.46 691.247 1086.32 691.799 1086.2 692.152C1085.97 692.808 1085.33 694.129 1085.14 694.282C1085.06 694.346 1084.75 694.29 1083.92 694.073C1083.32 693.913 1082.75 693.785 1082.66 693.785C1082.57 693.785 1082.32 693.913 1082.11 694.065C1081.89 694.218 1081.69 694.346 1081.67 694.346C1081.64 694.346 1081.28 693.889 1080.87 693.337L1080.13 692.328L1080.73 690.318L1081.32 688.3L1082.48 687.603C1083.12 687.219 1083.68 686.906 1083.72 686.906C1083.77 686.898 1083.88 687.043 1083.96 687.211ZM1067.17 691.719C1067.88 694.53 1069.72 696.956 1072.2 698.374C1073.23 698.958 1074.65 699.463 1075.65 699.599L1076.07 699.655V701.361V703.074H1075.46C1073.26 703.074 1071.5 704.812 1071.5 707.006V707.639H1069.18H1066.86V706.005C1066.86 704.347 1066.81 704.019 1066.56 703.827C1066.36 703.675 1058.07 703.675 1057.88 703.819C1057.6 704.035 1057.57 704.243 1057.57 705.949V707.639H1055.25H1052.93V707.07C1052.93 705.957 1052.54 705.012 1051.76 704.235C1050.99 703.459 1050.04 703.074 1048.93 703.074H1048.36V696.107V689.141H1052.99H1057.61L1057.83 689.829C1058.38 691.559 1059.73 692.744 1061.49 693.04C1062.1 693.145 1062.27 693.145 1062.89 693.04C1064.86 692.696 1066.36 691.263 1066.75 689.341C1066.8 689.069 1066.83 689.149 1066.88 689.901C1066.91 690.43 1067.03 691.151 1067.17 691.719ZM1065.38 689.397C1065.27 689.853 1064.94 690.43 1064.53 690.838C1063.2 692.168 1060.93 692.088 1059.7 690.654C1059.4 690.294 1059.12 689.749 1059.04 689.373L1059 689.141H1062.21H1065.43L1065.38 689.397ZM1079.83 694.154L1080.58 695.171L1080.38 695.339C1080.26 695.435 1080.01 695.643 1079.81 695.811L1079.44 696.115L1079.42 697.172L1079.39 698.229L1078.99 698.294C1078.46 698.39 1076.28 698.39 1075.83 698.294L1075.47 698.221L1075.45 697.309C1075.44 696.804 1075.41 696.308 1075.39 696.212C1075.36 696.123 1075.11 695.859 1074.82 695.627C1074.51 695.387 1074.31 695.171 1074.34 695.106C1074.35 695.05 1074.68 694.586 1075.07 694.073L1075.76 693.145H1077.42H1079.09L1079.83 694.154ZM1073.11 696.003L1074.15 696.788V697.293C1074.15 697.781 1074.14 697.797 1073.97 697.741C1073.27 697.525 1071.94 696.692 1071.2 695.995L1070.69 695.507L1071.19 695.379C1071.47 695.299 1071.78 695.235 1071.89 695.235C1072 695.227 1072.46 695.523 1073.11 696.003ZM1083.58 695.363L1084.16 695.499L1083.98 695.691C1083.72 695.971 1082.59 696.836 1082.08 697.14C1081.71 697.365 1080.83 697.789 1080.74 697.789C1080.73 697.789 1080.71 697.557 1080.71 697.277V696.764L1081.74 695.995C1082.3 695.579 1082.81 695.227 1082.87 695.227C1082.94 695.227 1083.26 695.283 1083.58 695.363ZM1049.5 704.444C1049.73 704.492 1050.05 704.604 1050.21 704.676C1050.57 704.86 1051.14 705.429 1051.32 705.789C1051.5 706.149 1051.64 706.814 1051.64 707.278V707.639H1050H1048.36V705.997V704.355H1048.72C1048.91 704.355 1049.27 704.396 1049.5 704.444ZM1076.07 705.997V707.639H1074.42H1072.76L1072.81 707.006C1072.91 705.38 1073.97 704.396 1075.65 704.363L1076.07 704.355V705.997ZM1065.5 706.317V707.639H1062.21H1058.93V706.317V704.996H1062.21H1065.5V706.317Z" fill="#07A157"/>
<path d="M1054.93 673.686C1054.93 675.447 1054.98 675.76 1055.29 675.88C1055.36 675.904 1056.05 675.928 1056.82 675.928C1058.19 675.928 1058.21 675.928 1058.24 676.104C1058.26 676.208 1058.32 676.504 1058.36 676.769C1058.55 677.77 1059.32 678.843 1060.24 679.363C1061.85 680.268 1063.81 679.972 1065.07 678.634C1065.68 677.986 1066.14 676.977 1066.14 676.272V675.928H1067.6C1069.17 675.92 1069.26 675.904 1069.42 675.495C1069.47 675.367 1069.5 674.582 1069.5 673.638V672.004H1068.82H1068.14V673.325V674.647H1062.21H1056.29V673.325V672.004H1055.61H1054.93V673.686ZM1064.86 676.064C1064.85 676.632 1064.44 677.481 1063.96 677.898C1063.43 678.362 1062.97 678.53 1062.21 678.53C1061.63 678.53 1061.47 678.498 1061.09 678.306C1060.29 677.922 1059.72 677.137 1059.6 676.296L1059.55 675.928H1062.21C1064.68 675.928 1064.86 675.936 1064.86 676.064Z" fill="#07A157"/>
<path d="M1061.77 697.124C1060.07 697.373 1058.65 698.662 1058.36 700.231C1058.32 700.496 1058.26 700.792 1058.24 700.888C1058.21 701.072 1058.19 701.072 1056.82 701.072C1056.05 701.072 1055.36 701.096 1055.29 701.12C1054.98 701.24 1054.93 701.553 1054.93 703.314V704.996H1055.61H1056.29V703.675V702.354H1062.21H1068.14V703.675V704.996H1068.82H1069.5V703.363C1069.5 702.418 1069.47 701.633 1069.42 701.505C1069.26 701.096 1069.17 701.08 1067.6 701.072H1066.14V700.728C1066.14 699.663 1065.27 698.294 1064.2 697.661C1063.49 697.253 1062.46 697.02 1061.77 697.124ZM1063.3 698.67C1064.04 699.03 1064.55 699.631 1064.75 700.392C1064.95 701.144 1065.2 701.072 1062.21 701.072H1059.55L1059.6 700.704C1059.73 699.719 1060.47 698.862 1061.44 698.542C1061.93 698.382 1062.82 698.438 1063.3 698.67Z" fill="#07A157"/>
</g>
</g>
</g>
<path d="M1010 135C1010 126.163 1017.16 119 1026 119H1867C1875.84 119 1883 126.163 1883 135V640C1883 648.837 1875.84 656 1867 656H1026C1017.16 656 1010 648.837 1010 640V135Z" fill="#022F0E"/>
<path d="M1090.32 148.63L1063.1 163L1035.73 148.63C1030.93 145.314 1027 143.908 1027 140.592V107.029C1027 103.713 1030.93 101 1035.73 101H1090.32C1095.12 101 1099.05 103.713 1099.05 107.029V140.592C1099.05 143.908 1095.41 145.113 1090.32 148.63Z" fill="white"/>
<path d="M1045.48 109.481L1045.28 109.674V128.5V147.326L1045.48 147.519L1045.67 147.719H1064.5H1083.33L1083.52 147.519L1083.72 147.326V128.5V109.674L1083.52 109.481L1083.33 109.281H1064.5H1045.67L1045.48 109.481ZM1048.24 110.643C1048.24 110.819 1047.91 111.371 1047.64 111.644C1047.37 111.908 1046.82 112.244 1046.64 112.244C1046.59 112.244 1046.56 111.932 1046.56 111.403V110.563H1047.4C1047.93 110.563 1048.24 110.595 1048.24 110.643ZM1079.48 110.899C1079.8 112.116 1080.98 113.261 1082.22 113.557L1082.44 113.605V130.021V146.438H1077.61H1072.78L1072.6 146.053C1071.85 144.532 1070.3 142.962 1068.7 142.137C1067.27 141.401 1066.09 141.12 1064.46 141.128C1062.88 141.136 1061.66 141.433 1060.3 142.137C1058.69 142.97 1057.14 144.532 1056.4 146.053L1056.22 146.438H1051.39H1046.56V130.021V113.613L1046.91 113.517C1048.12 113.197 1049.26 112.02 1049.56 110.779L1049.61 110.563H1064.5H1079.39L1079.48 110.899ZM1082.44 111.403C1082.44 111.932 1082.41 112.244 1082.36 112.244C1082.18 112.244 1081.63 111.908 1081.36 111.644C1081.09 111.371 1080.76 110.819 1080.76 110.643C1080.76 110.595 1081.07 110.563 1081.6 110.563H1082.44V111.403ZM1065.62 142.474C1067.81 142.802 1069.77 144.027 1070.95 145.805C1071.15 146.101 1071.31 146.357 1071.31 146.389C1071.31 146.413 1068.25 146.438 1064.5 146.438C1060.76 146.438 1057.69 146.413 1057.69 146.389C1057.69 146.357 1057.85 146.101 1058.05 145.805C1059.21 144.067 1061.21 142.802 1063.34 142.466C1064.21 142.329 1064.72 142.338 1065.62 142.474Z" fill="#07A157"/>
<path d="M1056.58 111.571C1056.42 111.78 1056.41 111.884 1056.41 114.062V116.336L1056.61 116.528L1056.8 116.728H1058.6H1060.4L1060.5 117.105C1060.82 118.418 1061.91 119.571 1063.22 120.02C1063.9 120.252 1064.96 120.268 1065.69 120.052C1066.37 119.86 1067.28 119.243 1067.69 118.714C1068.03 118.266 1068.5 117.337 1068.5 117.113C1068.5 116.728 1068.49 116.728 1070.39 116.728C1072.02 116.728 1072.19 116.712 1072.36 116.576L1072.55 116.424L1072.57 114.11C1072.6 111.852 1072.59 111.788 1072.43 111.579C1072.2 111.291 1071.74 111.275 1071.48 111.547C1071.31 111.732 1071.31 111.796 1071.31 113.589V115.447H1064.5H1057.69V113.581C1057.69 111.732 1057.69 111.708 1057.51 111.539C1057.24 111.283 1056.8 111.299 1056.58 111.571ZM1067.19 116.985C1067.17 117.121 1067.03 117.409 1066.89 117.625C1066.23 118.65 1065.01 119.155 1063.87 118.859C1062.97 118.626 1062.31 118.114 1061.94 117.329C1061.63 116.688 1061.44 116.728 1064.51 116.728H1067.25L1067.19 116.985Z" fill="#07A157"/>
<path d="M1069.73 117.609C1069.46 117.713 1069.4 117.898 1069.22 119.035C1069.02 120.388 1069.02 120.532 1069.26 120.772C1069.5 121.021 1069.79 121.029 1070.07 120.788C1070.24 120.644 1070.29 120.492 1070.39 119.852C1070.46 119.435 1070.52 119.051 1070.55 119.003C1070.56 118.939 1070.75 118.939 1071.24 119.019C1072.2 119.179 1072.4 119.163 1072.63 118.931C1072.89 118.674 1072.88 118.37 1072.61 118.098C1072.41 117.906 1072.28 117.866 1071.39 117.745C1070.83 117.665 1070.28 117.585 1070.15 117.569C1070.02 117.553 1069.83 117.569 1069.73 117.609Z" fill="#07A157"/>
<path d="M1071.14 119.772C1071.07 119.812 1070.96 119.956 1070.91 120.084C1070.79 120.356 1070.89 120.604 1071.35 121.237C1071.78 121.814 1072.22 121.894 1072.54 121.437C1072.73 121.165 1072.7 120.957 1072.38 120.484C1071.88 119.748 1071.53 119.539 1071.14 119.772Z" fill="#07A157"/>
<path d="M1072.64 122.102C1072.32 122.35 1072.36 122.686 1072.77 123.303C1073.2 123.92 1073.45 124.072 1073.8 123.936C1074.41 123.679 1074.3 123.047 1073.48 122.15C1073.24 121.886 1072.93 121.87 1072.64 122.102Z" fill="#07A157"/>
<path d="M1074.73 123.968C1073.44 124.432 1072.87 125.945 1073.52 127.147C1074.21 128.42 1075.86 128.716 1076.95 127.763C1078.19 126.682 1077.9 124.744 1076.39 124.048C1075.93 123.831 1075.21 123.799 1074.73 123.968ZM1076.21 125.449C1076.64 125.929 1076.43 126.778 1075.83 126.978C1075 127.251 1074.25 126.458 1074.62 125.689C1074.81 125.289 1075.11 125.129 1075.58 125.161C1075.9 125.193 1076.02 125.241 1076.21 125.449Z" fill="#07A157"/>
<path d="M1069.63 125.857C1069.46 126.018 1069.42 126.362 1069.51 126.618C1069.54 126.69 1069.92 126.922 1070.35 127.147C1070.79 127.363 1071.15 127.555 1071.15 127.571C1071.15 127.595 1071 127.907 1070.83 128.268C1070.47 129.013 1070.43 129.381 1070.67 129.621C1070.83 129.789 1071.22 129.829 1071.46 129.709C1071.53 129.661 1071.84 129.109 1072.14 128.468C1072.89 126.882 1072.89 126.898 1071.27 126.154C1070.18 125.665 1069.87 125.609 1069.63 125.857Z" fill="#07A157"/>
<path d="M1068.79 127.619C1068.45 127.739 1068.13 127.891 1068.1 127.947C1067.85 128.332 1067.98 128.796 1068.37 128.932C1068.54 128.996 1068.72 128.964 1069.17 128.828C1069.87 128.604 1070.11 128.412 1070.11 128.044C1070.11 127.795 1069.88 127.459 1069.71 127.459C1069.67 127.459 1069.59 127.443 1069.53 127.427C1069.47 127.403 1069.14 127.491 1068.79 127.619Z" fill="#07A157"/>
<path d="M1065.12 128.804C1064.17 129.133 1063.94 129.301 1063.94 129.637C1063.94 129.965 1064.06 130.15 1064.33 130.246C1064.52 130.31 1064.74 130.27 1065.58 130.005C1066.14 129.829 1066.67 129.613 1066.75 129.533C1066.96 129.325 1066.95 128.868 1066.74 128.66C1066.51 128.428 1066.12 128.468 1065.12 128.804Z" fill="#07A157"/>
<path d="M1061.14 130.11C1060.64 130.278 1060.17 130.478 1060.09 130.55C1059.85 130.766 1059.89 131.255 1060.14 131.455C1060.26 131.551 1060.42 131.623 1060.5 131.623C1060.58 131.623 1061.09 131.479 1061.64 131.303C1062.71 130.958 1062.9 130.83 1062.9 130.398C1062.9 130.102 1062.58 129.781 1062.28 129.789C1062.16 129.789 1061.65 129.933 1061.14 130.11Z" fill="#07A157"/>
<path d="M1052.77 131.167C1052.1 131.423 1051.6 131.935 1051.38 132.576C1051.22 133.04 1051.26 133.777 1051.48 134.226C1052.26 135.899 1054.6 135.971 1055.48 134.354C1056.29 132.864 1055.21 131.055 1053.53 131.071C1053.24 131.071 1052.9 131.119 1052.77 131.167ZM1054 132.464C1054.24 132.584 1054.49 133.016 1054.49 133.305C1054.49 133.737 1053.97 134.266 1053.55 134.266C1053.24 134.266 1052.81 134.025 1052.69 133.777C1052.62 133.657 1052.57 133.401 1052.57 133.217C1052.57 132.952 1052.62 132.84 1052.84 132.616C1053.06 132.392 1053.18 132.344 1053.44 132.344C1053.63 132.344 1053.88 132.4 1054 132.464Z" fill="#07A157"/>
<path d="M1057.61 131.263C1056.96 131.479 1056.73 131.671 1056.73 132.039C1056.73 132.32 1057.04 132.664 1057.32 132.664C1057.65 132.664 1058.53 132.328 1058.72 132.128C1059.01 131.807 1058.93 131.375 1058.52 131.159C1058.29 131.038 1058.33 131.03 1057.61 131.263Z" fill="#07A157"/>
<path d="M1057.65 133.393C1056.58 133.889 1056.33 134.081 1056.33 134.378C1056.33 134.61 1057.34 136.764 1057.51 136.884C1057.72 137.044 1058.15 137.012 1058.33 136.828C1058.58 136.58 1058.53 136.204 1058.17 135.435C1057.98 135.05 1057.85 134.73 1057.86 134.722C1057.88 134.714 1058.23 134.546 1058.64 134.346C1059.05 134.146 1059.42 133.921 1059.46 133.849C1059.58 133.617 1059.54 133.233 1059.38 133.064C1059.12 132.808 1058.77 132.872 1057.65 133.393Z" fill="#07A157"/>
<path d="M1059.3 134.674C1058.88 134.842 1058.77 135.315 1059.08 135.651C1059.25 135.851 1060.13 136.188 1060.46 136.188C1060.67 136.188 1060.96 135.923 1061.02 135.675C1061.05 135.563 1061.02 135.379 1060.94 135.243C1060.83 135.034 1060.71 134.962 1060.17 134.786C1059.82 134.674 1059.52 134.586 1059.51 134.594C1059.5 134.594 1059.41 134.634 1059.3 134.674Z" fill="#07A157"/>
<path d="M1062.42 135.731C1062.1 135.891 1061.99 136.203 1062.13 136.532C1062.23 136.796 1062.3 136.828 1063.23 137.14C1064.41 137.533 1064.67 137.549 1064.89 137.26C1065.11 136.98 1065.11 136.66 1064.88 136.444C1064.74 136.316 1062.84 135.619 1062.65 135.627C1062.63 135.627 1062.53 135.675 1062.42 135.731Z" fill="#07A157"/>
<path d="M1066.3 137.188C1066.05 137.437 1066.04 137.821 1066.29 138.037C1066.46 138.197 1068.25 138.83 1068.53 138.83C1068.96 138.83 1069.24 138.053 1068.9 137.749C1068.74 137.597 1066.97 136.988 1066.68 136.988C1066.57 136.988 1066.41 137.076 1066.3 137.188Z" fill="#07A157"/>
<path d="M1070.47 138.366C1070.06 138.582 1069.99 139.038 1070.3 139.351C1070.48 139.535 1071.4 139.871 1071.72 139.871C1071.96 139.871 1072.27 139.511 1072.27 139.246C1072.27 138.886 1072.04 138.694 1071.39 138.47C1070.72 138.246 1070.69 138.238 1070.47 138.366Z" fill="#07A157"/>
<path d="M1074.55 138.462C1072.68 139.335 1072.9 142.065 1074.89 142.642C1075.97 142.954 1077.1 142.402 1077.57 141.329C1077.77 140.872 1077.74 139.983 1077.51 139.511C1076.99 138.438 1075.63 137.957 1074.55 138.462ZM1076.16 139.823C1076.38 140.047 1076.43 140.159 1076.43 140.432C1076.43 140.848 1076.23 141.192 1075.9 141.353C1075.56 141.513 1075.33 141.505 1075.01 141.312C1074.13 140.776 1074.49 139.551 1075.54 139.551C1075.83 139.551 1075.94 139.599 1076.16 139.823Z" fill="#07A157"/>
</g>
<defs>
<filter id="filter0_d_239_384" x="-4" y="149" width="104" height="104" filterUnits="userSpaceOnUse" color-interpolation-filters="sRGB">
<feFlood flood-opacity="0" result="BackgroundImageFix"/>
<feColorMatrix in="SourceAlpha" type="matrix" values="0 0 0 0 0 0 0 0 0 0 0 0 0 0 0 0 0 0 127 0" result="hardAlpha"/>
<feOffset dy="8"/>
<feGaussianBlur stdDeviation="12"/>
<feColorMatrix type="matrix" values="0 0 0 0 0.917647 0 0 0 0 0.486275 0 0 0 0 0.411765 0 0 0 0.32 0"/>
<feBlend mode="normal" in2="BackgroundImageFix" result="effect1_dropShadow_239_384"/>
<feBlend mode="normal" in="SourceGraphic" in2="effect1_dropShadow_239_384" result="shape"/>
</filter>
<clipPath id="clip0_239_384">
<rect width="1920" height="1080" rx="16" fill="white"/>
</clipPath>
<clipPath id="clip1_239_384">
<rect width="24" height="24" fill="white" transform="translate(36 78)"/>
</clipPath>
<clipPath id="clip2_239_384">
<rect width="24" height="24" fill="white" transform="translate(36 181)"/>
</clipPath>
<clipPath id="clip3_239_384">
<rect width="48" height="48" fill="white" transform="translate(26 1010)"/>
</clipPath>
<clipPath id="clip4_239_384">
<rect width="48" height="48" fill="white" transform="translate(26 919)"/>
</clipPath>
<clipPath id="clip5_239_384">
<rect width="41" height="41" fill="white" transform="translate(164 668)"/>
</clipPath>
<clipPath id="clip6_239_384">
<rect width="41" height="41" fill="white" transform="translate(1046 668)"/>
</clipPath>
<clipPath id="clip7_239_384">
<rect width="41" height="41" fill="white" transform="translate(1047 668)"/>
</clipPath>
<clipPath id="clip8_239_384">
<rect width="41" height="41" fill="white" transform="translate(1047 668)"/>
</clipPath>
</defs>
</svg>
