<svg width="1920" height="1080" viewBox="0 0 1920 1080" fill="none" xmlns="http://www.w3.org/2000/svg">
<g clip-path="url(#clip0_244_651)">
<rect width="1920" height="1080" rx="16" fill="#226334"/>
<rect width="94" height="1080" rx="16" fill="#022F0E"/>
<g clip-path="url(#clip1_244_651)">
<path d="M57.25 102V87" stroke="#F2C94C" stroke-width="2" stroke-linecap="round" stroke-linejoin="round"/>
<path d="M48.5 102V78" stroke="#F2C94C" stroke-width="2" stroke-linecap="round" stroke-linejoin="round"/>
<path d="M39.75 102V93" stroke="#F2C94C" stroke-width="2" stroke-linecap="round" stroke-linejoin="round"/>
</g>
<path d="M48 177C41.3835 177 36 182.384 36 189C36 195.616 41.3835 201 48 201C54.6165 201 60 195.616 60 189C60 182.384 54.6165 177 48 177ZM48.762 180.898L51.8475 179.24C53.556 179.916 55.047 181.024 56.181 182.434L55.446 185.828L53.0925 186.981L48.762 183.827V180.898ZM44.178 179.23L47.2635 180.895V183.827L42.936 186.981L40.5705 185.826L39.8355 182.412C40.9725 181.005 42.4665 179.903 44.178 179.23ZM39.345 194.931C38.3655 193.506 37.728 191.831 37.5525 190.02L40.092 187.262L42.408 188.394L44.1525 193.349L42.678 195.115L39.345 194.931ZM50.6745 199.141C49.818 199.368 48.9255 199.5 48 199.5C46.881 199.5 45.804 199.32 44.7915 198.995L43.848 196.057L45.3525 194.25H50.6535L52.131 195.999L50.6745 199.141ZM53.301 195.065L51.8505 193.347L53.619 188.394L55.9245 187.264L58.449 190.021C58.2975 191.583 57.795 193.04 57.0315 194.328L53.301 195.065Z" fill="#F2C94C"/>
<path d="M2 266C2 259.373 7.37258 254 14 254H94V334H14C7.37259 334 2 328.627 2 322V266Z" fill="#226334"/>
<path d="M90.5 250C94.5 246 94 242 94 242V254H82C82 254 86.5 254 90.5 250Z" fill="#226334"/>
<path d="M90.01 337.51C86.01 333.51 82.01 334.01 82.01 334.01H94.01V346.01C94.01 346.01 94.01 341.51 90.01 337.51Z" fill="#226334"/>
<g filter="url(#filter0_d_244_651)">
<rect x="20" y="267" width="56" height="56" rx="8" fill="#387A49"/>
<path d="M45.8911 283H57.7082C58.2954 283.094 58.6537 283.425 58.7831 283.993C58.8009 284.071 58.7939 284.16 58.7943 284.242C58.8028 289.927 58.8042 295.775 58.7986 301.785C58.7981 302.35 58.4179 302.844 57.8779 302.968C57.7576 302.995 57.5054 303.007 57.1214 303.004C56.5382 302.998 55.9878 302.998 55.47 303.004C55.455 303.004 55.4437 303.011 55.4362 303.024C55.2497 303.348 54.9942 303.487 54.6253 303.602C51.0359 304.721 47.4718 305.834 43.9331 306.941C43.8436 306.969 43.7536 306.982 43.6626 307H43.4536C42.9511 306.922 42.6009 306.626 42.4532 306.154C40.707 300.574 38.9767 295.037 37.2623 289.544C37.1039 289.036 37.2736 288.49 37.7306 288.201C37.8197 288.144 37.9526 288.088 38.1295 288.033C40.3814 287.331 42.5992 286.637 44.7829 285.952C44.7957 285.948 44.802 285.939 44.8017 285.926C44.7986 285.305 44.7993 284.728 44.804 284.195C44.8097 283.542 45.2648 283.099 45.8911 283ZM57.9989 284.203C57.9989 284.096 57.9563 283.993 57.8805 283.918C57.8047 283.842 57.702 283.799 57.5948 283.799H46.0036C45.8964 283.799 45.7936 283.842 45.7178 283.918C45.6421 283.993 45.5995 284.096 45.5995 284.203V301.795C45.5995 301.902 45.6421 302.004 45.7178 302.08C45.7936 302.156 45.8964 302.199 46.0036 302.199H57.5948C57.702 302.199 57.8047 302.156 57.8805 302.08C57.9563 302.004 57.9989 301.902 57.9989 301.795V284.203ZM46.0312 303.001C45.495 303.001 45.0553 302.696 44.8654 302.194C44.8207 302.077 44.7984 301.839 44.7984 301.481C44.8 296.635 44.8011 291.746 44.8017 286.814C44.8017 286.795 44.7926 286.788 44.7745 286.794C42.6245 287.467 40.4489 288.147 38.2476 288.835C38.0484 288.897 37.9607 289.099 38.0207 289.292C39.7951 294.971 41.5312 300.525 43.229 305.955C43.2661 306.074 43.3753 306.168 43.4976 306.19C43.5673 306.203 43.6664 306.189 43.7948 306.148C47.1314 305.104 50.4628 304.062 53.789 303.023C53.8368 303.008 53.8356 303.001 53.7853 303.001C51.1412 303.001 48.5565 303.001 46.0312 303.001Z" fill="#F2C94C"/>
<path d="M47.2002 285.432C47.2021 285.877 47.2018 286.26 47.1993 286.581C47.1946 287.138 46.3972 287.126 46.4 286.585C46.4022 286.113 46.4011 285.613 46.3968 285.084C46.394 284.782 46.5388 284.596 46.8721 284.598C47.3427 284.602 47.83 284.602 48.3341 284.597C48.4432 284.597 48.5324 284.617 48.6018 284.657C48.8108 284.781 48.8638 285.056 48.71 285.249C48.6149 285.369 48.4897 285.401 48.343 285.401C47.9933 285.401 47.6227 285.401 47.2311 285.4C47.2102 285.4 47.1999 285.411 47.2002 285.432Z" fill="#F2C94C"/>
<path d="M39.9282 289.989C39.9251 289.99 39.9225 289.992 39.921 289.995C39.9196 289.998 39.9193 290.001 39.9202 290.005C40.053 290.426 40.1864 290.854 40.3205 291.288C40.4818 291.808 39.7177 292.052 39.5471 291.498C39.3802 290.957 39.2119 290.418 39.0422 289.882C38.9616 289.629 39.075 289.413 39.3291 289.334C39.9632 289.137 40.5222 288.962 41.0063 288.81C41.5219 288.648 41.7671 289.414 41.221 289.582C40.7482 289.728 40.3172 289.864 39.9282 289.989Z" fill="#F2C94C"/>
</g>
<path d="M60 387.864V405.603C59.9394 406.239 59.6744 406.739 59.205 407.105C58.8258 407.401 58.3842 407.545 57.9052 407.545C55.0777 407.545 52.2191 407.545 49.3294 407.545C48.8466 407.545 48.8391 406.839 49.342 406.84C50.0833 406.843 50.8061 406.843 51.5105 406.841C51.5131 406.841 51.5156 406.84 51.518 406.839C51.5204 406.838 51.5226 406.837 51.5244 406.835C51.5262 406.833 51.5277 406.831 51.5287 406.828C51.5296 406.826 51.5302 406.823 51.5302 406.821V402.461C51.5302 402.458 51.5287 402.454 51.526 402.452C51.5234 402.449 51.5198 402.448 51.5161 402.448H44.4834C44.4797 402.448 44.4761 402.449 44.4735 402.452C44.4709 402.455 44.4694 402.458 44.4694 402.462V406.819C44.4694 406.825 44.4717 406.831 44.476 406.835C44.4802 406.839 44.4859 406.841 44.4919 406.841C45.5734 406.842 46.7045 406.842 47.8852 406.841C48.3806 406.841 48.3914 407.546 47.8561 407.545C44.7214 407.543 41.5673 407.544 38.3939 407.547C38.0377 407.548 37.7722 407.529 37.5975 407.49C36.7069 407.292 36.0694 406.517 36 405.599V387.856C36.0722 387.227 36.4688 386.718 37.0669 386.528C37.2459 386.471 37.5334 386.445 37.9294 386.45C38.5553 386.458 39.1834 386.459 39.8138 386.454C40.328 386.449 40.3284 387.159 39.8367 387.159C39.0958 387.158 38.3345 387.158 37.553 387.159C37.0786 387.159 36.7041 387.509 36.7036 387.984C36.7027 389.05 36.7027 390.231 36.7036 391.527C36.7036 391.544 36.7119 391.552 36.7284 391.552H59.2711C59.2892 391.552 59.2983 391.543 59.2983 391.525C59.2948 390.311 59.2955 389.17 59.3002 388.103C59.302 387.684 59.1516 387.358 58.7527 387.207C58.6623 387.173 58.4928 387.156 58.2441 387.156C52.7706 387.16 47.1031 387.16 41.2416 387.155C41.185 387.155 41.1298 387.138 41.0761 387.105C40.7813 386.918 40.9036 386.46 41.2612 386.459C46.8025 386.45 52.5423 386.452 58.4808 386.464C58.5355 386.464 58.5956 386.466 58.6613 386.469C58.7219 386.473 58.7781 386.482 58.83 386.497C59.5094 386.691 59.8994 387.147 60 387.864ZM43.7672 392.284C43.7672 392.276 43.7642 392.269 43.7588 392.264C43.7535 392.258 43.7462 392.255 43.7386 392.255H36.7317C36.7241 392.255 36.7169 392.258 36.7115 392.264C36.7061 392.269 36.7031 392.276 36.7031 392.284V396.62C36.7031 396.627 36.7061 396.635 36.7115 396.64C36.7169 396.645 36.7241 396.648 36.7317 396.648H43.7386C43.7462 396.648 43.7535 396.645 43.7588 396.64C43.7642 396.635 43.7672 396.627 43.7672 396.62V392.284ZM51.5302 392.277C51.5302 392.271 51.5279 392.266 51.5238 392.262C51.5198 392.258 51.5143 392.255 51.5086 392.255H44.4914C44.4857 392.255 44.4802 392.258 44.4762 392.262C44.4721 392.266 44.4698 392.271 44.4698 392.277V396.627C44.4698 396.633 44.4721 396.638 44.4762 396.642C44.4802 396.646 44.4857 396.648 44.4914 396.648H51.5086C51.5143 396.648 51.5198 396.646 51.5238 396.642C51.5279 396.638 51.5302 396.633 51.5302 396.627V392.277ZM59.2969 392.276C59.2969 392.27 59.2947 392.265 59.2908 392.261C59.287 392.257 59.2817 392.255 59.2762 392.255H52.2544C52.2489 392.255 52.2437 392.257 52.2398 392.261C52.2359 392.265 52.2338 392.27 52.2338 392.276V396.628C52.2338 396.633 52.2359 396.638 52.2398 396.642C52.2437 396.646 52.2489 396.648 52.2544 396.648H59.2762C59.2817 396.648 59.287 396.646 59.2908 396.642C59.2947 396.638 59.2969 396.633 59.2969 396.628V392.276ZM43.7672 397.373C43.7672 397.367 43.7651 397.362 43.7613 397.358C43.7575 397.355 43.7524 397.352 43.747 397.352H36.7233C36.7179 397.352 36.7128 397.355 36.709 397.358C36.7052 397.362 36.7031 397.367 36.7031 397.373V401.724C36.7031 401.73 36.7052 401.735 36.709 401.739C36.7128 401.743 36.7179 401.745 36.7233 401.745H43.747C43.7524 401.745 43.7575 401.743 43.7613 401.739C43.7651 401.735 43.7672 401.73 43.7672 401.724V397.373ZM51.5302 397.372C51.5302 397.37 51.5296 397.367 51.5287 397.365C51.5277 397.362 51.5262 397.36 51.5244 397.358C51.5226 397.356 51.5204 397.355 51.518 397.354C51.5156 397.353 51.5131 397.352 51.5105 397.352H44.4895C44.4869 397.352 44.4844 397.353 44.482 397.354C44.4796 397.355 44.4774 397.356 44.4756 397.358C44.4738 397.36 44.4723 397.362 44.4713 397.365C44.4704 397.367 44.4698 397.37 44.4698 397.372V401.725C44.4698 401.728 44.4704 401.73 44.4713 401.732C44.4723 401.735 44.4738 401.737 44.4756 401.739C44.4774 401.741 44.4796 401.742 44.482 401.743C44.4844 401.744 44.4869 401.745 44.4895 401.745H51.5105C51.5131 401.745 51.5156 401.744 51.518 401.743C51.5204 401.742 51.5226 401.741 51.5244 401.739C51.5262 401.737 51.5277 401.735 51.5287 401.732C51.5296 401.73 51.5302 401.728 51.5302 401.725V397.372ZM59.2969 397.371C59.2969 397.369 59.2964 397.366 59.2954 397.364C59.2945 397.362 59.2931 397.36 59.2914 397.358C59.2896 397.356 59.2876 397.355 59.2853 397.354C59.283 397.353 59.2806 397.352 59.2781 397.352H52.2525C52.25 397.352 52.2476 397.353 52.2453 397.354C52.243 397.355 52.241 397.356 52.2392 397.358C52.2375 397.36 52.2361 397.362 52.2352 397.364C52.2342 397.366 52.2338 397.369 52.2338 397.371V401.726C52.2338 401.728 52.2342 401.731 52.2352 401.733C52.2361 401.735 52.2375 401.737 52.2392 401.739C52.241 401.741 52.243 401.742 52.2453 401.743C52.2476 401.744 52.25 401.745 52.2525 401.745H59.2781C59.2831 401.745 59.2879 401.743 59.2914 401.739C59.2949 401.736 59.2969 401.731 59.2969 401.726V397.371ZM36.7598 405.87C36.9403 406.447 37.4527 406.84 38.0653 406.841C39.9288 406.842 41.8242 406.842 43.7517 406.841C43.7557 406.841 43.7595 406.84 43.7623 406.837C43.7651 406.834 43.7667 406.83 43.7667 406.826V402.471C43.7667 402.465 43.7643 402.459 43.76 402.454C43.7557 402.45 43.7498 402.448 43.7437 402.448H36.7167C36.7064 402.448 36.7014 402.453 36.7017 402.463C36.7073 403.391 36.7061 404.269 36.698 405.097C36.6945 405.469 36.7152 405.727 36.7598 405.87ZM58.3402 406.781C58.9219 406.587 59.3072 406.071 59.2964 405.451C59.2964 405.439 59.2967 404.442 59.2973 402.462C59.2973 402.458 59.2959 402.455 59.2932 402.452C59.2906 402.449 59.287 402.448 59.2833 402.448H52.2562C52.2409 402.448 52.2333 402.455 52.2333 402.47V406.811C52.2333 406.832 52.2434 406.842 52.2637 406.842C54.0212 406.842 55.7739 406.842 57.5217 406.842C57.9458 406.842 58.2186 406.822 58.3402 406.781Z" fill="#F2C94C"/>
<g clip-path="url(#clip2_244_651)">
<path d="M70.4567 1010H29.5433C28.6036 1010 27.7023 1010.37 27.0378 1011.04C26.3733 1011.7 26 1012.6 26 1013.54V1054.46C26 1055.4 26.3733 1056.3 27.0378 1056.96C27.7023 1057.63 28.6036 1058 29.5433 1058H70.4567C71.3964 1058 72.2977 1057.63 72.9622 1056.96C73.6267 1056.3 74 1055.4 74 1054.46V1013.54C74 1012.6 73.6267 1011.7 72.9622 1011.04C72.2977 1010.37 71.3964 1010 70.4567 1010ZM40.3067 1050.89H33.09V1027.97H40.3067V1050.89ZM36.6933 1024.79C35.8747 1024.79 35.0758 1024.54 34.3975 1024.08C33.7191 1023.62 33.1917 1022.97 32.8818 1022.22C32.5718 1021.46 32.4933 1020.63 32.6561 1019.82C32.8188 1019.02 33.2156 1018.28 33.7963 1017.71C34.377 1017.13 35.1156 1016.74 35.9189 1016.58C36.7222 1016.42 37.5542 1016.51 38.3099 1016.82C39.0656 1017.14 39.7111 1017.67 40.1649 1018.35C40.6188 1019.03 40.8606 1019.83 40.86 1020.65C40.8677 1021.2 40.765 1021.74 40.558 1022.25C40.351 1022.76 40.044 1023.22 39.6551 1023.6C39.2663 1023.99 38.8037 1024.29 38.2948 1024.5C37.786 1024.7 37.2413 1024.8 36.6933 1024.79ZM66.9067 1050.91H59.6933V1038.39C59.6933 1034.69 58.1233 1033.55 56.0967 1033.55C53.9567 1033.55 51.8567 1035.17 51.8567 1038.48V1050.91H44.64V1027.98H51.58V1031.16H51.6733C52.37 1029.75 54.81 1027.34 58.5333 1027.34C62.56 1027.34 66.91 1029.73 66.91 1036.73L66.9067 1050.91Z" fill="#F2C94C"/>
</g>
<g clip-path="url(#clip3_244_651)">
<path fill-rule="evenodd" clip-rule="evenodd" d="M50.0199 919C36.7375 919 26 929.817 26 943.198C26 953.895 32.8799 962.95 42.4241 966.154C43.6174 966.395 44.0545 965.634 44.0545 964.993C44.0545 964.432 44.0151 962.509 44.0151 960.505C37.3334 961.948 35.942 957.621 35.942 957.621C34.8682 954.816 33.2772 954.096 33.2772 954.096C31.0902 952.613 33.4365 952.613 33.4365 952.613C35.8623 952.774 37.1353 955.097 37.1353 955.097C39.2824 958.783 42.7422 957.741 44.1341 957.1C44.3328 955.538 44.9695 954.456 45.6455 953.855C40.3163 953.294 34.7094 951.211 34.7094 941.916C34.7094 939.272 35.6632 937.109 37.1746 935.426C36.9361 934.825 36.1008 932.341 37.4135 929.016C37.4135 929.016 39.4417 928.375 44.0146 931.5C45.9725 930.97 47.9916 930.7 50.0199 930.698C52.048 930.698 54.1154 930.979 56.0246 931.5C60.5981 928.375 62.6262 929.016 62.6262 929.016C63.9389 932.341 63.1031 934.825 62.8646 935.426C64.4158 937.109 65.3303 939.272 65.3303 941.916C65.3303 951.211 59.7234 953.254 54.3544 953.855C55.2296 954.616 55.9848 956.058 55.9848 958.342C55.9848 961.587 55.9454 964.191 55.9454 964.992C55.9454 965.634 56.383 966.395 57.5758 966.155C67.12 962.949 73.9999 953.895 73.9999 943.198C74.0392 929.817 63.2624 919 50.0199 919Z" fill="#F2C94C"/>
</g>
<path opacity="0.984" fill-rule="evenodd" clip-rule="evenodd" d="M32.3501 828.15C33.2979 828.094 34.2312 828.177 35.1501 828.4C46.4774 831.854 57.8108 835.287 69.1501 838.7C71.2377 839.357 72.421 840.774 72.7001 842.95C72.7668 851.183 72.7668 859.417 72.7001 867.65C72.3366 870.047 70.9533 871.397 68.5501 871.7C68.1168 871.767 67.6834 871.767 67.2501 871.7C65.6988 871.296 64.1655 870.829 62.6501 870.3C61.7507 869.653 61.7174 868.953 62.5501 868.2C62.72 868.104 62.9034 868.054 63.1001 868.05C64.7036 868.501 66.3036 868.968 67.9001 869.45C68.943 869.312 69.7096 868.779 70.2001 867.85C70.3657 859.488 70.399 851.121 70.3001 842.75C70.066 841.916 69.5494 841.333 68.7501 841C56.9521 837.44 45.1521 833.89 33.3501 830.35C32.0489 830.468 31.2656 831.168 31.0001 832.45C30.9667 838.117 30.9334 843.783 30.9001 849.45C30.5759 850.202 30.0259 850.452 29.2501 850.2C28.8835 850.033 28.6668 849.75 28.6001 849.35C28.5334 843.717 28.5334 838.083 28.6001 832.45C28.9108 830.19 30.1608 828.756 32.3501 828.15Z" fill="#F2C94C"/>
<path opacity="0.992" fill-rule="evenodd" clip-rule="evenodd" d="M55.35 844.25C57.1138 844.232 58.2304 845.065 58.7 846.75C58.7667 855.517 58.7667 864.283 58.7 873.05C58.2493 875.351 56.866 876.268 54.55 875.8C53.5998 875.383 53.0164 874.666 52.8 873.65C52.7333 864.65 52.7333 855.65 52.8 846.65C53.1566 845.31 54.0066 844.51 55.35 844.25Z" fill="#F2C94C"/>
<path opacity="0.998" fill-rule="evenodd" clip-rule="evenodd" d="M46.55 847.55C47.9582 847.346 49.0749 847.813 49.9 848.95C50.0197 849.209 50.1197 849.476 50.2 849.75C50.2667 856.483 50.2667 863.217 50.2 869.95C49.7346 872.257 48.3512 873.174 46.05 872.7C45.0607 872.276 44.4773 871.526 44.3 870.45C44.2333 863.65 44.2333 856.85 44.3 850.05C44.5824 848.785 45.3324 847.951 46.55 847.55Z" fill="#F2C94C"/>
<path opacity="0.988" fill-rule="evenodd" clip-rule="evenodd" d="M38.2499 850.75C39.9646 850.664 41.0812 851.431 41.5999 853.05C41.6666 857.75 41.6666 862.45 41.5999 867.15C41.1738 868.623 40.1905 869.423 38.6499 869.55C37.0819 869.465 36.0986 868.665 35.6999 867.15C35.6332 862.483 35.6332 857.817 35.6999 853.15C36.0573 851.809 36.9073 851.009 38.2499 850.75Z" fill="#F2C94C"/>
<path opacity="0.991" fill-rule="evenodd" clip-rule="evenodd" d="M29.3499 853.75C31.2266 853.563 32.4432 854.363 32.9999 856.15C33.0666 858.85 33.0666 861.55 32.9999 864.25C32.4242 866.09 31.1742 866.873 29.2499 866.6C28.2496 866.333 27.5663 865.716 27.1999 864.75C27.1332 861.75 27.1332 858.75 27.1999 855.75C27.617 854.749 28.3337 854.083 29.3499 853.75Z" fill="#F2C94C"/>
<path d="M131 135C131 126.163 138.163 119 147 119H979C987.837 119 995 126.163 995 135V640C995 648.837 987.837 656 979 656H147C138.163 656 131 648.837 131 640V135Z" fill="#022F0E"/>
<path d="M211.319 148.63L184.099 163L156.734 148.63C151.93 145.314 148 143.908 148 140.592V107.029C148 103.713 151.93 101 156.734 101H211.319C216.123 101 220.053 103.713 220.053 107.029V140.592C220.053 143.908 216.414 145.113 211.319 148.63Z" fill="white"/>
<g clip-path="url(#clip4_244_651)">
<path opacity="0.94" fill-rule="evenodd" clip-rule="evenodd" d="M204.96 115.528C204.96 115.849 204.96 116.169 204.96 116.489C203.642 123.734 202.347 130.995 201.076 138.271C200.418 139.872 199.697 141.446 198.914 142.995C198.594 143.292 198.26 143.305 197.913 143.035C197.791 142.827 197.725 142.6 197.713 142.354C197.333 142.918 196.799 143.212 196.111 143.235C194.542 142.996 192.98 142.716 191.427 142.395C191.084 141.992 191.111 141.618 191.507 141.273C193.039 141.401 194.561 141.628 196.071 141.954C196.373 141.917 196.573 141.757 196.672 141.474C198.287 132.318 199.902 123.162 201.517 114.007C201.488 113.752 201.355 113.578 201.116 113.486C198.397 112.993 195.674 112.526 192.948 112.085C192.962 115.742 192.948 119.399 192.908 123.056C192.797 123.285 192.61 123.392 192.348 123.376C192.085 123.392 191.899 123.285 191.787 123.056C191.76 118.865 191.734 114.674 191.707 110.483C191.675 110.244 191.554 110.07 191.347 109.963C185.154 109.91 178.961 109.91 172.769 109.963C172.622 110.003 172.528 110.096 172.488 110.243C172.448 111.497 172.435 112.752 172.448 114.007C173.036 113.922 173.623 113.829 174.21 113.727C174.536 113.65 174.843 113.69 175.131 113.847C175.315 114.21 175.275 114.544 175.011 114.848C171.921 115.439 168.824 116 165.722 116.529C165.377 116.607 165.217 116.82 165.241 117.17C166.817 126.346 168.432 135.515 170.086 144.677C170.294 144.974 170.575 145.067 170.927 144.957C176.826 143.916 182.725 142.875 188.624 141.834C188.767 141.771 188.887 141.678 188.984 141.554C189.024 141.177 188.997 140.803 188.904 140.433C187.338 131.542 185.763 122.654 184.18 113.767C184.078 113.516 183.891 113.382 183.619 113.366C181.473 113.753 179.324 114.127 177.173 114.487C176.752 114.508 176.512 114.307 176.452 113.887C176.491 113.581 176.651 113.368 176.933 113.246C179.171 112.833 181.413 112.446 183.659 112.085C184.773 112.198 185.4 112.811 185.541 113.927C187.013 122.226 188.468 130.528 189.905 138.831C190.36 138.844 190.814 138.831 191.267 138.791C191.501 138.69 191.648 138.517 191.707 138.271C191.734 133.786 191.76 129.302 191.787 124.817C192.161 124.39 192.534 124.39 192.908 124.817C192.962 129.489 192.962 134.16 192.908 138.831C192.74 139.316 192.433 139.676 191.987 139.912C191.384 140.062 190.77 140.155 190.146 140.192C190.398 140.933 190.357 141.654 190.025 142.354C189.706 142.761 189.292 143.015 188.784 143.115C182.885 144.156 176.986 145.197 171.087 146.238C169.755 146.401 168.968 145.827 168.725 144.517C167.152 135.561 165.564 126.619 163.96 117.69C163.96 117.29 163.96 116.89 163.96 116.489C164.212 115.957 164.612 115.57 165.161 115.328C167.139 114.976 169.114 114.616 171.087 114.247C171.154 112.806 171.194 111.365 171.207 109.923C171.415 109.261 171.856 108.847 172.528 108.682C178.881 108.628 185.234 108.628 191.587 108.682C192.167 108.808 192.581 109.142 192.828 109.683C192.882 110.063 192.975 110.423 193.108 110.764C195.831 111.244 198.554 111.725 201.276 112.205C202.37 112.524 202.851 113.245 202.718 114.367C203.687 114.358 204.434 114.745 204.96 115.528ZM202.558 115.688C202.947 115.649 203.307 115.729 203.639 115.929C203.264 118.496 202.837 121.058 202.357 123.616C202.316 123.698 202.249 123.751 202.157 123.776C201.807 123.706 201.46 123.626 201.116 123.536C201.587 120.916 202.067 118.3 202.558 115.688ZM200.876 124.817C201.272 124.907 201.672 124.987 202.077 125.058C201.736 127.228 201.349 129.39 200.916 131.544C200.516 131.475 200.129 131.368 199.755 131.224C200.18 129.097 200.554 126.962 200.876 124.817ZM199.515 132.585C199.911 132.664 200.312 132.718 200.716 132.745C200.484 134.215 200.244 135.683 199.995 137.149C199.591 137.122 199.19 137.069 198.794 136.989C199.043 135.523 199.283 134.055 199.515 132.585ZM198.634 138.271C198.971 138.29 199.291 138.37 199.595 138.511C199.363 139.054 199.109 139.588 198.834 140.112C198.76 139.498 198.693 138.884 198.634 138.271Z" fill="#07A157"/>
</g>
<path d="M131 696C131 687.163 138.163 680 147 680H979C987.837 680 995 687.163 995 696V1041C995 1049.84 987.837 1057 979 1057H147C138.163 1057 131 1049.84 131 1041V696Z" fill="#022F0E"/>
<path d="M211.319 709.63L184.099 724L156.734 709.63C151.93 706.314 148 704.908 148 701.592V668.029C148 664.713 151.93 662 156.734 662H211.319C216.123 662 220.053 664.713 220.053 668.029V701.592C220.053 704.908 216.414 706.113 211.319 709.63Z" fill="white"/>
<g clip-path="url(#clip5_244_651)">
<g clip-path="url(#clip6_244_651)">
<path opacity="0.933" fill-rule="evenodd" clip-rule="evenodd" d="M169.044 667.96C170.646 667.96 172.247 667.96 173.849 667.96C174.274 668.106 174.555 668.399 174.689 668.841C174.743 671.697 174.743 674.553 174.689 677.409C174.594 677.746 174.394 678 174.089 678.17C173.428 678.283 172.761 678.323 172.087 678.29C171.825 679.585 171.558 680.879 171.286 682.174C171.513 682.854 171.74 683.535 171.967 684.216C172.125 685.019 171.818 685.326 171.046 685.137C170.922 685.04 170.828 684.919 170.766 684.776C170.479 683.917 170.225 683.049 170.005 682.174C170.263 680.738 170.556 679.31 170.886 677.89C170.35 677.36 169.763 677.293 169.124 677.689C168.359 677.749 168.106 677.416 168.363 676.688C169.218 676.048 170.125 675.968 171.086 676.448C171.497 675.629 171.244 675.162 170.325 675.047C169.418 674.851 168.564 674.984 167.763 675.447C167.222 675.896 166.995 676.47 167.082 677.169C167.426 678.862 167.76 680.557 168.083 682.254C167.339 685.228 166.738 688.231 166.281 691.263C166.061 693.457 166.688 695.365 168.163 696.988C169.301 696.84 170.342 696.44 171.286 695.787C172.333 694.675 172.773 693.354 172.607 691.823C172.322 690.228 171.948 688.653 171.486 687.099C171.421 686.821 171.448 686.554 171.566 686.298C171.934 686.068 172.281 686.095 172.607 686.378C172.782 686.996 172.969 687.61 173.168 688.22C174.653 687.426 176.241 687.079 177.933 687.179C176.632 685.149 176.472 683.027 177.452 680.812C176.777 679.707 176.657 678.546 177.092 677.329C177.553 676.571 178.233 676.198 179.134 676.208C179.12 675.087 179.134 673.966 179.174 672.845C179.538 670.584 180.806 669.076 182.978 668.32C183.438 668.185 183.892 668.065 184.339 667.96C185.06 667.96 185.78 667.96 186.501 667.96C188.608 668.353 190.33 669.394 191.666 671.083C191.784 672.784 191.824 674.492 191.786 676.208C193.314 676.272 194.088 677.072 194.108 678.61C194.069 679.947 193.535 681.028 192.507 681.854C192.282 681.993 192.042 682.086 191.786 682.134C191.68 683.841 190.946 685.203 189.584 686.218C189.485 686.726 189.685 687.06 190.185 687.219C191.016 687.447 191.843 687.687 192.667 687.939C193.094 688.313 193.094 688.687 192.667 689.061C191.885 689.05 191.124 688.903 190.385 688.62C188.987 689.927 187.345 690.808 185.46 691.263C183.571 690.826 181.943 689.931 180.575 688.58C179.054 688.527 177.532 688.527 176.011 688.58C175.084 688.711 174.23 689.031 173.448 689.541C174.159 691.605 174.066 693.62 173.168 695.587C174.116 695.256 175.077 694.963 176.051 694.706C176.285 694.73 176.472 694.837 176.611 695.026C177.331 699.319 178.025 703.616 178.693 707.919C178.747 708.159 178.747 708.399 178.693 708.64C178.638 708.788 178.545 708.895 178.413 708.96C178.2 708.96 177.986 708.96 177.772 708.96C177.665 708.839 177.572 708.706 177.492 708.56C176.855 704.471 176.201 700.387 175.53 696.308C175.49 696.281 175.45 696.254 175.41 696.228C173.176 696.892 170.948 697.573 168.724 698.27C168.382 698.379 168.035 698.405 167.683 698.35C166.239 696.97 165.331 695.301 164.96 693.345C164.96 692.624 164.96 691.903 164.96 691.183C165.437 688.169 166.024 685.166 166.722 682.174C166.435 680.529 166.128 678.887 165.801 677.249C165.697 675.452 166.511 674.331 168.243 673.886C168.23 672.177 168.243 670.469 168.283 668.761C168.445 668.399 168.699 668.132 169.044 667.96ZM180.495 672.925C180.744 671.375 181.598 670.294 183.058 669.682C185.246 668.861 187.302 669.128 189.224 670.482C189.691 670.843 190.104 671.257 190.465 671.724C190.518 672.151 190.518 672.578 190.465 673.005C189.992 672.478 189.472 672.011 188.903 671.604C186.608 671.55 184.312 671.55 182.017 671.604C181.477 672.007 180.97 672.447 180.495 672.925ZM169.524 669.241C170.832 669.241 172.14 669.241 173.448 669.241C173.448 671.83 173.448 674.42 173.448 677.009C173.101 677.009 172.754 677.009 172.407 677.009C172.532 676.454 172.572 675.894 172.527 675.327C172.195 674.418 171.541 673.898 170.565 673.766C170.219 673.719 169.872 673.679 169.524 673.646C169.524 672.177 169.524 670.709 169.524 669.241ZM182.497 672.845C184.473 672.831 186.448 672.845 188.423 672.885C189.104 673.512 189.784 674.139 190.465 674.767C190.518 677.276 190.518 679.785 190.465 682.294C190.317 683.403 189.824 684.324 188.983 685.057C188.237 685.644 187.436 686.151 186.581 686.578C185.401 686.845 184.306 686.658 183.298 686.018C182.278 685.478 181.464 684.718 180.855 683.735C180.647 683.276 180.514 682.796 180.455 682.294C180.402 679.785 180.402 677.276 180.455 674.767C181.152 674.137 181.832 673.496 182.497 672.845ZM178.733 677.489C178.865 677.472 178.985 677.499 179.094 677.569C179.16 678.611 179.147 679.652 179.054 680.692C178.181 679.845 177.954 678.857 178.373 677.729C178.505 677.658 178.625 677.577 178.733 677.489ZM191.866 677.489C192.519 677.561 192.839 677.935 192.827 678.61C192.764 679.43 192.444 680.124 191.866 680.692C191.761 679.62 191.761 678.552 191.866 677.489ZM178.413 681.894C178.646 681.997 178.886 682.077 179.134 682.134C179.239 683.84 179.973 685.201 181.336 686.218C181.435 686.726 181.235 687.06 180.735 687.219C180.415 687.272 180.095 687.272 179.774 687.219C178.668 686.3 178.108 685.112 178.093 683.655C178.118 683.051 178.225 682.464 178.413 681.894ZM184.899 683.335C185.273 683.335 185.647 683.335 186.021 683.335C186.021 683.709 186.021 684.082 186.021 684.456C185.647 684.456 185.273 684.456 184.899 684.456C184.899 684.082 184.899 683.709 184.899 683.335ZM182.577 687.099C182.992 687.346 183.419 687.573 183.858 687.779C184.926 688.046 185.994 688.046 187.062 687.779C187.492 687.584 187.906 687.357 188.303 687.099C188.47 687.458 188.697 687.779 188.983 688.06C187.972 688.966 186.797 689.58 185.46 689.901C184.123 689.58 182.948 688.966 181.937 688.06C182.23 687.792 182.444 687.472 182.577 687.099Z" fill="#07A157"/>
<path opacity="0.895" fill-rule="evenodd" clip-rule="evenodd" d="M182.017 675.167C182.805 675.237 183.579 675.383 184.339 675.607C184.637 675.931 184.65 676.264 184.379 676.608C184.24 676.72 184.08 676.773 183.899 676.769C183.207 676.662 182.527 676.516 181.857 676.328C181.521 675.885 181.574 675.498 182.017 675.167Z" fill="#07A157"/>
<path opacity="0.906" fill-rule="evenodd" clip-rule="evenodd" d="M188.263 675.167C188.956 675.126 189.236 675.446 189.103 676.128C189.037 676.195 188.97 676.261 188.903 676.328C188.149 676.586 187.375 676.719 186.581 676.728C186.19 676.378 186.163 676.004 186.501 675.607C187.095 675.451 187.682 675.304 188.263 675.167Z" fill="#07A157"/>
<path opacity="0.897" fill-rule="evenodd" clip-rule="evenodd" d="M182.017 677.89C182.738 677.876 183.458 677.89 184.179 677.93C184.712 678.33 184.712 678.73 184.179 679.131C183.458 679.184 182.737 679.184 182.017 679.131C181.611 678.892 181.517 678.558 181.736 678.13C181.828 678.039 181.921 677.959 182.017 677.89Z" fill="#07A157"/>
<path opacity="0.912" fill-rule="evenodd" clip-rule="evenodd" d="M186.661 677.89C187.356 677.876 188.05 677.89 188.743 677.93C189.092 678.108 189.212 678.388 189.103 678.77C189.037 678.944 188.917 679.064 188.743 679.131C188.049 679.184 187.355 679.184 186.661 679.131C186.283 678.936 186.163 678.629 186.301 678.21C186.413 678.084 186.533 677.977 186.661 677.89Z" fill="#07A157"/>
<path opacity="0.933" fill-rule="evenodd" clip-rule="evenodd" d="M184.419 682.054C185.113 682.04 185.807 682.054 186.501 682.094C186.944 682.14 187.371 682.246 187.782 682.414C188.014 682.647 188.081 682.927 187.982 683.255C187.811 683.481 187.584 683.588 187.302 683.575C187.568 685.07 186.954 685.79 185.46 685.737C183.966 685.79 183.352 685.07 183.618 683.575C183.003 683.534 182.776 683.213 182.937 682.614C183.035 682.49 183.155 682.397 183.298 682.334C183.68 682.234 184.054 682.14 184.419 682.054ZM184.899 683.335C184.899 683.709 184.899 684.082 184.899 684.456C185.273 684.456 185.647 684.456 186.02 684.456C186.02 684.082 186.02 683.709 186.02 683.335C185.647 683.335 185.273 683.335 184.899 683.335Z" fill="#07A157"/>
<path opacity="0.927" fill-rule="evenodd" clip-rule="evenodd" d="M205.96 702.874C205.96 703.088 205.96 703.301 205.96 703.515C204.674 704.892 203.152 705.946 201.396 706.678C198.751 707.652 196.055 708.413 193.308 708.96C193.041 708.96 192.774 708.96 192.507 708.96C192.375 708.895 192.282 708.788 192.227 708.64C192.173 708.399 192.173 708.159 192.227 707.919C192.878 703.772 193.572 699.634 194.309 695.507C194.652 695.188 194.999 695.188 195.35 695.507C195.426 695.643 195.466 695.79 195.47 695.947C195.346 696.544 195.279 697.145 195.27 697.749C195.376 697.856 195.483 697.963 195.59 698.069C195.982 697.733 196.396 697.426 196.831 697.148C197.596 697.089 197.849 697.422 197.592 698.149C197.224 698.42 196.864 698.7 196.511 698.99C196.766 699.258 197.032 699.512 197.312 699.751C198.631 698.792 199.939 697.818 201.235 696.828C201.035 696.521 200.835 696.214 200.635 695.907C200.194 696.241 199.754 696.575 199.313 696.908C198.498 697.107 198.191 696.8 198.393 695.987C198.873 695.614 199.354 695.24 199.834 694.866C199.041 693.436 198.04 692.141 196.831 690.982C196.044 690.429 195.19 690.002 194.269 689.701C193.89 689.506 193.77 689.199 193.908 688.78C194.117 688.483 194.397 688.39 194.749 688.5C196.559 689.055 198.04 690.083 199.193 691.583C201.855 695.089 204.11 698.853 205.96 702.874ZM201.796 697.989C201.866 697.979 201.919 698.005 201.956 698.069C202.92 699.689 203.801 701.357 204.599 703.074C203.561 704.047 202.387 704.821 201.075 705.397C198.661 706.34 196.178 707.048 193.628 707.519C193.722 706.715 193.842 705.914 193.988 705.116C195.51 703.968 197.031 702.821 198.553 701.673C198.662 701.278 198.569 700.944 198.272 700.672C199.467 699.796 200.641 698.901 201.796 697.989ZM194.909 699.271C195.602 699.909 196.269 700.577 196.911 701.272C196.057 701.953 195.189 702.62 194.309 703.274C194.504 701.945 194.704 700.611 194.909 699.271Z" fill="#07A157"/>
</g>
</g>
<path d="M1010 696C1010 687.163 1017.16 680 1026 680H1867C1875.84 680 1883 687.163 1883 696V1041C1883 1049.84 1875.84 1057 1867 1057H1026C1017.16 1057 1010 1049.84 1010 1041V696Z" fill="#022F0E"/>
<path d="M1090.32 709.63L1063.1 724L1035.73 709.63C1030.93 706.314 1027 704.908 1027 701.592V668.029C1027 664.713 1030.93 662 1035.73 662H1090.32C1095.12 662 1099.05 664.713 1099.05 668.029V701.592C1099.05 704.908 1095.41 706.113 1090.32 709.63Z" fill="white"/>
<g clip-path="url(#clip7_244_651)">
<g clip-path="url(#clip8_244_651)">
<path opacity="0.931" fill-rule="evenodd" clip-rule="evenodd" d="M1084.52 669.882C1084.78 669.926 1084.98 670.06 1085.12 670.282C1085.17 673.539 1085.17 676.795 1085.12 680.052C1084.72 682.744 1083.17 684.239 1080.47 684.536C1078.74 684.502 1077.62 683.675 1077.11 682.054C1076.94 680.305 1077.64 679.064 1079.23 678.33C1080.75 677.72 1082.3 677.653 1083.88 678.13C1083.86 675.541 1083.88 672.951 1083.92 670.362C1084.04 670.091 1084.24 669.93 1084.52 669.882ZM1081.23 679.091C1082.13 679.1 1083.02 679.233 1083.88 679.491C1083.86 680.74 1083.38 681.768 1082.43 682.574C1081.39 683.301 1080.3 683.407 1079.15 682.895C1078.3 682.232 1078.12 681.417 1078.63 680.452C1079.01 679.942 1079.5 679.582 1080.11 679.371C1080.5 679.275 1080.87 679.182 1081.23 679.091Z" fill="#07A157"/>
<path opacity="0.931" fill-rule="evenodd" clip-rule="evenodd" d="M1087.96 690.062C1087.96 690.409 1087.96 690.756 1087.96 691.103C1087.72 691.402 1087.39 691.496 1087 691.383C1086.93 691.316 1086.87 691.249 1086.8 691.183C1086.68 690.492 1086.57 689.798 1086.48 689.101C1086.41 689.011 1086.32 688.957 1086.2 688.94C1082.46 688.46 1078.73 688.007 1074.99 687.579C1074.74 689.207 1074.48 690.835 1074.23 692.464C1073.99 692.867 1073.65 692.961 1073.23 692.744C1071.2 690.716 1069.17 688.687 1067.14 686.658C1063.8 686.195 1060.45 685.782 1057.09 685.417C1056.7 685.396 1056.34 685.489 1056.01 685.697C1054.15 687.377 1052.91 689.446 1052.29 691.903C1051.28 695.513 1051.87 698.822 1054.05 701.833C1057.28 705.493 1061.21 706.548 1065.86 704.996C1066.79 704.61 1067.65 704.103 1068.42 703.475C1069.41 702.516 1070.37 701.528 1071.3 700.512C1073.91 698.191 1076.95 696.777 1080.43 696.268C1082.41 696.022 1084.38 695.781 1086.36 695.547C1086.41 695.487 1086.45 695.42 1086.48 695.347C1086.59 694.572 1086.7 693.798 1086.8 693.024C1087.19 692.708 1087.57 692.708 1087.96 693.024C1087.96 693.478 1087.96 693.932 1087.96 694.386C1087.82 695.348 1087.62 696.309 1087.36 697.269C1087.27 697.54 1087.15 697.794 1087 698.029C1086.41 698.281 1086.06 698.094 1085.96 697.469C1085.96 697.267 1086.02 697.08 1086.12 696.908C1084.09 697.107 1082.06 697.347 1080.03 697.629C1077.01 698.194 1074.37 699.502 1072.1 701.553C1071.3 702.407 1070.5 703.261 1069.7 704.115C1066.21 706.986 1062.31 707.707 1058.01 706.277C1053.74 704.495 1051.28 701.305 1050.64 696.708C1048.75 696.726 1047.53 695.845 1046.96 694.065C1046.96 693.558 1046.96 693.051 1046.96 692.544C1047.75 690.433 1049.26 689.632 1051.48 690.142C1052.23 688.094 1053.4 686.319 1054.97 684.816C1055.81 684.212 1056.74 683.999 1057.77 684.176C1061.96 684.683 1066.15 685.19 1070.34 685.697C1070.97 685.824 1071.15 686.184 1070.86 686.778C1070.71 686.874 1070.55 686.954 1070.38 687.019C1070 686.926 1069.62 686.886 1069.22 686.898C1069.62 687.299 1070.02 687.699 1070.42 688.1C1071.46 688.24 1072.5 688.36 1073.55 688.46C1073.59 688.152 1073.64 687.845 1073.71 687.539C1073.68 687.499 1073.65 687.459 1073.63 687.419C1073.25 687.352 1072.88 687.286 1072.5 687.219C1072.36 687.179 1072.26 687.085 1072.22 686.939C1072.08 686.417 1072.27 686.097 1072.79 685.978C1077.23 686.561 1081.67 687.081 1086.12 687.539C1085.93 687.212 1085.92 686.878 1086.08 686.538C1086.54 686.174 1086.92 686.254 1087.2 686.778C1087.57 687.857 1087.82 688.951 1087.96 690.062ZM1071.94 689.661C1071.98 689.611 1072.03 689.585 1072.1 689.581C1072.53 689.648 1072.96 689.715 1073.39 689.781C1073.29 690.133 1073.22 690.493 1073.19 690.862C1072.78 690.446 1072.37 690.045 1071.94 689.661ZM1049.92 691.263C1050.33 691.25 1050.73 691.29 1051.12 691.383C1050.75 692.701 1050.56 694.049 1050.56 695.427C1048.56 695.192 1047.88 694.124 1048.52 692.224C1048.88 691.733 1049.34 691.413 1049.92 691.263Z" fill="#07A157"/>
<path opacity="0.925" fill-rule="evenodd" clip-rule="evenodd" d="M1061.77 687.419C1065.37 687.505 1067.94 689.16 1069.5 692.384C1070.67 695.569 1070.16 698.452 1067.98 701.032C1066.3 702.748 1064.26 703.589 1061.85 703.555C1061.48 703.36 1061.36 703.053 1061.49 702.634C1061.52 702.56 1061.56 702.494 1061.61 702.434C1065.01 702.293 1067.32 700.651 1068.54 697.509C1069.36 693.713 1068.04 690.95 1064.58 689.221C1061.53 688.192 1058.92 688.872 1056.77 691.263C1054.92 693.885 1054.81 696.581 1056.45 699.351C1057.4 700.646 1058.64 701.54 1060.17 702.033C1060.59 702.41 1060.59 702.784 1060.17 703.154C1059.4 703.155 1058.68 702.941 1058.01 702.514C1054.91 700.514 1053.62 697.671 1054.13 693.985C1055.17 690.021 1057.72 687.832 1061.77 687.419Z" fill="#07A157"/>
</g>
</g>
<path d="M1010 135C1010 126.163 1017.16 119 1026 119H1867C1875.84 119 1883 126.163 1883 135V640C1883 648.837 1875.84 656 1867 656H1026C1017.16 656 1010 648.837 1010 640V135Z" fill="#022F0E"/>
<path d="M1090.32 148.63L1063.1 163L1035.73 148.63C1030.93 145.314 1027 143.908 1027 140.592V107.029C1027 103.713 1030.93 101 1035.73 101H1090.32C1095.12 101 1099.05 103.713 1099.05 107.029V140.592C1099.05 143.908 1095.41 145.113 1090.32 148.63Z" fill="white"/>
<path opacity="0.936" fill-rule="evenodd" clip-rule="evenodd" d="M1054.13 106.96C1058.72 106.96 1063.31 106.96 1067.91 106.96C1068.52 107.186 1068.93 107.613 1069.15 108.241C1069.19 110.643 1069.2 113.046 1069.19 115.448C1072.21 114.975 1075.23 114.441 1078.24 113.847C1077.73 113.457 1077.21 113.084 1076.67 112.726C1076.43 111.955 1076.71 111.622 1077.51 111.725C1078.45 112.423 1079.41 113.09 1080.4 113.727C1080.61 113.991 1080.65 114.271 1080.52 114.567C1079.84 115.617 1079.11 116.618 1078.32 117.57C1077.55 117.683 1077.27 117.377 1077.47 116.649C1077.86 116.136 1078.19 115.629 1078.48 115.128C1075.41 115.697 1072.34 116.258 1069.27 116.81C1069.23 121.245 1069.16 125.676 1069.07 130.103C1068.87 130.57 1068.53 130.903 1068.07 131.104C1066.95 131.191 1065.83 131.258 1064.7 131.304C1064.33 132.094 1064.07 132.921 1063.94 133.786C1063.85 134.825 1063.8 135.866 1063.78 136.909C1063.31 137.373 1062.91 137.319 1062.58 136.749C1062.42 134.856 1062.65 133.014 1063.26 131.224C1062.54 131.224 1061.82 131.224 1061.1 131.224C1061.38 134.252 1061.29 137.268 1060.82 140.272C1060.49 141.323 1059.78 141.95 1058.7 142.154C1059.28 143.304 1059.49 144.519 1059.34 145.798C1059.36 145.851 1059.39 145.905 1059.42 145.958C1061.14 144.943 1062.17 143.448 1062.5 141.474C1062.53 140.593 1062.55 139.712 1062.58 138.831C1062.74 138.398 1063.05 138.251 1063.5 138.391C1064.36 141.579 1063.53 144.275 1061.02 146.479C1060.26 146.961 1059.51 147.455 1058.78 147.96C1058.56 147.96 1058.35 147.96 1058.14 147.96C1057.92 147.829 1057.81 147.629 1057.82 147.359C1058.34 145.628 1058.2 143.96 1057.38 142.354C1056.73 141.394 1056.09 140.433 1055.45 139.472C1055.24 138.979 1055.39 138.646 1055.89 138.471C1056.7 138.397 1057.5 138.423 1058.3 138.551C1058.57 138.849 1058.61 139.182 1058.42 139.552C1058.04 139.674 1057.66 139.754 1057.25 139.792C1057.47 140.112 1057.68 140.433 1057.9 140.753C1058.65 140.981 1059.2 140.741 1059.54 140.032C1059.77 139.003 1059.87 137.961 1059.86 136.909C1059.7 136.482 1059.39 136.228 1058.94 136.148C1056.96 136.122 1054.99 136.095 1053.01 136.068C1052.6 135.829 1052.51 135.496 1052.73 135.067C1052.84 134.991 1052.96 134.924 1053.09 134.867C1055.09 134.814 1057.09 134.814 1059.1 134.867C1059.4 134.897 1059.68 134.99 1059.94 135.147C1059.96 135.046 1060 134.953 1060.06 134.867C1059.99 134.353 1059.95 133.833 1059.94 133.306C1059.78 132.911 1059.5 132.658 1059.1 132.545C1056.67 132.518 1054.24 132.492 1051.81 132.465C1051.43 132.27 1051.31 131.963 1051.45 131.544C1051.54 131.45 1051.64 131.357 1051.73 131.264C1054.27 131.21 1056.8 131.21 1059.34 131.264C1059.47 131.291 1059.61 131.331 1059.74 131.384C1059.75 130.799 1059.68 130.212 1059.54 129.622C1059.38 129.227 1059.1 128.974 1058.7 128.861C1055.95 128.835 1053.2 128.808 1050.45 128.781C1050.05 128.54 1049.95 128.206 1050.17 127.78C1050.24 127.684 1050.33 127.617 1050.45 127.58C1051.36 127.567 1052.26 127.527 1053.17 127.46C1053.53 126.846 1053.89 126.232 1054.25 125.618C1054.32 125.522 1054.42 125.455 1054.53 125.418C1055.47 125.365 1056.4 125.365 1057.33 125.418C1057.48 125.481 1057.6 125.574 1057.7 125.698C1058.04 126.205 1058.39 126.713 1058.74 127.22C1059.4 127.934 1060.15 128.041 1060.98 127.54C1061.03 127.38 1061.03 127.22 1060.98 127.06C1060.23 125.918 1059.47 124.784 1058.7 123.656C1058.47 123.503 1058.23 123.369 1057.98 123.256C1056.24 123.202 1054.51 123.202 1052.77 123.256C1052.37 123.417 1052.03 123.671 1051.77 124.017C1050.51 125.783 1049.28 127.571 1048.09 129.382C1048.03 129.729 1048.03 130.076 1048.09 130.423C1049.21 136.071 1050.34 141.716 1051.49 147.359C1051.46 147.601 1051.35 147.802 1051.17 147.96C1050.96 147.96 1050.74 147.96 1050.53 147.96C1050.31 147.813 1050.19 147.6 1050.17 147.319C1049.04 141.743 1047.92 136.164 1046.8 130.583C1046.68 129.799 1046.79 129.052 1047.12 128.341C1048.37 126.62 1049.6 124.885 1050.81 123.136C1051.32 122.448 1052 122.047 1052.85 121.935C1052.85 121.187 1052.85 120.44 1052.85 119.692C1050.22 120.15 1047.59 120.604 1044.96 121.054C1044.55 121.05 1044.32 120.836 1044.28 120.413C1044.33 120.151 1044.46 119.95 1044.68 119.812C1047.4 119.319 1050.12 118.852 1052.85 118.411C1052.84 117.316 1052.85 116.222 1052.89 115.128C1053.22 114.565 1053.62 114.512 1054.09 114.968C1054.12 116.035 1054.15 117.103 1054.17 118.171C1058.15 117.451 1062.12 116.73 1066.1 116.009C1066.73 116.119 1066.92 116.466 1066.66 117.05C1066.6 117.117 1066.53 117.183 1066.46 117.25C1062.35 117.993 1058.24 118.727 1054.13 119.452C1054.13 120.28 1054.13 121.107 1054.13 121.935C1055.47 121.921 1056.8 121.935 1058.14 121.975C1058.78 122.112 1059.33 122.419 1059.78 122.896C1060.64 124.155 1061.46 125.436 1062.26 126.739C1062.49 128.023 1061.97 128.811 1060.7 129.102C1060.8 129.346 1060.88 129.599 1060.94 129.862C1063.13 129.956 1065.32 129.969 1067.5 129.902C1067.65 129.839 1067.77 129.746 1067.87 129.622C1067.92 122.602 1067.92 115.582 1067.87 108.562C1067.83 108.447 1067.76 108.354 1067.67 108.281C1065.45 108.189 1063.24 108.149 1061.02 108.161C1058.82 108.149 1056.64 108.189 1054.45 108.281C1054.33 108.378 1054.23 108.499 1054.17 108.642C1054.15 110.163 1054.12 111.685 1054.09 113.206C1053.82 113.547 1053.48 113.613 1053.09 113.406C1052.98 113.312 1052.91 113.192 1052.89 113.046C1052.84 111.551 1052.84 110.056 1052.89 108.562C1053.02 107.804 1053.44 107.27 1054.13 106.96ZM1055.17 126.659C1055.71 126.646 1056.24 126.659 1056.77 126.699C1056.98 126.952 1057.17 127.219 1057.33 127.5C1056.45 127.567 1055.57 127.553 1054.69 127.46C1054.85 127.191 1055.01 126.924 1055.17 126.659Z" fill="#07A157"/>
</g>
<defs>
<filter id="filter0_d_244_651" x="-4" y="251" width="104" height="104" filterUnits="userSpaceOnUse" color-interpolation-filters="sRGB">
<feFlood flood-opacity="0" result="BackgroundImageFix"/>
<feColorMatrix in="SourceAlpha" type="matrix" values="0 0 0 0 0 0 0 0 0 0 0 0 0 0 0 0 0 0 127 0" result="hardAlpha"/>
<feOffset dy="8"/>
<feGaussianBlur stdDeviation="12"/>
<feColorMatrix type="matrix" values="0 0 0 0 0.917647 0 0 0 0 0.486275 0 0 0 0 0.411765 0 0 0 0.32 0"/>
<feBlend mode="normal" in2="BackgroundImageFix" result="effect1_dropShadow_244_651"/>
<feBlend mode="normal" in="SourceGraphic" in2="effect1_dropShadow_244_651" result="shape"/>
</filter>
<clipPath id="clip0_244_651">
<rect width="1920" height="1080" rx="16" fill="white"/>
</clipPath>
<clipPath id="clip1_244_651">
<rect width="24" height="24" fill="white" transform="translate(36 78)"/>
</clipPath>
<clipPath id="clip2_244_651">
<rect width="48" height="48" fill="white" transform="translate(26 1010)"/>
</clipPath>
<clipPath id="clip3_244_651">
<rect width="48" height="48" fill="white" transform="translate(26 919)"/>
</clipPath>
<clipPath id="clip4_244_651">
<rect width="41" height="41" fill="white" transform="translate(164 107)"/>
</clipPath>
<clipPath id="clip5_244_651">
<rect width="41" height="41" fill="white" transform="translate(164 668)"/>
</clipPath>
<clipPath id="clip6_244_651">
<rect width="41" height="41" fill="white" transform="translate(165 668)"/>
</clipPath>
<clipPath id="clip7_244_651">
<rect width="41" height="41" fill="white" transform="translate(1046 668)"/>
</clipPath>
<clipPath id="clip8_244_651">
<rect width="41" height="41" fill="white" transform="translate(1047 668)"/>
</clipPath>
</defs>
</svg>
