<svg width="1920" height="1080" viewBox="0 0 1920 1080" fill="none" xmlns="http://www.w3.org/2000/svg">
<g clip-path="url(#clip0_245_831)">
<rect width="1920" height="1080" rx="16" fill="#226334"/>
<rect width="94" height="1080" rx="16" fill="#022F0E"/>
<g clip-path="url(#clip1_245_831)">
<path d="M57.25 102V87" stroke="#F2C94C" stroke-width="2" stroke-linecap="round" stroke-linejoin="round"/>
<path d="M48.5 102V78" stroke="#F2C94C" stroke-width="2" stroke-linecap="round" stroke-linejoin="round"/>
<path d="M39.75 102V93" stroke="#F2C94C" stroke-width="2" stroke-linecap="round" stroke-linejoin="round"/>
</g>
<path d="M48 177C41.3835 177 36 182.384 36 189C36 195.616 41.3835 201 48 201C54.6165 201 60 195.616 60 189C60 182.384 54.6165 177 48 177ZM48.762 180.898L51.8475 179.24C53.556 179.916 55.047 181.024 56.181 182.434L55.446 185.828L53.0925 186.981L48.762 183.827V180.898ZM44.178 179.23L47.2635 180.895V183.827L42.936 186.981L40.5705 185.826L39.8355 182.412C40.9725 181.005 42.4665 179.903 44.178 179.23ZM39.345 194.931C38.3655 193.506 37.728 191.831 37.5525 190.02L40.092 187.262L42.408 188.394L44.1525 193.349L42.678 195.115L39.345 194.931ZM50.6745 199.141C49.818 199.368 48.9255 199.5 48 199.5C46.881 199.5 45.804 199.32 44.7915 198.995L43.848 196.057L45.3525 194.25H50.6535L52.131 195.999L50.6745 199.141ZM53.301 195.065L51.8505 193.347L53.619 188.394L55.9245 187.264L58.449 190.021C58.2975 191.583 57.795 193.04 57.0315 194.328L53.301 195.065Z" fill="#F2C94C"/>
<path d="M45.8913 283H57.7085C58.2957 283.094 58.654 283.425 58.7833 283.993C58.8011 284.071 58.7941 284.16 58.7946 284.242C58.803 289.927 58.8044 295.775 58.7988 301.785C58.7983 302.35 58.4182 302.844 57.8782 302.968C57.7579 302.995 57.5057 303.007 57.1216 303.004C56.5385 302.998 55.988 302.998 55.4702 303.004C55.4552 303.004 55.444 303.011 55.4365 303.024C55.2499 303.348 54.9944 303.487 54.6255 303.602C51.0361 304.721 47.4721 305.834 43.9333 306.941C43.8438 306.969 43.7538 306.982 43.6629 307H43.4538C42.9513 306.922 42.6011 306.626 42.4535 306.154C40.7072 300.574 38.9769 295.037 37.2626 289.544C37.1041 289.036 37.2738 288.49 37.7308 288.201C37.8199 288.144 37.9529 288.088 38.1297 288.033C40.3816 287.331 42.5994 286.637 44.7832 285.952C44.796 285.948 44.8022 285.939 44.8019 285.926C44.7988 285.305 44.7996 284.728 44.8043 284.195C44.8099 283.542 45.2651 283.099 45.8913 283ZM57.9991 284.203C57.9991 284.096 57.9565 283.993 57.8808 283.918C57.805 283.842 57.7022 283.799 57.5951 283.799H46.0038C45.8966 283.799 45.7939 283.842 45.7181 283.918C45.6423 283.993 45.5997 284.096 45.5997 284.203V301.795C45.5997 301.902 45.6423 302.004 45.7181 302.08C45.7939 302.156 45.8966 302.199 46.0038 302.199H57.5951C57.7022 302.199 57.805 302.156 57.8808 302.08C57.9565 302.004 57.9991 301.902 57.9991 301.795V284.203ZM46.0315 303.001C45.4952 303.001 45.0555 302.696 44.8657 302.194C44.821 302.077 44.7986 301.839 44.7986 301.481C44.8002 296.635 44.8013 291.746 44.8019 286.814C44.8019 286.795 44.7929 286.788 44.7747 286.794C42.6247 287.467 40.4491 288.147 38.2479 288.835C38.0486 288.897 37.961 289.099 38.021 289.292C39.7954 294.971 41.5315 300.525 43.2293 305.955C43.2663 306.074 43.3755 306.168 43.4979 306.19C43.5676 306.203 43.6666 306.189 43.7951 306.148C47.1316 305.104 50.463 304.062 53.7893 303.023C53.8371 303.008 53.8358 303.001 53.7855 303.001C51.1415 303.001 48.5568 303.001 46.0315 303.001Z" fill="#F2C94C"/>
<path d="M2 368C2 361.373 7.37258 356 14 356H94V436H14C7.37259 436 2 430.627 2 424V368Z" fill="#226334"/>
<path d="M90.5 352C94.5 348 94 344 94 344V356H82C82 356 86.5 356 90.5 352Z" fill="#226334"/>
<path d="M90.0098 439.51C86.0098 435.51 82.0098 436.01 82.0098 436.01H94.0098V448.01C94.0098 448.01 94.0098 443.51 90.0098 439.51Z" fill="#226334"/>
<g filter="url(#filter0_d_245_831)">
<rect x="20" y="369" width="56" height="56" rx="8" fill="#387A49"/>
<g clip-path="url(#clip2_245_831)">
<path d="M60 387.864V405.603C59.9394 406.239 59.6744 406.739 59.205 407.105C58.8258 407.401 58.3842 407.545 57.9052 407.545C55.0777 407.545 52.2191 407.545 49.3294 407.545C48.8466 407.545 48.8391 406.839 49.342 406.84C50.0833 406.843 50.8061 406.843 51.5105 406.841C51.5131 406.841 51.5156 406.84 51.518 406.839C51.5204 406.838 51.5226 406.837 51.5244 406.835C51.5262 406.833 51.5277 406.831 51.5287 406.828C51.5296 406.826 51.5302 406.823 51.5302 406.821V402.461C51.5302 402.458 51.5287 402.454 51.526 402.452C51.5234 402.449 51.5198 402.448 51.5161 402.448H44.4834C44.4797 402.448 44.4761 402.449 44.4735 402.452C44.4709 402.455 44.4694 402.458 44.4694 402.462V406.819C44.4694 406.825 44.4717 406.831 44.476 406.835C44.4802 406.839 44.4859 406.841 44.4919 406.841C45.5734 406.842 46.7045 406.842 47.8852 406.841C48.3806 406.841 48.3914 407.546 47.8561 407.545C44.7214 407.543 41.5673 407.544 38.3939 407.547C38.0377 407.548 37.7722 407.529 37.5975 407.49C36.7069 407.292 36.0694 406.517 36 405.599V387.856C36.0722 387.227 36.4688 386.718 37.0669 386.528C37.2459 386.471 37.5334 386.445 37.9294 386.45C38.5553 386.458 39.1834 386.459 39.8138 386.454C40.328 386.449 40.3284 387.159 39.8367 387.159C39.0958 387.158 38.3345 387.158 37.553 387.159C37.0786 387.159 36.7041 387.509 36.7036 387.984C36.7027 389.05 36.7027 390.231 36.7036 391.527C36.7036 391.544 36.7119 391.552 36.7284 391.552H59.2711C59.2892 391.552 59.2983 391.543 59.2983 391.525C59.2948 390.311 59.2955 389.17 59.3002 388.103C59.302 387.684 59.1516 387.358 58.7527 387.207C58.6623 387.173 58.4928 387.156 58.2441 387.156C52.7706 387.16 47.1031 387.16 41.2416 387.155C41.185 387.155 41.1298 387.138 41.0761 387.105C40.7813 386.918 40.9036 386.46 41.2612 386.459C46.8025 386.45 52.5423 386.452 58.4808 386.464C58.5355 386.464 58.5956 386.466 58.6613 386.469C58.7219 386.473 58.7781 386.482 58.83 386.497C59.5094 386.691 59.8994 387.147 60 387.864ZM43.7672 392.284C43.7672 392.276 43.7642 392.269 43.7588 392.264C43.7535 392.258 43.7462 392.255 43.7386 392.255H36.7317C36.7241 392.255 36.7169 392.258 36.7115 392.264C36.7061 392.269 36.7031 392.276 36.7031 392.284V396.62C36.7031 396.627 36.7061 396.635 36.7115 396.64C36.7169 396.645 36.7241 396.648 36.7317 396.648H43.7386C43.7462 396.648 43.7535 396.645 43.7588 396.64C43.7642 396.635 43.7672 396.627 43.7672 396.62V392.284ZM51.5302 392.277C51.5302 392.271 51.5279 392.266 51.5238 392.262C51.5198 392.258 51.5143 392.255 51.5086 392.255H44.4914C44.4857 392.255 44.4802 392.258 44.4762 392.262C44.4721 392.266 44.4698 392.271 44.4698 392.277V396.627C44.4698 396.633 44.4721 396.638 44.4762 396.642C44.4802 396.646 44.4857 396.648 44.4914 396.648H51.5086C51.5143 396.648 51.5198 396.646 51.5238 396.642C51.5279 396.638 51.5302 396.633 51.5302 396.627V392.277ZM59.2969 392.276C59.2969 392.27 59.2947 392.265 59.2908 392.261C59.287 392.257 59.2817 392.255 59.2762 392.255H52.2544C52.2489 392.255 52.2437 392.257 52.2398 392.261C52.2359 392.265 52.2338 392.27 52.2338 392.276V396.628C52.2338 396.633 52.2359 396.638 52.2398 396.642C52.2437 396.646 52.2489 396.648 52.2544 396.648H59.2762C59.2817 396.648 59.287 396.646 59.2908 396.642C59.2947 396.638 59.2969 396.633 59.2969 396.628V392.276ZM43.7672 397.373C43.7672 397.367 43.7651 397.362 43.7613 397.358C43.7575 397.355 43.7524 397.352 43.747 397.352H36.7233C36.7179 397.352 36.7128 397.355 36.709 397.358C36.7052 397.362 36.7031 397.367 36.7031 397.373V401.724C36.7031 401.73 36.7052 401.735 36.709 401.739C36.7128 401.743 36.7179 401.745 36.7233 401.745H43.747C43.7524 401.745 43.7575 401.743 43.7613 401.739C43.7651 401.735 43.7672 401.73 43.7672 401.724V397.373ZM51.5302 397.372C51.5302 397.37 51.5296 397.367 51.5287 397.365C51.5277 397.362 51.5262 397.36 51.5244 397.358C51.5226 397.356 51.5204 397.355 51.518 397.354C51.5156 397.353 51.5131 397.352 51.5105 397.352H44.4895C44.4869 397.352 44.4844 397.353 44.482 397.354C44.4796 397.355 44.4774 397.356 44.4756 397.358C44.4738 397.36 44.4723 397.362 44.4713 397.365C44.4704 397.367 44.4698 397.37 44.4698 397.372V401.725C44.4698 401.728 44.4704 401.73 44.4713 401.732C44.4723 401.735 44.4738 401.737 44.4756 401.739C44.4774 401.741 44.4796 401.742 44.482 401.743C44.4844 401.744 44.4869 401.745 44.4895 401.745H51.5105C51.5131 401.745 51.5156 401.744 51.518 401.743C51.5204 401.742 51.5226 401.741 51.5244 401.739C51.5262 401.737 51.5277 401.735 51.5287 401.732C51.5296 401.73 51.5302 401.728 51.5302 401.725V397.372ZM59.2969 397.371C59.2969 397.369 59.2964 397.366 59.2954 397.364C59.2945 397.362 59.2931 397.36 59.2914 397.358C59.2896 397.356 59.2876 397.355 59.2853 397.354C59.283 397.353 59.2806 397.352 59.2781 397.352H52.2525C52.25 397.352 52.2476 397.353 52.2453 397.354C52.243 397.355 52.241 397.356 52.2392 397.358C52.2375 397.36 52.2361 397.362 52.2352 397.364C52.2342 397.366 52.2338 397.369 52.2338 397.371V401.726C52.2338 401.728 52.2342 401.731 52.2352 401.733C52.2361 401.735 52.2375 401.737 52.2392 401.739C52.241 401.741 52.243 401.742 52.2453 401.743C52.2476 401.744 52.25 401.745 52.2525 401.745H59.2781C59.2831 401.745 59.2879 401.743 59.2914 401.739C59.2949 401.736 59.2969 401.731 59.2969 401.726V397.371ZM36.7598 405.87C36.9403 406.447 37.4527 406.84 38.0653 406.841C39.9288 406.842 41.8242 406.842 43.7517 406.841C43.7557 406.841 43.7595 406.84 43.7623 406.837C43.7651 406.834 43.7667 406.83 43.7667 406.826V402.471C43.7667 402.465 43.7643 402.459 43.76 402.454C43.7557 402.45 43.7498 402.448 43.7437 402.448H36.7167C36.7064 402.448 36.7014 402.453 36.7017 402.463C36.7073 403.391 36.7061 404.269 36.698 405.097C36.6945 405.469 36.7152 405.727 36.7598 405.87ZM58.3402 406.781C58.9219 406.587 59.3072 406.071 59.2964 405.451C59.2964 405.439 59.2967 404.442 59.2973 402.462C59.2973 402.458 59.2959 402.455 59.2932 402.452C59.2906 402.449 59.287 402.448 59.2833 402.448H52.2562C52.2409 402.448 52.2333 402.455 52.2333 402.47V406.811C52.2333 406.832 52.2434 406.842 52.2637 406.842C54.0212 406.842 55.7739 406.842 57.5217 406.842C57.9458 406.842 58.2186 406.822 58.3402 406.781Z" fill="#F2C94C"/>
<path d="M47.2005 387.432C47.2023 387.877 47.202 388.26 47.1995 388.581C47.1948 389.138 46.3975 389.126 46.4003 388.585C46.4025 388.113 46.4014 387.613 46.397 387.084C46.3942 386.782 46.539 386.596 46.8723 386.598C47.343 386.602 47.8303 386.602 48.3344 386.597C48.4434 386.597 48.5326 386.617 48.602 386.657C48.8111 386.781 48.864 387.056 48.7103 387.249C48.6151 387.369 48.49 387.401 48.3433 387.401C47.9936 387.401 47.623 387.401 47.2314 387.4C47.2105 387.4 47.2001 387.411 47.2005 387.432Z" fill="#F2C94C"/>
<path d="M39.9282 391.989C39.9251 391.99 39.9225 391.992 39.921 391.995C39.9196 391.998 39.9193 392.001 39.9202 392.005C40.053 392.426 40.1864 392.854 40.3205 393.288C40.4818 393.808 39.7177 394.052 39.5471 393.498C39.3802 392.957 39.2119 392.418 39.0422 391.882C38.9616 391.629 39.075 391.413 39.3291 391.334C39.9632 391.137 40.5222 390.962 41.0063 390.81C41.5219 390.648 41.7671 391.414 41.221 391.582C40.7482 391.728 40.3172 391.864 39.9282 391.989Z" fill="#F2C94C"/>
</g>
</g>
<g clip-path="url(#clip3_245_831)">
<path d="M70.4567 1010H29.5433C28.6036 1010 27.7023 1010.37 27.0378 1011.04C26.3733 1011.7 26 1012.6 26 1013.54V1054.46C26 1055.4 26.3733 1056.3 27.0378 1056.96C27.7023 1057.63 28.6036 1058 29.5433 1058H70.4567C71.3964 1058 72.2977 1057.63 72.9622 1056.96C73.6267 1056.3 74 1055.4 74 1054.46V1013.54C74 1012.6 73.6267 1011.7 72.9622 1011.04C72.2977 1010.37 71.3964 1010 70.4567 1010ZM40.3067 1050.89H33.09V1027.97H40.3067V1050.89ZM36.6933 1024.79C35.8747 1024.79 35.0758 1024.54 34.3975 1024.08C33.7191 1023.62 33.1917 1022.97 32.8818 1022.22C32.5718 1021.46 32.4933 1020.63 32.6561 1019.82C32.8188 1019.02 33.2156 1018.28 33.7963 1017.71C34.377 1017.13 35.1156 1016.74 35.9189 1016.58C36.7222 1016.42 37.5542 1016.51 38.3099 1016.82C39.0656 1017.14 39.7111 1017.67 40.1649 1018.35C40.6188 1019.03 40.8606 1019.83 40.86 1020.65C40.8677 1021.2 40.765 1021.74 40.558 1022.25C40.351 1022.76 40.044 1023.22 39.6551 1023.6C39.2663 1023.99 38.8037 1024.29 38.2948 1024.5C37.786 1024.7 37.2413 1024.8 36.6933 1024.79ZM66.9067 1050.91H59.6933V1038.39C59.6933 1034.69 58.1233 1033.55 56.0967 1033.55C53.9567 1033.55 51.8567 1035.17 51.8567 1038.48V1050.91H44.64V1027.98H51.58V1031.16H51.6733C52.37 1029.75 54.81 1027.34 58.5333 1027.34C62.56 1027.34 66.91 1029.73 66.91 1036.73L66.9067 1050.91Z" fill="#F2C94C"/>
</g>
<g clip-path="url(#clip4_245_831)">
<path fill-rule="evenodd" clip-rule="evenodd" d="M50.0199 919C36.7375 919 26 929.817 26 943.198C26 953.895 32.8799 962.95 42.4241 966.154C43.6174 966.395 44.0545 965.634 44.0545 964.993C44.0545 964.432 44.0151 962.509 44.0151 960.505C37.3334 961.948 35.942 957.621 35.942 957.621C34.8682 954.816 33.2772 954.096 33.2772 954.096C31.0902 952.613 33.4365 952.613 33.4365 952.613C35.8623 952.774 37.1353 955.097 37.1353 955.097C39.2824 958.783 42.7422 957.741 44.1341 957.1C44.3328 955.538 44.9695 954.456 45.6455 953.855C40.3163 953.294 34.7094 951.211 34.7094 941.916C34.7094 939.272 35.6632 937.109 37.1746 935.426C36.9361 934.825 36.1008 932.341 37.4135 929.016C37.4135 929.016 39.4417 928.375 44.0146 931.5C45.9725 930.97 47.9916 930.7 50.0199 930.698C52.048 930.698 54.1154 930.979 56.0246 931.5C60.5981 928.375 62.6262 929.016 62.6262 929.016C63.9389 932.341 63.1031 934.825 62.8646 935.426C64.4158 937.109 65.3303 939.272 65.3303 941.916C65.3303 951.211 59.7234 953.254 54.3544 953.855C55.2296 954.616 55.9848 956.058 55.9848 958.342C55.9848 961.587 55.9454 964.191 55.9454 964.992C55.9454 965.634 56.383 966.395 57.5758 966.155C67.12 962.949 73.9999 953.895 73.9999 943.198C74.0392 929.817 63.2624 919 50.0199 919Z" fill="#F2C94C"/>
</g>
<path opacity="0.984" fill-rule="evenodd" clip-rule="evenodd" d="M32.3498 828.15C33.2977 828.094 34.231 828.177 35.1498 828.4C46.4771 831.854 57.8105 835.287 69.1498 838.7C71.2374 839.357 72.4207 840.774 72.6998 842.95C72.7665 851.183 72.7665 859.417 72.6998 867.65C72.3363 870.047 70.953 871.397 68.5498 871.7C68.1165 871.767 67.6831 871.767 67.2498 871.7C65.6985 871.296 64.1652 870.829 62.6498 870.3C61.7504 869.653 61.7171 868.953 62.5498 868.2C62.7197 868.104 62.9031 868.054 63.0998 868.05C64.7033 868.501 66.3033 868.968 67.8998 869.45C68.9427 869.312 69.7093 868.779 70.1998 867.85C70.3654 859.488 70.3987 851.121 70.2998 842.75C70.0657 841.916 69.5491 841.333 68.7498 841C56.9518 837.44 45.1518 833.89 33.3498 830.35C32.0487 830.468 31.2653 831.168 30.9998 832.45C30.9665 838.117 30.9331 843.783 30.8998 849.45C30.5757 850.202 30.0257 850.452 29.2498 850.2C28.8833 850.033 28.6666 849.75 28.5998 849.35C28.5331 843.717 28.5331 838.083 28.5998 832.45C28.9106 830.19 30.1606 828.756 32.3498 828.15Z" fill="#F2C94C"/>
<path opacity="0.992" fill-rule="evenodd" clip-rule="evenodd" d="M55.35 844.25C57.1138 844.232 58.2304 845.065 58.7 846.75C58.7667 855.517 58.7667 864.283 58.7 873.05C58.2493 875.351 56.866 876.268 54.55 875.8C53.5998 875.383 53.0164 874.666 52.8 873.65C52.7333 864.65 52.7333 855.65 52.8 846.65C53.1566 845.31 54.0066 844.51 55.35 844.25Z" fill="#F2C94C"/>
<path opacity="0.998" fill-rule="evenodd" clip-rule="evenodd" d="M46.55 847.55C47.9582 847.346 49.0749 847.813 49.9 848.95C50.0197 849.209 50.1197 849.476 50.2 849.75C50.2667 856.483 50.2667 863.217 50.2 869.95C49.7346 872.257 48.3512 873.174 46.05 872.7C45.0607 872.276 44.4773 871.526 44.3 870.45C44.2333 863.65 44.2333 856.85 44.3 850.05C44.5824 848.785 45.3324 847.951 46.55 847.55Z" fill="#F2C94C"/>
<path opacity="0.988" fill-rule="evenodd" clip-rule="evenodd" d="M38.2499 850.75C39.9646 850.664 41.0812 851.431 41.5999 853.05C41.6666 857.75 41.6666 862.45 41.5999 867.15C41.1738 868.623 40.1905 869.423 38.6499 869.55C37.0819 869.465 36.0986 868.665 35.6999 867.15C35.6332 862.483 35.6332 857.817 35.6999 853.15C36.0573 851.809 36.9073 851.009 38.2499 850.75Z" fill="#F2C94C"/>
<path opacity="0.991" fill-rule="evenodd" clip-rule="evenodd" d="M29.3499 853.75C31.2266 853.563 32.4432 854.363 32.9999 856.15C33.0666 858.85 33.0666 861.55 32.9999 864.25C32.4242 866.09 31.1742 866.873 29.2499 866.6C28.2496 866.333 27.5663 865.716 27.1999 864.75C27.1332 861.75 27.1332 858.75 27.1999 855.75C27.617 854.749 28.3337 854.083 29.3499 853.75Z" fill="#F2C94C"/>
<path d="M131 135C131 126.163 138.163 119 147 119H979C987.837 119 995 126.163 995 135V1041C995 1049.84 987.837 1057 979 1057H147C138.163 1057 131 1049.84 131 1041V135Z" fill="#022F0E"/>
<path d="M211.319 148.63L184.099 163L156.734 148.63C151.93 145.314 148 143.908 148 140.592V107.029C148 103.713 151.93 101 156.734 101H211.319C216.123 101 220.053 103.713 220.053 107.029V140.592C220.053 143.908 216.414 145.113 211.319 148.63Z" fill="white"/>
<g clip-path="url(#clip5_245_831)">
<path opacity="0.946" fill-rule="evenodd" clip-rule="evenodd" d="M163.761 106.96C165.095 106.96 166.43 106.96 167.765 106.96C168.19 107.106 168.471 107.399 168.605 107.841C168.645 109.282 168.659 110.723 168.646 112.165C169.847 112.152 171.048 112.165 172.249 112.205C172.316 112.272 172.383 112.339 172.449 112.405C172.568 115.47 172.608 118.54 172.569 121.614C174.355 121.385 175.089 122.159 174.771 123.937C174.579 124.618 174.192 124.752 173.61 124.337C173.534 123.861 173.507 123.381 173.53 122.896C172.463 122.896 171.395 122.896 170.327 122.896C170.327 125.938 170.327 128.981 170.327 132.024C171.395 132.024 172.463 132.024 173.53 132.024C173.517 130.022 173.53 128.02 173.57 126.019C174.132 125.528 174.533 125.634 174.771 126.339C174.825 128.234 174.825 130.129 174.771 132.024C174.762 132.701 174.428 133.115 173.771 133.266C173.371 133.306 172.971 133.319 172.569 133.306C172.608 136.38 172.568 139.45 172.449 142.515C172.383 142.581 172.316 142.648 172.249 142.715C171.048 142.755 169.847 142.768 168.646 142.755C168.659 144.197 168.645 145.638 168.605 147.079C168.471 147.521 168.19 147.814 167.765 147.96C166.43 147.96 165.095 147.96 163.761 147.96C163.414 147.773 163.147 147.506 162.96 147.159C162.96 143.796 162.96 140.433 162.96 137.069C163.164 136.772 163.431 136.545 163.761 136.389C165.122 136.335 166.483 136.335 167.845 136.389C168.239 136.543 168.493 136.823 168.605 137.229C168.645 138.644 168.659 140.059 168.646 141.474C169.526 141.474 170.407 141.474 171.288 141.474C171.288 138.751 171.288 136.028 171.288 133.306C170.774 133.335 170.266 133.295 169.767 133.186C169.455 133.008 169.228 132.754 169.086 132.425C169.033 129.115 169.033 125.805 169.086 122.495C169.228 122.166 169.455 121.912 169.767 121.734C170.266 121.625 170.774 121.585 171.288 121.614C171.288 118.892 171.288 116.169 171.288 113.446C170.407 113.446 169.526 113.446 168.646 113.446C168.659 114.861 168.645 116.276 168.605 117.69C168.493 118.097 168.239 118.377 167.845 118.531C166.483 118.585 165.122 118.585 163.761 118.531C163.431 118.375 163.164 118.148 162.96 117.851C162.96 114.487 162.96 111.124 162.96 107.761C163.147 107.414 163.414 107.147 163.761 106.96ZM164.161 108.241C165.229 108.241 166.297 108.241 167.364 108.241C167.364 111.257 167.364 114.274 167.364 117.29C166.297 117.29 165.229 117.29 164.161 117.29C164.161 114.274 164.161 111.257 164.161 108.241ZM164.161 137.63C165.229 137.63 166.297 137.63 167.364 137.63C167.364 140.646 167.364 143.662 167.364 146.679C166.297 146.679 165.229 146.679 164.161 146.679C164.161 143.662 164.161 140.646 164.161 137.63Z" fill="#07A157"/>
<path opacity="0.95" fill-rule="evenodd" clip-rule="evenodd" d="M199.155 106.96C200.49 106.96 201.824 106.96 203.159 106.96C203.506 107.147 203.773 107.414 203.96 107.761C203.96 111.124 203.96 114.487 203.96 117.851C203.756 118.148 203.489 118.375 203.159 118.531C201.798 118.585 200.436 118.585 199.075 118.531C198.68 118.377 198.427 118.097 198.314 117.69C198.274 116.276 198.261 114.861 198.274 113.446C197.393 113.446 196.513 113.446 195.632 113.446C195.632 116.169 195.632 118.892 195.632 121.614C196.146 121.585 196.653 121.625 197.153 121.734C197.465 121.912 197.691 122.166 197.834 122.495C197.887 125.805 197.887 129.115 197.834 132.425C197.691 132.754 197.465 133.008 197.153 133.186C196.653 133.295 196.146 133.335 195.632 133.306C195.632 136.028 195.632 138.751 195.632 141.474C196.513 141.474 197.393 141.474 198.274 141.474C198.261 140.059 198.274 138.644 198.314 137.229C198.427 136.823 198.68 136.543 199.075 136.389C200.436 136.335 201.798 136.335 203.159 136.389C203.489 136.545 203.756 136.772 203.96 137.069C203.96 140.433 203.96 143.796 203.96 147.159C203.773 147.506 203.506 147.773 203.159 147.96C201.824 147.96 200.49 147.96 199.155 147.96C198.729 147.814 198.449 147.521 198.314 147.079C198.274 145.638 198.261 144.197 198.274 142.755C197.073 142.768 195.872 142.755 194.671 142.715C194.604 142.648 194.537 142.581 194.471 142.515C194.352 139.45 194.312 136.38 194.35 133.306C192.426 133.494 191.719 132.64 192.228 130.743C192.34 130.514 192.527 130.407 192.789 130.423C192.97 130.418 193.13 130.471 193.269 130.583C193.382 131.054 193.422 131.534 193.39 132.024C194.457 132.024 195.525 132.024 196.593 132.024C196.593 128.981 196.593 125.938 196.593 122.896C195.525 122.896 194.457 122.896 193.39 122.896C193.403 124.924 193.39 126.953 193.35 128.981C192.976 129.409 192.602 129.409 192.228 128.981C192.175 126.793 192.175 124.604 192.228 122.415C192.349 122.081 192.575 121.854 192.909 121.734C193.382 121.625 193.863 121.585 194.35 121.614C194.312 118.54 194.352 115.47 194.471 112.405C194.537 112.339 194.604 112.272 194.671 112.205C195.872 112.165 197.073 112.152 198.274 112.165C198.261 110.723 198.274 109.282 198.314 107.841C198.449 107.399 198.729 107.106 199.155 106.96ZM199.556 108.241C200.623 108.241 201.691 108.241 202.759 108.241C202.759 111.257 202.759 114.274 202.759 117.29C201.691 117.29 200.623 117.29 199.556 117.29C199.556 114.274 199.556 111.257 199.556 108.241ZM199.556 137.63C200.623 137.63 201.691 137.63 202.759 137.63C202.759 140.646 202.759 143.662 202.759 146.679C201.691 146.679 200.623 146.679 199.556 146.679C199.556 143.662 199.556 140.646 199.556 137.63Z" fill="#07A157"/>
<path opacity="0.917" fill-rule="evenodd" clip-rule="evenodd" d="M183.14 114.407C183.641 114.303 183.948 114.49 184.061 114.968C184.135 116.04 184.108 117.108 183.98 118.171C183.607 118.598 183.233 118.598 182.859 118.171C182.806 117.023 182.806 115.875 182.859 114.728C182.915 114.579 183.008 114.473 183.14 114.407Z" fill="#07A157"/>
<path opacity="0.909" fill-rule="evenodd" clip-rule="evenodd" d="M177.454 115.769C177.755 115.734 178.035 115.787 178.295 115.929C178.749 116.836 179.203 117.744 179.656 118.651C179.775 119.161 179.575 119.455 179.056 119.532C178.867 119.485 178.694 119.404 178.535 119.292C178.082 118.384 177.628 117.477 177.174 116.569C177.109 116.247 177.202 115.98 177.454 115.769Z" fill="#07A157"/>
<path opacity="0.906" fill-rule="evenodd" clip-rule="evenodd" d="M188.745 115.769C189.395 115.658 189.702 115.925 189.666 116.569C189.213 117.474 188.76 118.382 188.305 119.292C187.971 119.606 187.637 119.606 187.304 119.292C187.165 119.095 187.125 118.882 187.183 118.651C187.644 117.65 188.164 116.689 188.745 115.769Z" fill="#07A157"/>
<path opacity="0.932" fill-rule="evenodd" clip-rule="evenodd" d="M180.417 121.614C182.446 121.601 184.475 121.614 186.503 121.654C186.677 121.721 186.797 121.841 186.863 122.015C186.926 122.419 186.913 122.82 186.823 123.216C187.73 123.282 188.637 123.322 189.546 123.336C189.82 123.474 189.953 123.7 189.946 124.017C189.844 125.236 189.564 126.41 189.106 127.54C188.385 128.882 187.251 129.563 185.702 129.582C185.386 130.259 184.879 130.726 184.181 130.983C184.101 131.326 184.075 131.673 184.101 132.024C184.609 132.011 185.116 132.024 185.622 132.064C186.018 132.409 186.045 132.783 185.702 133.186C185.622 133.212 185.542 133.239 185.462 133.266C184.127 133.319 182.793 133.319 181.458 133.266C181.025 133.107 180.878 132.8 181.018 132.345C181.111 132.251 181.205 132.158 181.298 132.064C181.805 132.024 182.312 132.011 182.82 132.024C182.846 131.673 182.819 131.326 182.739 130.983C182.041 130.726 181.534 130.259 181.218 129.582C179.669 129.563 178.535 128.882 177.815 127.54C177.253 126.255 177.013 124.921 177.094 123.536C177.166 123.44 177.26 123.373 177.374 123.336C178.283 123.322 179.19 123.282 180.097 123.216C180.007 122.793 179.994 122.366 180.057 121.935C180.169 121.809 180.289 121.702 180.417 121.614ZM181.298 122.896C182.74 122.869 184.182 122.896 185.622 122.976C185.485 124.7 185.231 126.408 184.861 128.101C184.744 128.668 184.491 129.162 184.101 129.582C183.243 129.961 182.642 129.707 182.299 128.821C182.089 128.248 181.929 127.66 181.819 127.06C181.601 125.675 181.427 124.287 181.298 122.896ZM178.335 124.577C178.949 124.577 179.563 124.577 180.177 124.577C180.289 125.764 180.476 126.938 180.737 128.101C180.395 128.179 180.075 128.112 179.777 127.9C179.176 127.38 178.789 126.726 178.615 125.938C178.506 125.486 178.413 125.033 178.335 124.577ZM186.743 124.577C187.36 124.551 187.973 124.577 188.585 124.657C188.458 125.587 188.177 126.467 187.744 127.3C187.417 127.787 186.963 128.081 186.383 128.181C186.316 128.154 186.249 128.127 186.183 128.101C186.444 126.938 186.631 125.764 186.743 124.577Z" fill="#07A157"/>
<path opacity="0.911" fill-rule="evenodd" clip-rule="evenodd" d="M178.896 135.388C179.512 135.377 179.766 135.67 179.656 136.269C179.229 137.123 178.802 137.977 178.375 138.831C178.138 139.134 177.832 139.227 177.454 139.111C177.191 138.918 177.097 138.665 177.174 138.351C177.628 137.443 178.081 136.536 178.535 135.628C178.668 135.556 178.788 135.476 178.896 135.388Z" fill="#07A157"/>
<path opacity="0.906" fill-rule="evenodd" clip-rule="evenodd" d="M187.624 135.388C187.884 135.381 188.111 135.461 188.305 135.628C188.806 136.591 189.274 137.565 189.706 138.551C189.606 139.103 189.286 139.29 188.745 139.111C188.652 139.018 188.558 138.925 188.465 138.831C188.038 137.977 187.611 137.123 187.184 136.269C187.119 135.864 187.266 135.57 187.624 135.388Z" fill="#07A157"/>
<path opacity="0.918" fill-rule="evenodd" clip-rule="evenodd" d="M183.3 136.429C183.739 136.427 183.992 136.641 184.061 137.069C184.114 138.03 184.114 138.991 184.061 139.952C183.882 140.51 183.522 140.657 182.98 140.393C182.929 140.333 182.889 140.266 182.859 140.192C182.806 139.045 182.806 137.897 182.859 136.749C182.98 136.591 183.126 136.485 183.3 136.429Z" fill="#07A157"/>
</g>
<path d="M1010 696C1010 687.163 1017.16 680 1026 680H1423C1431.84 680 1439 687.163 1439 696V1041C1439 1049.84 1431.84 1057 1423 1057H1026C1017.16 1057 1010 1049.84 1010 1041V696Z" fill="#022F0E"/>
<path d="M1090.32 709.63L1063.1 724L1035.73 709.63C1030.93 706.314 1027 704.908 1027 701.592V668.029C1027 664.713 1030.93 662 1035.73 662H1090.32C1095.12 662 1099.05 664.713 1099.05 668.029V701.592C1099.05 704.908 1095.41 706.113 1090.32 709.63Z" fill="white"/>
<g clip-path="url(#clip6_245_831)">
<path opacity="0.945" fill-rule="evenodd" clip-rule="evenodd" d="M1083.96 672.124C1083.96 675.754 1083.96 679.384 1083.96 683.015C1083.57 683.433 1083.19 683.433 1082.8 683.015C1082.76 680.212 1082.75 677.409 1082.76 674.606C1077.63 674.58 1072.51 674.606 1067.38 674.687C1066.51 677.457 1065.66 680.233 1064.82 683.015C1066.28 684.391 1066.3 685.793 1064.9 687.219C1064.42 687.477 1063.92 687.651 1063.38 687.739C1062.55 690.368 1061.72 692.998 1060.9 695.627C1068.18 695.667 1075.47 695.68 1082.76 695.667C1082.75 692.037 1082.76 688.406 1082.8 684.776C1082.91 684.547 1083.1 684.44 1083.36 684.456C1083.63 684.45 1083.83 684.557 1083.96 684.776C1083.96 689.207 1083.96 693.638 1083.96 698.069C1083.73 698.717 1083.27 699.131 1082.6 699.311C1077.13 699.351 1071.65 699.364 1066.18 699.351C1066.32 700.168 1066.52 700.969 1066.78 701.753C1066.93 701.93 1067.11 702.077 1067.3 702.193C1067.84 702.312 1068.37 702.419 1068.91 702.514C1069.2 702.875 1069.17 703.222 1068.83 703.555C1064.69 703.661 1060.56 703.714 1056.41 703.715C1056.27 703.755 1056.17 703.848 1056.13 703.995C1056.09 704.261 1056.08 704.528 1056.09 704.796C1061 704.796 1065.92 704.796 1070.83 704.796C1070.84 704.528 1070.83 704.261 1070.79 703.995C1070.65 703.818 1070.49 703.658 1070.31 703.515C1070.09 702.977 1070.27 702.63 1070.83 702.474C1071.46 702.644 1071.88 703.044 1072.07 703.675C1072.14 704.268 1072.11 704.856 1071.99 705.437C1071.78 705.727 1071.5 705.927 1071.15 706.037C1066.02 706.091 1060.9 706.091 1055.77 706.037C1054.99 705.791 1054.67 705.257 1054.81 704.436C1054.75 703.411 1055.2 702.744 1056.17 702.434C1057.08 702.407 1057.99 702.38 1058.9 702.353C1059.49 702.357 1059.93 702.104 1060.22 701.593C1060.43 700.853 1060.6 700.105 1060.74 699.351C1055.27 699.364 1049.79 699.351 1044.32 699.311C1043.65 699.131 1043.19 698.717 1042.96 698.069C1042.96 697.375 1042.96 696.681 1042.96 695.987C1043.08 695.88 1043.21 695.787 1043.36 695.707C1048.75 695.68 1054.14 695.654 1059.54 695.627C1060.41 692.887 1061.27 690.138 1062.1 687.379C1061.73 687.013 1061.43 686.599 1061.18 686.138C1060.74 684.129 1061.54 682.954 1063.58 682.614C1064.39 679.969 1065.2 677.326 1066.02 674.687C1058.74 674.606 1051.45 674.58 1044.16 674.606C1044.17 681.146 1044.16 687.686 1044.12 694.226C1044.01 694.455 1043.82 694.562 1043.56 694.546C1043.29 694.551 1043.09 694.445 1042.96 694.226C1042.96 686.858 1042.96 679.491 1042.96 672.124C1043.26 671.462 1043.77 671.048 1044.48 670.883C1048.12 670.804 1051.75 670.831 1055.37 670.963C1055.71 671.366 1055.69 671.74 1055.29 672.084C1051.74 672.111 1048.19 672.137 1044.64 672.164C1044.5 672.227 1044.38 672.32 1044.28 672.444C1044.19 672.732 1044.15 673.025 1044.16 673.325C1057.03 673.325 1069.89 673.325 1082.76 673.325C1082.77 673.025 1082.73 672.732 1082.64 672.444C1082.54 672.32 1082.42 672.227 1082.28 672.164C1073.9 672.137 1065.52 672.111 1057.13 672.084C1056.58 671.65 1056.61 671.25 1057.21 670.883C1065.62 670.829 1074.03 670.829 1082.44 670.883C1083.15 671.048 1083.66 671.462 1083.96 672.124ZM1052.65 680.372C1054.06 680.558 1055.39 680.985 1056.65 681.653C1056.73 681.888 1056.76 682.128 1056.73 682.374C1054.17 682.374 1051.61 682.374 1049.05 682.374C1048.99 682.045 1049.07 681.765 1049.29 681.533C1050.37 681.008 1051.49 680.621 1052.65 680.372ZM1049.21 683.655C1049.77 683.655 1050.33 683.655 1050.89 683.655C1050.9 685.07 1050.89 686.485 1050.85 687.899C1049.94 686.626 1049.4 685.211 1049.21 683.655ZM1052.17 683.655C1052.65 683.655 1053.13 683.655 1053.61 683.655C1053.62 685.497 1053.61 687.339 1053.57 689.181C1053.34 689.304 1053.11 689.437 1052.89 689.581C1052.64 689.478 1052.42 689.344 1052.21 689.181C1052.17 687.339 1052.16 685.497 1052.17 683.655ZM1054.89 683.655C1055.45 683.655 1056.01 683.655 1056.57 683.655C1056.38 685.189 1055.83 686.577 1054.93 687.819C1054.89 686.432 1054.88 685.044 1054.89 683.655ZM1063.3 683.976C1064.08 684.007 1064.53 684.407 1064.66 685.177C1064.43 686.226 1063.82 686.56 1062.82 686.178C1062.21 685.683 1062.11 685.109 1062.54 684.456C1062.77 684.238 1063.02 684.078 1063.3 683.976ZM1069.23 685.737C1069.6 685.724 1069.97 685.737 1070.35 685.777C1070.83 687.365 1071.89 688.206 1073.55 688.3C1075.26 688.245 1076.33 687.391 1076.75 685.737C1077.13 685.737 1077.5 685.737 1077.87 685.737C1077.58 687.325 1076.7 688.46 1075.23 689.141C1073.08 689.839 1071.31 689.292 1069.91 687.499C1069.58 686.95 1069.35 686.363 1069.23 685.737ZM1044.16 696.948C1057.03 696.948 1069.89 696.948 1082.76 696.948C1082.77 697.224 1082.73 697.491 1082.64 697.749C1082.6 697.896 1082.51 697.989 1082.36 698.029C1069.76 698.083 1057.16 698.083 1044.56 698.029C1044.45 697.992 1044.35 697.925 1044.28 697.829C1044.19 697.542 1044.15 697.248 1044.16 696.948ZM1062.1 699.351C1063.01 699.337 1063.91 699.351 1064.82 699.391C1065.03 700.227 1065.23 701.068 1065.42 701.913C1065.49 702.047 1065.56 702.18 1065.62 702.313C1064.18 702.42 1062.74 702.42 1061.3 702.313C1061.36 702.18 1061.43 702.047 1061.5 701.913C1061.7 701.056 1061.9 700.202 1062.1 699.351Z" fill="#07A157"/>
<path opacity="0.938" fill-rule="evenodd" clip-rule="evenodd" d="M1052.49 679.091C1054.19 679.209 1055.79 679.676 1057.29 680.492C1057.56 680.617 1057.78 680.791 1057.97 681.013C1058.19 683.856 1057.5 686.445 1055.89 688.78C1055.09 689.797 1054.07 690.517 1052.85 690.942C1051.11 690.271 1049.83 689.097 1049.01 687.419C1048.04 685.391 1047.64 683.255 1047.8 681.013C1048.48 680.466 1049.25 680.052 1050.09 679.771C1050.89 679.5 1051.69 679.273 1052.49 679.091ZM1052.65 680.372C1051.49 680.621 1050.37 681.008 1049.29 681.533C1049.07 681.765 1048.99 682.045 1049.05 682.374C1051.61 682.374 1054.17 682.374 1056.73 682.374C1056.76 682.128 1056.73 681.888 1056.65 681.653C1055.39 680.985 1054.06 680.558 1052.65 680.372ZM1049.21 683.655C1049.4 685.211 1049.94 686.626 1050.85 687.899C1050.89 686.485 1050.9 685.07 1050.89 683.655C1050.33 683.655 1049.77 683.655 1049.21 683.655ZM1052.17 683.655C1052.16 685.497 1052.17 687.339 1052.21 689.181C1052.42 689.344 1052.64 689.478 1052.89 689.581C1053.11 689.437 1053.34 689.304 1053.57 689.181C1053.61 687.339 1053.62 685.497 1053.61 683.655C1053.13 683.655 1052.65 683.655 1052.17 683.655ZM1054.89 683.655C1054.88 685.044 1054.89 686.432 1054.93 687.819C1055.83 686.577 1056.38 685.189 1056.57 683.655C1056.01 683.655 1055.45 683.655 1054.89 683.655Z" fill="#07A157"/>
<path opacity="0.933" fill-rule="evenodd" clip-rule="evenodd" d="M1072.75 679.411C1075.37 679.191 1077.33 680.206 1078.63 682.454C1079.75 685.067 1079.31 687.376 1077.31 689.381C1075.46 690.803 1073.43 691.096 1071.23 690.262C1068.72 688.944 1067.64 686.876 1067.98 684.056C1068.59 681.488 1070.18 679.94 1072.75 679.411ZM1072.91 680.692C1075.14 680.547 1076.73 681.481 1077.67 683.495C1077.79 683.806 1077.86 684.126 1077.87 684.456C1077.5 684.456 1077.13 684.456 1076.75 684.456C1076.37 682.777 1075.31 681.896 1073.59 681.814C1071.91 681.902 1070.83 682.757 1070.35 684.376C1069.97 684.483 1069.6 684.483 1069.23 684.376C1069.69 682.368 1070.91 681.14 1072.91 680.692ZM1074.19 683.175C1075.54 683.85 1075.87 684.864 1075.19 686.218C1074.94 686.534 1074.64 686.775 1074.27 686.939C1074.19 685.685 1074.16 684.431 1074.19 683.175ZM1072.67 683.255C1072.75 683.255 1072.83 683.255 1072.91 683.255C1072.92 684.483 1072.91 685.711 1072.87 686.939C1071.63 686.24 1071.31 685.252 1071.91 683.976C1072.15 683.717 1072.41 683.477 1072.67 683.255ZM1069.23 685.737C1069.35 686.363 1069.58 686.95 1069.91 687.499C1071.31 689.292 1073.08 689.839 1075.23 689.141C1076.7 688.46 1077.58 687.325 1077.87 685.737C1077.5 685.737 1077.13 685.737 1076.75 685.737C1076.33 687.391 1075.26 688.245 1073.55 688.3C1071.89 688.206 1070.83 687.365 1070.35 685.777C1069.97 685.737 1069.6 685.724 1069.23 685.737Z" fill="#07A157"/>
</g>
<path d="M1454 696C1454 687.163 1461.16 680 1470 680H1867C1875.84 680 1883 687.163 1883 696V1041C1883 1049.84 1875.84 1057 1867 1057H1470C1461.16 1057 1454 1049.84 1454 1041V696Z" fill="#022F0E"/>
<path d="M1534.32 709.63L1507.1 724L1479.73 709.63C1474.93 706.314 1471 704.908 1471 701.592V668.029C1471 664.713 1474.93 662 1479.73 662H1534.32C1539.12 662 1543.05 664.713 1543.05 668.029V701.592C1543.05 704.908 1539.41 706.113 1534.32 709.63Z" fill="white"/>
<path opacity="0.935" fill-rule="evenodd" clip-rule="evenodd" d="M1527 681.689C1527 681.93 1527 682.17 1527 682.41C1526.8 683.088 1526.63 683.782 1526.48 684.492C1526.3 684.841 1526.02 684.962 1525.64 684.853C1525.27 684.649 1525.15 684.342 1525.28 683.932C1525.4 683.509 1525.49 683.082 1525.56 682.65C1524.65 682.624 1523.74 682.65 1522.84 682.73C1520.89 685.893 1518.08 687.081 1514.43 686.294C1512.48 685.676 1511.01 684.475 1510.02 682.69C1509.06 682.65 1508.1 682.637 1507.14 682.65C1507.14 684.492 1507.14 686.334 1507.14 688.176C1512.85 688.202 1518.57 688.176 1524.28 688.096C1524.45 687.428 1524.62 686.76 1524.8 686.094C1525.2 685.751 1525.57 685.778 1525.92 686.174C1525.85 687.178 1525.66 688.166 1525.36 689.137C1525.26 689.261 1525.14 689.354 1525 689.417C1524.46 689.457 1523.93 689.47 1523.4 689.457C1523.41 694.155 1523.4 698.853 1523.36 703.551C1523.33 703.697 1523.27 703.817 1523.16 703.911C1516.35 704.044 1509.55 704.071 1502.74 703.991C1502.33 703.75 1502.24 703.416 1502.46 702.99C1502.53 702.894 1502.62 702.827 1502.74 702.79C1509.2 702.75 1515.66 702.737 1522.12 702.75C1522.12 698.319 1522.12 693.888 1522.12 689.457C1511.71 689.457 1501.29 689.457 1490.88 689.457C1490.88 693.888 1490.88 698.319 1490.88 702.75C1494.19 702.737 1497.5 702.75 1500.81 702.79C1501.22 703.031 1501.31 703.365 1501.09 703.791C1501 703.903 1500.88 703.969 1500.73 703.991C1497.18 704.045 1493.63 704.045 1490.08 703.991C1489.94 703.969 1489.82 703.903 1489.72 703.791C1489.6 699.018 1489.56 694.24 1489.6 689.457C1489.07 689.47 1488.54 689.457 1488 689.417C1487.86 689.354 1487.74 689.261 1487.64 689.137C1487.09 686.885 1486.54 684.643 1486 682.41C1486 682.17 1486 681.93 1486 681.689C1486.07 681.558 1486.17 681.464 1486.32 681.409C1487.92 681.396 1489.52 681.356 1491.12 681.289C1490.29 679.061 1489.95 676.765 1490.12 674.402C1492.09 673.121 1494.23 672.32 1496.57 672C1498.54 672.303 1500.4 672.904 1502.18 673.802C1502.49 673.953 1502.77 674.153 1503.02 674.402C1503.21 676.783 1502.88 679.092 1502.02 681.329C1504.5 681.369 1506.98 681.383 1509.46 681.369C1508.68 677.692 1509.88 674.876 1513.07 672.921C1515.31 671.8 1517.55 671.8 1519.79 672.921C1520.14 673.324 1520.11 673.698 1519.71 674.042C1519.62 674.055 1519.53 674.069 1519.43 674.082C1518.79 673.85 1518.14 673.65 1517.47 673.481C1514.35 673.167 1512.15 674.434 1510.86 677.285C1510.72 677.733 1510.6 678.187 1510.5 678.646C1510.9 678.751 1511.28 678.751 1511.67 678.646C1512.22 676.078 1513.81 674.69 1516.43 674.482C1519.05 674.696 1520.65 676.084 1521.23 678.646C1521.6 678.726 1521.98 678.753 1522.36 678.727C1522.17 677.377 1521.63 676.203 1520.71 675.203C1520.52 674.843 1520.59 674.536 1520.91 674.282C1521.19 674.217 1521.46 674.244 1521.71 674.362C1523.49 676.396 1524.05 678.732 1523.4 681.369C1524.49 681.356 1525.59 681.369 1526.68 681.409C1526.83 681.464 1526.93 681.558 1527 681.689ZM1496.49 673.281C1498.35 673.586 1500.11 674.187 1501.78 675.083C1501.87 675.492 1501.87 675.906 1501.78 676.324C1498.31 676.324 1494.84 676.324 1491.37 676.324C1491.33 675.903 1491.33 675.489 1491.37 675.083C1492.99 674.217 1494.7 673.616 1496.49 673.281ZM1515.71 675.844C1515.79 678.152 1515.82 680.475 1515.79 682.811C1513.47 682.095 1512.57 680.546 1513.11 678.166C1513.59 676.95 1514.46 676.176 1515.71 675.844ZM1517.07 675.844C1519.42 676.588 1520.31 678.163 1519.75 680.568C1519.24 681.765 1518.34 682.513 1517.07 682.811C1517.07 680.488 1517.07 678.166 1517.07 675.844ZM1491.53 677.605C1492.41 677.605 1493.29 677.605 1494.17 677.605C1494.18 679.688 1494.17 681.77 1494.13 683.852C1492.63 682.043 1491.76 679.961 1491.53 677.605ZM1495.45 677.605C1496.2 677.605 1496.94 677.605 1497.69 677.605C1497.68 678.38 1497.69 679.154 1497.73 679.928C1497.97 680.331 1498.31 680.424 1498.73 680.208C1498.83 680.136 1498.9 680.042 1498.93 679.928C1498.97 679.154 1498.99 678.38 1498.97 677.605C1499.85 677.605 1500.73 677.605 1501.62 677.605C1501.36 679.976 1500.5 682.084 1499.01 683.932C1498.99 683.238 1498.96 682.544 1498.93 681.85C1498.69 681.446 1498.36 681.353 1497.93 681.569C1497.84 681.642 1497.77 681.735 1497.73 681.85C1497.7 682.944 1497.68 684.038 1497.65 685.133C1497.32 685.394 1496.96 685.608 1496.57 685.773C1496.18 685.608 1495.82 685.394 1495.49 685.133C1495.45 682.624 1495.44 680.115 1495.45 677.605ZM1510.5 680.088C1510.89 680.009 1511.29 679.982 1511.71 680.008C1512.08 682.128 1513.3 683.476 1515.39 684.052C1517.64 684.415 1519.39 683.654 1520.63 681.77C1520.91 681.234 1521.11 680.674 1521.23 680.088C1521.6 680.008 1521.98 679.982 1522.36 680.008C1521.72 683.244 1519.76 685.006 1516.47 685.293C1513.88 685.179 1512.03 683.951 1510.94 681.609C1510.76 681.103 1510.61 680.595 1510.5 680.088ZM1487.44 682.65C1488.88 682.624 1490.33 682.65 1491.77 682.73C1492.81 684.815 1494.41 686.283 1496.57 687.135C1498.14 686.563 1499.44 685.602 1500.45 684.252C1500.8 683.738 1501.13 683.218 1501.46 682.69C1502.92 682.65 1504.39 682.637 1505.86 682.65C1505.86 684.492 1505.86 686.334 1505.86 688.176C1500.15 688.202 1494.43 688.176 1488.72 688.096C1488.27 686.286 1487.84 684.471 1487.44 682.65ZM1497.77 692.26C1498.88 692.157 1499.59 692.638 1499.89 693.701C1499.95 695.169 1499.95 696.637 1499.89 698.105C1499.37 699.473 1498.45 699.833 1497.13 699.187C1496.75 698.859 1496.52 698.446 1496.45 697.945C1496.4 696.557 1496.4 695.169 1496.45 693.781C1496.62 693.036 1497.06 692.528 1497.77 692.26Z" fill="#07A157"/>
<path d="M1010 135C1010 126.163 1017.16 119 1026 119H1867C1875.84 119 1883 126.163 1883 135V640C1883 648.837 1875.84 656 1867 656H1026C1017.16 656 1010 648.837 1010 640V135Z" fill="#022F0E"/>
<path d="M1090.32 148.63L1063.1 163L1035.73 148.63C1030.93 145.314 1027 143.908 1027 140.592V107.029C1027 103.713 1030.93 101 1035.73 101H1090.32C1095.12 101 1099.05 103.713 1099.05 107.029V140.592C1099.05 143.908 1095.41 145.113 1090.32 148.63Z" fill="white"/>
<g clip-path="url(#clip7_245_831)">
<path opacity="0.95" fill-rule="evenodd" clip-rule="evenodd" d="M1082.96 124.337C1082.96 124.577 1082.96 124.817 1082.96 125.058C1082.87 125.107 1082.79 125.174 1082.72 125.258C1081.01 125.298 1079.3 125.311 1077.59 125.298C1077.59 125.778 1077.59 126.259 1077.59 126.739C1079.22 126.726 1080.85 126.739 1082.48 126.779C1082.67 126.825 1082.83 126.918 1082.96 127.06C1082.96 127.273 1082.96 127.487 1082.96 127.7C1082.89 127.832 1082.79 127.925 1082.64 127.981C1082.08 128.007 1081.52 128.034 1080.96 128.061C1081.6 129.299 1082.26 130.514 1082.96 131.704C1082.96 131.944 1082.96 132.185 1082.96 132.425C1082.87 132.475 1082.79 132.541 1082.72 132.625C1071.72 132.705 1060.72 132.678 1049.73 132.545C1049.51 132.225 1049.51 131.904 1049.73 131.584C1049.85 131.515 1049.99 131.462 1050.13 131.424C1060.51 131.397 1070.89 131.37 1081.28 131.344C1080.66 130.282 1080.07 129.201 1079.52 128.101C1078.74 128.007 1077.97 127.994 1077.19 128.061C1076.26 128.325 1075.32 128.325 1074.39 128.061C1072.82 128.034 1071.24 128.007 1069.67 127.981C1069.21 127.511 1069.26 127.111 1069.83 126.779C1071.19 126.739 1072.55 126.726 1073.91 126.739C1073.91 126.259 1073.91 125.778 1073.91 125.298C1066.28 125.298 1058.64 125.298 1051.01 125.298C1051.01 125.778 1051.01 126.259 1051.01 126.739C1056.59 126.726 1062.17 126.739 1067.75 126.779C1068.18 126.941 1068.33 127.248 1068.19 127.7C1068.09 127.794 1068 127.887 1067.91 127.981C1062.11 128.007 1056.32 128.034 1050.53 128.061C1049.6 128.325 1048.66 128.325 1047.73 128.061C1046.95 127.994 1046.18 128.007 1045.4 128.101C1044.85 129.201 1044.26 130.282 1043.64 131.344C1045.03 131.37 1046.42 131.397 1047.81 131.424C1048.51 131.663 1048.62 132.063 1048.13 132.625C1046.15 132.678 1044.18 132.678 1042.2 132.625C1042.13 132.541 1042.05 132.475 1041.96 132.425C1041.96 132.185 1041.96 131.944 1041.96 131.704C1042.66 130.514 1043.32 129.299 1043.96 128.061C1043.4 128.034 1042.84 128.007 1042.28 127.981C1042.13 127.925 1042.03 127.832 1041.96 127.7C1041.96 127.487 1041.96 127.273 1041.96 127.06C1042.09 126.918 1042.25 126.825 1042.44 126.779C1044.07 126.739 1045.7 126.726 1047.33 126.739C1047.33 126.259 1047.33 125.778 1047.33 125.298C1045.62 125.311 1043.91 125.298 1042.2 125.258C1042.13 125.174 1042.05 125.107 1041.96 125.058C1041.96 124.817 1041.96 124.577 1041.96 124.337C1042.05 124.287 1042.13 124.22 1042.2 124.137C1043.91 124.097 1045.62 124.083 1047.33 124.097C1047.31 119.959 1047.33 115.822 1047.37 111.685C1047.49 111.244 1047.77 110.964 1048.21 110.844C1049.94 110.79 1051.68 110.79 1053.41 110.844C1053.8 111.09 1053.89 111.423 1053.69 111.845C1053.62 111.941 1053.53 112.008 1053.41 112.045C1051.81 112.085 1050.21 112.098 1048.61 112.085C1048.61 117.05 1048.61 122.015 1048.61 126.98C1048.98 126.98 1049.35 126.98 1049.73 126.98C1049.71 122.495 1049.73 118.011 1049.77 113.526C1049.86 113.402 1049.98 113.309 1050.13 113.246C1058.35 113.193 1066.57 113.193 1074.79 113.246C1074.94 113.309 1075.06 113.402 1075.15 113.526C1075.19 118.011 1075.21 122.495 1075.19 126.98C1075.57 126.98 1075.94 126.98 1076.31 126.98C1076.31 122.015 1076.31 117.05 1076.31 112.085C1069.32 112.098 1062.33 112.085 1055.33 112.045C1054.95 111.85 1054.83 111.543 1054.97 111.124C1055.07 111 1055.19 110.907 1055.33 110.844C1062.54 110.764 1069.75 110.791 1076.95 110.924C1077.27 111.083 1077.47 111.337 1077.55 111.685C1077.59 115.822 1077.61 119.959 1077.59 124.097C1079.3 124.083 1081.01 124.097 1082.72 124.137C1082.79 124.22 1082.87 124.287 1082.96 124.337ZM1051.01 114.487C1051.46 114.487 1051.92 114.487 1052.37 114.487C1052.37 114.968 1052.37 115.448 1052.37 115.929C1051.92 115.929 1051.46 115.929 1051.01 115.929C1051.01 115.448 1051.01 114.968 1051.01 114.487ZM1053.65 114.487C1054.13 114.487 1054.61 114.487 1055.09 114.487C1055.09 114.968 1055.09 115.448 1055.09 115.929C1054.61 115.929 1054.13 115.929 1053.65 115.929C1053.65 115.448 1053.65 114.968 1053.65 114.487ZM1056.37 114.487C1056.85 114.487 1057.33 114.487 1057.82 114.487C1057.82 114.968 1057.82 115.448 1057.82 115.929C1057.33 115.929 1056.85 115.929 1056.37 115.929C1056.37 115.448 1056.37 114.968 1056.37 114.487ZM1059.1 114.487C1059.55 114.487 1060 114.487 1060.46 114.487C1060.46 114.968 1060.46 115.448 1060.46 115.929C1060 115.929 1059.55 115.929 1059.1 115.929C1059.1 115.448 1059.1 114.968 1059.1 114.487ZM1061.74 114.487C1062.22 114.487 1062.7 114.487 1063.18 114.487C1063.18 114.968 1063.18 115.448 1063.18 115.929C1062.7 115.929 1062.22 115.929 1061.74 115.929C1061.74 115.448 1061.74 114.968 1061.74 114.487ZM1064.46 114.487C1064.92 114.487 1065.37 114.487 1065.82 114.487C1065.82 114.968 1065.82 115.448 1065.82 115.929C1065.37 115.929 1064.92 115.929 1064.46 115.929C1064.46 115.448 1064.46 114.968 1064.46 114.487ZM1067.1 114.487C1067.58 114.487 1068.07 114.487 1068.55 114.487C1068.55 114.968 1068.55 115.448 1068.55 115.929C1068.07 115.929 1067.58 115.929 1067.1 115.929C1067.1 115.448 1067.1 114.968 1067.1 114.487ZM1069.83 114.487C1070.31 114.487 1070.79 114.487 1071.27 114.487C1071.27 114.968 1071.27 115.448 1071.27 115.929C1070.79 115.929 1070.31 115.929 1069.83 115.929C1069.83 115.448 1069.83 114.968 1069.83 114.487ZM1072.55 114.487C1073 114.487 1073.46 114.487 1073.91 114.487C1073.91 114.968 1073.91 115.448 1073.91 115.929C1073.46 115.929 1073 115.929 1072.55 115.929C1072.55 115.448 1072.55 114.968 1072.55 114.487ZM1051.01 117.21C1051.46 117.21 1051.92 117.21 1052.37 117.21C1052.37 117.69 1052.37 118.171 1052.37 118.651C1051.92 118.651 1051.46 118.651 1051.01 118.651C1051.01 118.171 1051.01 117.69 1051.01 117.21ZM1053.65 117.21C1054.13 117.21 1054.61 117.21 1055.09 117.21C1055.09 117.69 1055.09 118.171 1055.09 118.651C1054.61 118.651 1054.13 118.651 1053.65 118.651C1053.65 118.171 1053.65 117.69 1053.65 117.21ZM1056.37 117.21C1056.85 117.21 1057.33 117.21 1057.82 117.21C1057.82 117.69 1057.82 118.171 1057.82 118.651C1057.33 118.651 1056.85 118.651 1056.37 118.651C1056.37 118.171 1056.37 117.69 1056.37 117.21ZM1059.1 117.21C1059.55 117.21 1060 117.21 1060.46 117.21C1060.46 117.69 1060.46 118.171 1060.46 118.651C1060 118.651 1059.55 118.651 1059.1 118.651C1059.1 118.171 1059.1 117.69 1059.1 117.21ZM1061.74 117.21C1062.22 117.21 1062.7 117.21 1063.18 117.21C1063.18 117.69 1063.18 118.171 1063.18 118.651C1062.7 118.651 1062.22 118.651 1061.74 118.651C1061.74 118.171 1061.74 117.69 1061.74 117.21ZM1064.46 117.21C1064.92 117.21 1065.37 117.21 1065.82 117.21C1065.82 117.69 1065.82 118.171 1065.82 118.651C1065.37 118.651 1064.92 118.651 1064.46 118.651C1064.46 118.171 1064.46 117.69 1064.46 117.21ZM1067.1 117.21C1067.58 117.21 1068.07 117.21 1068.55 117.21C1068.55 117.69 1068.55 118.171 1068.55 118.651C1068.07 118.651 1067.58 118.651 1067.1 118.651C1067.1 118.171 1067.1 117.69 1067.1 117.21ZM1069.83 117.21C1070.31 117.21 1070.79 117.21 1071.27 117.21C1071.27 117.69 1071.27 118.171 1071.27 118.651C1070.79 118.651 1070.31 118.651 1069.83 118.651C1069.83 118.171 1069.83 117.69 1069.83 117.21ZM1072.55 117.21C1073 117.21 1073.46 117.21 1073.91 117.21C1073.91 117.69 1073.91 118.171 1073.91 118.651C1073.46 118.651 1073 118.651 1072.55 118.651C1072.55 118.171 1072.55 117.69 1072.55 117.21ZM1051.01 119.933C1051.46 119.933 1051.92 119.933 1052.37 119.933C1052.37 120.413 1052.37 120.894 1052.37 121.374C1051.92 121.374 1051.46 121.374 1051.01 121.374C1051.01 120.894 1051.01 120.413 1051.01 119.933ZM1053.65 119.933C1054.13 119.933 1054.61 119.933 1055.09 119.933C1055.09 120.413 1055.09 120.894 1055.09 121.374C1054.61 121.374 1054.13 121.374 1053.65 121.374C1053.65 120.894 1053.65 120.413 1053.65 119.933ZM1056.37 119.933C1056.85 119.933 1057.33 119.933 1057.82 119.933C1057.82 120.413 1057.82 120.894 1057.82 121.374C1057.33 121.374 1056.85 121.374 1056.37 121.374C1056.37 120.894 1056.37 120.413 1056.37 119.933ZM1059.1 119.933C1059.55 119.933 1060 119.933 1060.46 119.933C1060.46 120.413 1060.46 120.894 1060.46 121.374C1060 121.374 1059.55 121.374 1059.1 121.374C1059.1 120.894 1059.1 120.413 1059.1 119.933ZM1061.74 119.933C1062.22 119.933 1062.7 119.933 1063.18 119.933C1063.18 120.413 1063.18 120.894 1063.18 121.374C1062.7 121.374 1062.22 121.374 1061.74 121.374C1061.74 120.894 1061.74 120.413 1061.74 119.933ZM1064.46 119.933C1064.92 119.933 1065.37 119.933 1065.82 119.933C1065.82 120.413 1065.82 120.894 1065.82 121.374C1065.37 121.374 1064.92 121.374 1064.46 121.374C1064.46 120.894 1064.46 120.413 1064.46 119.933ZM1067.1 119.933C1067.58 119.933 1068.07 119.933 1068.55 119.933C1068.55 120.413 1068.55 120.894 1068.55 121.374C1068.07 121.374 1067.58 121.374 1067.1 121.374C1067.1 120.894 1067.1 120.413 1067.1 119.933ZM1069.83 119.933C1070.31 119.933 1070.79 119.933 1071.27 119.933C1071.27 120.413 1071.27 120.894 1071.27 121.374C1070.79 121.374 1070.31 121.374 1069.83 121.374C1069.83 120.894 1069.83 120.413 1069.83 119.933ZM1072.55 119.933C1073 119.933 1073.46 119.933 1073.91 119.933C1073.91 120.413 1073.91 120.894 1073.91 121.374C1073.46 121.374 1073 121.374 1072.55 121.374C1072.55 120.894 1072.55 120.413 1072.55 119.933ZM1051.01 122.655C1051.46 122.655 1051.92 122.655 1052.37 122.655C1052.37 123.136 1052.37 123.616 1052.37 124.097C1051.92 124.097 1051.46 124.097 1051.01 124.097C1051.01 123.616 1051.01 123.136 1051.01 122.655ZM1053.65 122.655C1054.13 122.655 1054.61 122.655 1055.09 122.655C1055.09 123.136 1055.09 123.616 1055.09 124.097C1054.61 124.097 1054.13 124.097 1053.65 124.097C1053.65 123.616 1053.65 123.136 1053.65 122.655ZM1056.37 122.655C1056.85 122.655 1057.33 122.655 1057.82 122.655C1057.82 123.136 1057.82 123.616 1057.82 124.097C1057.33 124.097 1056.85 124.097 1056.37 124.097C1056.37 123.616 1056.37 123.136 1056.37 122.655ZM1059.1 122.655C1059.55 122.655 1060 122.655 1060.46 122.655C1060.46 123.136 1060.46 123.616 1060.46 124.097C1060 124.097 1059.55 124.097 1059.1 124.097C1059.1 123.616 1059.1 123.136 1059.1 122.655ZM1061.74 122.655C1062.22 122.655 1062.7 122.655 1063.18 122.655C1063.18 123.136 1063.18 123.616 1063.18 124.097C1062.7 124.097 1062.22 124.097 1061.74 124.097C1061.74 123.616 1061.74 123.136 1061.74 122.655ZM1064.46 122.655C1064.92 122.655 1065.37 122.655 1065.82 122.655C1065.82 123.136 1065.82 123.616 1065.82 124.097C1065.37 124.097 1064.92 124.097 1064.46 124.097C1064.46 123.616 1064.46 123.136 1064.46 122.655ZM1067.1 122.655C1067.58 122.655 1068.07 122.655 1068.55 122.655C1068.55 123.136 1068.55 123.616 1068.55 124.097C1068.07 124.097 1067.58 124.097 1067.1 124.097C1067.1 123.616 1067.1 123.136 1067.1 122.655ZM1069.83 122.655C1070.31 122.655 1070.79 122.655 1071.27 122.655C1071.27 123.136 1071.27 123.616 1071.27 124.097C1070.79 124.097 1070.31 124.097 1069.83 124.097C1069.83 123.616 1069.83 123.136 1069.83 122.655ZM1072.55 122.655C1073 122.655 1073.46 122.655 1073.91 122.655C1073.91 123.136 1073.91 123.616 1073.91 124.097C1073.46 124.097 1073 124.097 1072.55 124.097C1072.55 123.616 1072.55 123.136 1072.55 122.655Z" fill="#07A157"/>
<path opacity="0.94" fill-rule="evenodd" clip-rule="evenodd" d="M1062.38 133.786C1064.97 133.936 1066.67 135.244 1067.46 137.71C1067.92 139.926 1067.26 141.728 1065.5 143.115C1065.68 143.539 1065.58 143.859 1065.18 144.076C1063.37 144.13 1061.55 144.13 1059.74 144.076C1059.34 143.859 1059.24 143.539 1059.42 143.115C1057.43 141.483 1056.86 139.441 1057.7 136.989C1058.64 135.013 1060.2 133.946 1062.38 133.786ZM1061.66 135.147C1061.76 135.327 1061.82 135.541 1061.82 135.788C1061.79 136.002 1061.77 136.215 1061.74 136.429C1061.18 136.754 1060.66 137.127 1060.18 137.55C1059.82 137.418 1059.46 137.311 1059.1 137.229C1059.36 136.553 1059.81 136.032 1060.46 135.668C1060.85 135.446 1061.25 135.272 1061.66 135.147ZM1063.1 135.147C1064.36 135.399 1065.27 136.093 1065.82 137.229C1065.46 137.311 1065.1 137.418 1064.74 137.55C1064.26 137.127 1063.74 136.754 1063.18 136.429C1063.1 136.005 1063.07 135.578 1063.1 135.147ZM1062.38 137.55C1062.92 137.757 1063.39 138.077 1063.78 138.511C1063.75 139.1 1063.58 139.647 1063.26 140.152C1062.73 140.206 1062.19 140.206 1061.66 140.152C1061.34 139.647 1061.17 139.1 1061.14 138.511C1061.52 138.14 1061.94 137.82 1062.38 137.55ZM1058.62 138.431C1059.02 138.537 1059.42 138.644 1059.82 138.751C1059.93 139.399 1060.12 140.026 1060.38 140.633C1060.18 140.986 1059.95 141.32 1059.7 141.634C1058.87 140.73 1058.51 139.663 1058.62 138.431ZM1066.06 138.431C1066.14 138.431 1066.22 138.431 1066.3 138.431C1066.41 139.663 1066.05 140.73 1065.22 141.634C1064.97 141.32 1064.74 140.986 1064.54 140.633C1064.8 140.026 1064.99 139.399 1065.1 138.751C1065.45 138.69 1065.77 138.583 1066.06 138.431ZM1061.42 141.474C1062.11 141.46 1062.81 141.474 1063.5 141.514C1063.71 141.807 1063.93 142.101 1064.14 142.395C1063.02 142.982 1061.9 142.982 1060.78 142.395C1061 142.092 1061.22 141.785 1061.42 141.474Z" fill="#07A157"/>
<path opacity="0.932" fill-rule="evenodd" clip-rule="evenodd" d="M1041.96 143.796C1041.96 143.582 1041.96 143.369 1041.96 143.155C1042.08 143.048 1042.21 142.955 1042.36 142.875C1047.51 142.822 1052.66 142.822 1057.82 142.875C1058.2 143.121 1058.29 143.455 1058.1 143.876C1058.02 143.972 1057.93 144.039 1057.82 144.076C1052.64 144.13 1047.46 144.13 1042.28 144.076C1042.16 143.994 1042.05 143.9 1041.96 143.796Z" fill="#07A157"/>
<path opacity="0.932" fill-rule="evenodd" clip-rule="evenodd" d="M1082.96 143.155C1082.96 143.369 1082.96 143.582 1082.96 143.796C1082.87 143.9 1082.76 143.994 1082.64 144.076C1077.46 144.13 1072.28 144.13 1067.1 144.076C1066.72 143.83 1066.63 143.497 1066.82 143.075C1066.9 142.979 1066.99 142.912 1067.1 142.875C1072.26 142.822 1077.41 142.822 1082.56 142.875C1082.71 142.955 1082.84 143.048 1082.96 143.155Z" fill="#07A157"/>
</g>
</g>
<defs>
<filter id="filter0_d_245_831" x="-4" y="353" width="104" height="104" filterUnits="userSpaceOnUse" color-interpolation-filters="sRGB">
<feFlood flood-opacity="0" result="BackgroundImageFix"/>
<feColorMatrix in="SourceAlpha" type="matrix" values="0 0 0 0 0 0 0 0 0 0 0 0 0 0 0 0 0 0 127 0" result="hardAlpha"/>
<feOffset dy="8"/>
<feGaussianBlur stdDeviation="12"/>
<feColorMatrix type="matrix" values="0 0 0 0 0.917647 0 0 0 0 0.486275 0 0 0 0 0.411765 0 0 0 0.32 0"/>
<feBlend mode="normal" in2="BackgroundImageFix" result="effect1_dropShadow_245_831"/>
<feBlend mode="normal" in="SourceGraphic" in2="effect1_dropShadow_245_831" result="shape"/>
</filter>
<clipPath id="clip0_245_831">
<rect width="1920" height="1080" rx="16" fill="white"/>
</clipPath>
<clipPath id="clip1_245_831">
<rect width="24" height="24" fill="white" transform="translate(36 78)"/>
</clipPath>
<clipPath id="clip2_245_831">
<rect width="24" height="24" fill="white" transform="translate(36 385)"/>
</clipPath>
<clipPath id="clip3_245_831">
<rect width="48" height="48" fill="white" transform="translate(26 1010)"/>
</clipPath>
<clipPath id="clip4_245_831">
<rect width="48" height="48" fill="white" transform="translate(26 919)"/>
</clipPath>
<clipPath id="clip5_245_831">
<rect width="41" height="41" fill="white" transform="translate(163 107)"/>
</clipPath>
<clipPath id="clip6_245_831">
<rect width="41" height="41" fill="white" transform="translate(1043 668)"/>
</clipPath>
<clipPath id="clip7_245_831">
<rect width="41" height="41" fill="white" transform="translate(1042 107)"/>
</clipPath>
</defs>
</svg>
