<svg width="1920" height="1080" viewBox="0 0 1920 1080" fill="none" xmlns="http://www.w3.org/2000/svg">
<g clip-path="url(#clip0_232_209)">
<rect width="1920" height="1080" rx="16" fill="#226334"/>
<rect width="94" height="1080" rx="16" fill="#022F0E"/>
<path d="M2 62C2 55.3726 7.37258 50 14 50H94V130H14C7.37259 130 2 124.627 2 118V62Z" fill="#226334"/>
<path d="M90.5 46C94.5 42 94 38 94 38V50H82C82 50 86.5 50 90.5 46Z" fill="#226334"/>
<path d="M90.01 133.51C86.01 129.51 82.01 130.01 82.01 130.01H94.01V142.01C94.01 142.01 94.01 137.51 90.01 133.51Z" fill="#226334"/>
<g filter="url(#filter0_d_232_209)">
<rect x="20" y="63" width="56" height="56" rx="8" fill="#387A49"/>
<g clip-path="url(#clip1_232_209)">
<path d="M57.25 103V88" stroke="#F2C94C" stroke-width="2" stroke-linecap="round" stroke-linejoin="round"/>
<path d="M48.5 103V79" stroke="#F2C94C" stroke-width="2" stroke-linecap="round" stroke-linejoin="round"/>
<path d="M39.75 103V94" stroke="#F2C94C" stroke-width="2" stroke-linecap="round" stroke-linejoin="round"/>
</g>
</g>
<g clip-path="url(#clip2_232_209)">
<path d="M48 180C41.3835 180 36 185.384 36 192C36 198.616 41.3835 204 48 204C54.6165 204 60 198.616 60 192C60 185.384 54.6165 180 48 180ZM48.762 183.898L51.8475 182.24C53.556 182.916 55.047 184.024 56.181 185.434L55.446 188.828L53.0925 189.981L48.762 186.827V183.898ZM44.178 182.23L47.2635 183.895V186.827L42.936 189.981L40.5705 188.826L39.8355 185.412C40.9725 184.005 42.4665 182.903 44.178 182.23ZM39.345 197.931C38.3655 196.506 37.728 194.831 37.5525 193.02L40.092 190.262L42.408 191.394L44.1525 196.349L42.678 198.115L39.345 197.931ZM50.6745 202.141C49.818 202.368 48.9255 202.5 48 202.5C46.881 202.5 45.804 202.32 44.7915 201.995L43.848 199.057L45.3525 197.25H50.6535L52.131 198.999L50.6745 202.141ZM53.301 198.065L51.8505 196.347L53.619 191.394L55.9245 190.264L58.449 193.021C58.2975 194.583 57.795 196.04 57.0315 197.328L53.301 198.065Z" fill="#F2C94C"/>
</g>
<path d="M45.8911 279H57.7083C58.2955 279.094 58.6538 279.425 58.7832 279.993C58.801 280.071 58.7939 280.16 58.7944 280.242C58.8028 285.927 58.8042 291.775 58.7986 297.785C58.7982 298.35 58.418 298.844 57.878 298.968C57.7577 298.995 57.5055 299.007 57.1214 299.004C56.5383 298.998 55.9878 298.998 55.47 299.004C55.455 299.004 55.4438 299.011 55.4363 299.024C55.2497 299.348 54.9942 299.487 54.6253 299.602C51.036 300.721 47.4719 301.834 43.9332 302.941C43.8436 302.969 43.7536 302.982 43.6627 303H43.4536C42.9511 302.922 42.601 302.626 42.4533 302.154C40.7071 296.574 38.9767 291.037 37.2624 285.544C37.1039 285.036 37.2736 284.49 37.7307 284.201C37.8197 284.144 37.9527 284.088 38.1296 284.033C40.3814 283.331 42.5992 282.637 44.783 281.952C44.7958 281.948 44.8021 281.939 44.8017 281.926C44.7986 281.305 44.7994 280.728 44.8041 280.195C44.8097 279.542 45.2649 279.099 45.8911 279ZM57.9989 280.203C57.9989 280.096 57.9564 279.993 57.8806 279.918C57.8048 279.842 57.702 279.799 57.5949 279.799H46.0036C45.8965 279.799 45.7937 279.842 45.7179 279.918C45.6421 279.993 45.5996 280.096 45.5996 280.203V297.795C45.5996 297.902 45.6421 298.004 45.7179 298.08C45.7937 298.156 45.8965 298.199 46.0036 298.199H57.5949C57.702 298.199 57.8048 298.156 57.8806 298.08C57.9564 298.004 57.9989 297.902 57.9989 297.795V280.203ZM46.0313 299.001C45.495 299.001 45.0553 298.696 44.8655 298.194C44.8208 298.077 44.7985 297.839 44.7985 297.481C44.8 292.635 44.8011 287.746 44.8017 282.814C44.8017 282.795 44.7927 282.788 44.7746 282.794C42.6246 283.467 40.4489 284.147 38.2477 284.835C38.0485 284.897 37.9608 285.099 38.0208 285.292C39.7952 290.971 41.5313 296.525 43.2291 301.955C43.2661 302.074 43.3753 302.168 43.4977 302.19C43.5674 302.203 43.6664 302.189 43.7949 302.148C47.1314 301.104 50.4628 300.062 53.7891 299.023C53.8369 299.008 53.8357 299.001 53.7853 299.001C51.1413 299.001 48.5566 299.001 46.0313 299.001Z" fill="#F2C94C"/>
<path d="M47.2003 281.432C47.2022 281.877 47.2019 282.26 47.1994 282.581C47.1947 283.138 46.3974 283.126 46.4002 282.585C46.4024 282.113 46.4013 281.613 46.3969 281.084C46.3941 280.782 46.5389 280.596 46.8722 280.598C47.3428 280.602 47.8302 280.602 48.3342 280.597C48.4433 280.597 48.5325 280.617 48.6019 280.657C48.811 280.781 48.8639 281.056 48.7102 281.249C48.615 281.369 48.4899 281.401 48.3431 281.401C47.9935 281.401 47.6228 281.401 47.2313 281.4C47.2103 281.4 47.2 281.411 47.2003 281.432Z" fill="#F2C94C"/>
<path d="M39.9281 285.989C39.925 285.99 39.9225 285.992 39.921 285.995C39.9195 285.998 39.9192 286.001 39.9201 286.005C40.0529 286.426 40.1864 286.854 40.3204 287.288C40.4817 287.808 39.7176 288.052 39.547 287.498C39.3801 286.957 39.2119 286.418 39.0422 285.882C38.9615 285.629 39.075 285.413 39.329 285.334C39.9631 285.137 40.5222 284.962 41.0062 284.81C41.5219 284.648 41.767 285.414 41.2209 285.582C40.7481 285.728 40.3172 285.864 39.9281 285.989Z" fill="#F2C94C"/>
<path d="M60 387.864V405.603C59.9394 406.239 59.6744 406.739 59.205 407.105C58.8258 407.401 58.3842 407.545 57.9052 407.545C55.0777 407.545 52.2191 407.545 49.3294 407.545C48.8466 407.545 48.8391 406.839 49.342 406.84C50.0833 406.843 50.8061 406.843 51.5105 406.841C51.5131 406.841 51.5156 406.84 51.518 406.839C51.5204 406.838 51.5226 406.837 51.5244 406.835C51.5262 406.833 51.5277 406.831 51.5287 406.828C51.5296 406.826 51.5302 406.823 51.5302 406.821V402.461C51.5302 402.458 51.5287 402.454 51.526 402.452C51.5234 402.449 51.5198 402.448 51.5161 402.448H44.4834C44.4797 402.448 44.4761 402.449 44.4735 402.452C44.4709 402.455 44.4694 402.458 44.4694 402.462V406.819C44.4694 406.825 44.4717 406.831 44.476 406.835C44.4802 406.839 44.4859 406.841 44.4919 406.841C45.5734 406.842 46.7045 406.842 47.8852 406.841C48.3806 406.841 48.3914 407.546 47.8561 407.545C44.7214 407.543 41.5673 407.544 38.3939 407.547C38.0377 407.548 37.7722 407.529 37.5975 407.49C36.7069 407.292 36.0694 406.517 36 405.599V387.856C36.0722 387.227 36.4688 386.718 37.0669 386.528C37.2459 386.471 37.5334 386.445 37.9294 386.45C38.5553 386.458 39.1834 386.459 39.8138 386.454C40.328 386.449 40.3284 387.159 39.8367 387.159C39.0958 387.158 38.3345 387.158 37.553 387.159C37.0786 387.159 36.7041 387.509 36.7036 387.984C36.7027 389.05 36.7027 390.231 36.7036 391.527C36.7036 391.544 36.7119 391.552 36.7284 391.552H59.2711C59.2892 391.552 59.2983 391.543 59.2983 391.525C59.2948 390.311 59.2955 389.17 59.3002 388.103C59.302 387.684 59.1516 387.358 58.7527 387.207C58.6623 387.173 58.4928 387.156 58.2441 387.156C52.7706 387.16 47.1031 387.16 41.2416 387.155C41.185 387.155 41.1298 387.138 41.0761 387.105C40.7813 386.918 40.9036 386.46 41.2612 386.459C46.8025 386.45 52.5423 386.452 58.4808 386.464C58.5355 386.464 58.5956 386.466 58.6613 386.469C58.7219 386.473 58.7781 386.482 58.83 386.497C59.5094 386.691 59.8994 387.147 60 387.864ZM43.7672 392.284C43.7672 392.276 43.7642 392.269 43.7588 392.264C43.7535 392.258 43.7462 392.255 43.7386 392.255H36.7317C36.7241 392.255 36.7169 392.258 36.7115 392.264C36.7061 392.269 36.7031 392.276 36.7031 392.284V396.62C36.7031 396.627 36.7061 396.635 36.7115 396.64C36.7169 396.645 36.7241 396.648 36.7317 396.648H43.7386C43.7462 396.648 43.7535 396.645 43.7588 396.64C43.7642 396.635 43.7672 396.627 43.7672 396.62V392.284ZM51.5302 392.277C51.5302 392.271 51.5279 392.266 51.5238 392.262C51.5198 392.258 51.5143 392.255 51.5086 392.255H44.4914C44.4857 392.255 44.4802 392.258 44.4762 392.262C44.4721 392.266 44.4698 392.271 44.4698 392.277V396.627C44.4698 396.633 44.4721 396.638 44.4762 396.642C44.4802 396.646 44.4857 396.648 44.4914 396.648H51.5086C51.5143 396.648 51.5198 396.646 51.5238 396.642C51.5279 396.638 51.5302 396.633 51.5302 396.627V392.277ZM59.2969 392.276C59.2969 392.27 59.2947 392.265 59.2908 392.261C59.287 392.257 59.2817 392.255 59.2762 392.255H52.2544C52.2489 392.255 52.2437 392.257 52.2398 392.261C52.2359 392.265 52.2338 392.27 52.2338 392.276V396.628C52.2338 396.633 52.2359 396.638 52.2398 396.642C52.2437 396.646 52.2489 396.648 52.2544 396.648H59.2762C59.2817 396.648 59.287 396.646 59.2908 396.642C59.2947 396.638 59.2969 396.633 59.2969 396.628V392.276ZM43.7672 397.373C43.7672 397.367 43.7651 397.362 43.7613 397.358C43.7575 397.355 43.7524 397.352 43.747 397.352H36.7233C36.7179 397.352 36.7128 397.355 36.709 397.358C36.7052 397.362 36.7031 397.367 36.7031 397.373V401.724C36.7031 401.73 36.7052 401.735 36.709 401.739C36.7128 401.743 36.7179 401.745 36.7233 401.745H43.747C43.7524 401.745 43.7575 401.743 43.7613 401.739C43.7651 401.735 43.7672 401.73 43.7672 401.724V397.373ZM51.5302 397.372C51.5302 397.37 51.5296 397.367 51.5287 397.365C51.5277 397.362 51.5262 397.36 51.5244 397.358C51.5226 397.356 51.5204 397.355 51.518 397.354C51.5156 397.353 51.5131 397.352 51.5105 397.352H44.4895C44.4869 397.352 44.4844 397.353 44.482 397.354C44.4796 397.355 44.4774 397.356 44.4756 397.358C44.4738 397.36 44.4723 397.362 44.4713 397.365C44.4704 397.367 44.4698 397.37 44.4698 397.372V401.725C44.4698 401.728 44.4704 401.73 44.4713 401.732C44.4723 401.735 44.4738 401.737 44.4756 401.739C44.4774 401.741 44.4796 401.742 44.482 401.743C44.4844 401.744 44.4869 401.745 44.4895 401.745H51.5105C51.5131 401.745 51.5156 401.744 51.518 401.743C51.5204 401.742 51.5226 401.741 51.5244 401.739C51.5262 401.737 51.5277 401.735 51.5287 401.732C51.5296 401.73 51.5302 401.728 51.5302 401.725V397.372ZM59.2969 397.371C59.2969 397.369 59.2964 397.366 59.2954 397.364C59.2945 397.362 59.2931 397.36 59.2914 397.358C59.2896 397.356 59.2876 397.355 59.2853 397.354C59.283 397.353 59.2806 397.352 59.2781 397.352H52.2525C52.25 397.352 52.2476 397.353 52.2453 397.354C52.243 397.355 52.241 397.356 52.2392 397.358C52.2375 397.36 52.2361 397.362 52.2352 397.364C52.2342 397.366 52.2338 397.369 52.2338 397.371V401.726C52.2338 401.728 52.2342 401.731 52.2352 401.733C52.2361 401.735 52.2375 401.737 52.2392 401.739C52.241 401.741 52.243 401.742 52.2453 401.743C52.2476 401.744 52.25 401.745 52.2525 401.745H59.2781C59.2831 401.745 59.2879 401.743 59.2914 401.739C59.2949 401.736 59.2969 401.731 59.2969 401.726V397.371ZM36.7598 405.87C36.9403 406.447 37.4527 406.84 38.0653 406.841C39.9288 406.842 41.8242 406.842 43.7517 406.841C43.7557 406.841 43.7595 406.84 43.7623 406.837C43.7651 406.834 43.7667 406.83 43.7667 406.826V402.471C43.7667 402.465 43.7643 402.459 43.76 402.454C43.7557 402.45 43.7498 402.448 43.7437 402.448H36.7167C36.7064 402.448 36.7014 402.453 36.7017 402.463C36.7073 403.391 36.7061 404.269 36.698 405.097C36.6945 405.469 36.7152 405.727 36.7598 405.87ZM58.3402 406.781C58.9219 406.587 59.3072 406.071 59.2964 405.451C59.2964 405.439 59.2967 404.442 59.2973 402.462C59.2973 402.458 59.2959 402.455 59.2932 402.452C59.2906 402.449 59.287 402.448 59.2833 402.448H52.2562C52.2409 402.448 52.2333 402.455 52.2333 402.47V406.811C52.2333 406.832 52.2434 406.842 52.2637 406.842C54.0212 406.842 55.7739 406.842 57.5217 406.842C57.9458 406.842 58.2186 406.822 58.3402 406.781Z" fill="#F2C94C"/>
<g clip-path="url(#clip3_232_209)">
<path d="M70.4567 1010H29.5433C28.6036 1010 27.7023 1010.37 27.0378 1011.04C26.3733 1011.7 26 1012.6 26 1013.54V1054.46C26 1055.4 26.3733 1056.3 27.0378 1056.96C27.7023 1057.63 28.6036 1058 29.5433 1058H70.4567C71.3964 1058 72.2977 1057.63 72.9622 1056.96C73.6267 1056.3 74 1055.4 74 1054.46V1013.54C74 1012.6 73.6267 1011.7 72.9622 1011.04C72.2977 1010.37 71.3964 1010 70.4567 1010ZM40.3067 1050.89H33.09V1027.97H40.3067V1050.89ZM36.6933 1024.79C35.8747 1024.79 35.0758 1024.54 34.3975 1024.08C33.7191 1023.62 33.1917 1022.97 32.8818 1022.22C32.5718 1021.46 32.4933 1020.63 32.6561 1019.82C32.8188 1019.02 33.2156 1018.28 33.7963 1017.71C34.377 1017.13 35.1156 1016.74 35.9189 1016.58C36.7222 1016.42 37.5542 1016.51 38.3099 1016.82C39.0656 1017.14 39.7111 1017.67 40.1649 1018.35C40.6188 1019.03 40.8606 1019.83 40.86 1020.65C40.8677 1021.2 40.765 1021.74 40.558 1022.25C40.351 1022.76 40.044 1023.22 39.6551 1023.6C39.2663 1023.99 38.8037 1024.29 38.2948 1024.5C37.786 1024.7 37.2413 1024.8 36.6933 1024.79ZM66.9067 1050.91H59.6933V1038.39C59.6933 1034.69 58.1233 1033.55 56.0967 1033.55C53.9567 1033.55 51.8567 1035.17 51.8567 1038.48V1050.91H44.64V1027.98H51.58V1031.16H51.6733C52.37 1029.75 54.81 1027.34 58.5333 1027.34C62.56 1027.34 66.91 1029.73 66.91 1036.73L66.9067 1050.91Z" fill="#F2C94C"/>
</g>
<g clip-path="url(#clip4_232_209)">
<path fill-rule="evenodd" clip-rule="evenodd" d="M50.0199 919C36.7375 919 26 929.817 26 943.198C26 953.895 32.8799 962.95 42.4241 966.154C43.6174 966.395 44.0545 965.634 44.0545 964.993C44.0545 964.432 44.0151 962.509 44.0151 960.505C37.3334 961.948 35.942 957.621 35.942 957.621C34.8682 954.816 33.2772 954.096 33.2772 954.096C31.0902 952.613 33.4365 952.613 33.4365 952.613C35.8623 952.774 37.1353 955.097 37.1353 955.097C39.2824 958.783 42.7422 957.741 44.1341 957.1C44.3328 955.538 44.9695 954.456 45.6455 953.855C40.3163 953.294 34.7094 951.211 34.7094 941.916C34.7094 939.272 35.6632 937.109 37.1746 935.426C36.9361 934.825 36.1008 932.341 37.4135 929.016C37.4135 929.016 39.4417 928.375 44.0146 931.5C45.9725 930.97 47.9916 930.7 50.0199 930.698C52.048 930.698 54.1154 930.979 56.0246 931.5C60.5981 928.375 62.6262 929.016 62.6262 929.016C63.9389 932.341 63.1031 934.825 62.8646 935.426C64.4158 937.109 65.3303 939.272 65.3303 941.916C65.3303 951.211 59.7234 953.254 54.3544 953.855C55.2296 954.616 55.9848 956.058 55.9848 958.342C55.9848 961.587 55.9454 964.191 55.9454 964.992C55.9454 965.634 56.383 966.395 57.5758 966.155C67.12 962.949 73.9999 953.895 73.9999 943.198C74.0392 929.817 63.2624 919 50.0199 919Z" fill="#F2C94C"/>
</g>
<path opacity="0.984" fill-rule="evenodd" clip-rule="evenodd" d="M32.35 828.15C33.2978 828.094 34.2312 828.177 35.15 828.4C46.4773 831.854 57.8107 835.287 69.15 838.7C71.2376 839.357 72.4209 840.774 72.7 842.95C72.7667 851.183 72.7667 859.417 72.7 867.65C72.3365 870.047 70.9532 871.397 68.55 871.7C68.1167 871.767 67.6833 871.767 67.25 871.7C65.6987 871.296 64.1654 870.829 62.65 870.3C61.7506 869.653 61.7173 868.953 62.55 868.2C62.7199 868.104 62.9033 868.054 63.1 868.05C64.7035 868.501 66.3035 868.968 67.9 869.45C68.9429 869.312 69.7095 868.779 70.2 867.85C70.3656 859.488 70.3989 851.121 70.3 842.75C70.0659 841.916 69.5493 841.333 68.75 841C56.952 837.44 45.152 833.89 33.35 830.35C32.0489 830.468 31.2655 831.168 31 832.45C30.9667 838.117 30.9333 843.783 30.9 849.45C30.5759 850.202 30.0259 850.452 29.25 850.2C28.8834 850.033 28.6668 849.75 28.6 849.35C28.5333 843.717 28.5333 838.083 28.6 832.45C28.9107 830.19 30.1607 828.756 32.35 828.15Z" fill="#F2C94C"/>
<path opacity="0.992" fill-rule="evenodd" clip-rule="evenodd" d="M55.35 844.25C57.1138 844.232 58.2304 845.065 58.7 846.75C58.7667 855.517 58.7667 864.283 58.7 873.05C58.2493 875.351 56.866 876.268 54.55 875.8C53.5998 875.383 53.0164 874.666 52.8 873.65C52.7333 864.65 52.7333 855.65 52.8 846.65C53.1566 845.31 54.0066 844.51 55.35 844.25Z" fill="#F2C94C"/>
<path opacity="0.998" fill-rule="evenodd" clip-rule="evenodd" d="M46.55 847.55C47.9582 847.346 49.0749 847.813 49.9 848.95C50.0197 849.209 50.1197 849.476 50.2 849.75C50.2667 856.483 50.2667 863.217 50.2 869.95C49.7346 872.257 48.3512 873.174 46.05 872.7C45.0607 872.276 44.4773 871.526 44.3 870.45C44.2333 863.65 44.2333 856.85 44.3 850.05C44.5824 848.785 45.3324 847.951 46.55 847.55Z" fill="#F2C94C"/>
<path opacity="0.988" fill-rule="evenodd" clip-rule="evenodd" d="M38.25 850.75C39.9647 850.664 41.0813 851.431 41.6 853.05C41.6667 857.75 41.6667 862.45 41.6 867.15C41.1739 868.623 40.1906 869.423 38.65 869.55C37.082 869.465 36.0987 868.665 35.7 867.15C35.6334 862.483 35.6334 857.817 35.7 853.15C36.0574 851.809 36.9074 851.009 38.25 850.75Z" fill="#F2C94C"/>
<path opacity="0.991" fill-rule="evenodd" clip-rule="evenodd" d="M29.35 853.75C31.2267 853.563 32.4434 854.363 33 856.15C33.0667 858.85 33.0667 861.55 33 864.25C32.4244 866.09 31.1744 866.873 29.25 866.6C28.2498 866.333 27.5664 865.716 27.2 864.75C27.1334 861.75 27.1334 858.75 27.2 855.75C27.6172 854.749 28.3338 854.083 29.35 853.75Z" fill="#F2C94C"/>
<path d="M131 284C131 275.163 138.163 268 147 268H979C987.837 268 995 275.163 995 284V640C995 648.837 987.837 656 979 656H147C138.163 656 131 648.837 131 640V284Z" fill="#022F0E"/>
<path d="M211.319 297.63L184.099 312L156.734 297.63C151.93 294.314 148 292.908 148 289.592V256.029C148 252.713 151.93 250 156.734 250H211.319C216.123 250 220.053 252.713 220.053 256.029V289.592C220.053 292.908 216.414 294.113 211.319 297.63Z" fill="white"/>
<path d="M167.373 264.904L167.188 265.082V276V286.918L167.373 287.096L167.551 287.281H185H202.449L202.627 287.096L202.812 286.918V276V265.082L202.627 264.904L202.449 264.719H185H167.551L167.373 264.904ZM184.406 268.615V271.324H184.236C183.976 271.324 183.167 271.606 182.662 271.866C182.41 272 181.979 272.341 181.653 272.66C179.129 275.169 180.176 279.414 183.582 280.52C183.842 280.609 184.139 280.676 184.236 280.676H184.406V283.385V286.094H176.391H168.375V276V265.906H176.391H184.406V268.615ZM201.625 276V286.094H193.609H185.594V283.385V280.676H185.764C186.046 280.676 186.855 280.386 187.338 280.119C188.332 279.563 189.134 278.575 189.498 277.462C189.676 276.943 189.705 276.727 189.705 276C189.705 275.273 189.676 275.057 189.498 274.538C189.253 273.788 188.704 272.95 188.139 272.445C187.627 271.985 186.655 271.495 186.046 271.376L185.594 271.287V268.6V265.906H193.609H201.625V276ZM184.406 276.007V279.503L184.169 279.459C183.694 279.362 182.989 278.969 182.558 278.561C181.126 277.195 181.066 275.005 182.425 273.573C182.848 273.128 183.13 272.935 183.731 272.69C184.48 272.378 184.406 272.029 184.406 276.007ZM186.544 272.809C187.909 273.447 188.748 275.05 188.503 276.534C188.377 277.314 187.998 278.034 187.457 278.546C187.011 278.969 186.314 279.362 185.839 279.459L185.594 279.503V276V272.489L185.839 272.541C185.965 272.571 186.284 272.69 186.544 272.809Z" fill="#07A157"/>
<path d="M169.332 271.346C168.998 271.599 168.991 272.029 169.318 272.289C169.488 272.423 169.622 272.438 170.72 272.438H171.937V276V279.563H170.698C169.837 279.57 169.414 279.592 169.332 279.659C168.998 279.911 168.991 280.342 169.318 280.602C169.496 280.743 169.622 280.75 171.136 280.75H172.761L172.939 280.564C173.11 280.401 173.125 280.334 173.125 279.637C173.125 279.058 173.147 278.895 173.229 278.895C173.281 278.895 173.563 278.776 173.845 278.635C174.483 278.316 174.914 277.87 175.225 277.202C175.441 276.75 175.463 276.638 175.463 276C175.463 275.362 175.441 275.25 175.225 274.798C174.914 274.13 174.483 273.684 173.845 273.365C173.563 273.224 173.281 273.105 173.229 273.105C173.147 273.105 173.125 272.942 173.125 272.363C173.125 271.666 173.11 271.599 172.939 271.436L172.761 271.25H171.106C169.919 271.257 169.414 271.28 169.332 271.346ZM173.741 274.753C174.513 275.532 174.513 276.468 173.741 277.239C173.118 277.87 173.125 277.885 173.125 276C173.125 274.115 173.118 274.13 173.741 274.753Z" fill="#07A157"/>
<path d="M196.808 271.888C196.675 272.059 196.652 272.193 196.652 272.816C196.652 273.469 196.637 273.551 196.526 273.551C196.259 273.551 195.598 273.929 195.22 274.286C193.535 275.874 194.248 278.59 196.526 279.295C196.637 279.332 196.652 279.436 196.652 280.038C196.652 280.676 196.667 280.765 196.83 280.95L197.009 281.158H198.768H200.527L200.705 280.95C200.92 280.698 200.935 280.461 200.727 280.201L200.579 280.008H199.205H197.84V276.453V272.89L199.183 272.868L200.527 272.846L200.705 272.638C200.92 272.386 200.935 272.148 200.727 271.888L200.579 271.695H198.768H196.957L196.808 271.888ZM196.652 276.408C196.652 278.264 196.675 278.189 196.155 277.804C195.628 277.418 195.346 276.564 195.539 275.955C195.673 275.525 195.97 275.124 196.311 274.924C196.482 274.82 196.623 274.738 196.637 274.738C196.645 274.738 196.652 275.488 196.652 276.408Z" fill="#07A157"/>
<path d="M717 135C717 126.163 724.163 119 733 119H979C987.837 119 995 126.163 995 135V228C995 236.837 987.837 244 979 244H733C724.163 244 717 236.837 717 228V135Z" fill="#022F0E"/>
<path d="M797.319 148.63L770.099 163L742.734 148.63C737.93 145.314 734 143.908 734 140.592V107.029C734 103.713 737.93 101 742.734 101H797.319C802.123 101 806.053 103.713 806.053 107.029V140.592C806.053 143.908 802.414 145.113 797.319 148.63Z" fill="white"/>
<path d="M763.333 108.432V127.457C763.333 127.469 763.338 127.48 763.346 127.488C763.353 127.496 763.364 127.5 763.375 127.5H765.788C765.792 127.5 765.795 127.499 765.799 127.498C765.803 127.496 765.806 127.494 765.809 127.491C765.812 127.488 765.814 127.484 765.815 127.48C765.816 127.476 765.817 127.472 765.817 127.468C765.723 125.846 766.158 123.954 767.759 123.271C768.907 122.782 770.044 123.204 770.776 124.184C771.572 125.25 771.752 126.649 771.591 127.99C771.415 129.459 771.282 130.922 771.191 132.377C771.148 133.06 771.109 133.708 771.238 134.391C771.347 134.962 771.466 135.56 771.598 136.186C771.649 136.432 771.653 136.62 771.608 136.749C771.436 137.242 770.818 137.38 770.48 136.973C770.403 136.88 770.343 136.729 770.298 136.52C770.045 135.331 769.894 134.512 769.844 134.062C769.802 133.675 769.804 133.124 769.851 132.409C769.95 130.878 770.089 129.352 770.267 127.83C770.393 126.759 770.283 125.467 769.435 124.717C768.75 124.111 767.866 124.553 767.502 125.279C766.964 126.353 767.15 127.636 767.263 128.842C767.399 130.294 767.453 131.9 767.05 133.253C766.87 133.856 766.602 134.462 766.398 135.06C765.737 137.006 765.536 139.099 766.213 140.992C766.39 141.489 766.61 141.998 766.871 142.52C767.305 143.386 767.758 144.234 768.23 145.066C768.306 145.199 768.345 145.339 768.346 145.484C768.351 146.117 768.351 146.723 768.346 147.302C768.341 147.802 767.867 148.136 767.417 147.935C766.985 147.743 767.01 147.356 767.013 146.957C767.017 146.525 767.017 146.101 767.014 145.685C767.014 145.658 767.008 145.633 766.995 145.61C766.339 144.433 765.705 143.272 765.186 142.046C764.569 140.592 764.351 139.035 764.53 137.374C764.535 137.329 764.526 137.283 764.505 137.244C764.2 136.664 763.89 136.061 763.575 135.436C762.941 134.174 762.798 132.849 763.147 131.46C763.363 130.599 763.571 129.754 763.772 128.924C763.781 128.887 763.767 128.869 763.73 128.868C763.481 128.86 763.232 128.862 762.984 128.872C762.734 128.882 762.539 128.859 762.399 128.804C762.158 128.708 762.003 128.448 762.003 128.185C762 121.377 761.999 114.54 762.002 107.674C762.002 107.272 762.333 107 762.708 107C767.618 107.002 772.482 107.002 777.298 107.002C777.72 107.002 778.001 107.31 778 107.719C777.999 114.603 777.999 121.413 778 128.148C778 128.685 777.617 128.877 777.14 128.873C776.361 128.866 775.601 128.864 774.861 128.868C774.858 128.868 774.855 128.868 774.852 128.87C774.849 128.872 774.847 128.874 774.845 128.876C774.843 128.879 774.842 128.882 774.842 128.885C774.842 128.888 774.842 128.891 774.843 128.894C775.561 130.617 776.264 132.425 776.727 134.255C776.91 134.98 776.871 135.619 776.808 136.319C776.557 139.092 776.142 141.863 775.699 144.649C775.643 145.006 775.616 145.348 775.618 145.674C775.622 146.128 775.624 146.627 775.626 147.169C775.626 147.343 775.604 147.484 775.558 147.592C775.262 148.293 774.28 148.032 774.288 147.254C774.294 146.654 774.294 146.087 774.286 145.555C774.281 145.229 774.31 144.874 774.372 144.49C774.774 141.987 775.1 139.669 775.349 137.535C775.43 136.847 775.491 136.138 775.533 135.408C775.543 135.251 775.537 135.032 775.503 134.879C775.326 134.1 775.068 133.245 774.728 132.313C774.271 131.059 773.829 129.925 773.404 128.909C773.398 128.896 773.389 128.884 773.376 128.876C773.364 128.868 773.349 128.864 773.334 128.864C773.228 128.867 773.115 128.874 773.014 128.844C772.254 128.614 772.399 127.501 773.189 127.501C774.295 127.5 775.44 127.5 776.624 127.5C776.635 127.5 776.646 127.496 776.654 127.487C776.662 127.479 776.667 127.468 776.667 127.457V108.432C776.667 108.415 776.66 108.399 776.648 108.387C776.637 108.375 776.621 108.368 776.604 108.368H763.396C763.354 108.368 763.333 108.39 763.333 108.432ZM764.943 130.116C765.109 130.749 765.418 131.213 765.964 131.627C765.968 131.63 765.972 131.631 765.976 131.632C765.98 131.632 765.984 131.631 765.988 131.63C765.992 131.628 765.995 131.625 765.997 131.622C765.999 131.618 766.001 131.614 766.001 131.61C766.05 130.787 766.026 129.89 765.931 128.917C765.928 128.884 765.909 128.867 765.877 128.867H765.208C765.173 128.867 765.152 128.884 765.145 128.919C765.086 129.187 765.02 129.45 764.948 129.708C764.909 129.845 764.908 129.981 764.943 130.116ZM764.918 135.108C764.948 135.159 764.971 135.157 764.989 135.099C765.195 134.437 765.424 133.799 765.676 133.187C765.691 133.15 765.682 133.12 765.65 133.097C765.196 132.778 764.792 132.424 764.438 132.035C764.411 132.006 764.393 132.011 764.385 132.051C764.162 133.089 764.34 134.108 764.918 135.108Z" fill="#07A157"/>
<path d="M424 135C424 126.163 431.163 119 440 119H686C694.837 119 702 126.163 702 135V228C702 236.837 694.837 244 686 244H440C431.163 244 424 236.837 424 228V135Z" fill="#022F0E"/>
<path d="M504.319 148.63L477.099 163L449.734 148.63C444.93 145.314 441 143.908 441 140.592V107.029C441 103.713 444.93 101 449.734 101H504.319C509.123 101 513.053 103.713 513.053 107.029V140.592C513.053 143.908 509.414 145.113 504.319 148.63Z" fill="white"/>
<path d="M464.967 115.117C464.688 115.351 464.248 115.311 464.046 114.991C462.661 112.786 461.154 110.715 459.527 108.776C459.321 108.53 459.209 108.333 459.321 108.033C459.494 107.571 460.076 107.491 460.391 107.863C462.091 109.873 463.656 112.02 465.088 114.305C465.255 114.572 465.208 114.916 464.967 115.117Z" fill="#07A157"/>
<path d="M477.137 113.89C477.841 115.141 478.466 116.424 479.087 117.88C479.166 118.067 479.201 118.223 479.192 118.348C479.167 118.706 478.824 118.96 478.469 118.901C478.22 118.859 478.061 118.689 477.968 118.463C477.191 116.574 476.26 114.76 475.177 113.02C475.161 112.995 475.138 112.976 475.11 112.964C472.112 111.664 469.094 110.357 466.055 109.043C465.246 108.693 465.738 107.543 466.55 107.894C472.591 110.509 478.506 113.073 484.295 115.585C485.058 115.916 484.598 117.083 483.725 116.703C481.642 115.797 479.456 114.848 477.166 113.856C477.124 113.838 477.114 113.849 477.137 113.89Z" fill="#07A157"/>
<path d="M467.207 118.126C468.25 120.248 469.065 122.488 469.462 124.839C469.493 125.021 469.488 125.169 469.446 125.283C469.228 125.88 468.352 125.791 468.25 125.157C467.828 122.552 466.834 120.047 465.58 117.677C465.567 117.653 465.548 117.638 465.522 117.631C463.162 117.006 460.691 116.353 458.109 115.673C457.29 115.457 457.598 114.247 458.442 114.47C462.763 115.609 467.179 116.775 471.691 117.967C471.695 117.968 471.699 117.968 471.702 117.967C471.706 117.966 471.709 117.964 471.711 117.961C471.713 117.958 471.715 117.955 471.715 117.951C471.716 117.948 471.715 117.944 471.713 117.941C470.708 115.889 469.542 113.93 468.214 112.063C467.73 111.382 468.738 110.655 469.214 111.321C470.807 113.546 472.168 115.897 473.298 118.373C473.3 118.379 473.304 118.384 473.309 118.388C473.314 118.392 473.32 118.395 473.326 118.397C474.563 118.727 475.817 119.057 477.088 119.387C477.247 119.428 477.371 119.486 477.459 119.562C477.96 119.988 477.516 120.798 476.878 120.63C473.665 119.78 470.453 118.931 467.242 118.083C467.199 118.071 467.187 118.086 467.207 118.126Z" fill="#07A157"/>
<path d="M461.444 127.626C460.453 127.623 459.407 127.624 458.305 127.627C457.409 127.63 457.403 126.373 458.298 126.374C459.396 126.375 460.444 126.375 461.442 126.374C461.446 126.374 461.45 126.373 461.454 126.372C461.458 126.37 461.461 126.368 461.464 126.365C461.467 126.362 461.469 126.358 461.47 126.355C461.471 126.351 461.472 126.347 461.471 126.343C461.242 123.814 460.256 121.435 458.978 119.165C458.576 118.449 458.186 117.81 457.809 117.248C457.695 117.077 457.634 116.925 457.627 116.793C457.594 116.185 458.407 115.884 458.752 116.404C459.842 118.043 460.737 119.687 461.436 121.336C462.255 123.267 462.808 125.368 462.74 127.43C462.705 128.469 462.523 129.556 462.194 130.691C461.479 133.157 460.23 135.507 458.777 137.727C458.314 138.432 457.271 137.741 457.734 137.038C458.988 135.133 460.1 133.056 460.801 130.976C461.167 129.888 461.395 128.786 461.484 127.67C461.486 127.641 461.473 127.626 461.444 127.626Z" fill="#07A157"/>
<path d="M495.616 127C495.616 129.569 494.596 132.033 492.779 133.849C490.963 135.665 488.499 136.686 485.93 136.686C483.362 136.686 480.898 135.665 479.081 133.849C477.265 132.033 476.245 129.569 476.245 127C476.245 124.431 477.265 121.967 479.081 120.151C480.898 118.335 483.362 117.314 485.93 117.314C488.499 117.314 490.963 118.335 492.779 120.151C494.596 121.967 495.616 124.431 495.616 127ZM486.045 119.405L487.658 118.791C487.712 118.771 487.711 118.754 487.654 118.741C486.583 118.514 485.481 118.505 484.351 118.713C484.258 118.73 484.255 118.756 484.344 118.79L485.948 119.405C485.979 119.417 486.013 119.417 486.045 119.405ZM482.317 119.38C481.325 119.821 480.385 120.56 479.682 121.343C479.675 121.35 479.67 121.359 479.668 121.369C479.666 121.379 479.666 121.389 479.668 121.398L480.412 124.26C480.42 124.288 480.437 124.305 480.466 124.312L482.274 124.73C482.287 124.734 482.301 124.734 482.315 124.731C482.328 124.729 482.341 124.723 482.352 124.715L485.323 122.556C485.352 122.535 485.366 122.508 485.366 122.473V120.572C485.366 120.538 485.35 120.514 485.318 120.502L482.391 119.379C482.367 119.37 482.34 119.37 482.317 119.38ZM489.555 119.409L486.646 120.513C486.637 120.516 486.63 120.522 486.624 120.53C486.619 120.538 486.616 120.547 486.616 120.556V122.486C486.616 122.497 486.619 122.508 486.624 122.518C486.629 122.528 486.637 122.537 486.646 122.544L489.633 124.713C489.653 124.727 489.674 124.731 489.698 124.724L491.679 124.142C491.703 124.135 491.718 124.119 491.724 124.095L492.323 121.534C492.325 121.525 492.324 121.517 492.322 121.509C492.32 121.5 492.316 121.492 492.31 121.486C491.563 120.622 490.666 119.93 489.621 119.412C489.611 119.407 489.6 119.404 489.588 119.403C489.577 119.403 489.566 119.404 489.555 119.409ZM478.667 122.715C478.018 123.815 477.637 125.009 477.525 126.296C477.525 126.3 477.526 126.304 477.528 126.308C477.53 126.311 477.533 126.314 477.537 126.316C477.541 126.317 477.545 126.318 477.549 126.317C477.553 126.316 477.556 126.315 477.559 126.312L479.193 124.663C479.201 124.655 479.207 124.645 479.21 124.634C479.213 124.623 479.213 124.612 479.21 124.601L478.721 122.722C478.709 122.677 478.691 122.674 478.667 122.715ZM494.305 125.972C494.174 124.898 493.835 123.871 493.316 122.922C493.314 122.918 493.311 122.916 493.308 122.914C493.304 122.912 493.3 122.911 493.296 122.912C493.292 122.912 493.289 122.914 493.286 122.917C493.283 122.919 493.281 122.923 493.28 122.927L492.934 124.413C492.927 124.443 492.933 124.469 492.953 124.492L494.264 125.99C494.297 126.028 494.31 126.022 494.305 125.972ZM487.69 128.95C487.701 128.95 487.711 128.947 487.72 128.94C487.729 128.934 487.736 128.925 487.739 128.914L488.786 125.688C488.789 125.678 488.789 125.667 488.786 125.656C488.783 125.646 488.776 125.637 488.767 125.63L486.024 123.637C486.015 123.63 486.005 123.627 485.994 123.627C485.983 123.627 485.972 123.63 485.963 123.637L483.218 125.631C483.209 125.638 483.203 125.647 483.199 125.657C483.196 125.668 483.196 125.679 483.199 125.689L484.247 128.914C484.25 128.925 484.257 128.934 484.266 128.94C484.274 128.947 484.285 128.95 484.296 128.95H487.69ZM493.363 130.985C493.873 130.068 494.19 129.014 494.309 127.988C494.311 127.975 494.31 127.962 494.306 127.949C494.302 127.937 494.295 127.925 494.287 127.916L492.069 125.378C492.046 125.353 492.019 125.345 491.987 125.354L490.07 125.917C490.038 125.927 490.017 125.948 490.006 125.98L488.879 129.447C488.867 129.482 488.872 129.516 488.891 129.547L490.264 131.763C490.27 131.771 490.278 131.778 490.287 131.782C490.296 131.785 490.307 131.786 490.316 131.784L493.307 131.029C493.332 131.023 493.351 131.008 493.363 130.985ZM481.593 131.78C481.614 131.785 481.631 131.778 481.643 131.76L483.097 129.528C483.113 129.504 483.116 129.477 483.107 129.449L481.979 125.98C481.975 125.968 481.969 125.958 481.96 125.95C481.951 125.941 481.941 125.936 481.929 125.933L480.146 125.521C480.136 125.519 480.125 125.519 480.115 125.522C480.105 125.525 480.096 125.53 480.088 125.538L477.573 128.07C477.571 128.072 477.569 128.075 477.568 128.079C477.566 128.082 477.566 128.086 477.566 128.089C477.694 129.081 477.994 130.027 478.466 130.927C478.48 130.953 478.501 130.97 478.53 130.977L481.593 131.78ZM489.23 132.548C489.238 132.536 489.242 132.522 489.242 132.508C489.242 132.494 489.238 132.48 489.23 132.468L487.848 130.236C487.833 130.211 487.811 130.199 487.783 130.199H484.184C484.162 130.199 484.145 130.209 484.132 130.228L482.661 132.488C482.657 132.494 482.655 132.501 482.655 132.508C482.655 132.516 482.657 132.522 482.661 132.528L484.448 135.273C484.456 135.284 484.466 135.295 484.478 135.302C484.49 135.31 484.503 135.316 484.517 135.318C485.523 135.484 486.516 135.475 487.494 135.289C487.507 135.287 487.52 135.281 487.532 135.274C487.543 135.266 487.553 135.256 487.56 135.244L489.23 132.548ZM479.622 132.592C480.404 133.477 481.441 134.259 482.552 134.729C482.599 134.748 482.608 134.737 482.58 134.695L481.541 133.1C481.521 133.068 481.489 133.045 481.452 133.035L479.641 132.561C479.6 132.551 479.594 132.561 479.622 132.592ZM489.426 134.68C490.493 134.152 491.394 133.534 492.203 132.634C492.233 132.601 492.227 132.59 492.183 132.601L490.437 133.041C490.405 133.049 490.38 133.067 490.363 133.095L489.398 134.651C489.373 134.692 489.382 134.702 489.426 134.68Z" fill="#07A157"/>
<path d="M474.038 127.626C470.656 127.625 467.376 127.625 464.197 127.625C463.344 127.625 463.345 126.373 464.198 126.373C467.481 126.376 470.762 126.376 474.041 126.374C474.07 126.374 474.084 126.359 474.083 126.33C473.981 124.677 473.661 123.038 473.122 121.414C472.853 120.604 474.044 120.203 474.309 121.016C474.842 122.656 475.171 124.247 475.295 125.791C475.486 128.164 475.119 130.459 474.416 132.82C474.376 132.953 474.32 133.06 474.248 133.141C473.903 133.532 473.198 133.33 473.171 132.784C473.165 132.67 473.181 132.556 473.218 132.44C473.715 130.892 474.017 129.253 474.086 127.677C474.088 127.643 474.071 127.626 474.038 127.626Z" fill="#07A157"/>
<path d="M471.777 136.013C467.499 137.141 463.064 138.311 458.47 139.524C458.343 139.558 458.223 139.565 458.112 139.546C457.594 139.457 457.431 138.764 457.859 138.444C457.927 138.392 458.039 138.346 458.196 138.305C460.684 137.649 463.156 136.996 465.612 136.345C465.642 136.337 465.663 136.32 465.677 136.294C466.908 133.941 467.866 131.466 468.271 128.858C468.398 128.04 469.62 128.214 469.499 129.051C469.161 131.398 468.337 133.694 467.287 135.868C467.286 135.872 467.285 135.876 467.286 135.88C467.286 135.883 467.288 135.887 467.29 135.89C467.293 135.893 467.296 135.896 467.3 135.897C467.304 135.898 467.308 135.899 467.312 135.898C470.528 135.049 473.718 134.206 476.881 133.369C477.564 133.189 477.986 134.126 477.392 134.486C477.293 134.546 477.168 134.596 477.018 134.634C475.82 134.943 474.623 135.258 473.427 135.577C473.397 135.585 473.376 135.603 473.364 135.63C472.314 137.988 470.998 140.296 469.416 142.554C469.245 142.799 469.015 142.886 468.728 142.815C468.424 142.74 468.214 142.41 468.284 142.102C468.309 141.994 468.359 141.887 468.434 141.78C469.721 139.944 470.842 138.031 471.798 136.041C471.81 136.016 471.803 136.006 471.777 136.013Z" fill="#07A157"/>
<path d="M477.298 140.087C479.419 139.167 481.595 138.223 483.827 137.255C484.297 137.052 484.777 137.523 484.654 137.995C484.605 138.18 484.47 138.339 484.292 138.416C478.434 140.958 472.597 143.488 466.783 146.005C465.925 146.377 465.439 145.218 466.277 144.858C469.278 143.567 472.271 142.27 475.255 140.968C475.281 140.956 475.302 140.938 475.317 140.913C476.397 139.15 477.31 137.336 478.056 135.472C478.404 134.603 479.559 135.077 479.25 135.857C478.703 137.242 478.041 138.639 477.262 140.048C477.236 140.096 477.248 140.109 477.298 140.087Z" fill="#07A157"/>
<path d="M465.052 139.915C463.701 142.067 462.198 144.135 460.544 146.12C460.213 146.517 459.601 146.434 459.444 145.931C459.361 145.665 459.462 145.459 459.643 145.243C461.228 143.344 462.668 141.361 463.963 139.294C464.448 138.517 465.498 139.202 465.052 139.915Z" fill="#07A157"/>
<path d="M131 135C131 126.163 138.163 119 147 119H393C401.837 119 409 126.163 409 135V228C409 236.837 401.837 244 393 244H147C138.163 244 131 236.837 131 228V135Z" fill="#022F0E"/>
<path d="M211.319 148.63L184.099 163L156.734 148.63C151.93 145.314 148 143.908 148 140.592V107.029C148 103.713 151.93 101 156.734 101H211.319C216.123 101 220.053 103.713 220.053 107.029V140.592C220.053 143.908 216.414 145.113 211.319 148.63Z" fill="white"/>
<path d="M181.927 108.489C182.938 108.891 183.613 109.907 183.775 110.96C183.988 112.345 183.663 113.579 182.799 114.663C182.44 115.114 181.844 115.491 181.271 115.603C179.977 115.853 178.903 114.945 178.364 113.813C177.805 112.643 177.742 111.178 178.295 110.013C178.96 108.61 180.46 107.906 181.927 108.489ZM181.95 113.673C182.628 112.717 182.843 111.156 182.099 110.189C181.526 109.444 180.518 109.337 179.836 110.009C178.851 110.981 179.077 112.951 179.952 113.901C180.65 114.659 181.428 114.408 181.95 113.673Z" fill="#07A157"/>
<path d="M176.619 129.258L176.989 131.446C176.991 131.459 176.997 131.471 177.006 131.479C177.016 131.488 177.027 131.494 177.04 131.496L180.24 131.971C180.246 131.972 180.253 131.972 180.259 131.97C180.265 131.968 180.271 131.966 180.277 131.962C180.282 131.958 180.286 131.953 180.289 131.947C180.292 131.942 180.294 131.936 180.295 131.929C180.318 131.736 180.348 131.545 180.386 131.356C180.549 130.527 181.778 130.758 181.643 131.625C181.371 133.364 181.085 135.203 180.786 137.142C180.744 137.414 180.638 137.616 180.47 137.746C178.175 139.519 175.885 141.293 173.601 143.067C173.593 143.074 173.587 143.082 173.584 143.092C173.581 143.101 173.58 143.112 173.583 143.122C173.73 143.653 173.869 144.169 174.001 144.669C174.409 146.221 172.576 147.362 171.354 146.321C171.166 146.161 170.987 145.896 170.816 145.526C170.301 144.405 169.807 143.291 169.55 142.111C169.431 141.561 169.373 140.921 169.737 140.447C170.133 139.931 170.799 139.803 171.423 139.873C171.439 139.875 171.455 139.872 171.469 139.866C171.484 139.859 171.497 139.849 171.506 139.836C172.074 139.03 172.646 138.226 173.223 137.423C173.408 137.165 173.628 136.921 173.883 136.693C174.565 136.082 175.358 135.551 176.26 135.101C176.272 135.095 176.283 135.085 176.289 135.072C176.295 135.06 176.297 135.046 176.295 135.032L175.165 128.345C175.16 128.311 175.144 128.282 175.118 128.259C174.385 127.607 174.108 126.734 174.286 125.641C174.395 124.972 174.595 124.34 174.886 123.744C174.925 123.664 174.943 123.581 174.938 123.495C174.844 121.659 174.753 119.84 174.662 118.038C174.662 118.032 174.661 118.027 174.658 118.022C174.656 118.017 174.652 118.012 174.648 118.009C174.643 118.005 174.638 118.003 174.633 118.002C174.627 118 174.621 118 174.616 118.001L171.45 118.549C171.351 118.566 171.25 118.566 171.152 118.547C169.914 118.318 168.571 118.08 167.124 117.834C166.666 117.755 166.352 117.666 166.181 117.567C164.788 116.757 165.092 114.704 166.66 114.358C166.874 114.311 167.16 114.315 167.518 114.368C168.86 114.569 170.152 114.756 171.395 114.929C171.42 114.933 171.446 114.93 171.469 114.92C172.636 114.439 173.825 113.947 175.034 113.444C175.144 113.398 175.259 113.38 175.378 113.389C175.985 113.439 176.594 113.49 177.205 113.542C178.092 113.617 177.986 114.885 177.11 114.818C176.611 114.78 176.094 114.736 175.557 114.687C175.458 114.678 175.364 114.692 175.276 114.729C174.812 114.926 174.359 115.114 173.917 115.294C173.903 115.299 173.891 115.309 173.883 115.321C173.875 115.333 173.87 115.348 173.87 115.363V116.805C173.87 116.807 173.871 116.809 173.872 116.812C173.873 116.814 173.874 116.816 173.876 116.817C173.878 116.819 173.88 116.82 173.882 116.82C173.884 116.821 173.887 116.821 173.889 116.821C174.268 116.763 174.638 116.699 174.999 116.629C175.494 116.533 175.882 116.738 175.908 117.27C176.005 119.253 176.113 121.382 176.23 123.658C176.236 123.774 176.219 123.933 176.165 124.037C175.804 124.729 175.589 125.42 175.519 126.11C175.478 126.518 175.579 126.864 175.823 127.148C176.231 127.627 176.88 127.949 177.464 128.155C178.386 128.48 179.368 128.714 180.41 128.856C180.417 128.857 180.424 128.856 180.431 128.853C180.438 128.85 180.444 128.846 180.448 128.84L182.432 126.17C182.452 126.144 182.447 126.124 182.417 126.11C181.974 125.903 181.528 125.702 181.081 125.507C180.691 125.336 180.529 125.005 180.679 124.587C180.702 124.524 180.681 124.487 180.615 124.476C179.589 124.299 178.562 124.122 177.532 123.945C176.655 123.796 176.858 122.529 177.77 122.687C178.841 122.871 179.897 123.053 180.938 123.232C180.954 123.235 180.963 123.228 180.967 123.213C181.032 122.955 181.095 122.671 181.154 122.364C181.19 122.183 181.251 122.045 181.338 121.947C181.77 121.464 182.572 121.871 182.436 122.51C182.299 123.146 182.155 123.806 182.002 124.491C182.001 124.497 182.002 124.503 182.005 124.508C182.008 124.513 182.012 124.518 182.018 124.52L186.407 126.51C186.496 126.551 186.579 126.602 186.655 126.663L192.293 131.217C192.303 131.225 192.315 131.229 192.327 131.229C192.339 131.23 192.351 131.226 192.361 131.218C193.238 130.561 193.904 130.064 194.357 129.729C194.734 129.449 195.251 129.353 195.704 129.487C196.765 129.801 197.194 130.997 196.546 131.927C195.679 133.169 194.884 134.182 194.16 134.965C193.779 135.377 193.143 136.032 192.558 136.068C191.572 136.131 191.211 135.316 190.764 134.609C190.749 134.584 190.727 134.566 190.7 134.557C189.486 134.124 188.392 133.648 187.416 133.128C186.159 132.457 185.088 131.572 184.204 130.472C184.196 130.462 184.185 130.454 184.174 130.448C184.162 130.442 184.149 130.439 184.136 130.439C182.697 130.412 181.267 130.289 179.847 130.07C178.717 129.895 177.656 129.612 176.665 129.221C176.628 129.206 176.613 129.218 176.619 129.258ZM172.539 115.867L171.722 116.201C171.638 116.235 171.551 116.246 171.462 116.233C169.962 116.021 168.525 115.813 167.152 115.612C166.464 115.511 166.325 116.395 167.023 116.515C168.414 116.754 169.771 116.995 171.096 117.24C171.233 117.266 171.373 117.266 171.514 117.24C171.878 117.172 172.222 117.113 172.544 117.06C172.574 117.055 172.589 117.038 172.589 117.007V115.901C172.589 115.864 172.572 115.853 172.539 115.867ZM181.936 129.046C182.772 129.124 183.601 129.162 184.422 129.161C184.793 129.16 184.951 129.319 185.149 129.603C185.172 129.636 185.197 129.638 185.224 129.608L186.476 128.232C186.48 128.226 186.484 128.22 186.487 128.213C186.489 128.206 186.49 128.199 186.489 128.191C186.488 128.184 186.486 128.177 186.482 128.17C186.478 128.164 186.473 128.158 186.467 128.153C186.195 127.954 185.972 127.715 185.654 127.574C184.998 127.28 184.343 126.984 183.687 126.684C183.679 126.68 183.669 126.679 183.66 126.681C183.651 126.684 183.643 126.689 183.638 126.697L181.919 129.008C181.903 129.03 181.908 129.043 181.936 129.046ZM186.076 130.612C187.513 131.959 189.351 132.685 191.188 133.38C191.202 133.385 191.217 133.387 191.232 133.386C191.247 133.385 191.261 133.38 191.274 133.372C191.651 133.137 191.704 132.826 191.664 132.394C191.661 132.367 191.649 132.344 191.628 132.326L187.53 129.017C187.524 129.012 187.517 129.01 187.51 129.011C187.503 129.011 187.496 129.014 187.491 129.02L186.074 130.575C186.07 130.58 186.067 130.587 186.068 130.594C186.068 130.601 186.071 130.607 186.076 130.612ZM192.945 132.456C193.005 133.174 192.75 133.863 192.175 134.294C192.12 134.335 192.112 134.384 192.151 134.44L192.348 134.722C192.396 134.792 192.454 134.8 192.52 134.747C192.857 134.474 193.16 134.183 193.427 133.874C194.127 133.064 194.819 132.166 195.502 131.179C195.713 130.875 195.371 130.569 195.096 130.774C194.349 131.332 193.649 131.855 192.996 132.342C192.958 132.371 192.941 132.409 192.945 132.456ZM177.644 135.338C177.691 135.614 177.556 135.879 177.311 136.012C177.308 136.013 177.305 136.016 177.302 136.019C177.3 136.023 177.299 136.027 177.298 136.031C177.297 136.035 177.298 136.039 177.299 136.043C177.301 136.047 177.303 136.05 177.306 136.053L178.682 137.44C178.691 137.449 178.703 137.454 178.715 137.455C178.727 137.456 178.739 137.452 178.749 137.445L179.501 136.86C179.526 136.841 179.54 136.816 179.545 136.786L180.084 133.28C180.086 133.27 180.083 133.26 180.078 133.252C180.072 133.245 180.063 133.239 180.053 133.238L177.257 132.823C177.253 132.822 177.249 132.822 177.245 132.824C177.241 132.825 177.237 132.827 177.234 132.83C177.231 132.833 177.229 132.837 177.227 132.841C177.226 132.845 177.226 132.85 177.226 132.854C177.375 133.73 177.515 134.558 177.644 135.338ZM172.448 140.771C172.503 141.209 172.544 141.639 172.865 141.959C172.887 141.98 172.909 141.982 172.933 141.963L177.661 138.292C177.666 138.289 177.669 138.284 177.672 138.28C177.674 138.275 177.676 138.269 177.676 138.264C177.677 138.258 177.676 138.252 177.674 138.247C177.672 138.242 177.668 138.237 177.665 138.233L176.117 136.68C176.11 136.674 176.101 136.669 176.092 136.668C176.083 136.667 176.074 136.669 176.066 136.674C175.373 137.084 174.673 137.595 174.215 138.236C173.638 139.046 173.056 139.864 172.469 140.69C172.452 140.715 172.445 140.741 172.448 140.771ZM172.084 145.196C172.276 145.635 172.889 145.429 172.75 144.931C172.592 144.367 172.445 143.822 172.308 143.296C172.286 143.212 172.243 143.139 172.179 143.077C171.992 142.894 171.806 142.72 171.658 142.503C171.413 142.143 171.271 141.72 171.232 141.233C171.225 141.156 171.184 141.122 171.106 141.13L170.884 141.156C170.846 141.16 170.81 141.179 170.784 141.208C170.759 141.237 170.745 141.275 170.745 141.313C170.747 141.847 170.947 142.457 171.129 142.955C171.391 143.671 171.692 144.38 172.031 145.081C172.05 145.12 172.067 145.158 172.084 145.196Z" fill="#07A157"/>
<path d="M185.034 116.7L184.715 116.235C184.7 116.213 184.678 116.197 184.653 116.188C184.387 116.096 184.115 116.011 183.837 115.935C183.644 115.882 183.503 115.808 183.414 115.715C183.146 115.434 183.191 114.984 183.512 114.753C183.707 114.613 183.934 114.619 184.156 114.687C184.589 114.823 184.973 114.943 185.31 115.049C185.433 115.088 185.532 115.162 185.607 115.272C186.275 116.249 186.95 117.226 187.63 118.204C187.898 118.589 188.072 118.907 188.152 119.159C188.309 119.649 188.313 120.223 188.141 120.696C187.651 122.054 186.261 122.711 184.892 122.211C183.132 121.567 181.466 120.962 179.896 120.396C179.331 120.193 178.948 119.915 178.735 119.358C178.33 118.297 179.112 117.187 180.205 117.143C180.427 117.135 180.677 117.178 180.954 117.272C181.595 117.489 182.197 117.686 182.759 117.863C182.795 117.874 182.815 117.861 182.821 117.823C182.861 117.545 183.055 117.364 183.319 117.286C183.921 117.108 184.485 116.937 185.009 116.774C185.051 116.761 185.059 116.736 185.034 116.7ZM184.298 118.377C184.656 118.569 184.745 119.016 184.5 119.336C184.299 119.599 184 119.619 183.7 119.521C182.611 119.164 181.51 118.804 180.397 118.441C179.932 118.289 179.695 118.956 180.165 119.127C181.789 119.718 183.506 120.343 185.316 121.002C185.886 121.209 186.455 121.069 186.798 120.553C187.049 120.178 187.053 119.647 186.802 119.276C186.481 118.8 186.164 118.337 185.85 117.888C185.845 117.88 185.837 117.875 185.828 117.871C185.819 117.868 185.81 117.868 185.8 117.871L184.303 118.328C184.262 118.341 184.26 118.357 184.298 118.377Z" fill="#07A157"/>
<path d="M203.716 122.285C203.716 122.786 203.617 123.283 203.425 123.746C203.233 124.208 202.952 124.629 202.598 124.983C202.244 125.338 201.823 125.619 201.36 125.811C200.897 126.002 200.401 126.101 199.9 126.101C199.399 126.101 198.903 126.002 198.44 125.811C197.977 125.619 197.556 125.338 197.202 124.983C196.847 124.629 196.566 124.208 196.375 123.746C196.183 123.283 196.084 122.786 196.084 122.285C196.084 121.273 196.486 120.303 197.202 119.587C197.917 118.872 198.888 118.47 199.9 118.47C200.912 118.47 201.882 118.872 202.598 119.587C203.314 120.303 203.716 121.273 203.716 122.285ZM202.434 122.284C202.434 121.612 202.167 120.967 201.692 120.492C201.217 120.016 200.572 119.749 199.9 119.749C199.228 119.749 198.583 120.016 198.108 120.492C197.632 120.967 197.365 121.612 197.365 122.284C197.365 122.956 197.632 123.601 198.108 124.076C198.583 124.551 199.228 124.818 199.9 124.818C200.572 124.818 201.217 124.551 201.692 124.076C202.167 123.601 202.434 122.956 202.434 122.284Z" fill="#07A157"/>
<path d="M131 696C131 687.163 138.163 680 147 680H689C697.837 680 705 687.163 705 696V1041C705 1049.84 697.837 1057 689 1057H147C138.163 1057 131 1049.84 131 1041V696Z" fill="#022F0E"/>
<path d="M211.319 709.63L184.099 724L156.734 709.63C151.93 706.314 148 704.908 148 701.592V668.029C148 664.713 151.93 662 156.734 662H211.319C216.123 662 220.053 664.713 220.053 668.029V701.592C220.053 704.908 216.414 706.113 211.319 709.63Z" fill="white"/>
<g clip-path="url(#clip5_232_209)">
<path d="M174.569 669.481C174.265 669.778 174.297 670.178 174.633 670.426C175.186 670.843 176.892 671.764 177.108 671.764C177.548 671.764 177.861 671.211 177.62 670.851C177.556 670.747 177.076 670.41 176.555 670.098C174.97 669.169 174.898 669.145 174.569 669.481Z" fill="#07A157"/>
<path d="M183.955 669.369C183.874 669.417 183.738 669.618 183.658 669.81C183.57 670.002 183.474 670.162 183.442 670.162C183.41 670.162 183.098 670.002 182.745 669.802C182.081 669.417 181.8 669.369 181.52 669.562C181.176 669.802 181.208 670.034 181.856 671.563C182.185 672.356 182.457 673.053 182.457 673.109C182.457 673.189 182.409 673.205 182.321 673.165C181.632 672.877 180.647 672.797 180.063 672.973C179.382 673.173 178.653 673.918 178.405 674.671C177.949 676.04 178.661 677.93 180.271 679.619C180.639 680.004 180.719 680.148 180.888 680.748C181.16 681.669 181.592 682.63 182.625 684.592C183.106 685.505 183.498 686.266 183.498 686.29C183.498 686.306 183.21 686.826 182.857 687.435L182.217 688.54V689.189C182.217 689.757 182.241 689.853 182.401 690.005C182.585 690.182 182.617 690.182 185.492 690.182H188.391L188.583 689.981C188.759 689.813 188.783 689.717 188.783 689.173V688.556L188.143 687.443C187.79 686.826 187.502 686.306 187.502 686.282C187.502 686.258 187.894 685.497 188.375 684.592C189.336 682.758 189.904 681.485 190.145 680.636C190.273 680.164 190.369 679.996 190.729 679.619C192.339 677.93 193.051 676.04 192.595 674.671C192.347 673.918 191.618 673.173 190.937 672.973C190.353 672.797 189.368 672.877 188.687 673.165C188.591 673.197 188.543 673.189 188.543 673.125C188.543 673.069 188.815 672.38 189.144 671.587C189.792 670.042 189.832 669.81 189.48 669.562C189.2 669.369 188.919 669.417 188.255 669.802C187.902 670.002 187.59 670.162 187.558 670.162C187.526 670.162 187.43 670.002 187.342 669.81C187.174 669.401 186.965 669.257 186.605 669.297C186.405 669.313 186.261 669.425 185.948 669.818C185.724 670.09 185.524 670.306 185.5 670.306C185.476 670.306 185.276 670.09 185.052 669.818C184.715 669.401 184.603 669.321 184.371 669.305C184.219 669.289 184.035 669.321 183.955 669.369ZM184.939 671.7C184.939 671.732 185.052 671.82 185.188 671.884C185.556 672.076 185.836 671.98 186.181 671.539C186.341 671.331 186.493 671.171 186.517 671.179C186.541 671.187 186.605 671.275 186.653 671.379C186.701 671.475 186.837 671.612 186.957 671.684C187.142 671.78 187.222 671.788 187.43 671.708C187.574 671.652 187.702 671.62 187.71 671.628C187.726 671.636 187.662 671.796 187.582 671.988L187.43 672.324H185.5H183.57L183.418 671.988C183.338 671.796 183.274 671.636 183.29 671.628C183.298 671.62 183.418 671.652 183.554 671.7C183.874 671.82 184.171 671.7 184.363 671.371L184.499 671.131L184.715 671.387C184.835 671.531 184.931 671.668 184.939 671.7ZM187.262 673.798C187.262 673.902 187.134 674.174 186.981 674.398C186.333 675.367 186.541 675.92 187.79 676.536C188.135 676.704 188.511 676.929 188.639 677.033C189.2 677.505 189.272 679.227 188.783 680.692C188.527 681.461 187.318 683.944 186.501 685.377C186.285 685.753 186.117 686.154 186.117 686.266C186.117 686.378 186.421 687.011 186.797 687.667L187.486 688.86L186.493 688.884C185.948 688.892 185.052 688.892 184.507 688.884L183.506 688.86L184.195 687.675C184.643 686.906 184.883 686.402 184.875 686.258C184.875 686.13 184.707 685.745 184.515 685.401C183.955 684.408 182.729 682.022 182.505 681.477C182.089 680.468 181.888 679.619 181.888 678.811C181.888 677.89 182.049 677.297 182.369 677.033C182.489 676.929 182.865 676.704 183.21 676.536C183.546 676.368 183.93 676.128 184.059 676C184.483 675.567 184.459 674.999 183.971 674.334C183.842 674.15 183.738 673.918 183.738 673.806V673.605H185.5H187.262V673.798ZM181.696 674.302C182.121 674.446 182.617 674.751 182.849 674.991L183.034 675.199L182.489 675.479C181.304 676.072 180.936 676.544 180.655 677.802L180.607 678.034L180.407 677.762C179.959 677.169 179.63 676.392 179.59 675.84C179.542 675.191 179.654 674.839 180.007 674.494C180.423 674.094 180.928 674.038 181.696 674.302ZM190.993 674.494C191.346 674.839 191.458 675.191 191.41 675.84C191.37 676.392 191.041 677.169 190.593 677.762L190.393 678.034L190.345 677.802C190.064 676.552 189.68 676.056 188.551 675.495L187.966 675.199L188.191 674.959C188.495 674.646 189.296 674.254 189.792 674.174C190.329 674.094 190.673 674.19 190.993 674.494Z" fill="#07A157"/>
<path d="M184.779 677.257C184.123 677.545 183.738 678.146 183.738 678.891C183.738 679.932 184.459 680.652 185.5 680.652C186.525 680.652 187.27 679.916 187.27 678.899C187.278 678.194 186.917 677.609 186.285 677.281C185.924 677.097 185.18 677.081 184.779 677.257ZM185.788 678.474C185.972 678.594 186.045 678.843 185.964 679.043C185.876 679.291 185.764 679.371 185.484 679.371C185.204 679.371 185.02 679.179 185.02 678.891C185.02 678.763 185.076 678.602 185.148 678.538C185.276 678.402 185.636 678.37 185.788 678.474Z" fill="#07A157"/>
<path d="M194.709 669.954C194.068 670.322 193.484 670.715 193.396 670.827C193.131 671.187 193.436 671.764 193.892 671.764C194.108 671.764 196.142 670.659 196.471 670.362C196.823 670.042 196.527 669.281 196.054 669.281C195.95 669.281 195.342 669.586 194.709 669.954Z" fill="#07A157"/>
<path d="M172.784 675.231C172.551 675.479 172.551 675.928 172.776 676.136C172.928 676.272 173.104 676.288 174.305 676.312C175.434 676.336 175.698 676.32 175.851 676.216C176.251 675.952 176.299 675.535 175.971 675.207C175.827 675.063 175.698 675.047 174.385 675.047C172.992 675.047 172.952 675.055 172.784 675.231Z" fill="#07A157"/>
<path d="M195.037 675.183C194.949 675.263 194.845 675.439 194.821 675.583C194.781 675.8 194.813 675.88 195.021 676.088L195.27 676.336L196.679 676.312C198.048 676.288 198.088 676.28 198.24 676.096C198.449 675.84 198.441 675.439 198.208 675.223C198.032 675.055 197.952 675.047 196.615 675.047C195.39 675.047 195.181 675.063 195.037 675.183Z" fill="#07A157"/>
<path d="M175.394 680.228C174.129 680.973 173.969 681.141 174.121 681.557C174.225 681.821 174.553 682.046 174.794 681.998C174.898 681.974 175.49 681.661 176.107 681.293C177.188 680.652 177.412 680.452 177.412 680.124C177.412 679.932 176.964 679.531 176.755 679.531C176.651 679.531 176.043 679.844 175.394 680.228Z" fill="#07A157"/>
<path d="M193.82 679.763C193.34 680.244 193.516 680.484 194.941 681.325C195.59 681.701 196.19 682.014 196.279 682.014C196.503 682.014 196.791 681.789 196.879 681.549C196.991 681.253 196.847 680.973 196.447 680.724C195.422 680.084 194.397 679.531 194.237 679.531C194.14 679.531 193.948 679.635 193.82 679.763Z" fill="#07A157"/>
<path d="M180.423 683.791C180.175 684.016 175.17 693.457 175.17 693.705C175.17 693.801 175.947 696.54 176.892 699.791L178.613 705.701V706.51C178.613 707.27 178.629 707.342 178.813 707.519C179.022 707.735 179.222 707.767 179.518 707.631C179.814 707.495 179.895 707.23 179.895 706.333V705.509L178.189 699.655L176.483 693.793L178.95 689.125C180.303 686.562 181.416 684.384 181.416 684.288C181.416 684 181.328 683.855 181.088 683.735C180.783 683.575 180.655 683.583 180.423 683.791Z" fill="#07A157"/>
<path d="M189.944 683.711C189.704 683.839 189.584 684.024 189.584 684.248C189.584 684.368 190.665 686.506 192.05 689.125L194.517 693.793L192.811 699.655L191.105 705.509V706.341C191.105 707.166 191.17 707.422 191.418 707.615C191.626 707.775 191.978 707.735 192.187 707.518C192.371 707.342 192.387 707.27 192.387 706.51V705.701L194.108 699.783C195.053 696.532 195.83 693.793 195.83 693.705C195.83 693.457 190.825 684.016 190.577 683.791C190.353 683.599 190.185 683.575 189.944 683.711Z" fill="#07A157"/>
<path d="M181.752 686.234C181.576 686.386 178.613 693.457 178.613 693.721C178.613 693.969 181.024 701.336 181.152 701.481C181.216 701.553 181.712 701.825 182.265 702.081L183.258 702.546L183.522 703.034C184.107 704.099 185.372 704.468 186.597 703.915C187.021 703.723 187.374 703.33 187.582 702.826C187.67 702.618 187.846 702.506 188.735 702.081C189.312 701.809 189.824 701.529 189.872 701.465C189.992 701.32 192.387 693.929 192.387 693.721C192.387 693.457 189.416 686.386 189.248 686.234C188.863 685.905 188.215 686.202 188.223 686.706C188.231 686.834 188.871 688.468 189.656 690.342L191.081 693.745L190.897 694.306C190.793 694.61 190.297 696.155 189.784 697.733L188.855 700.592L188.383 700.832C188.119 700.968 187.87 701.072 187.822 701.072C187.782 701.072 187.742 700.92 187.742 700.728C187.742 700.448 187.806 700.303 188.103 699.911C188.495 699.383 188.807 698.638 188.935 697.901C188.975 697.645 189.031 696.187 189.055 694.674L189.096 691.927L188.903 691.735C188.679 691.511 188.631 691.503 187.558 691.663C187.11 691.735 186.133 691.823 185.38 691.863C184.635 691.903 183.826 691.991 183.586 692.055C182.954 692.232 182.457 692.568 182.177 693.016L181.937 693.409L181.912 695.451C181.888 697.1 181.912 697.605 182.017 698.069C182.177 698.79 182.593 699.679 182.97 700.095C183.202 700.352 183.258 700.472 183.258 700.744C183.258 700.92 183.218 701.072 183.178 701.072C183.13 701.072 182.881 700.968 182.617 700.832L182.145 700.592L181.216 697.733C180.703 696.155 180.207 694.61 180.103 694.306L179.919 693.745L181.352 690.31C182.137 688.42 182.777 686.778 182.777 686.658C182.777 686.194 182.121 685.921 181.752 686.234ZM187.79 693.353C187.766 693.561 187.742 693.873 187.742 694.057V694.386L187.27 694.362C186.957 694.338 186.613 694.386 186.245 694.498C185.548 694.706 185.284 694.706 184.579 694.506C184.275 694.418 183.826 694.346 183.602 694.346C183.186 694.346 183.178 694.346 183.178 694.097C183.178 693.409 183.602 693.233 185.564 693.136C186.389 693.088 187.07 693.04 187.094 693.024C187.11 693 187.286 692.984 187.486 692.984H187.846L187.79 693.353ZM184.395 695.787C185.092 695.979 185.636 695.987 186.221 695.827C186.973 695.611 187.318 695.595 187.542 695.739C187.734 695.867 187.742 695.907 187.742 696.628C187.742 697.925 187.462 698.798 186.837 699.423C185.612 700.648 183.674 699.815 183.266 697.885C183.218 697.653 183.178 697.116 183.178 696.692C183.178 695.563 183.29 695.483 184.395 695.787ZM185.5 701.272C185.7 701.272 185.996 701.24 186.173 701.208L186.477 701.144L186.453 701.777C186.413 702.514 186.301 702.698 185.804 702.85C185.572 702.914 185.42 702.914 185.18 702.842C184.715 702.706 184.539 702.385 184.539 701.697V701.16L184.843 701.216C185.004 701.248 185.3 701.272 185.5 701.272Z" fill="#07A157"/>
</g>
<path d="M1309 696C1309 687.163 1316.16 680 1325 680H1867C1875.84 680 1883 687.163 1883 696V1041C1883 1049.84 1875.84 1057 1867 1057H1325C1316.16 1057 1309 1049.84 1309 1041V696Z" fill="#022F0E"/>
<path d="M1389.32 709.63L1362.1 724L1334.73 709.63C1329.93 706.314 1326 704.908 1326 701.592V668.029C1326 664.713 1329.93 662 1334.73 662H1389.32C1394.12 662 1398.05 664.713 1398.05 668.029V701.592C1398.05 704.908 1394.41 706.113 1389.32 709.63Z" fill="white"/>
<g clip-path="url(#clip6_232_209)">
<g clip-path="url(#clip7_232_209)">
<path d="M1353.83 675.175C1349.87 675.792 1346.32 678.811 1344.93 682.758C1344.32 684.488 1344.23 685.665 1344.35 689.741C1344.46 693.217 1344.63 694.137 1345.56 696.083C1346.85 698.79 1348.78 700.6 1351.26 701.433C1352.86 701.961 1352.63 701.953 1363.48 701.953C1373.54 701.953 1373.87 701.945 1375.14 701.625C1379.04 700.64 1382.02 696.812 1382.56 692.104C1382.61 691.687 1382.65 689.933 1382.66 688.22C1382.68 685.233 1382.67 685.057 1382.49 684.28C1382.04 682.206 1381.12 680.372 1379.78 678.891C1377.93 676.841 1375.6 675.535 1373.1 675.175C1371.88 674.991 1354.99 674.999 1353.83 675.175ZM1373.31 676.48C1374.79 676.849 1376.04 677.393 1377.08 678.138C1377.82 678.65 1378.99 679.828 1379.51 680.572C1381.58 683.519 1382.01 687.259 1380.6 690.23C1379.5 692.568 1377.75 694.009 1375.22 694.682L1374.51 694.866H1363.5H1352.49L1351.78 694.682C1349.25 694.009 1347.5 692.568 1346.4 690.23C1344.99 687.251 1345.41 683.527 1347.49 680.572C1348 679.836 1349.18 678.658 1349.89 678.154C1351.19 677.233 1352.65 676.64 1354.19 676.416C1354.96 676.296 1372.83 676.36 1373.31 676.48ZM1348.33 694.506C1349.41 695.251 1350.72 695.795 1352.02 696.043C1352.83 696.196 1374.17 696.196 1374.98 696.043C1376.76 695.707 1378.48 694.834 1379.7 693.665C1379.95 693.417 1380.16 693.249 1380.16 693.281C1380.16 693.425 1379.48 694.482 1379 695.098C1377.91 696.5 1376.48 697.437 1374.67 697.925L1373.87 698.149L1365.14 698.173L1356.41 698.197L1356.24 698.366C1356 698.582 1356 698.982 1356.2 699.238L1356.36 699.431L1364.56 699.455C1369.92 699.471 1373.04 699.447 1373.59 699.391C1374.76 699.279 1375.8 698.982 1376.83 698.47C1377.91 697.941 1378.56 697.453 1379.48 696.492L1380.19 695.747L1379.92 696.228C1378.68 698.454 1376.91 699.855 1374.57 700.456L1373.87 700.632H1363.5H1353.13L1352.42 700.448C1351.01 700.095 1349.8 699.439 1348.79 698.478C1348.21 697.933 1347.37 696.828 1347.03 696.155C1346.84 695.771 1346.84 695.779 1347.52 696.5C1348.44 697.453 1349.09 697.941 1350.17 698.47C1351.22 698.998 1352.25 699.279 1353.51 699.407C1354.35 699.487 1354.46 699.487 1354.65 699.359C1354.98 699.142 1355.07 698.878 1354.91 698.55C1354.76 698.237 1354.74 698.229 1353.57 698.117C1350.74 697.845 1348.47 696.292 1347.04 693.665L1346.73 693.104L1347.24 693.609C1347.53 693.881 1348.02 694.29 1348.33 694.506Z" fill="#07A157"/>
<path d="M1354.53 677.689C1352.26 678.178 1350.26 679.796 1349.25 681.95C1348.81 682.903 1348.68 683.439 1348.63 684.576C1348.58 685.809 1348.71 686.482 1349.16 687.411C1349.93 688.972 1351.18 689.997 1352.88 690.422C1353.5 690.574 1353.78 690.582 1363.5 690.582C1373.22 690.582 1373.5 690.574 1374.12 690.422C1375.82 689.997 1377.07 688.972 1377.84 687.411C1378.29 686.482 1378.42 685.809 1378.37 684.576C1378.32 683.439 1378.19 682.903 1377.75 681.95C1377.15 680.652 1376.18 679.539 1375 678.771C1373.54 677.818 1372.46 677.529 1370.32 677.529C1368.96 677.529 1368.94 677.529 1368.75 677.729C1368.38 678.082 1368.55 678.658 1369.04 678.763C1369.15 678.787 1369.87 678.819 1370.67 678.835C1372.04 678.859 1372.15 678.875 1372.81 679.107C1375.38 680.012 1377.11 682.318 1377.11 684.848C1377.11 685.697 1376.98 686.298 1376.62 686.995C1376.3 687.643 1375.46 688.484 1374.82 688.804C1373.79 689.325 1374.37 689.301 1363.5 689.301C1354.79 689.301 1353.58 689.285 1353.15 689.173C1351.62 688.78 1350.4 687.563 1350.01 686.042C1349.83 685.385 1349.85 684.256 1350.05 683.487C1350.56 681.485 1352.18 679.771 1354.25 679.067L1354.89 678.851L1360.99 678.811L1367.1 678.771L1367.27 678.594C1367.51 678.362 1367.5 677.986 1367.26 677.729L1367.08 677.529L1361.15 677.537C1355.7 677.537 1355.16 677.553 1354.53 677.689Z" fill="#07A157"/>
<path d="M1355.37 680.18C1353.81 680.348 1352.23 681.125 1351.1 682.286C1350.58 682.814 1350.52 683.119 1350.88 683.431C1351.22 683.727 1351.42 683.671 1352.06 683.087C1353.08 682.174 1354.18 681.629 1355.38 681.453C1356.12 681.349 1370.88 681.349 1371.62 681.453C1372.8 681.629 1373.91 682.166 1374.9 683.047C1375.5 683.591 1375.7 683.639 1376.04 683.351C1376.2 683.215 1376.26 683.087 1376.26 682.895C1376.26 682.662 1376.18 682.542 1375.66 682.062C1374.98 681.429 1374.46 681.085 1373.53 680.692C1372.22 680.124 1372.65 680.148 1363.9 680.124C1359.56 680.116 1355.72 680.14 1355.37 680.18Z" fill="#07A157"/>
<path d="M1354.73 682.166C1354.64 682.206 1354.52 682.302 1354.44 682.382C1354.16 682.718 1351.78 687.427 1351.78 687.651C1351.78 687.923 1352.12 688.26 1352.4 688.26C1352.63 688.26 1352.98 687.996 1353.05 687.779C1353.1 687.627 1353.18 687.619 1354.37 687.619C1355.46 687.619 1355.66 687.603 1355.8 687.475C1355.97 687.331 1357.24 684.961 1357.26 684.744C1357.29 684.464 1357.25 684.328 1357.09 684.176C1356.95 684.032 1356.83 684.016 1356.01 684.016C1355.42 684.016 1355.09 683.984 1355.09 683.936C1355.09 683.888 1355.15 683.743 1355.21 683.615L1355.34 683.375H1359.1H1362.86V683.695C1362.86 683.976 1362.84 684.016 1362.64 684.064C1361.42 684.328 1360.78 684.856 1360.72 685.641C1360.66 686.418 1361.2 687.003 1362.27 687.315L1362.86 687.491V687.835C1362.86 688.228 1363.03 688.612 1363.22 688.692C1363.49 688.796 1363.8 688.74 1363.96 688.556C1364.1 688.412 1364.14 688.268 1364.14 687.931V687.483L1364.53 687.395C1366.16 687.019 1366.86 685.833 1366.01 684.889C1365.67 684.512 1365.17 684.24 1364.56 684.096C1364.13 684 1364.13 684 1364.16 683.703L1364.18 683.415L1367.94 683.391L1371.71 683.375L1371.85 683.623C1371.92 683.759 1371.99 683.904 1371.99 683.944C1371.99 683.984 1371.58 684.016 1371.08 684.016C1370.18 684.016 1370.15 684.024 1369.99 684.224C1369.9 684.344 1369.83 684.52 1369.83 684.624C1369.83 684.848 1371.13 687.371 1371.32 687.515C1371.42 687.587 1371.84 687.619 1372.73 687.619C1373.55 687.619 1373.99 687.651 1373.99 687.699C1373.99 687.747 1374.08 687.875 1374.19 687.98C1374.58 688.38 1375.27 688.116 1375.27 687.563C1375.27 687.355 1372.78 682.55 1372.54 682.294C1372.39 682.134 1372.27 682.134 1363.64 682.118C1358.83 682.11 1354.82 682.134 1354.73 682.166ZM1355.32 685.817L1355.06 686.338H1354.44H1353.81L1354.07 685.817L1354.32 685.297H1354.95H1355.57L1355.32 685.817ZM1362.86 685.729V686.17L1362.61 686.098C1362.48 686.058 1362.27 685.962 1362.16 685.889C1361.99 685.785 1361.98 685.745 1362.07 685.649C1362.15 685.569 1362.57 685.377 1362.84 685.305C1362.85 685.297 1362.86 685.489 1362.86 685.729ZM1373.01 685.817L1373.27 686.338H1372.67H1372.07L1371.83 685.857C1371.7 685.593 1371.59 685.361 1371.59 685.337C1371.59 685.313 1371.85 685.297 1372.17 685.297H1372.76L1373.01 685.817ZM1364.89 685.577C1365.13 685.737 1365.1 685.833 1364.75 685.978C1364.13 686.226 1364.14 686.234 1364.14 685.769V685.353L1364.41 685.401C1364.57 685.425 1364.78 685.505 1364.89 685.577Z" fill="#07A157"/>
</g>
</g>
<path d="M1010 135C1010 126.163 1017.16 119 1026 119H1867C1875.84 119 1883 126.163 1883 135V640C1883 648.837 1875.84 656 1867 656H1026C1017.16 656 1010 648.837 1010 640V135Z" fill="#022F0E"/>
<path d="M1090.32 148.63L1063.1 163L1035.73 148.63C1030.93 145.314 1027 143.908 1027 140.592V107.029C1027 103.713 1030.93 101 1035.73 101H1090.32C1095.12 101 1099.05 103.713 1099.05 107.029V140.592C1099.05 143.908 1095.41 145.113 1090.32 148.63Z" fill="white"/>
<g clip-path="url(#clip8_232_209)">
<path d="M1049.44 109.433C1049.25 109.578 1049.25 109.65 1049.21 110.739L1049.17 111.884L1047.39 111.908L1045.61 111.924L1045.45 112.14C1045.14 112.532 1045.17 112.604 1046.26 114.062C1046.79 114.759 1047.03 115.159 1046.99 115.223C1046.95 115.279 1046.56 115.824 1046.11 116.432C1045.27 117.553 1045.16 117.802 1045.39 118.098C1045.61 118.386 1045.8 118.41 1047.92 118.41H1050.02L1050.25 118.178C1050.45 117.97 1050.49 117.882 1050.49 117.489C1050.49 117.097 1050.45 117.009 1050.25 116.801C1050.11 116.664 1049.93 116.568 1049.81 116.568C1049.61 116.568 1049.26 116.833 1049.2 117.033C1049.17 117.105 1048.9 117.129 1048.19 117.113L1047.21 117.089L1047.84 116.248C1048.67 115.159 1048.67 115.143 1047.88 114.094C1047.56 113.646 1047.28 113.269 1047.28 113.245C1047.28 113.221 1047.72 113.205 1048.24 113.205H1049.21V114.286C1049.21 115.335 1049.21 115.383 1049.41 115.567L1049.6 115.768H1064.5H1079.4L1079.59 115.567C1079.79 115.383 1079.79 115.335 1079.79 114.286V113.205H1080.76C1081.28 113.205 1081.72 113.221 1081.72 113.245C1081.72 113.269 1081.44 113.646 1081.12 114.094C1080.33 115.143 1080.33 115.159 1081.16 116.248L1081.79 117.089L1080.81 117.113C1080.1 117.129 1079.83 117.105 1079.8 117.033C1079.74 116.833 1079.39 116.568 1079.19 116.568C1079.07 116.568 1078.89 116.664 1078.75 116.801C1078.55 117.009 1078.51 117.097 1078.51 117.489C1078.51 117.882 1078.55 117.97 1078.75 118.178L1078.98 118.41H1081.07C1082.42 118.41 1083.22 118.378 1083.34 118.322C1083.55 118.226 1083.72 117.946 1083.72 117.689C1083.72 117.609 1083.35 117.041 1082.89 116.432C1082.44 115.824 1082.05 115.279 1082.01 115.223C1081.97 115.159 1082.21 114.759 1082.74 114.062C1083.83 112.604 1083.86 112.532 1083.55 112.14L1083.39 111.924L1081.61 111.908L1079.83 111.884L1079.79 110.739C1079.75 109.65 1079.75 109.578 1079.56 109.433C1079.38 109.281 1079.02 109.281 1064.5 109.281C1049.98 109.281 1049.62 109.281 1049.44 109.433ZM1078.51 112.524V114.486H1064.5H1050.49V112.524V110.563H1064.5H1078.51V112.524Z" fill="#07A157"/>
<path d="M1051.09 116.768C1050.97 116.873 1050.89 117.057 1050.89 117.169C1050.89 117.289 1052.34 121.285 1054.11 126.042L1057.35 134.706L1057.85 139.631C1058.24 143.603 1058.33 144.82 1058.33 145.941C1058.33 147.302 1058.33 147.326 1058.53 147.519C1058.8 147.783 1059.09 147.775 1059.38 147.486L1059.62 147.254V146.165V145.076H1060.37C1061.04 145.076 1061.15 145.052 1061.34 144.892C1061.62 144.66 1061.63 144.267 1061.38 143.995C1061.2 143.811 1061.14 143.795 1060.36 143.795C1059.9 143.795 1059.54 143.771 1059.54 143.731C1059.54 143.699 1059.32 141.569 1059.05 138.99L1058.58 134.306L1057.58 131.631C1057.02 130.158 1056.57 128.94 1056.57 128.924C1056.57 128.892 1058.27 128.052 1058.46 127.987C1058.61 127.939 1058.69 128.076 1059.25 129.237C1059.6 129.957 1059.95 130.622 1060.05 130.726C1060.21 130.91 1060.26 130.918 1061.15 130.894L1062.09 130.87L1062.35 131.263C1062.67 131.735 1063.02 131.983 1063.61 132.16C1064.67 132.464 1065.81 132.023 1066.27 131.127C1066.44 130.79 1066.25 130.814 1067.86 130.982C1068.35 131.03 1068.6 131.022 1068.74 130.958C1068.89 130.886 1069.13 130.494 1069.64 129.461C1070.03 128.692 1070.35 128.027 1070.36 127.995C1070.38 127.955 1070.83 128.132 1071.37 128.388C1072.15 128.748 1072.34 128.876 1072.3 128.972C1072.28 129.044 1071.8 130.27 1071.25 131.703L1070.24 134.306L1069.78 138.83C1069.52 141.32 1069.3 143.451 1069.3 143.571V143.795H1066H1062.68L1062.51 143.979C1062.26 144.251 1062.27 144.692 1062.55 144.908C1062.75 145.068 1062.84 145.076 1066 145.076H1069.23L1069.22 146.213L1069.19 147.342L1069.42 147.535C1069.7 147.767 1069.96 147.767 1070.23 147.527L1070.46 147.342L1070.51 145.469C1070.55 144.083 1070.68 142.426 1071.02 139.15L1071.47 134.706L1074.8 126.058C1076.68 121.149 1078.11 117.297 1078.11 117.153C1078.11 116.865 1077.81 116.568 1077.5 116.568C1077.07 116.568 1076.99 116.744 1074.89 122.238C1073.77 125.161 1072.83 127.563 1072.81 127.587C1072.76 127.635 1070.99 126.81 1070.99 126.738C1070.99 126.714 1072 124.6 1073.23 122.046C1074.53 119.371 1075.47 117.313 1075.47 117.185C1075.47 116.905 1075.15 116.568 1074.88 116.568C1074.77 116.568 1074.59 116.648 1074.48 116.744C1074.35 116.865 1073.13 119.291 1071.2 123.295L1068.13 129.661L1067.53 129.637C1066.55 129.605 1066.58 129.629 1066.58 128.972C1066.58 128.42 1066.59 128.396 1066.9 128.035C1067.09 127.835 1067.33 127.451 1067.46 127.187C1067.93 126.194 1067.96 125.985 1068.02 122.814C1068.05 121.205 1068.04 119.811 1068.01 119.715C1067.98 119.619 1067.86 119.483 1067.74 119.403C1067.56 119.283 1067.49 119.283 1066.64 119.403C1066.15 119.483 1065.11 119.571 1064.34 119.611C1063.56 119.651 1062.73 119.739 1062.46 119.811C1061.48 120.068 1060.89 120.628 1060.74 121.445C1060.63 122.022 1060.63 124.92 1060.74 125.641C1060.86 126.418 1061.22 127.323 1061.62 127.843L1061.95 128.268L1061.92 128.924L1061.9 129.581L1061.38 129.605L1060.86 129.621L1057.81 123.295C1056.14 119.811 1054.69 116.873 1054.59 116.768C1054.25 116.376 1053.53 116.648 1053.53 117.169C1053.53 117.281 1054.54 119.459 1055.77 122.022C1057 124.576 1058.01 126.69 1058.01 126.722C1058.01 126.754 1057.58 126.986 1057.05 127.235L1056.1 127.683L1055.9 127.147C1055.79 126.858 1054.88 124.44 1053.89 121.773C1052 116.696 1051.94 116.568 1051.48 116.568C1051.37 116.568 1051.19 116.656 1051.09 116.768ZM1066.74 121.477V122.222L1066.24 122.19C1065.88 122.166 1065.57 122.206 1065.16 122.326C1064.46 122.534 1064.09 122.534 1063.36 122.334C1063.04 122.246 1062.59 122.174 1062.35 122.174H1061.91L1061.97 121.837C1062.08 121.133 1062.46 120.989 1064.53 120.885C1065.36 120.844 1066.07 120.788 1066.09 120.772C1066.11 120.748 1066.27 120.732 1066.44 120.732H1066.74V121.477ZM1063.2 123.615C1063.86 123.823 1064.63 123.823 1065.3 123.615C1066.13 123.367 1066.61 123.439 1066.72 123.839C1066.8 124.184 1066.68 125.561 1066.51 126.098C1066.08 127.483 1065.06 128.204 1063.91 127.947C1062.75 127.691 1062.05 126.546 1061.96 124.72C1061.89 123.415 1062.07 123.263 1063.2 123.615ZM1064.34 129.261C1064.58 129.261 1064.9 129.237 1065.04 129.205L1065.3 129.141V129.669C1065.3 130.63 1064.9 131.062 1064.11 130.95C1063.48 130.862 1063.22 130.446 1063.22 129.557V129.125L1063.56 129.197C1063.75 129.229 1064.1 129.261 1064.34 129.261Z" fill="#07A157"/>
</g>
<path d="M720 696C720 687.163 727.163 680 736 680H1278C1286.84 680 1294 687.163 1294 696V1041C1294 1049.84 1286.84 1057 1278 1057H736C727.163 1057 720 1049.84 720 1041V696Z" fill="#022F0E"/>
<path d="M800.319 709.63L773.099 724L745.734 709.63C740.93 706.314 737 704.908 737 701.592V668.029C737 664.713 740.93 662 745.734 662H800.319C805.123 662 809.053 664.713 809.053 668.029V701.592C809.053 704.908 805.414 706.113 800.319 709.63Z" fill="white"/>
<g clip-path="url(#clip9_232_209)">
<rect x="753" y="668" width="41" height="41" rx="12" fill="white"/>
<g clip-path="url(#clip10_232_209)">
<path d="M760.526 669.481C760.134 669.866 760.214 670.034 761.471 671.467C762.096 672.18 764.298 674.679 766.356 677.025L770.096 681.285V682.814V684.336L769.759 684.472C769.207 684.688 768.422 685.121 767.733 685.577C765.139 687.315 763.345 689.981 762.632 693.153C762.472 693.881 762.448 694.194 762.448 695.627C762.456 697.413 762.56 698.125 763.017 699.447C763.818 701.785 765.491 704.043 767.421 705.42C771.841 708.552 777.655 708.423 781.907 705.116C785.895 702.001 787.529 696.732 785.983 691.935C785.647 690.878 785.487 690.662 785.07 690.662C784.83 690.662 784.726 690.71 784.598 690.87C784.502 690.99 784.43 691.135 784.43 691.199C784.43 691.263 784.55 691.679 784.702 692.128C785.102 693.345 785.254 694.29 785.254 695.587C785.262 698.526 784.173 701.152 782.099 703.226C780.025 705.3 777.399 706.389 774.46 706.381C772.642 706.381 771.153 706.021 769.535 705.188C766.652 703.715 764.586 701.008 763.882 697.781C763.705 696.98 763.641 695.026 763.762 694.178C764.45 689.325 768.198 685.577 773.051 684.888C773.971 684.76 775.933 684.84 776.822 685.049C778.136 685.353 779.273 685.841 780.506 686.634C781.315 687.155 782.852 688.676 783.389 689.477C783.773 690.062 784.045 690.23 784.39 690.102C784.67 689.997 784.862 689.669 784.79 689.405C784.694 688.996 783.909 687.971 782.988 687.059C781.939 686.01 780.826 685.217 779.601 684.656L778.824 684.296V682.838V681.373L782.011 677.754C783.757 675.76 785.975 673.237 786.936 672.148C788.834 669.978 788.89 669.89 788.474 669.481L788.281 669.281H784.95H781.619L781.443 669.457C781.347 669.562 779.104 672.1 776.47 675.103C772.034 680.164 771.657 680.572 771.425 680.572C771.185 680.572 770.856 680.212 767.013 675.832C764.722 673.221 762.745 670.971 762.616 670.827L762.392 670.562H764.618L766.853 670.57L769.415 673.493C773.011 677.609 772.858 677.449 773.179 677.449C773.507 677.449 773.763 677.241 773.827 676.921C773.867 676.729 773.827 676.616 773.643 676.4C773.131 675.776 767.661 669.554 767.517 669.417C767.365 669.289 767.085 669.281 764.034 669.281H760.719L760.526 669.481ZM786.344 670.859C786.199 671.027 784.229 673.277 781.955 675.864L777.831 680.572H775.605H773.371L775.749 677.866C777.054 676.384 779.032 674.134 780.137 672.869L782.147 670.57L784.382 670.562H786.608L786.344 670.859ZM777.543 682.862V683.871L777.287 683.823C776.134 683.583 775.349 683.519 774.06 683.567C773.291 683.591 772.474 683.663 772.178 683.727C771.313 683.928 771.377 684 771.377 682.854V681.854H774.46H777.543V682.862Z" fill="#07A157"/>
<path d="M772.834 686.298C769.183 686.963 766.26 689.677 765.323 693.281C765.043 694.346 764.971 696.139 765.163 697.188C765.731 700.215 767.557 702.682 770.224 704.027C772.666 705.26 775.373 705.372 777.999 704.363C781.779 702.898 784.302 698.782 783.877 694.754C783.429 690.438 780.282 687.035 776.07 686.298C775.221 686.154 773.651 686.154 772.834 686.298ZM775.597 687.507C775.829 687.539 775.997 687.587 775.981 687.619C775.957 687.651 775.621 687.795 775.229 687.939L774.508 688.196L773.723 687.891C772.962 687.595 772.946 687.579 773.219 687.531C773.603 687.459 775.085 687.451 775.597 687.507ZM772.074 688.628C772.594 688.828 773.211 689.069 773.443 689.157L773.859 689.309V690.286V691.263L772.426 692.304C771.633 692.88 770.961 693.345 770.921 693.345C770.888 693.345 770.472 693.257 770.008 693.153L769.151 692.96L768.814 691.671C768.638 690.966 768.47 690.326 768.446 690.254C768.366 689.965 770.536 688.26 770.985 688.26C771.057 688.26 771.545 688.428 772.074 688.628ZM778.504 688.508C779.056 688.804 780.194 689.693 780.458 690.046L780.658 690.302L780.37 691.503C780.218 692.16 780.065 692.728 780.033 692.76C780.009 692.784 779.561 692.936 779.048 693.088L778.12 693.369L776.63 692.288L775.141 691.199V690.294C775.141 689.677 775.173 689.373 775.237 689.333C775.357 689.261 777.879 688.276 777.975 688.268C778.007 688.26 778.248 688.372 778.504 688.508ZM767.693 692.448L767.918 693.281L767.125 694.073C766.692 694.506 766.332 694.842 766.332 694.81C766.332 694.57 766.62 693.337 766.788 692.88C767.029 692.2 767.365 691.511 767.429 691.567C767.453 691.591 767.573 691.991 767.693 692.448ZM782.123 692.776C782.34 693.361 782.604 694.434 782.556 694.49C782.532 694.506 781.635 693.513 781.411 693.217C781.331 693.121 781.347 692.944 781.483 692.384L781.651 691.671L781.771 691.911C781.835 692.039 781.995 692.424 782.123 692.776ZM775.901 693.345C776.566 693.825 777.127 694.234 777.159 694.258C777.191 694.282 776.99 695.01 776.718 695.867L776.214 697.429H774.54H772.874L772.402 696.027C772.146 695.259 771.929 694.554 771.921 694.45C771.897 694.306 772.13 694.105 773.219 693.313C773.987 692.752 774.572 692.376 774.62 692.416C774.66 692.456 775.245 692.872 775.901 693.345ZM781.499 695.283C782.596 696.54 782.596 696.548 782.548 696.868C782.46 697.429 782.179 698.374 781.923 698.926C781.715 699.415 781.651 699.479 781.395 699.543C780.578 699.759 778.824 700.191 778.768 700.191C778.728 700.191 778.4 699.703 778.023 699.102L777.351 698.005L777.895 696.356C778.2 695.451 778.472 694.674 778.504 694.634C778.56 694.586 780.146 694.065 780.354 694.033C780.378 694.025 780.89 694.594 781.499 695.283ZM769.896 694.45L770.608 694.626L771.153 696.324L771.705 698.021L771.009 699.086C770.632 699.671 770.304 700.167 770.288 700.183C770.272 700.199 769.583 700.039 768.758 699.823L767.261 699.431L767.005 698.87C766.74 698.302 766.412 697.156 766.412 696.812C766.412 696.54 768.782 694.178 769.015 694.234C769.103 694.25 769.495 694.346 769.896 694.45ZM776.974 699.831C777.335 700.432 777.623 700.968 777.599 701.024C777.575 701.088 777.207 701.697 776.782 702.386L776.013 703.627L775.637 703.691C775.117 703.779 773.355 703.747 773.171 703.651C773.059 703.587 771.401 701.16 771.345 700.968C771.345 700.952 771.657 700.448 772.042 699.847L772.754 698.75H774.532H776.302L776.974 699.831ZM769.423 701.321L770.152 701.505L770.6 702.193C770.848 702.57 771.057 702.906 771.057 702.938C771.057 703.122 769.847 702.37 769.039 701.681C768.542 701.264 768.342 701 768.598 701.096C768.646 701.112 769.023 701.216 769.423 701.321ZM780.218 701.401C779.881 701.753 778.936 702.458 778.384 702.762L777.903 703.026L778.144 702.634C778.808 701.489 778.768 701.529 779.489 701.337C780.442 701.088 780.506 701.096 780.218 701.401Z" fill="#07A157"/>
</g>
</g>
</g>
<defs>
<filter id="filter0_d_232_209" x="-4" y="47" width="104" height="104" filterUnits="userSpaceOnUse" color-interpolation-filters="sRGB">
<feFlood flood-opacity="0" result="BackgroundImageFix"/>
<feColorMatrix in="SourceAlpha" type="matrix" values="0 0 0 0 0 0 0 0 0 0 0 0 0 0 0 0 0 0 127 0" result="hardAlpha"/>
<feOffset dy="8"/>
<feGaussianBlur stdDeviation="12"/>
<feColorMatrix type="matrix" values="0 0 0 0 0.917647 0 0 0 0 0.486275 0 0 0 0 0.411765 0 0 0 0.32 0"/>
<feBlend mode="normal" in2="BackgroundImageFix" result="effect1_dropShadow_232_209"/>
<feBlend mode="normal" in="SourceGraphic" in2="effect1_dropShadow_232_209" result="shape"/>
</filter>
<clipPath id="clip0_232_209">
<rect width="1920" height="1080" rx="16" fill="white"/>
</clipPath>
<clipPath id="clip1_232_209">
<rect width="24" height="24" fill="white" transform="translate(36 79)"/>
</clipPath>
<clipPath id="clip2_232_209">
<rect width="24" height="24" fill="white" transform="translate(36 180)"/>
</clipPath>
<clipPath id="clip3_232_209">
<rect width="48" height="48" fill="white" transform="translate(26 1010)"/>
</clipPath>
<clipPath id="clip4_232_209">
<rect width="48" height="48" fill="white" transform="translate(26 919)"/>
</clipPath>
<clipPath id="clip5_232_209">
<rect x="164" y="668" width="41" height="41" rx="12" fill="white"/>
</clipPath>
<clipPath id="clip6_232_209">
<rect x="1342" y="668" width="41" height="41" rx="12" fill="white"/>
</clipPath>
<clipPath id="clip7_232_209">
<rect width="41" height="41" fill="white" transform="translate(1343 668)"/>
</clipPath>
<clipPath id="clip8_232_209">
<rect width="41" height="41" fill="white" transform="translate(1044 107)"/>
</clipPath>
<clipPath id="clip9_232_209">
<rect x="753" y="668" width="41" height="41" rx="12" fill="white"/>
</clipPath>
<clipPath id="clip10_232_209">
<rect width="41" height="41" fill="white" transform="translate(754 668)"/>
</clipPath>
</defs>
</svg>
