<svg width="1920" height="1080" viewBox="0 0 1920 1080" fill="none" xmlns="http://www.w3.org/2000/svg">
<g clip-path="url(#clip0_60_367)">
<rect width="1920" height="1080" fill="#151515"/>
<rect width="100" height="1080" fill="#0D0D0D"/>
<path d="M69 403.581V425.754C68.9242 426.548 68.593 427.174 68.0063 427.632C67.5322 428.001 66.9803 428.181 66.3814 428.181C62.8471 428.181 59.2738 428.181 55.6617 428.181C55.0582 428.181 55.0488 427.298 55.6775 427.301C56.6041 427.303 57.5076 427.304 58.3881 427.301C58.3913 427.301 58.3945 427.301 58.3975 427.299C58.4005 427.298 58.4032 427.296 58.4055 427.294C58.4078 427.291 58.4096 427.289 58.4108 427.286C58.4121 427.283 58.4127 427.279 58.4127 427.276V421.827C58.4127 421.822 58.4108 421.818 58.4075 421.815C58.4043 421.812 58.3998 421.81 58.3951 421.81H49.6043C49.5996 421.81 49.5952 421.812 49.5919 421.815C49.5886 421.818 49.5867 421.823 49.5867 421.827V427.274C49.5867 427.282 49.5897 427.289 49.595 427.294C49.6002 427.299 49.6074 427.302 49.6148 427.302C50.9668 427.303 52.3807 427.303 53.8564 427.302C54.4758 427.301 54.4893 428.182 53.8201 428.182C49.9018 428.179 45.9592 428.18 41.9924 428.184C41.5471 428.185 41.2152 428.161 40.9969 428.113C39.8836 427.865 39.0867 426.897 39 425.749V403.57C39.0902 402.784 39.5859 402.148 40.3336 401.91C40.5574 401.838 40.9168 401.806 41.4117 401.813C42.1941 401.823 42.9793 401.824 43.7672 401.817C44.41 401.811 44.4105 402.699 43.7959 402.699C42.8697 402.698 41.9182 402.698 40.9412 402.698C40.3482 402.698 39.8801 403.136 39.8795 403.731C39.8783 405.062 39.8783 406.538 39.8795 408.159C39.8795 408.18 39.8898 408.19 39.9105 408.19H68.0889C68.1115 408.19 68.1229 408.179 68.1229 408.156C68.1186 406.638 68.1193 405.212 68.1252 403.878C68.1275 403.356 67.9395 402.948 67.4408 402.759C67.3279 402.716 67.116 402.695 66.8051 402.695C59.9633 402.7 52.8789 402.7 45.552 402.694C45.4812 402.694 45.4123 402.673 45.3451 402.631C44.9766 402.398 45.1295 401.825 45.5766 401.824C52.5031 401.813 59.6779 401.815 67.101 401.83C67.1693 401.83 67.2445 401.833 67.3266 401.837C67.4023 401.841 67.4727 401.853 67.5375 401.871C68.3867 402.114 68.8742 402.684 69 403.581ZM48.709 409.105C48.709 409.095 48.7052 409.086 48.6985 409.08C48.6918 409.073 48.6827 409.069 48.6732 409.069H39.9146C39.9052 409.069 39.8961 409.073 39.8894 409.08C39.8827 409.086 39.8789 409.095 39.8789 409.105V414.525C39.8789 414.534 39.8827 414.543 39.8894 414.55C39.8961 414.557 39.9052 414.561 39.9146 414.561H48.6732C48.6827 414.561 48.6918 414.557 48.6985 414.55C48.7052 414.543 48.709 414.534 48.709 414.525V409.105ZM58.4127 409.096C58.4127 409.089 58.4099 409.082 58.4048 409.077C58.3997 409.072 58.3929 409.069 58.3857 409.069H49.6143C49.6071 409.069 49.6003 409.072 49.5952 409.077C49.5901 409.082 49.5873 409.089 49.5873 409.096V414.534C49.5873 414.541 49.5901 414.548 49.5952 414.553C49.6003 414.558 49.6071 414.561 49.6143 414.561H58.3857C58.3929 414.561 58.3997 414.558 58.4048 414.553C58.4099 414.548 58.4127 414.541 58.4127 414.534V409.096ZM68.1211 409.095C68.1211 409.088 68.1184 409.082 68.1135 409.077C68.1087 409.072 68.1021 409.069 68.0953 409.069H59.318C59.3111 409.069 59.3046 409.072 59.2997 409.077C59.2949 409.082 59.2922 409.088 59.2922 409.095V414.535C59.2922 414.542 59.2949 414.548 59.2997 414.553C59.3046 414.558 59.3111 414.561 59.318 414.561H68.0953C68.1021 414.561 68.1087 414.558 68.1135 414.553C68.1184 414.548 68.1211 414.542 68.1211 414.535V409.095ZM48.709 415.466C48.709 415.459 48.7063 415.453 48.7016 415.448C48.6969 415.443 48.6905 415.441 48.6838 415.441H39.9041C39.8974 415.441 39.891 415.443 39.8863 415.448C39.8816 415.453 39.8789 415.459 39.8789 415.466V420.906C39.8789 420.912 39.8816 420.919 39.8863 420.923C39.891 420.928 39.8974 420.931 39.9041 420.931H48.6838C48.6905 420.931 48.6969 420.928 48.7016 420.923C48.7063 420.919 48.709 420.912 48.709 420.906V415.466ZM58.4127 415.465C58.4127 415.462 58.4121 415.459 58.4108 415.456C58.4096 415.453 58.4078 415.45 58.4055 415.448C58.4032 415.446 58.4005 415.444 58.3975 415.443C58.3945 415.441 58.3913 415.441 58.3881 415.441H49.6119C49.6087 415.441 49.6055 415.441 49.6025 415.443C49.5995 415.444 49.5968 415.446 49.5945 415.448C49.5922 415.45 49.5904 415.453 49.5892 415.456C49.5879 415.459 49.5873 415.462 49.5873 415.465V420.906C49.5873 420.909 49.5879 420.913 49.5892 420.916C49.5904 420.919 49.5922 420.921 49.5945 420.924C49.5968 420.926 49.5995 420.928 49.6025 420.929C49.6055 420.93 49.6087 420.931 49.6119 420.931H58.3881C58.3913 420.931 58.3945 420.93 58.3975 420.929C58.4005 420.928 58.4032 420.926 58.4055 420.924C58.4078 420.921 58.4096 420.919 58.4108 420.916C58.4121 420.913 58.4127 420.909 58.4127 420.906V415.465ZM68.1211 415.464C68.1211 415.461 68.1205 415.458 68.1193 415.455C68.1181 415.452 68.1164 415.45 68.1142 415.447C68.1121 415.445 68.1095 415.444 68.1066 415.442C68.1038 415.441 68.1007 415.441 68.0977 415.441H59.3156C59.3125 415.441 59.3095 415.441 59.3067 415.442C59.3038 415.444 59.3012 415.445 59.2991 415.447C59.2969 415.45 59.2951 415.452 59.294 415.455C59.2928 415.458 59.2922 415.461 59.2922 415.464V420.907C59.2922 420.911 59.2928 420.914 59.294 420.916C59.2951 420.919 59.2969 420.922 59.2991 420.924C59.3012 420.926 59.3038 420.928 59.3067 420.929C59.3095 420.93 59.3125 420.931 59.3156 420.931H68.0977C68.1039 420.931 68.1098 420.928 68.1142 420.924C68.1186 420.92 68.1211 420.914 68.1211 420.907V415.464ZM39.9498 426.087C40.1754 426.809 40.8158 427.301 41.5816 427.301C43.9109 427.302 46.2803 427.302 48.6896 427.302C48.6946 427.302 48.6994 427.3 48.7029 427.296C48.7064 427.292 48.7084 427.288 48.7084 427.282V421.838C48.7084 421.831 48.7054 421.824 48.7 421.818C48.6946 421.813 48.6873 421.81 48.6797 421.81H39.8959C39.883 421.81 39.8768 421.816 39.8771 421.829C39.8842 422.989 39.8826 424.087 39.8725 425.121C39.8682 425.587 39.8939 425.909 39.9498 426.087ZM66.9252 427.227C67.6523 426.984 68.134 426.338 68.1205 425.563C68.1205 425.548 68.1209 424.303 68.1217 421.827C68.1217 421.823 68.1198 421.818 68.1165 421.815C68.1132 421.812 68.1088 421.81 68.1041 421.81H59.3203C59.3012 421.81 59.2916 421.819 59.2916 421.838V427.264C59.2916 427.29 59.3043 427.302 59.3297 427.302C61.5266 427.302 63.7174 427.302 65.9021 427.303C66.4322 427.303 66.7732 427.278 66.9252 427.227Z" fill="#07A157"/>
<path d="M51.3638 304H66.1352C66.8692 304.118 67.3171 304.531 67.4788 305.241C67.5011 305.339 67.4923 305.45 67.4929 305.553C67.5034 312.659 67.5052 319.969 67.4981 327.481C67.4976 328.188 67.0224 328.805 66.3474 328.96C66.197 328.994 65.8817 329.009 65.4017 329.005C64.6727 328.998 63.9847 328.998 63.3374 329.005C63.3186 329.005 63.3046 329.013 63.2952 329.029C63.062 329.434 62.7427 329.608 62.2815 329.752C57.7948 331.151 53.3397 332.543 48.9163 333.926C48.8044 333.961 48.6919 333.977 48.5782 334H48.3169C47.6888 333.903 47.2511 333.533 47.0665 332.943C44.8837 325.968 42.7208 319.046 40.5778 312.18C40.3798 311.545 40.5919 310.863 41.1632 310.501C41.2745 310.43 41.4407 310.361 41.6618 310.292C44.4767 309.413 47.2489 308.546 49.9786 307.69C49.9946 307.685 50.0024 307.674 50.002 307.657C49.9981 306.881 49.9991 306.16 50.005 305.494C50.012 304.677 50.581 304.124 51.3638 304ZM66.4985 305.504C66.4985 305.37 66.4453 305.242 66.3506 305.147C66.2559 305.052 66.1274 304.999 65.9935 304.999H51.5044C51.3704 304.999 51.242 305.052 51.1472 305.147C51.0525 305.242 50.9993 305.37 50.9993 305.504V327.493C50.9993 327.627 51.0525 327.756 51.1472 327.85C51.242 327.945 51.3704 327.998 51.5044 327.998H65.9935C66.1274 327.998 66.2559 327.945 66.3506 327.85C66.4453 327.756 66.4985 327.627 66.4985 327.493V305.504ZM51.539 329.001C50.8686 329.001 50.319 328.62 50.0817 327.993C50.0259 327.846 49.9979 327.549 49.9979 327.102C49.9999 321.044 50.0013 314.932 50.002 308.767C50.002 308.743 49.9907 308.735 49.9681 308.743C47.2806 309.583 44.561 310.434 41.8095 311.294C41.5604 311.372 41.4509 311.624 41.5259 311.864C43.7438 318.963 45.914 325.906 48.0362 332.694C48.0825 332.842 48.219 332.96 48.372 332.987C48.4591 333.003 48.5829 332.986 48.7435 332.935C52.9142 331.63 57.0784 330.328 61.2362 329.029C61.296 329.01 61.2944 329.001 61.2315 329.001C57.9265 329.002 54.6956 329.002 51.539 329.001Z" fill="#A0A8B1"/>
<path d="M53.0004 307.04C53.0028 307.596 53.0024 308.075 52.9993 308.476C52.9934 309.172 51.9967 309.158 52.0002 308.481C52.003 307.891 52.0016 307.266 51.9961 306.605C51.9926 306.227 52.1737 305.995 52.5903 305.997C53.1786 306.002 53.7877 306.002 54.4178 305.997C54.5542 305.996 54.6657 306.021 54.7524 306.072C55.0137 306.227 55.0799 306.57 54.8877 306.811C54.7688 306.961 54.6124 307.001 54.429 307.001C53.9918 307.001 53.5286 307.001 53.0391 307.001C53.0129 307.001 53.0001 307.014 53.0004 307.04Z" fill="#A0A8B1"/>
<path d="M43.91 312.736C43.9061 312.737 43.9029 312.74 43.9011 312.744C43.8992 312.747 43.8988 312.752 43.9 312.756C44.066 313.283 44.2328 313.818 44.4004 314.359C44.602 315.01 43.6469 315.314 43.4336 314.622C43.225 313.946 43.0146 313.273 42.8025 312.603C42.7018 312.286 42.8436 312.016 43.1611 311.918C43.9537 311.671 44.6525 311.452 45.2576 311.262C45.9021 311.059 46.2086 312.017 45.526 312.228C44.935 312.41 44.3963 312.58 43.91 312.736Z" fill="#A0A8B1"/>
<rect x="-3" y="437" width="45" height="6" rx="3" transform="rotate(-90 -3 437)" fill="#07A157"/>
<line x1="100.5" y1="2.18557e-08" x2="100.5" y2="105" stroke="#373737"/>
<line x1="76" y1="105.5" x2="24" y2="105.5" stroke="#0D0D0D"/>
<line x1="76" y1="331.5" x2="24" y2="331.5" stroke="#0D0D0D"/>
<g clip-path="url(#clip1_60_367)">
<path d="M54 208C45.7294 208 39 214.729 39 223C39 231.271 45.7294 238 54 238C62.2706 238 69 231.271 69 223C69 214.729 62.2706 208 54 208ZM54.9525 212.873L58.8094 210.799C60.945 211.645 62.8088 213.031 64.2263 214.793L63.3075 219.034L60.3656 220.476L54.9525 216.533V212.873ZM49.2225 210.788L53.0794 212.869V216.533L47.67 220.476L44.7131 219.032L43.7944 214.765C45.2156 213.006 47.0831 211.628 49.2225 210.788ZM43.1813 230.414C41.9569 228.633 41.16 226.538 40.9406 224.275L44.115 220.827L47.01 222.243L49.1906 228.436L47.3475 230.644L43.1813 230.414ZM57.3431 235.677C56.2725 235.96 55.1569 236.125 54 236.125C52.6012 236.125 51.255 235.9 49.9894 235.493L48.81 231.822L50.6906 229.562H57.3169L59.1637 231.749L57.3431 235.677ZM60.6263 230.581L58.8131 228.434L61.0238 222.243L63.9056 220.831L67.0612 224.277C66.8719 226.229 66.2437 228.049 65.2894 229.66L60.6263 230.581Z" fill="#A0A8B1"/>
</g>
<path d="M61.5 137V124.5" stroke="#A0A8B1" stroke-width="2" stroke-linecap="round" stroke-linejoin="round"/>
<path d="M54 137V117" stroke="#A0A8B1" stroke-width="2" stroke-linecap="round" stroke-linejoin="round"/>
<path d="M46.5 137V129.5" stroke="#A0A8B1" stroke-width="2" stroke-linecap="round" stroke-linejoin="round"/>
<g clip-path="url(#clip2_60_367)">
<path d="M70.4567 1010H29.5433C28.6036 1010 27.7023 1010.37 27.0378 1011.04C26.3733 1011.7 26 1012.6 26 1013.54V1054.46C26 1055.4 26.3733 1056.3 27.0378 1056.96C27.7023 1057.63 28.6036 1058 29.5433 1058H70.4567C71.3964 1058 72.2977 1057.63 72.9622 1056.96C73.6267 1056.3 74 1055.4 74 1054.46V1013.54C74 1012.6 73.6267 1011.7 72.9622 1011.04C72.2977 1010.37 71.3964 1010 70.4567 1010ZM40.3067 1050.89H33.09V1027.97H40.3067V1050.89ZM36.6933 1024.79C35.8747 1024.79 35.0758 1024.54 34.3975 1024.08C33.7191 1023.62 33.1917 1022.97 32.8818 1022.22C32.5718 1021.46 32.4933 1020.63 32.6561 1019.82C32.8188 1019.02 33.2156 1018.28 33.7963 1017.71C34.377 1017.13 35.1156 1016.74 35.9189 1016.58C36.7222 1016.42 37.5542 1016.51 38.3099 1016.82C39.0656 1017.14 39.7111 1017.67 40.1649 1018.35C40.6188 1019.03 40.8606 1019.83 40.86 1020.65C40.8677 1021.2 40.765 1021.74 40.558 1022.25C40.351 1022.76 40.044 1023.22 39.6551 1023.6C39.2663 1023.99 38.8037 1024.29 38.2948 1024.5C37.786 1024.7 37.2413 1024.8 36.6933 1024.79ZM66.9067 1050.91H59.6933V1038.39C59.6933 1034.69 58.1233 1033.55 56.0967 1033.55C53.9567 1033.55 51.8567 1035.17 51.8567 1038.48V1050.91H44.64V1027.98H51.58V1031.16H51.6733C52.37 1029.75 54.81 1027.34 58.5333 1027.34C62.56 1027.34 66.91 1029.73 66.91 1036.73L66.9067 1050.91Z" fill="#929393"/>
</g>
<g clip-path="url(#clip3_60_367)">
<path fill-rule="evenodd" clip-rule="evenodd" d="M50.0199 919C36.7375 919 26 929.817 26 943.198C26 953.895 32.8799 962.95 42.4241 966.154C43.6174 966.395 44.0545 965.634 44.0545 964.993C44.0545 964.432 44.0151 962.509 44.0151 960.505C37.3334 961.948 35.942 957.621 35.942 957.621C34.8682 954.816 33.2772 954.096 33.2772 954.096C31.0902 952.613 33.4365 952.613 33.4365 952.613C35.8623 952.774 37.1353 955.097 37.1353 955.097C39.2824 958.783 42.7422 957.741 44.1341 957.1C44.3328 955.538 44.9695 954.456 45.6455 953.855C40.3163 953.294 34.7094 951.211 34.7094 941.916C34.7094 939.272 35.6632 937.109 37.1746 935.426C36.9361 934.825 36.1008 932.341 37.4135 929.016C37.4135 929.016 39.4417 928.375 44.0146 931.5C45.9725 930.97 47.9916 930.7 50.0199 930.698C52.048 930.698 54.1154 930.979 56.0246 931.5C60.5981 928.375 62.6262 929.016 62.6262 929.016C63.9389 932.341 63.1031 934.825 62.8646 935.426C64.4158 937.109 65.3303 939.272 65.3303 941.916C65.3303 951.211 59.7234 953.254 54.3544 953.855C55.2296 954.616 55.9848 956.058 55.9848 958.342C55.9848 961.587 55.9454 964.191 55.9454 964.992C55.9454 965.634 56.383 966.395 57.5758 966.155C67.12 962.949 73.9999 953.895 73.9999 943.198C74.0392 929.817 63.2624 919 50.0199 919Z" fill="#929393"/>
</g>
<path d="M141.496 62V40.76H133.144V36.8H154.528V40.76H146.176V62H141.496ZM168.433 62V58.112L168.181 57.284V50.48C168.181 49.16 167.785 48.14 166.993 47.42C166.201 46.676 165.001 46.304 163.393 46.304C162.313 46.304 161.245 46.472 160.189 46.808C159.157 47.144 158.281 47.612 157.561 48.212L155.797 44.936C156.829 44.144 158.053 43.556 159.469 43.172C160.909 42.764 162.397 42.56 163.933 42.56C166.717 42.56 168.865 43.232 170.377 44.576C171.913 45.896 172.681 47.948 172.681 50.732V62H168.433ZM162.385 62.252C160.945 62.252 159.685 62.012 158.605 61.532C157.525 61.028 156.685 60.344 156.085 59.48C155.509 58.592 155.221 57.596 155.221 56.492C155.221 55.412 155.473 54.44 155.977 53.576C156.505 52.712 157.357 52.028 158.533 51.524C159.709 51.02 161.269 50.768 163.213 50.768H168.793V53.756H163.537C162.001 53.756 160.969 54.008 160.441 54.512C159.913 54.992 159.649 55.592 159.649 56.312C159.649 57.128 159.973 57.776 160.621 58.256C161.269 58.736 162.169 58.976 163.321 58.976C164.425 58.976 165.409 58.724 166.273 58.22C167.161 57.716 167.797 56.972 168.181 55.988L168.937 58.688C168.505 59.816 167.725 60.692 166.597 61.316C165.493 61.94 164.089 62.252 162.385 62.252ZM189.112 62.252C187.48 62.252 186.028 61.892 184.756 61.172C183.484 60.452 182.476 59.372 181.732 57.932C181.012 56.468 180.652 54.62 180.652 52.388C180.652 50.132 181.024 48.284 181.768 46.844C182.536 45.404 183.556 44.336 184.828 43.64C186.124 42.92 187.552 42.56 189.112 42.56C191.008 42.56 192.676 42.968 194.116 43.784C195.58 44.6 196.732 45.74 197.572 47.204C198.436 48.668 198.868 50.396 198.868 52.388C198.868 54.38 198.436 56.108 197.572 57.572C196.732 59.036 195.58 60.188 194.116 61.028C192.676 61.844 191.008 62.252 189.112 62.252ZM178.456 62V35.288H182.956V47.24L182.596 52.352L182.74 57.464V62H178.456ZM188.608 58.4C189.688 58.4 190.648 58.16 191.488 57.68C192.352 57.2 193.036 56.504 193.54 55.592C194.044 54.68 194.296 53.612 194.296 52.388C194.296 51.14 194.044 50.072 193.54 49.184C193.036 48.272 192.352 47.576 191.488 47.096C190.648 46.616 189.688 46.376 188.608 46.376C187.528 46.376 186.556 46.616 185.692 47.096C184.828 47.576 184.144 48.272 183.64 49.184C183.136 50.072 182.884 51.14 182.884 52.388C182.884 53.612 183.136 54.68 183.64 55.592C184.144 56.504 184.828 57.2 185.692 57.68C186.556 58.16 187.528 58.4 188.608 58.4ZM212.172 62.252C210.036 62.252 208.164 61.832 206.556 60.992C204.972 60.128 203.736 58.952 202.848 57.464C201.984 55.976 201.552 54.284 201.552 52.388C201.552 50.468 201.972 48.776 202.812 47.312C203.676 45.824 204.852 44.66 206.34 43.82C207.852 42.98 209.568 42.56 211.488 42.56C213.36 42.56 215.028 42.968 216.492 43.784C217.956 44.6 219.108 45.752 219.948 47.24C220.788 48.728 221.208 50.48 221.208 52.496C221.208 52.688 221.196 52.904 221.172 53.144C221.172 53.384 221.16 53.612 221.136 53.828H205.116V50.84H218.76L216.996 51.776C217.02 50.672 216.792 49.7 216.312 48.86C215.832 48.02 215.172 47.36 214.332 46.88C213.516 46.4 212.568 46.16 211.488 46.16C210.384 46.16 209.412 46.4 208.572 46.88C207.756 47.36 207.108 48.032 206.628 48.896C206.172 49.736 205.944 50.732 205.944 51.884V52.604C205.944 53.756 206.208 54.776 206.736 55.664C207.264 56.552 208.008 57.236 208.968 57.716C209.928 58.196 211.032 58.436 212.28 58.436C213.36 58.436 214.332 58.268 215.196 57.932C216.06 57.596 216.828 57.068 217.5 56.348L219.912 59.12C219.048 60.128 217.956 60.908 216.636 61.46C215.34 61.988 213.852 62.252 212.172 62.252ZM225.53 62V35.288H230.03V62H225.53ZM247.78 62V58.112L247.528 57.284V50.48C247.528 49.16 247.132 48.14 246.34 47.42C245.548 46.676 244.348 46.304 242.74 46.304C241.66 46.304 240.592 46.472 239.536 46.808C238.504 47.144 237.628 47.612 236.908 48.212L235.144 44.936C236.176 44.144 237.4 43.556 238.816 43.172C240.256 42.764 241.744 42.56 243.28 42.56C246.064 42.56 248.212 43.232 249.724 44.576C251.26 45.896 252.028 47.948 252.028 50.732V62H247.78ZM241.732 62.252C240.292 62.252 239.032 62.012 237.952 61.532C236.872 61.028 236.032 60.344 235.432 59.48C234.856 58.592 234.568 57.596 234.568 56.492C234.568 55.412 234.82 54.44 235.324 53.576C235.852 52.712 236.704 52.028 237.88 51.524C239.056 51.02 240.616 50.768 242.56 50.768H248.14V53.756H242.884C241.348 53.756 240.316 54.008 239.788 54.512C239.26 54.992 238.996 55.592 238.996 56.312C238.996 57.128 239.32 57.776 239.968 58.256C240.616 58.736 241.516 58.976 242.668 58.976C243.772 58.976 244.756 58.724 245.62 58.22C246.508 57.716 247.144 56.972 247.528 55.988L248.284 58.688C247.852 59.816 247.072 60.692 245.944 61.316C244.84 61.94 243.436 62.252 241.732 62.252ZM272.217 68.984C270.801 66.8 269.709 64.28 268.941 61.424C268.197 58.544 267.825 55.448 267.825 52.136C267.825 48.824 268.197 45.728 268.941 42.848C269.709 39.944 270.801 37.424 272.217 35.288H276.501C275.037 37.928 273.957 40.628 273.261 43.388C272.589 46.124 272.253 49.04 272.253 52.136C272.253 55.232 272.589 58.16 273.261 60.92C273.957 63.656 275.037 66.344 276.501 68.984H272.217ZM278.541 62V58.868L288.549 49.364C289.389 48.572 290.013 47.876 290.421 47.276C290.829 46.676 291.093 46.124 291.213 45.62C291.357 45.092 291.429 44.6 291.429 44.144C291.429 42.992 291.033 42.104 290.241 41.48C289.449 40.832 288.285 40.508 286.749 40.508C285.525 40.508 284.409 40.724 283.401 41.156C282.417 41.588 281.565 42.248 280.845 43.136L277.569 40.616C278.553 39.296 279.873 38.276 281.529 37.556C283.209 36.812 285.081 36.44 287.145 36.44C288.969 36.44 290.553 36.74 291.897 37.34C293.265 37.916 294.309 38.744 295.029 39.824C295.773 40.904 296.145 42.188 296.145 43.676C296.145 44.492 296.037 45.308 295.821 46.124C295.605 46.916 295.197 47.756 294.597 48.644C293.997 49.532 293.121 50.528 291.969 51.632L283.365 59.804L282.393 58.04H297.117V62H278.541ZM310.33 62.36C308.338 62.36 306.538 61.856 304.93 60.848C303.346 59.84 302.098 58.376 301.186 56.456C300.274 54.512 299.818 52.16 299.818 49.4C299.818 46.64 300.274 44.3 301.186 42.38C302.098 40.436 303.346 38.96 304.93 37.952C306.538 36.944 308.338 36.44 310.33 36.44C312.346 36.44 314.146 36.944 315.73 37.952C317.314 38.96 318.562 40.436 319.474 42.38C320.41 44.3 320.878 46.64 320.878 49.4C320.878 52.16 320.41 54.512 319.474 56.456C318.562 58.376 317.314 59.84 315.73 60.848C314.146 61.856 312.346 62.36 310.33 62.36ZM310.33 58.292C311.506 58.292 312.526 57.98 313.39 57.356C314.254 56.708 314.926 55.724 315.406 54.404C315.91 53.084 316.162 51.416 316.162 49.4C316.162 47.36 315.91 45.692 315.406 44.396C314.926 43.076 314.254 42.104 313.39 41.48C312.526 40.832 311.506 40.508 310.33 40.508C309.202 40.508 308.194 40.832 307.306 41.48C306.442 42.104 305.758 43.076 305.254 44.396C304.774 45.692 304.534 47.36 304.534 49.4C304.534 51.416 304.774 53.084 305.254 54.404C305.758 55.724 306.442 56.708 307.306 57.356C308.194 57.98 309.202 58.292 310.33 58.292ZM328.038 62V38.6L330.09 40.724H322.71V36.8H332.718V62H328.038ZM345.637 62.36C343.861 62.36 342.121 62.108 340.417 61.604C338.737 61.076 337.321 60.356 336.169 59.444L338.185 55.808C339.097 56.552 340.201 57.152 341.497 57.608C342.793 58.064 344.149 58.292 345.565 58.292C347.245 58.292 348.553 57.956 349.489 57.284C350.425 56.588 350.893 55.652 350.893 54.476C350.893 53.324 350.461 52.412 349.597 51.74C348.733 51.068 347.341 50.732 345.421 50.732H343.117V47.528L350.317 38.96L350.929 40.724H337.393V36.8H354.565V39.932L347.365 48.5L344.917 47.06H346.321C349.417 47.06 351.733 47.756 353.269 49.148C354.829 50.516 355.609 52.28 355.609 54.44C355.609 55.856 355.249 57.164 354.529 58.364C353.809 59.564 352.705 60.536 351.217 61.28C349.753 62 347.893 62.36 345.637 62.36ZM369.015 53.864V50.12H378.915V53.864H369.015ZM392.096 62V58.868L402.104 49.364C402.944 48.572 403.568 47.876 403.976 47.276C404.384 46.676 404.648 46.124 404.768 45.62C404.912 45.092 404.984 44.6 404.984 44.144C404.984 42.992 404.588 42.104 403.796 41.48C403.004 40.832 401.84 40.508 400.304 40.508C399.08 40.508 397.964 40.724 396.956 41.156C395.972 41.588 395.12 42.248 394.4 43.136L391.124 40.616C392.108 39.296 393.428 38.276 395.084 37.556C396.764 36.812 398.636 36.44 400.7 36.44C402.524 36.44 404.108 36.74 405.452 37.34C406.82 37.916 407.864 38.744 408.584 39.824C409.328 40.904 409.7 42.188 409.7 43.676C409.7 44.492 409.592 45.308 409.376 46.124C409.16 46.916 408.752 47.756 408.152 48.644C407.552 49.532 406.676 50.528 405.524 51.632L396.92 59.804L395.948 58.04H410.672V62H392.096ZM423.885 62.36C421.893 62.36 420.093 61.856 418.485 60.848C416.901 59.84 415.653 58.376 414.741 56.456C413.829 54.512 413.373 52.16 413.373 49.4C413.373 46.64 413.829 44.3 414.741 42.38C415.653 40.436 416.901 38.96 418.485 37.952C420.093 36.944 421.893 36.44 423.885 36.44C425.901 36.44 427.701 36.944 429.285 37.952C430.869 38.96 432.117 40.436 433.029 42.38C433.965 44.3 434.433 46.64 434.433 49.4C434.433 52.16 433.965 54.512 433.029 56.456C432.117 58.376 430.869 59.84 429.285 60.848C427.701 61.856 425.901 62.36 423.885 62.36ZM423.885 58.292C425.061 58.292 426.081 57.98 426.945 57.356C427.809 56.708 428.481 55.724 428.961 54.404C429.465 53.084 429.717 51.416 429.717 49.4C429.717 47.36 429.465 45.692 428.961 44.396C428.481 43.076 427.809 42.104 426.945 41.48C426.081 40.832 425.061 40.508 423.885 40.508C422.757 40.508 421.749 40.832 420.861 41.48C419.997 42.104 419.313 43.076 418.809 44.396C418.329 45.692 418.089 47.36 418.089 49.4C418.089 51.416 418.329 53.084 418.809 54.404C419.313 55.724 419.997 56.708 420.861 57.356C421.749 57.98 422.757 58.292 423.885 58.292ZM437.237 62V58.868L447.245 49.364C448.085 48.572 448.709 47.876 449.117 47.276C449.525 46.676 449.789 46.124 449.909 45.62C450.053 45.092 450.125 44.6 450.125 44.144C450.125 42.992 449.729 42.104 448.937 41.48C448.145 40.832 446.981 40.508 445.445 40.508C444.221 40.508 443.105 40.724 442.097 41.156C441.113 41.588 440.261 42.248 439.541 43.136L436.265 40.616C437.249 39.296 438.569 38.276 440.225 37.556C441.905 36.812 443.777 36.44 445.841 36.44C447.665 36.44 449.249 36.74 450.593 37.34C451.961 37.916 453.005 38.744 453.725 39.824C454.469 40.904 454.841 42.188 454.841 43.676C454.841 44.492 454.733 45.308 454.517 46.124C454.301 46.916 453.893 47.756 453.293 48.644C452.693 49.532 451.817 50.528 450.665 51.632L442.061 59.804L441.089 58.04H455.813V62H437.237ZM458.19 62V58.868L468.198 49.364C469.038 48.572 469.662 47.876 470.07 47.276C470.478 46.676 470.742 46.124 470.862 45.62C471.006 45.092 471.078 44.6 471.078 44.144C471.078 42.992 470.682 42.104 469.89 41.48C469.098 40.832 467.934 40.508 466.398 40.508C465.174 40.508 464.058 40.724 463.05 41.156C462.066 41.588 461.214 42.248 460.494 43.136L457.218 40.616C458.202 39.296 459.522 38.276 461.178 37.556C462.858 36.812 464.73 36.44 466.794 36.44C468.618 36.44 470.202 36.74 471.546 37.34C472.914 37.916 473.958 38.744 474.678 39.824C475.422 40.904 475.794 42.188 475.794 43.676C475.794 44.492 475.686 45.308 475.47 46.124C475.254 46.916 474.846 47.756 474.246 48.644C473.646 49.532 472.77 50.528 471.618 51.632L463.014 59.804L462.042 58.04H476.766V62H458.19ZM482.959 68.984H478.675C480.163 66.344 481.243 63.656 481.915 60.92C482.611 58.16 482.959 55.232 482.959 52.136C482.959 49.04 482.611 46.124 481.915 43.388C481.243 40.628 480.163 37.928 478.675 35.288H482.959C484.399 37.424 485.491 39.944 486.235 42.848C486.979 45.728 487.351 48.824 487.351 52.136C487.351 55.448 486.979 58.544 486.235 61.424C485.491 64.28 484.399 66.8 482.959 68.984Z" fill="#909090"/>
<rect x="134.064" y="86.888" width="864.084" height="970.691" rx="12" fill="url(#paint0_linear_60_367)"/>
<path d="M163.032 118.192C161.752 118.192 160.568 117.984 159.48 117.568C158.408 117.136 157.472 116.536 156.672 115.768C155.888 114.984 155.272 114.072 154.824 113.032C154.376 111.992 154.152 110.848 154.152 109.6C154.152 108.352 154.376 107.208 154.824 106.168C155.272 105.128 155.896 104.224 156.696 103.456C157.496 102.672 158.432 102.072 159.504 101.656C160.592 101.224 161.776 101.008 163.056 101.008C164.352 101.008 165.544 101.232 166.632 101.68C167.736 102.112 168.672 102.76 169.44 103.624L167.88 105.136C167.24 104.464 166.52 103.968 165.72 103.648C164.92 103.312 164.064 103.144 163.152 103.144C162.208 103.144 161.328 103.304 160.512 103.624C159.712 103.944 159.016 104.392 158.424 104.968C157.832 105.544 157.368 106.232 157.032 107.032C156.712 107.816 156.552 108.672 156.552 109.6C156.552 110.528 156.712 111.392 157.032 112.192C157.368 112.976 157.832 113.656 158.424 114.232C159.016 114.808 159.712 115.256 160.512 115.576C161.328 115.896 162.208 116.056 163.152 116.056C164.064 116.056 164.92 115.896 165.72 115.576C166.52 115.24 167.24 114.728 167.88 114.04L169.44 115.552C168.672 116.416 167.736 117.072 166.632 117.52C165.544 117.968 164.344 118.192 163.032 118.192ZM172.528 118V100.192H174.832V118H172.528ZM187.127 118V115.312L187.007 114.808V110.224C187.007 109.248 186.719 108.496 186.143 107.968C185.583 107.424 184.735 107.152 183.599 107.152C182.847 107.152 182.111 107.28 181.391 107.536C180.671 107.776 180.063 108.104 179.567 108.52L178.607 106.792C179.263 106.264 180.047 105.864 180.959 105.592C181.887 105.304 182.855 105.16 183.863 105.16C185.607 105.16 186.951 105.584 187.895 106.432C188.839 107.28 189.311 108.576 189.311 110.32V118H187.127ZM182.951 118.144C182.007 118.144 181.175 117.984 180.455 117.664C179.751 117.344 179.207 116.904 178.823 116.344C178.439 115.768 178.247 115.12 178.247 114.4C178.247 113.712 178.407 113.088 178.727 112.528C179.063 111.968 179.599 111.52 180.335 111.184C181.087 110.848 182.095 110.68 183.359 110.68H187.391V112.336H183.455C182.303 112.336 181.527 112.528 181.127 112.912C180.727 113.296 180.527 113.76 180.527 114.304C180.527 114.928 180.775 115.432 181.271 115.816C181.767 116.184 182.455 116.368 183.335 116.368C184.199 116.368 184.951 116.176 185.591 115.792C186.247 115.408 186.719 114.848 187.007 114.112L187.463 115.696C187.159 116.448 186.623 117.048 185.855 117.496C185.087 117.928 184.119 118.144 182.951 118.144ZM197.223 118.144C196.167 118.144 195.159 118 194.199 117.712C193.255 117.424 192.511 117.072 191.967 116.656L192.927 114.832C193.471 115.2 194.143 115.512 194.943 115.768C195.743 116.024 196.559 116.152 197.391 116.152C198.463 116.152 199.231 116 199.695 115.696C200.175 115.392 200.415 114.968 200.415 114.424C200.415 114.024 200.271 113.712 199.983 113.488C199.695 113.264 199.311 113.096 198.831 112.984C198.367 112.872 197.847 112.776 197.271 112.696C196.695 112.6 196.119 112.488 195.543 112.36C194.967 112.216 194.439 112.024 193.959 111.784C193.479 111.528 193.095 111.184 192.807 110.752C192.519 110.304 192.375 109.712 192.375 108.976C192.375 108.208 192.591 107.536 193.023 106.96C193.455 106.384 194.063 105.944 194.847 105.64C195.647 105.32 196.591 105.16 197.679 105.16C198.511 105.16 199.351 105.264 200.199 105.472C201.063 105.664 201.767 105.944 202.311 106.312L201.327 108.136C200.751 107.752 200.151 107.488 199.527 107.344C198.903 107.2 198.279 107.128 197.655 107.128C196.647 107.128 195.895 107.296 195.399 107.632C194.903 107.952 194.655 108.368 194.655 108.88C194.655 109.312 194.799 109.648 195.087 109.888C195.391 110.112 195.775 110.288 196.239 110.416C196.719 110.544 197.247 110.656 197.823 110.752C198.399 110.832 198.975 110.944 199.551 111.088C200.127 111.216 200.647 111.4 201.111 111.64C201.591 111.88 201.975 112.216 202.263 112.648C202.567 113.08 202.719 113.656 202.719 114.376C202.719 115.144 202.495 115.808 202.047 116.368C201.599 116.928 200.967 117.368 200.151 117.688C199.335 117.992 198.359 118.144 197.223 118.144ZM209.246 118.144C208.19 118.144 207.182 118 206.222 117.712C205.278 117.424 204.534 117.072 203.99 116.656L204.95 114.832C205.494 115.2 206.166 115.512 206.966 115.768C207.766 116.024 208.582 116.152 209.414 116.152C210.486 116.152 211.254 116 211.718 115.696C212.198 115.392 212.438 114.968 212.438 114.424C212.438 114.024 212.294 113.712 212.006 113.488C211.718 113.264 211.334 113.096 210.854 112.984C210.39 112.872 209.87 112.776 209.294 112.696C208.718 112.6 208.142 112.488 207.566 112.36C206.99 112.216 206.462 112.024 205.982 111.784C205.502 111.528 205.118 111.184 204.83 110.752C204.542 110.304 204.398 109.712 204.398 108.976C204.398 108.208 204.614 107.536 205.046 106.96C205.478 106.384 206.086 105.944 206.87 105.64C207.67 105.32 208.614 105.16 209.702 105.16C210.534 105.16 211.374 105.264 212.222 105.472C213.086 105.664 213.79 105.944 214.334 106.312L213.35 108.136C212.774 107.752 212.174 107.488 211.55 107.344C210.926 107.2 210.302 107.128 209.678 107.128C208.67 107.128 207.918 107.296 207.422 107.632C206.926 107.952 206.678 108.368 206.678 108.88C206.678 109.312 206.822 109.648 207.11 109.888C207.414 110.112 207.798 110.288 208.262 110.416C208.742 110.544 209.27 110.656 209.846 110.752C210.422 110.832 210.998 110.944 211.574 111.088C212.15 111.216 212.67 111.4 213.134 111.64C213.614 111.88 213.998 112.216 214.286 112.648C214.59 113.08 214.742 113.656 214.742 114.376C214.742 115.144 214.518 115.808 214.07 116.368C213.622 116.928 212.99 117.368 212.174 117.688C211.358 117.992 210.382 118.144 209.246 118.144ZM217.622 118V105.28H219.926V118H217.622ZM218.774 102.832C218.326 102.832 217.95 102.688 217.646 102.4C217.358 102.112 217.214 101.76 217.214 101.344C217.214 100.912 217.358 100.552 217.646 100.264C217.95 99.976 218.326 99.832 218.774 99.832C219.222 99.832 219.59 99.976 219.878 100.264C220.182 100.536 220.334 100.88 220.334 101.296C220.334 101.728 220.19 102.096 219.902 102.4C219.614 102.688 219.238 102.832 218.774 102.832ZM224.661 118V104.152C224.661 102.904 225.021 101.912 225.741 101.176C226.477 100.424 227.517 100.048 228.861 100.048C229.357 100.048 229.829 100.112 230.277 100.24C230.741 100.352 231.133 100.536 231.453 100.792L230.757 102.544C230.517 102.352 230.245 102.208 229.941 102.112C229.637 102 229.317 101.944 228.981 101.944C228.309 101.944 227.797 102.136 227.445 102.52C227.093 102.888 226.917 103.44 226.917 104.176V105.88L226.965 106.936V118H224.661ZM222.501 107.176V105.28H230.613V107.176H222.501ZM232.797 118V105.28H235.101V118H232.797ZM233.949 102.832C233.501 102.832 233.125 102.688 232.821 102.4C232.533 102.112 232.389 101.76 232.389 101.344C232.389 100.912 232.533 100.552 232.821 100.264C233.125 99.976 233.501 99.832 233.949 99.832C234.397 99.832 234.765 99.976 235.053 100.264C235.357 100.536 235.509 100.88 235.509 101.296C235.509 101.728 235.365 102.096 235.077 102.4C234.789 102.688 234.413 102.832 233.949 102.832ZM245.033 118.144C243.737 118.144 242.577 117.864 241.553 117.304C240.545 116.744 239.753 115.976 239.177 115C238.601 114.024 238.313 112.904 238.313 111.64C238.313 110.376 238.601 109.256 239.177 108.28C239.753 107.304 240.545 106.544 241.553 106C242.577 105.44 243.737 105.16 245.033 105.16C246.185 105.16 247.209 105.392 248.105 105.856C249.017 106.304 249.721 106.976 250.217 107.872L248.465 109C248.049 108.376 247.537 107.92 246.929 107.632C246.337 107.328 245.697 107.176 245.009 107.176C244.177 107.176 243.433 107.36 242.777 107.728C242.121 108.096 241.601 108.616 241.217 109.288C240.833 109.944 240.641 110.728 240.641 111.64C240.641 112.552 240.833 113.344 241.217 114.016C241.601 114.688 242.121 115.208 242.777 115.576C243.433 115.944 244.177 116.128 245.009 116.128C245.697 116.128 246.337 115.984 246.929 115.696C247.537 115.392 248.049 114.928 248.465 114.304L250.217 115.408C249.721 116.288 249.017 116.968 248.105 117.448C247.209 117.912 246.185 118.144 245.033 118.144ZM261.096 118V115.312L260.976 114.808V110.224C260.976 109.248 260.688 108.496 260.112 107.968C259.552 107.424 258.704 107.152 257.568 107.152C256.816 107.152 256.08 107.28 255.36 107.536C254.64 107.776 254.032 108.104 253.536 108.52L252.576 106.792C253.232 106.264 254.016 105.864 254.928 105.592C255.856 105.304 256.824 105.16 257.832 105.16C259.576 105.16 260.92 105.584 261.864 106.432C262.808 107.28 263.28 108.576 263.28 110.32V118H261.096ZM256.92 118.144C255.976 118.144 255.144 117.984 254.424 117.664C253.72 117.344 253.176 116.904 252.792 116.344C252.408 115.768 252.216 115.12 252.216 114.4C252.216 113.712 252.376 113.088 252.696 112.528C253.032 111.968 253.568 111.52 254.304 111.184C255.056 110.848 256.064 110.68 257.328 110.68H261.36V112.336H257.424C256.272 112.336 255.496 112.528 255.096 112.912C254.696 113.296 254.496 113.76 254.496 114.304C254.496 114.928 254.744 115.432 255.24 115.816C255.736 116.184 256.424 116.368 257.304 116.368C258.168 116.368 258.92 116.176 259.56 115.792C260.216 115.408 260.688 114.848 260.976 114.112L261.432 115.696C261.128 116.448 260.592 117.048 259.824 117.496C259.056 117.928 258.088 118.144 256.92 118.144ZM273.087 118.144C271.791 118.144 270.631 117.864 269.607 117.304C268.599 116.744 267.807 115.976 267.231 115C266.655 114.024 266.367 112.904 266.367 111.64C266.367 110.376 266.655 109.256 267.231 108.28C267.807 107.304 268.599 106.544 269.607 106C270.631 105.44 271.791 105.16 273.087 105.16C274.239 105.16 275.263 105.392 276.159 105.856C277.071 106.304 277.775 106.976 278.271 107.872L276.519 109C276.103 108.376 275.591 107.92 274.983 107.632C274.391 107.328 273.751 107.176 273.063 107.176C272.231 107.176 271.487 107.36 270.831 107.728C270.175 108.096 269.655 108.616 269.271 109.288C268.887 109.944 268.695 110.728 268.695 111.64C268.695 112.552 268.887 113.344 269.271 114.016C269.655 114.688 270.175 115.208 270.831 115.576C271.487 115.944 272.231 116.128 273.063 116.128C273.751 116.128 274.391 115.984 274.983 115.696C275.591 115.392 276.103 114.928 276.519 114.304L278.271 115.408C277.775 116.288 277.071 116.968 276.159 117.448C275.263 117.912 274.239 118.144 273.087 118.144ZM271.959 123.376C271.543 123.376 271.159 123.328 270.807 123.232C270.455 123.152 270.127 123.024 269.823 122.848L270.327 121.672C270.583 121.816 270.839 121.92 271.095 121.984C271.367 122.048 271.655 122.08 271.959 122.08C272.423 122.08 272.759 121.992 272.967 121.816C273.191 121.656 273.303 121.424 273.303 121.12C273.303 120.832 273.191 120.6 272.967 120.424C272.759 120.264 272.415 120.184 271.935 120.184H271.287L271.887 117.832H273.207L272.847 119.2C273.535 119.264 274.055 119.48 274.407 119.848C274.759 120.216 274.935 120.664 274.935 121.192C274.935 121.864 274.663 122.392 274.119 122.776C273.575 123.176 272.855 123.376 271.959 123.376ZM289.15 118V115.312L289.03 114.808V110.224C289.03 109.248 288.742 108.496 288.166 107.968C287.606 107.424 286.758 107.152 285.622 107.152C284.87 107.152 284.134 107.28 283.414 107.536C282.694 107.776 282.086 108.104 281.59 108.52L280.63 106.792C281.286 106.264 282.07 105.864 282.982 105.592C283.91 105.304 284.878 105.16 285.886 105.16C287.63 105.16 288.974 105.584 289.918 106.432C290.862 107.28 291.334 108.576 291.334 110.32V118H289.15ZM284.974 118.144C284.03 118.144 283.198 117.984 282.478 117.664C281.774 117.344 281.23 116.904 280.846 116.344C280.462 115.768 280.27 115.12 280.27 114.4C280.27 113.712 280.43 113.088 280.75 112.528C281.086 111.968 281.622 111.52 282.358 111.184C283.11 110.848 284.118 110.68 285.382 110.68H289.414V112.336H285.478C284.326 112.336 283.55 112.528 283.15 112.912C282.75 113.296 282.55 113.76 282.55 114.304C282.55 114.928 282.798 115.432 283.294 115.816C283.79 116.184 284.478 116.368 285.358 116.368C286.222 116.368 286.974 116.176 287.614 115.792C288.27 115.408 288.742 114.848 289.03 114.112L289.486 115.696C289.182 116.448 288.646 117.048 287.878 117.496C287.11 117.928 286.142 118.144 284.974 118.144ZM287.734 103.36C287.35 103.36 287.006 103.28 286.702 103.12C286.414 102.96 286.15 102.776 285.91 102.568C285.67 102.344 285.438 102.152 285.214 101.992C284.99 101.832 284.766 101.752 284.542 101.752C284.19 101.752 283.902 101.888 283.678 102.16C283.47 102.416 283.35 102.776 283.318 103.24H282.022C282.054 102.344 282.278 101.632 282.694 101.104C283.11 100.576 283.67 100.312 284.374 100.312C284.758 100.312 285.102 100.4 285.406 100.576C285.71 100.736 285.982 100.928 286.222 101.152C286.462 101.36 286.686 101.544 286.894 101.704C287.118 101.864 287.342 101.944 287.566 101.944C287.918 101.944 288.206 101.816 288.43 101.56C288.654 101.304 288.774 100.952 288.79 100.504H290.086C290.07 101.352 289.846 102.04 289.414 102.568C288.998 103.096 288.438 103.36 287.734 103.36ZM301.046 118.144C299.766 118.144 298.63 117.864 297.638 117.304C296.646 116.744 295.862 115.976 295.286 115C294.71 114.008 294.422 112.888 294.422 111.64C294.422 110.376 294.71 109.256 295.286 108.28C295.862 107.304 296.646 106.544 297.638 106C298.63 105.44 299.766 105.16 301.046 105.16C302.31 105.16 303.438 105.44 304.43 106C305.438 106.544 306.222 107.304 306.782 108.28C307.358 109.24 307.646 110.36 307.646 111.64C307.646 112.904 307.358 114.024 306.782 115C306.222 115.976 305.438 116.744 304.43 117.304C303.438 117.864 302.31 118.144 301.046 118.144ZM301.046 116.128C301.862 116.128 302.59 115.944 303.23 115.576C303.886 115.208 304.398 114.688 304.766 114.016C305.134 113.328 305.318 112.536 305.318 111.64C305.318 110.728 305.134 109.944 304.766 109.288C304.398 108.616 303.886 108.096 303.23 107.728C302.59 107.36 301.862 107.176 301.046 107.176C300.23 107.176 299.502 107.36 298.862 107.728C298.222 108.096 297.71 108.616 297.326 109.288C296.942 109.944 296.75 110.728 296.75 111.64C296.75 112.536 296.942 113.328 297.326 114.016C297.71 114.688 298.222 115.208 298.862 115.576C299.502 115.944 300.23 116.128 301.046 116.128Z" fill="#909090"/>
<rect x="1018.15" y="87.2108" width="864.084" height="475.023" rx="12" fill="url(#paint1_linear_60_367)"/>
<rect x="1018.15" y="582.233" width="422.042" height="475.345" rx="12" fill="url(#paint2_linear_60_367)"/>
<rect x="1460.19" y="582.233" width="422.042" height="475.345" rx="12" fill="url(#paint3_linear_60_367)"/>
<path d="M1034.52 118V101.2H1041.07C1042.54 101.2 1043.8 101.432 1044.84 101.896C1045.88 102.36 1046.68 103.032 1047.24 103.912C1047.8 104.792 1048.08 105.84 1048.08 107.056C1048.08 108.272 1047.8 109.32 1047.24 110.2C1046.68 111.064 1045.88 111.736 1044.84 112.216C1043.8 112.68 1042.54 112.912 1041.07 112.912H1035.84L1036.92 111.784V118H1034.52ZM1036.92 112.024L1035.84 110.824H1041C1042.54 110.824 1043.7 110.496 1044.48 109.84C1045.28 109.184 1045.68 108.256 1045.68 107.056C1045.68 105.856 1045.28 104.928 1044.48 104.272C1043.7 103.616 1042.54 103.288 1041 103.288H1035.84L1036.92 102.088V112.024ZM1059.05 118V115.312L1058.93 114.808V110.224C1058.93 109.248 1058.64 108.496 1058.06 107.968C1057.5 107.424 1056.66 107.152 1055.52 107.152C1054.77 107.152 1054.03 107.28 1053.31 107.536C1052.59 107.776 1051.98 108.104 1051.49 108.52L1050.53 106.792C1051.18 106.264 1051.97 105.864 1052.88 105.592C1053.81 105.304 1054.78 105.16 1055.78 105.16C1057.53 105.16 1058.87 105.584 1059.82 106.432C1060.76 107.28 1061.23 108.576 1061.23 110.32V118H1059.05ZM1054.87 118.144C1053.93 118.144 1053.1 117.984 1052.38 117.664C1051.67 117.344 1051.13 116.904 1050.74 116.344C1050.36 115.768 1050.17 115.12 1050.17 114.4C1050.17 113.712 1050.33 113.088 1050.65 112.528C1050.98 111.968 1051.52 111.52 1052.26 111.184C1053.01 110.848 1054.02 110.68 1055.28 110.68H1059.31V112.336H1055.38C1054.22 112.336 1053.45 112.528 1053.05 112.912C1052.65 113.296 1052.45 113.76 1052.45 114.304C1052.45 114.928 1052.7 115.432 1053.19 115.816C1053.69 116.184 1054.38 116.368 1055.26 116.368C1056.12 116.368 1056.87 116.176 1057.51 115.792C1058.17 115.408 1058.64 114.848 1058.93 114.112L1059.38 115.696C1059.08 116.448 1058.54 117.048 1057.78 117.496C1057.01 117.928 1056.04 118.144 1054.87 118.144ZM1065.5 118V105.28H1067.7V108.736L1067.49 107.872C1067.84 106.992 1068.43 106.32 1069.26 105.856C1070.1 105.392 1071.12 105.16 1072.34 105.16V107.392C1072.24 107.376 1072.14 107.368 1072.05 107.368C1071.97 107.368 1071.89 107.368 1071.81 107.368C1070.58 107.368 1069.6 107.736 1068.88 108.472C1068.16 109.208 1067.8 110.272 1067.8 111.664V118H1065.5ZM1080.06 118.144C1078.78 118.144 1077.79 117.8 1077.08 117.112C1076.38 116.424 1076.03 115.44 1076.03 114.16V102.496H1078.33V114.064C1078.33 114.752 1078.5 115.28 1078.84 115.648C1079.19 116.016 1079.68 116.2 1080.32 116.2C1081.04 116.2 1081.64 116 1082.12 115.6L1082.84 117.256C1082.49 117.56 1082.07 117.784 1081.57 117.928C1081.09 118.072 1080.59 118.144 1080.06 118.144ZM1073.87 107.176V105.28H1081.98V107.176H1073.87ZM1085.63 118V105.28H1087.93V118H1085.63ZM1086.78 102.832C1086.33 102.832 1085.96 102.688 1085.65 102.4C1085.37 102.112 1085.22 101.76 1085.22 101.344C1085.22 100.912 1085.37 100.552 1085.65 100.264C1085.96 99.976 1086.33 99.832 1086.78 99.832C1087.23 99.832 1087.6 99.976 1087.89 100.264C1088.19 100.536 1088.34 100.88 1088.34 101.296C1088.34 101.728 1088.2 102.096 1087.91 102.4C1087.62 102.688 1087.25 102.832 1086.78 102.832ZM1097.59 118.144C1096.36 118.144 1095.25 117.872 1094.28 117.328C1093.32 116.784 1092.56 116.024 1092 115.048C1091.44 114.072 1091.16 112.936 1091.16 111.64C1091.16 110.344 1091.44 109.216 1092 108.256C1092.56 107.28 1093.32 106.52 1094.28 105.976C1095.25 105.432 1096.36 105.16 1097.59 105.16C1098.66 105.16 1099.63 105.4 1100.49 105.88C1101.36 106.36 1102.04 107.08 1102.56 108.04C1103.08 109 1103.35 110.2 1103.35 111.64C1103.35 113.08 1103.09 114.28 1102.58 115.24C1102.08 116.2 1101.4 116.928 1100.54 117.424C1099.68 117.904 1098.69 118.144 1097.59 118.144ZM1097.78 116.128C1098.58 116.128 1099.3 115.944 1099.94 115.576C1100.6 115.208 1101.11 114.688 1101.48 114.016C1101.86 113.328 1102.05 112.536 1102.05 111.64C1102.05 110.728 1101.86 109.944 1101.48 109.288C1101.11 108.616 1100.6 108.096 1099.94 107.728C1099.3 107.36 1098.58 107.176 1097.78 107.176C1096.96 107.176 1096.24 107.36 1095.6 107.728C1094.96 108.096 1094.44 108.616 1094.06 109.288C1093.68 109.944 1093.48 110.728 1093.48 111.64C1093.48 112.536 1093.68 113.328 1094.06 114.016C1094.44 114.688 1094.96 115.208 1095.6 115.576C1096.24 115.944 1096.96 116.128 1097.78 116.128ZM1102.12 118V114.568L1102.27 111.616L1102.03 108.664V100.192H1104.33V118H1102.12ZM1116.59 118V115.312L1116.47 114.808V110.224C1116.47 109.248 1116.18 108.496 1115.6 107.968C1115.04 107.424 1114.2 107.152 1113.06 107.152C1112.31 107.152 1111.57 107.28 1110.85 107.536C1110.13 107.776 1109.52 108.104 1109.03 108.52L1108.07 106.792C1108.72 106.264 1109.51 105.864 1110.42 105.592C1111.35 105.304 1112.32 105.16 1113.32 105.16C1115.07 105.16 1116.41 105.584 1117.36 106.432C1118.3 107.28 1118.77 108.576 1118.77 110.32V118H1116.59ZM1112.41 118.144C1111.47 118.144 1110.64 117.984 1109.92 117.664C1109.21 117.344 1108.67 116.904 1108.28 116.344C1107.9 115.768 1107.71 115.12 1107.71 114.4C1107.71 113.712 1107.87 113.088 1108.19 112.528C1108.52 111.968 1109.06 111.52 1109.8 111.184C1110.55 110.848 1111.56 110.68 1112.82 110.68H1116.85V112.336H1112.92C1111.76 112.336 1110.99 112.528 1110.59 112.912C1110.19 113.296 1109.99 113.76 1109.99 114.304C1109.99 114.928 1110.24 115.432 1110.73 115.816C1111.23 116.184 1111.92 116.368 1112.8 116.368C1113.66 116.368 1114.41 116.176 1115.05 115.792C1115.71 115.408 1116.18 114.848 1116.47 114.112L1116.92 115.696C1116.62 116.448 1116.08 117.048 1115.32 117.496C1114.55 117.928 1113.58 118.144 1112.41 118.144ZM1126.68 118.144C1125.63 118.144 1124.62 118 1123.66 117.712C1122.72 117.424 1121.97 117.072 1121.43 116.656L1122.39 114.832C1122.93 115.2 1123.6 115.512 1124.4 115.768C1125.2 116.024 1126.02 116.152 1126.85 116.152C1127.92 116.152 1128.69 116 1129.16 115.696C1129.64 115.392 1129.88 114.968 1129.88 114.424C1129.88 114.024 1129.73 113.712 1129.44 113.488C1129.16 113.264 1128.77 113.096 1128.29 112.984C1127.83 112.872 1127.31 112.776 1126.73 112.696C1126.16 112.6 1125.58 112.488 1125 112.36C1124.43 112.216 1123.9 112.024 1123.42 111.784C1122.94 111.528 1122.56 111.184 1122.27 110.752C1121.98 110.304 1121.84 109.712 1121.84 108.976C1121.84 108.208 1122.05 107.536 1122.48 106.96C1122.92 106.384 1123.52 105.944 1124.31 105.64C1125.11 105.32 1126.05 105.16 1127.14 105.16C1127.97 105.16 1128.81 105.264 1129.66 105.472C1130.52 105.664 1131.23 105.944 1131.77 106.312L1130.79 108.136C1130.21 107.752 1129.61 107.488 1128.99 107.344C1128.36 107.2 1127.74 107.128 1127.12 107.128C1126.11 107.128 1125.36 107.296 1124.86 107.632C1124.36 107.952 1124.12 108.368 1124.12 108.88C1124.12 109.312 1124.26 109.648 1124.55 109.888C1124.85 110.112 1125.24 110.288 1125.7 110.416C1126.18 110.544 1126.71 110.656 1127.28 110.752C1127.86 110.832 1128.44 110.944 1129.01 111.088C1129.59 111.216 1130.11 111.4 1130.57 111.64C1131.05 111.88 1131.44 112.216 1131.72 112.648C1132.03 113.08 1132.18 113.656 1132.18 114.376C1132.18 115.144 1131.96 115.808 1131.51 116.368C1131.06 116.928 1130.43 117.368 1129.61 117.688C1128.8 117.992 1127.82 118.144 1126.68 118.144Z" fill="#909090"/>
<path d="M1031.98 613L1039.58 596.2H1041.96L1049.59 613H1047.07L1040.28 597.544H1041.24L1034.45 613H1031.98ZM1035.22 608.8L1035.86 606.88H1045.32L1046.02 608.8H1035.22ZM1051.76 613V600.28H1053.97V603.736L1053.75 602.872C1054.11 601.992 1054.7 601.32 1055.53 600.856C1056.36 600.392 1057.39 600.16 1058.6 600.16V602.392C1058.51 602.376 1058.41 602.368 1058.31 602.368C1058.23 602.368 1058.15 602.368 1058.07 602.368C1056.84 602.368 1055.87 602.736 1055.15 603.472C1054.43 604.208 1054.07 605.272 1054.07 606.664V613H1051.76ZM1066.33 613.144C1065.05 613.144 1064.05 612.8 1063.35 612.112C1062.65 611.424 1062.29 610.44 1062.29 609.16V597.496H1064.6V609.064C1064.6 609.752 1064.77 610.28 1065.1 610.648C1065.45 611.016 1065.95 611.2 1066.59 611.2C1067.31 611.2 1067.91 611 1068.39 610.6L1069.11 612.256C1068.76 612.56 1068.33 612.784 1067.84 612.928C1067.36 613.072 1066.85 613.144 1066.33 613.144ZM1060.13 602.176V600.28H1068.25V602.176H1060.13ZM1071.89 613V600.28H1074.2V613H1071.89ZM1073.05 597.832C1072.6 597.832 1072.22 597.688 1071.92 597.4C1071.63 597.112 1071.49 596.76 1071.49 596.344C1071.49 595.912 1071.63 595.552 1071.92 595.264C1072.22 594.976 1072.6 594.832 1073.05 594.832C1073.49 594.832 1073.86 594.976 1074.15 595.264C1074.45 595.536 1074.61 595.88 1074.61 596.296C1074.61 596.728 1074.46 597.096 1074.17 597.4C1073.89 597.688 1073.51 597.832 1073.05 597.832ZM1078.6 613V595.192H1080.9V613H1078.6ZM1092.09 600.16C1093.13 600.16 1094.05 600.36 1094.83 600.76C1095.63 601.16 1096.25 601.768 1096.7 602.584C1097.15 603.4 1097.37 604.432 1097.37 605.68V613H1095.07V605.944C1095.07 604.712 1094.77 603.784 1094.16 603.16C1093.57 602.536 1092.73 602.224 1091.64 602.224C1090.82 602.224 1090.11 602.384 1089.5 602.704C1088.89 603.024 1088.42 603.496 1088.09 604.12C1087.77 604.744 1087.61 605.52 1087.61 606.448V613H1085.3V595.192H1087.61V603.712L1087.15 602.8C1087.57 601.968 1088.21 601.32 1089.07 600.856C1089.93 600.392 1090.94 600.16 1092.09 600.16ZM1107.3 613.144C1105.94 613.144 1104.74 612.864 1103.7 612.304C1102.68 611.744 1101.88 610.976 1101.3 610C1100.74 609.024 1100.46 607.904 1100.46 606.64C1100.46 605.376 1100.73 604.256 1101.28 603.28C1101.84 602.304 1102.6 601.544 1103.56 601C1104.53 600.44 1105.63 600.16 1106.85 600.16C1108.08 600.16 1109.17 600.432 1110.11 600.976C1111.05 601.52 1111.79 602.288 1112.32 603.28C1112.86 604.256 1113.13 605.4 1113.13 606.712C1113.13 606.808 1113.13 606.92 1113.11 607.048C1113.11 607.176 1113.1 607.296 1113.09 607.408H1102.26V605.752H1111.89L1110.95 606.328C1110.97 605.512 1110.8 604.784 1110.45 604.144C1110.09 603.504 1109.61 603.008 1108.98 602.656C1108.37 602.288 1107.66 602.104 1106.85 602.104C1106.05 602.104 1105.33 602.288 1104.71 602.656C1104.09 603.008 1103.6 603.512 1103.25 604.168C1102.89 604.808 1102.72 605.544 1102.72 606.376V606.76C1102.72 607.608 1102.91 608.368 1103.29 609.04C1103.69 609.696 1104.25 610.208 1104.95 610.576C1105.65 610.944 1106.46 611.128 1107.37 611.128C1108.13 611.128 1108.81 611 1109.41 610.744C1110.04 610.488 1110.58 610.104 1111.05 609.592L1112.32 611.08C1111.74 611.752 1111.02 612.264 1110.16 612.616C1109.31 612.968 1108.36 613.144 1107.3 613.144ZM1116.33 613V600.28H1118.64V613H1116.33ZM1117.48 597.832C1117.04 597.832 1116.66 597.688 1116.36 597.4C1116.07 597.112 1115.92 596.76 1115.92 596.344C1115.92 595.912 1116.07 595.552 1116.36 595.264C1116.66 594.976 1117.04 594.832 1117.48 594.832C1117.93 594.832 1118.3 594.976 1118.59 595.264C1118.89 595.536 1119.04 595.88 1119.04 596.296C1119.04 596.728 1118.9 597.096 1118.61 597.4C1118.32 597.688 1117.95 597.832 1117.48 597.832ZM1123.04 613V600.28H1125.24V603.736L1125.03 602.872C1125.38 601.992 1125.97 601.32 1126.8 600.856C1127.64 600.392 1128.66 600.16 1129.88 600.16V602.392C1129.78 602.376 1129.68 602.368 1129.59 602.368C1129.51 602.368 1129.43 602.368 1129.35 602.368C1128.12 602.368 1127.14 602.736 1126.42 603.472C1125.7 604.208 1125.34 605.272 1125.34 606.664V613H1123.04ZM1138.05 613.144C1136.77 613.144 1135.63 612.864 1134.64 612.304C1133.65 611.744 1132.86 610.976 1132.29 610C1131.71 609.008 1131.42 607.888 1131.42 606.64C1131.42 605.376 1131.71 604.256 1132.29 603.28C1132.86 602.304 1133.65 601.544 1134.64 601C1135.63 600.44 1136.77 600.16 1138.05 600.16C1139.31 600.16 1140.44 600.44 1141.43 601C1142.44 601.544 1143.22 602.304 1143.78 603.28C1144.36 604.24 1144.65 605.36 1144.65 606.64C1144.65 607.904 1144.36 609.024 1143.78 610C1143.22 610.976 1142.44 611.744 1141.43 612.304C1140.44 612.864 1139.31 613.144 1138.05 613.144ZM1138.05 611.128C1138.86 611.128 1139.59 610.944 1140.23 610.576C1140.89 610.208 1141.4 609.688 1141.77 609.016C1142.13 608.328 1142.32 607.536 1142.32 606.64C1142.32 605.728 1142.13 604.944 1141.77 604.288C1141.4 603.616 1140.89 603.096 1140.23 602.728C1139.59 602.36 1138.86 602.176 1138.05 602.176C1137.23 602.176 1136.5 602.36 1135.86 602.728C1135.22 603.096 1134.71 603.616 1134.33 604.288C1133.94 604.944 1133.75 605.728 1133.75 606.64C1133.75 607.536 1133.94 608.328 1134.33 609.016C1134.71 609.688 1135.22 610.208 1135.86 610.576C1136.5 610.944 1137.23 611.128 1138.05 611.128ZM1151.48 613.144C1150.42 613.144 1149.42 613 1148.46 612.712C1147.51 612.424 1146.77 612.072 1146.22 611.656L1147.18 609.832C1147.73 610.2 1148.4 610.512 1149.2 610.768C1150 611.024 1150.82 611.152 1151.65 611.152C1152.72 611.152 1153.49 611 1153.95 610.696C1154.43 610.392 1154.67 609.968 1154.67 609.424C1154.67 609.024 1154.53 608.712 1154.24 608.488C1153.95 608.264 1153.57 608.096 1153.09 607.984C1152.62 607.872 1152.1 607.776 1151.53 607.696C1150.95 607.6 1150.38 607.488 1149.8 607.36C1149.22 607.216 1148.7 607.024 1148.22 606.784C1147.74 606.528 1147.35 606.184 1147.06 605.752C1146.78 605.304 1146.63 604.712 1146.63 603.976C1146.63 603.208 1146.85 602.536 1147.28 601.96C1147.71 601.384 1148.32 600.944 1149.1 600.64C1149.9 600.32 1150.85 600.16 1151.94 600.16C1152.77 600.16 1153.61 600.264 1154.46 600.472C1155.32 600.664 1156.02 600.944 1156.57 601.312L1155.58 603.136C1155.01 602.752 1154.41 602.488 1153.78 602.344C1153.16 602.2 1152.54 602.128 1151.91 602.128C1150.9 602.128 1150.15 602.296 1149.66 602.632C1149.16 602.952 1148.91 603.368 1148.91 603.88C1148.91 604.312 1149.06 604.648 1149.34 604.888C1149.65 605.112 1150.03 605.288 1150.5 605.416C1150.98 605.544 1151.5 605.656 1152.08 605.752C1152.66 605.832 1153.23 605.944 1153.81 606.088C1154.38 606.216 1154.9 606.4 1155.37 606.64C1155.85 606.88 1156.23 607.216 1156.52 607.648C1156.82 608.08 1156.98 608.656 1156.98 609.376C1156.98 610.144 1156.75 610.808 1156.3 611.368C1155.86 611.928 1155.22 612.368 1154.41 612.688C1153.59 612.992 1152.62 613.144 1151.48 613.144Z" fill="#909090"/>
<path d="M1484.1 613.192C1482.81 613.192 1481.62 612.984 1480.53 612.568C1479.44 612.136 1478.5 611.536 1477.7 610.768C1476.9 609.984 1476.27 609.072 1475.82 608.032C1475.38 606.992 1475.15 605.848 1475.15 604.6C1475.15 603.352 1475.38 602.208 1475.82 601.168C1476.27 600.128 1476.9 599.224 1477.7 598.456C1478.51 597.672 1479.46 597.072 1480.55 596.656C1481.64 596.224 1482.84 596.008 1484.15 596.008C1485.48 596.008 1486.7 596.224 1487.8 596.656C1488.9 597.088 1489.84 597.736 1490.61 598.6L1489.12 600.088C1488.43 599.416 1487.68 598.928 1486.86 598.624C1486.06 598.304 1485.19 598.144 1484.25 598.144C1483.29 598.144 1482.39 598.304 1481.56 598.624C1480.74 598.944 1480.03 599.392 1479.42 599.968C1478.83 600.544 1478.37 601.232 1478.03 602.032C1477.71 602.816 1477.55 603.672 1477.55 604.6C1477.55 605.512 1477.71 606.368 1478.03 607.168C1478.37 607.952 1478.83 608.64 1479.42 609.232C1480.03 609.808 1480.74 610.256 1481.56 610.576C1482.38 610.896 1483.26 611.056 1484.22 611.056C1485.12 611.056 1485.98 610.92 1486.79 610.648C1487.62 610.36 1488.39 609.888 1489.1 609.232L1490.46 611.056C1489.63 611.76 1488.66 612.296 1487.54 612.664C1486.43 613.016 1485.29 613.192 1484.1 613.192ZM1488.16 610.744V604.504H1490.46V611.056L1488.16 610.744ZM1500.17 613.144C1498.89 613.144 1497.76 612.864 1496.76 612.304C1495.77 611.744 1494.99 610.976 1494.41 610C1493.84 609.008 1493.55 607.888 1493.55 606.64C1493.55 605.376 1493.84 604.256 1494.41 603.28C1494.99 602.304 1495.77 601.544 1496.76 601C1497.76 600.44 1498.89 600.16 1500.17 600.16C1501.44 600.16 1502.56 600.44 1503.56 601C1504.56 601.544 1505.35 602.304 1505.91 603.28C1506.48 604.24 1506.77 605.36 1506.77 606.64C1506.77 607.904 1506.48 609.024 1505.91 610C1505.35 610.976 1504.56 611.744 1503.56 612.304C1502.56 612.864 1501.44 613.144 1500.17 613.144ZM1500.17 611.128C1500.99 611.128 1501.72 610.944 1502.36 610.576C1503.01 610.208 1503.52 609.688 1503.89 609.016C1504.26 608.328 1504.44 607.536 1504.44 606.64C1504.44 605.728 1504.26 604.944 1503.89 604.288C1503.52 603.616 1503.01 603.096 1502.36 602.728C1501.72 602.36 1500.99 602.176 1500.17 602.176C1499.36 602.176 1498.63 602.36 1497.99 602.728C1497.35 603.096 1496.84 603.616 1496.45 604.288C1496.07 604.944 1495.88 605.728 1495.88 606.64C1495.88 607.536 1496.07 608.328 1496.45 609.016C1496.84 609.688 1497.35 610.208 1497.99 610.576C1498.63 610.944 1499.36 611.128 1500.17 611.128ZM1509.96 613V595.192H1512.26V613H1509.96ZM1520.31 613.144C1519.25 613.144 1518.24 613 1517.28 612.712C1516.34 612.424 1515.6 612.072 1515.05 611.656L1516.01 609.832C1516.56 610.2 1517.23 610.512 1518.03 610.768C1518.83 611.024 1519.64 611.152 1520.48 611.152C1521.55 611.152 1522.32 611 1522.78 610.696C1523.26 610.392 1523.5 609.968 1523.5 609.424C1523.5 609.024 1523.36 608.712 1523.07 608.488C1522.78 608.264 1522.4 608.096 1521.92 607.984C1521.45 607.872 1520.93 607.776 1520.36 607.696C1519.78 607.6 1519.2 607.488 1518.63 607.36C1518.05 607.216 1517.52 607.024 1517.04 606.784C1516.56 606.528 1516.18 606.184 1515.89 605.752C1515.6 605.304 1515.46 604.712 1515.46 603.976C1515.46 603.208 1515.68 602.536 1516.11 601.96C1516.54 601.384 1517.15 600.944 1517.93 600.64C1518.73 600.32 1519.68 600.16 1520.76 600.16C1521.6 600.16 1522.44 600.264 1523.28 600.472C1524.15 600.664 1524.85 600.944 1525.4 601.312L1524.41 603.136C1523.84 602.752 1523.24 602.488 1522.61 602.344C1521.99 602.2 1521.36 602.128 1520.74 602.128C1519.73 602.128 1518.98 602.296 1518.48 602.632C1517.99 602.952 1517.74 603.368 1517.74 603.88C1517.74 604.312 1517.88 604.648 1518.17 604.888C1518.48 605.112 1518.86 605.288 1519.32 605.416C1519.8 605.544 1520.33 605.656 1520.91 605.752C1521.48 605.832 1522.06 605.944 1522.64 606.088C1523.21 606.216 1523.73 606.4 1524.2 606.64C1524.68 606.88 1525.06 607.216 1525.35 607.648C1525.65 608.08 1525.8 608.656 1525.8 609.376C1525.8 610.144 1525.58 610.808 1525.13 611.368C1524.68 611.928 1524.05 612.368 1523.24 612.688C1522.42 612.992 1521.44 613.144 1520.31 613.144ZM1541.87 613.144C1540.82 613.144 1539.85 612.904 1538.97 612.424C1538.11 611.928 1537.41 611.2 1536.88 610.24C1536.37 609.28 1536.11 608.08 1536.11 606.64C1536.11 605.2 1536.36 604 1536.86 603.04C1537.37 602.08 1538.06 601.36 1538.92 600.88C1539.8 600.4 1540.79 600.16 1541.87 600.16C1543.12 600.16 1544.23 600.432 1545.19 600.976C1546.15 601.52 1546.91 602.28 1547.47 603.256C1548.03 604.216 1548.31 605.344 1548.31 606.64C1548.31 607.936 1548.03 609.072 1547.47 610.048C1546.91 611.024 1546.15 611.784 1545.19 612.328C1544.23 612.872 1543.12 613.144 1541.87 613.144ZM1535.13 617.656V600.28H1537.34V603.712L1537.19 606.664L1537.43 609.616V617.656H1535.13ZM1541.68 611.128C1542.5 611.128 1543.23 610.944 1543.87 610.576C1544.52 610.208 1545.03 609.688 1545.4 609.016C1545.79 608.328 1545.98 607.536 1545.98 606.64C1545.98 605.728 1545.79 604.944 1545.4 604.288C1545.03 603.616 1544.52 603.096 1543.87 602.728C1543.23 602.36 1542.5 602.176 1541.68 602.176C1540.88 602.176 1540.15 602.36 1539.5 602.728C1538.86 603.096 1538.35 603.616 1537.96 604.288C1537.59 604.944 1537.41 605.728 1537.41 606.64C1537.41 607.536 1537.59 608.328 1537.96 609.016C1538.35 609.688 1538.86 610.208 1539.5 610.576C1540.15 610.944 1540.88 611.128 1541.68 611.128ZM1551.49 613V600.28H1553.7V603.736L1553.48 602.872C1553.83 601.992 1554.42 601.32 1555.26 600.856C1556.09 600.392 1557.11 600.16 1558.33 600.16V602.392C1558.23 602.376 1558.14 602.368 1558.04 602.368C1557.96 602.368 1557.88 602.368 1557.8 602.368C1556.57 602.368 1555.59 602.736 1554.87 603.472C1554.15 604.208 1553.79 605.272 1553.79 606.664V613H1551.49ZM1566.5 613.144C1565.22 613.144 1564.08 612.864 1563.09 612.304C1562.1 611.744 1561.32 610.976 1560.74 610C1560.16 609.008 1559.88 607.888 1559.88 606.64C1559.88 605.376 1560.16 604.256 1560.74 603.28C1561.32 602.304 1562.1 601.544 1563.09 601C1564.08 600.44 1565.22 600.16 1566.5 600.16C1567.76 600.16 1568.89 600.44 1569.88 601C1570.89 601.544 1571.68 602.304 1572.24 603.28C1572.81 604.24 1573.1 605.36 1573.1 606.64C1573.1 607.904 1572.81 609.024 1572.24 610C1571.68 610.976 1570.89 611.744 1569.88 612.304C1568.89 612.864 1567.76 613.144 1566.5 613.144ZM1566.5 611.128C1567.32 611.128 1568.04 610.944 1568.68 610.576C1569.34 610.208 1569.85 609.688 1570.22 609.016C1570.59 608.328 1570.77 607.536 1570.77 606.64C1570.77 605.728 1570.59 604.944 1570.22 604.288C1569.85 603.616 1569.34 603.096 1568.68 602.728C1568.04 602.36 1567.32 602.176 1566.5 602.176C1565.68 602.176 1564.96 602.36 1564.32 602.728C1563.68 603.096 1563.16 603.616 1562.78 604.288C1562.4 604.944 1562.2 605.728 1562.2 606.64C1562.2 607.536 1562.4 608.328 1562.78 609.016C1563.16 609.688 1563.68 610.208 1564.32 610.576C1564.96 610.944 1565.68 611.128 1566.5 611.128ZM1564.68 598.432L1567.94 595.312H1570.87L1566.84 598.432H1564.68ZM1588.39 613.144C1587.03 613.144 1585.83 612.864 1584.79 612.304C1583.77 611.744 1582.97 610.976 1582.39 610C1581.83 609.024 1581.55 607.904 1581.55 606.64C1581.55 605.376 1581.83 604.256 1582.37 603.28C1582.93 602.304 1583.69 601.544 1584.65 601C1585.63 600.44 1586.72 600.16 1587.94 600.16C1589.17 600.16 1590.26 600.432 1591.2 600.976C1592.15 601.52 1592.88 602.288 1593.41 603.28C1593.95 604.256 1594.23 605.4 1594.23 606.712C1594.23 606.808 1594.22 606.92 1594.2 607.048C1594.2 607.176 1594.19 607.296 1594.18 607.408H1583.35V605.752H1592.98L1592.04 606.328C1592.06 605.512 1591.89 604.784 1591.54 604.144C1591.19 603.504 1590.7 603.008 1590.07 602.656C1589.47 602.288 1588.75 602.104 1587.94 602.104C1587.14 602.104 1586.43 602.288 1585.8 602.656C1585.18 603.008 1584.69 603.512 1584.34 604.168C1583.99 604.808 1583.81 605.544 1583.81 606.376V606.76C1583.81 607.608 1584 608.368 1584.39 609.04C1584.79 609.696 1585.34 610.208 1586.04 610.576C1586.75 610.944 1587.55 611.128 1588.47 611.128C1589.22 611.128 1589.9 611 1590.51 610.744C1591.13 610.488 1591.67 610.104 1592.14 609.592L1593.41 611.08C1592.83 611.752 1592.11 612.264 1591.25 612.616C1590.4 612.968 1589.45 613.144 1588.39 613.144ZM1609.42 613.144C1608.12 613.144 1606.96 612.864 1605.94 612.304C1604.93 611.744 1604.14 610.976 1603.56 610C1602.98 609.024 1602.7 607.904 1602.7 606.64C1602.7 605.376 1602.98 604.256 1603.56 603.28C1604.14 602.304 1604.93 601.544 1605.94 601C1606.96 600.44 1608.12 600.16 1609.42 600.16C1610.57 600.16 1611.59 600.392 1612.49 600.856C1613.4 601.304 1614.1 601.976 1614.6 602.872L1612.85 604C1612.43 603.376 1611.92 602.92 1611.31 602.632C1610.72 602.328 1610.08 602.176 1609.39 602.176C1608.56 602.176 1607.82 602.36 1607.16 602.728C1606.5 603.096 1605.98 603.616 1605.6 604.288C1605.22 604.944 1605.02 605.728 1605.02 606.64C1605.02 607.552 1605.22 608.344 1605.6 609.016C1605.98 609.688 1606.5 610.208 1607.16 610.576C1607.82 610.944 1608.56 611.128 1609.39 611.128C1610.08 611.128 1610.72 610.984 1611.31 610.696C1611.92 610.392 1612.43 609.928 1612.85 609.304L1614.6 610.408C1614.1 611.288 1613.4 611.968 1612.49 612.448C1611.59 612.912 1610.57 613.144 1609.42 613.144ZM1622.84 613.144C1621.56 613.144 1620.43 612.864 1619.43 612.304C1618.44 611.744 1617.66 610.976 1617.08 610C1616.51 609.008 1616.22 607.888 1616.22 606.64C1616.22 605.376 1616.51 604.256 1617.08 603.28C1617.66 602.304 1618.44 601.544 1619.43 601C1620.43 600.44 1621.56 600.16 1622.84 600.16C1624.11 600.16 1625.23 600.44 1626.23 601C1627.23 601.544 1628.02 602.304 1628.58 603.28C1629.15 604.24 1629.44 605.36 1629.44 606.64C1629.44 607.904 1629.15 609.024 1628.58 610C1628.02 610.976 1627.23 611.744 1626.23 612.304C1625.23 612.864 1624.11 613.144 1622.84 613.144ZM1622.84 611.128C1623.66 611.128 1624.39 610.944 1625.03 610.576C1625.68 610.208 1626.19 609.688 1626.56 609.016C1626.93 608.328 1627.11 607.536 1627.11 606.64C1627.11 605.728 1626.93 604.944 1626.56 604.288C1626.19 603.616 1625.68 603.096 1625.03 602.728C1624.39 602.36 1623.66 602.176 1622.84 602.176C1622.03 602.176 1621.3 602.36 1620.66 602.728C1620.02 603.096 1619.51 603.616 1619.12 604.288C1618.74 604.944 1618.55 605.728 1618.55 606.64C1618.55 607.536 1618.74 608.328 1619.12 609.016C1619.51 609.688 1620.02 610.208 1620.66 610.576C1621.3 610.944 1622.03 611.128 1622.84 611.128ZM1639.42 600.16C1640.46 600.16 1641.37 600.36 1642.16 600.76C1642.96 601.16 1643.58 601.768 1644.03 602.584C1644.48 603.4 1644.7 604.432 1644.7 605.68V613H1642.4V605.944C1642.4 604.712 1642.09 603.784 1641.49 603.16C1640.89 602.536 1640.05 602.224 1638.97 602.224C1638.15 602.224 1637.44 602.384 1636.83 602.704C1636.22 603.024 1635.75 603.496 1635.41 604.12C1635.09 604.744 1634.93 605.52 1634.93 606.448V613H1632.63V600.28H1634.84V603.712L1634.48 602.8C1634.89 601.968 1635.53 601.32 1636.4 600.856C1637.26 600.392 1638.27 600.16 1639.42 600.16ZM1653.33 613.144C1652.05 613.144 1651.06 612.8 1650.36 612.112C1649.65 611.424 1649.3 610.44 1649.3 609.16V597.496H1651.61V609.064C1651.61 609.752 1651.77 610.28 1652.11 610.648C1652.46 611.016 1652.96 611.2 1653.6 611.2C1654.32 611.2 1654.92 611 1655.4 610.6L1656.12 612.256C1655.77 612.56 1655.34 612.784 1654.85 612.928C1654.37 613.072 1653.86 613.144 1653.33 613.144ZM1647.14 602.176V600.28H1655.25V602.176H1647.14ZM1658.9 613V600.28H1661.11V603.736L1660.89 602.872C1661.25 601.992 1661.84 601.32 1662.67 600.856C1663.5 600.392 1664.53 600.16 1665.74 600.16V602.392C1665.65 602.376 1665.55 602.368 1665.45 602.368C1665.37 602.368 1665.29 602.368 1665.21 602.368C1663.98 602.368 1663.01 602.736 1662.29 603.472C1661.57 604.208 1661.21 605.272 1661.21 606.664V613H1658.9ZM1675.54 613V610.312L1675.42 609.808V605.224C1675.42 604.248 1675.13 603.496 1674.56 602.968C1674 602.424 1673.15 602.152 1672.01 602.152C1671.26 602.152 1670.52 602.28 1669.8 602.536C1669.08 602.776 1668.48 603.104 1667.98 603.52L1667.02 601.792C1667.68 601.264 1668.46 600.864 1669.37 600.592C1670.3 600.304 1671.27 600.16 1672.28 600.16C1674.02 600.16 1675.36 600.584 1676.31 601.432C1677.25 602.28 1677.72 603.576 1677.72 605.32V613H1675.54ZM1671.36 613.144C1670.42 613.144 1669.59 612.984 1668.87 612.664C1668.16 612.344 1667.62 611.904 1667.24 611.344C1666.85 610.768 1666.66 610.12 1666.66 609.4C1666.66 608.712 1666.82 608.088 1667.14 607.528C1667.48 606.968 1668.01 606.52 1668.75 606.184C1669.5 605.848 1670.51 605.68 1671.77 605.68H1675.8V607.336H1671.87C1670.72 607.336 1669.94 607.528 1669.54 607.912C1669.14 608.296 1668.94 608.76 1668.94 609.304C1668.94 609.928 1669.19 610.432 1669.68 610.816C1670.18 611.184 1670.87 611.368 1671.75 611.368C1672.61 611.368 1673.36 611.176 1674 610.792C1674.66 610.408 1675.13 609.848 1675.42 609.112L1675.88 610.696C1675.57 611.448 1675.04 612.048 1674.27 612.496C1673.5 612.928 1672.53 613.144 1671.36 613.144ZM1695.18 613.144C1694.12 613.144 1693.15 612.904 1692.27 612.424C1691.41 611.928 1690.71 611.2 1690.19 610.24C1689.67 609.28 1689.42 608.08 1689.42 606.64C1689.42 605.2 1689.67 604 1690.16 603.04C1690.67 602.08 1691.36 601.36 1692.23 600.88C1693.11 600.4 1694.09 600.16 1695.18 600.16C1696.43 600.16 1697.53 600.432 1698.49 600.976C1699.45 601.52 1700.21 602.28 1700.77 603.256C1701.33 604.216 1701.61 605.344 1701.61 606.64C1701.61 607.936 1701.33 609.072 1700.77 610.048C1700.21 611.024 1699.45 611.784 1698.49 612.328C1697.53 612.872 1696.43 613.144 1695.18 613.144ZM1688.43 617.656V600.28H1690.64V603.712L1690.5 606.664L1690.74 609.616V617.656H1688.43ZM1694.99 611.128C1695.8 611.128 1696.53 610.944 1697.17 610.576C1697.83 610.208 1698.34 609.688 1698.71 609.016C1699.09 608.328 1699.28 607.536 1699.28 606.64C1699.28 605.728 1699.09 604.944 1698.71 604.288C1698.34 603.616 1697.83 603.096 1697.17 602.728C1696.53 602.36 1695.8 602.176 1694.99 602.176C1694.19 602.176 1693.46 602.36 1692.8 602.728C1692.16 603.096 1691.65 603.616 1691.27 604.288C1690.9 604.944 1690.71 605.728 1690.71 606.64C1690.71 607.536 1690.9 608.328 1691.27 609.016C1691.65 609.688 1692.16 610.208 1692.8 610.576C1693.46 610.944 1694.19 611.128 1694.99 611.128ZM1710.24 613.144C1708.96 613.144 1707.83 612.864 1706.83 612.304C1705.84 611.744 1705.06 610.976 1704.48 610C1703.91 609.008 1703.62 607.888 1703.62 606.64C1703.62 605.376 1703.91 604.256 1704.48 603.28C1705.06 602.304 1705.84 601.544 1706.83 601C1707.83 600.44 1708.96 600.16 1710.24 600.16C1711.51 600.16 1712.63 600.44 1713.63 601C1714.63 601.544 1715.42 602.304 1715.98 603.28C1716.55 604.24 1716.84 605.36 1716.84 606.64C1716.84 607.904 1716.55 609.024 1715.98 610C1715.42 610.976 1714.63 611.744 1713.63 612.304C1712.63 612.864 1711.51 613.144 1710.24 613.144ZM1710.24 611.128C1711.06 611.128 1711.79 610.944 1712.43 610.576C1713.08 610.208 1713.59 609.688 1713.96 609.016C1714.33 608.328 1714.51 607.536 1714.51 606.64C1714.51 605.728 1714.33 604.944 1713.96 604.288C1713.59 603.616 1713.08 603.096 1712.43 602.728C1711.79 602.36 1711.06 602.176 1710.24 602.176C1709.43 602.176 1708.7 602.36 1708.06 602.728C1707.42 603.096 1706.91 603.616 1706.52 604.288C1706.14 604.944 1705.95 605.728 1705.95 606.64C1705.95 607.536 1706.14 608.328 1706.52 609.016C1706.91 609.688 1707.42 610.208 1708.06 610.576C1708.7 610.944 1709.43 611.128 1710.24 611.128ZM1720.03 613V600.28H1722.24V603.736L1722.02 602.872C1722.37 601.992 1722.96 601.32 1723.8 600.856C1724.63 600.392 1725.65 600.16 1726.87 600.16V602.392C1726.77 602.376 1726.68 602.368 1726.58 602.368C1726.5 602.368 1726.42 602.368 1726.34 602.368C1725.11 602.368 1724.13 602.736 1723.41 603.472C1722.69 604.208 1722.33 605.272 1722.33 606.664V613H1720.03ZM1740.68 613.144C1739.4 613.144 1738.41 612.8 1737.71 612.112C1737 611.424 1736.65 610.44 1736.65 609.16V597.496H1738.96V609.064C1738.96 609.752 1739.12 610.28 1739.46 610.648C1739.81 611.016 1740.31 611.2 1740.95 611.2C1741.67 611.2 1742.27 611 1742.75 610.6L1743.47 612.256C1743.12 612.56 1742.69 612.784 1742.2 612.928C1741.72 613.072 1741.21 613.144 1740.68 613.144ZM1734.49 602.176V600.28H1742.6V602.176H1734.49ZM1746.25 613V600.28H1748.56V613H1746.25ZM1747.41 597.832C1746.96 597.832 1746.58 597.688 1746.28 597.4C1745.99 597.112 1745.85 596.76 1745.85 596.344C1745.85 595.912 1745.99 595.552 1746.28 595.264C1746.58 594.976 1746.96 594.832 1747.41 594.832C1747.85 594.832 1748.22 594.976 1748.51 595.264C1748.81 595.536 1748.97 595.88 1748.97 596.296C1748.97 596.728 1748.82 597.096 1748.53 597.4C1748.25 597.688 1747.87 597.832 1747.41 597.832ZM1768.87 600.16C1769.89 600.16 1770.8 600.36 1771.58 600.76C1772.37 601.16 1772.97 601.768 1773.41 602.584C1773.85 603.4 1774.08 604.432 1774.08 605.68V613H1771.77V605.944C1771.77 604.712 1771.49 603.784 1770.91 603.16C1770.33 602.536 1769.53 602.224 1768.49 602.224C1767.72 602.224 1767.05 602.384 1766.47 602.704C1765.89 603.024 1765.45 603.496 1765.13 604.12C1764.82 604.744 1764.67 605.52 1764.67 606.448V613H1762.37V605.944C1762.37 604.712 1762.08 603.784 1761.5 603.16C1760.94 602.536 1760.13 602.224 1759.08 602.224C1758.33 602.224 1757.66 602.384 1757.09 602.704C1756.51 603.024 1756.06 603.496 1755.74 604.12C1755.42 604.744 1755.26 605.52 1755.26 606.448V613H1752.96V600.28H1755.17V603.664L1754.81 602.8C1755.21 601.968 1755.82 601.32 1756.65 600.856C1757.49 600.392 1758.45 600.16 1759.56 600.16C1760.77 600.16 1761.82 600.464 1762.7 601.072C1763.58 601.664 1764.16 602.568 1764.43 603.784L1763.49 603.4C1763.88 602.424 1764.55 601.64 1765.51 601.048C1766.47 600.456 1767.59 600.16 1768.87 600.16ZM1783.98 613.144C1782.62 613.144 1781.42 612.864 1780.38 612.304C1779.36 611.744 1778.56 610.976 1777.98 610C1777.42 609.024 1777.14 607.904 1777.14 606.64C1777.14 605.376 1777.41 604.256 1777.96 603.28C1778.52 602.304 1779.28 601.544 1780.24 601C1781.21 600.44 1782.31 600.16 1783.52 600.16C1784.76 600.16 1785.84 600.432 1786.79 600.976C1787.73 601.52 1788.47 602.288 1789 603.28C1789.54 604.256 1789.81 605.4 1789.81 606.712C1789.81 606.808 1789.8 606.92 1789.79 607.048C1789.79 607.176 1789.78 607.296 1789.76 607.408H1778.94V605.752H1788.56L1787.63 606.328C1787.64 605.512 1787.48 604.784 1787.12 604.144C1786.77 603.504 1786.28 603.008 1785.66 602.656C1785.05 602.288 1784.34 602.104 1783.52 602.104C1782.72 602.104 1782.01 602.288 1781.39 602.656C1780.76 603.008 1780.28 603.512 1779.92 604.168C1779.57 604.808 1779.4 605.544 1779.4 606.376V606.76C1779.4 607.608 1779.59 608.368 1779.97 609.04C1780.37 609.696 1780.92 610.208 1781.63 610.576C1782.33 610.944 1783.14 611.128 1784.05 611.128C1784.8 611.128 1785.48 611 1786.09 610.744C1786.72 610.488 1787.26 610.104 1787.72 609.592L1789 611.08C1788.42 611.752 1787.7 612.264 1786.84 612.616C1785.99 612.968 1785.04 613.144 1783.98 613.144Z" fill="#909090"/>
</g>
<defs>
<linearGradient id="paint0_linear_60_367" x1="134.064" y1="86.888" x2="1150.64" y2="288.442" gradientUnits="userSpaceOnUse">
<stop stop-color="#6C6C6C" stop-opacity="0.4"/>
<stop offset="1" stop-color="#969696" stop-opacity="0.1"/>
</linearGradient>
<linearGradient id="paint1_linear_60_367" x1="1018.15" y1="87.2108" x2="1925.71" y2="454.912" gradientUnits="userSpaceOnUse">
<stop stop-color="#6C6C6C" stop-opacity="0.4"/>
<stop offset="1" stop-color="#969696" stop-opacity="0.1"/>
</linearGradient>
<linearGradient id="paint2_linear_60_367" x1="1018.15" y1="582.233" x2="1514.77" y2="680.441" gradientUnits="userSpaceOnUse">
<stop stop-color="#6C6C6C" stop-opacity="0.4"/>
<stop offset="1" stop-color="#969696" stop-opacity="0.1"/>
</linearGradient>
<linearGradient id="paint3_linear_60_367" x1="1460.19" y1="582.233" x2="1956.81" y2="680.441" gradientUnits="userSpaceOnUse">
<stop stop-color="#6C6C6C" stop-opacity="0.4"/>
<stop offset="1" stop-color="#969696" stop-opacity="0.1"/>
</linearGradient>
<clipPath id="clip0_60_367">
<rect width="1920" height="1080" fill="white"/>
</clipPath>
<clipPath id="clip1_60_367">
<rect width="30" height="30" fill="white" transform="translate(39 208)"/>
</clipPath>
<clipPath id="clip2_60_367">
<rect width="48" height="48" fill="white" transform="translate(26 1010)"/>
</clipPath>
<clipPath id="clip3_60_367">
<rect width="48" height="48" fill="white" transform="translate(26 919)"/>
</clipPath>
</defs>
</svg>
