<svg width="35" height="35" viewBox="0 0 35 35" fill="none" xmlns="http://www.w3.org/2000/svg">
<path d="M28.1177 26.5699C28.2193 26.6715 28.2999 26.7922 28.3549 26.925C28.4099 27.0577 28.4382 27.2 28.4382 27.3437C28.4382 27.4875 28.4099 27.6298 28.3549 27.7625C28.2999 27.8953 28.2193 28.016 28.1177 28.1176C28.0161 28.2192 27.8954 28.2998 27.7627 28.3548C27.6299 28.4098 27.4876 28.4381 27.3439 28.4381C27.2002 28.4381 27.0578 28.4098 26.9251 28.3548C26.7923 28.2998 26.6717 28.2192 26.57 28.1176L17.5001 19.0463L8.4302 28.1176C8.22497 28.3228 7.94661 28.4381 7.65637 28.4381C7.36613 28.4381 7.08777 28.3228 6.88254 28.1176C6.67731 27.9123 6.56201 27.634 6.56201 27.3437C6.56201 27.0535 6.67731 26.7751 6.88254 26.5699L15.9538 17.5L6.88254 8.43008C6.67731 8.22484 6.56201 7.94649 6.56201 7.65625C6.56201 7.36601 6.67731 7.08765 6.88254 6.88242C7.08777 6.67719 7.36613 6.56189 7.65637 6.56189C7.94661 6.56189 8.22497 6.67719 8.4302 6.88242L17.5001 15.9537L26.57 6.88242C26.7753 6.67719 27.0536 6.56189 27.3439 6.56189C27.6341 6.56189 27.9125 6.67719 28.1177 6.88242C28.3229 7.08765 28.4382 7.36601 28.4382 7.65625C28.4382 7.94649 28.3229 8.22484 28.1177 8.43008L19.0464 17.5L28.1177 26.5699Z" fill="white"/>
</svg>
